<svg version="1.1" xmlns="http://www.w3.org/2000/svg" xmlns:xlink="http://www.w3.org/1999/xlink" width="70.50089" height="101.29123" viewBox="0,0,70.50089,101.29123"><g transform="translate(-204.74956,-128.33553)"><g data-paper-data="{&quot;isPaintingLayer&quot;:true}" fill-rule="nonzero" stroke="none" stroke-linecap="butt" stroke-linejoin="miter" stroke-miterlimit="10" stroke-dasharray="" stroke-dashoffset="0" style="mix-blend-mode: normal"><path d="M204.74957,229.50001v-99h70.50089v99z" fill="#986b3d" stroke-width="NaN"/><path d="M207.33925,207.57223v-62.66667h65.97149v62.66667z" fill="#00ffea" stroke-width="0"/><text transform="translate(226.83602,224.83289) scale(0.38351,0.38351)" font-size="40" xml:space="preserve" fill="#000000" fill-rule="nonzero" stroke="none" stroke-width="1" stroke-linecap="butt" stroke-linejoin="miter" stroke-miterlimit="10" stroke-dasharray="" stroke-dashoffset="0" font-family="Sans Serif" font-weight="normal" text-anchor="start" style="mix-blend-mode: normal"><tspan x="0" dy="0">100</tspan></text><text transform="translate(207.7892,141.03492) scale(0.29194,0.29194)" font-size="40" xml:space="preserve" fill="#000000" fill-rule="nonzero" stroke="none" stroke-width="1" stroke-linecap="butt" stroke-linejoin="miter" stroke-miterlimit="10" stroke-dasharray="" stroke-dashoffset="0" font-family="Sans Serif" font-weight="normal" text-anchor="start" style="mix-blend-mode: normal"><tspan x="0" dy="0">Fish Pet Co,</tspan></text><g stroke-width="1"><g><path d="M272.59252,180c0.48007,0.48007 -2.88043,6.00091 -10.62161,7.62115c-0.60009,0.18003 -1.2602,0.30005 -1.9203,0.48007c-0.06001,1.86029 -0.96015,3.90059 -1.74027,5.2808c-2.04031,3.60055 -5.34081,5.34082 -8.28125,7.92121c0.90014,-1.08016 2.04031,-2.10032 2.88044,-3.3005c1.9803,-2.76042 2.34035,-5.9409 3.42052,-8.88135c-2.46037,0.60009 -4.98075,1.08016 -7.20109,0.84013c-1.02015,-0.12002 -2.28035,-0.18003 -2.28035,-0.18003c0,0 -1.08016,4.02061 -1.44021,4.98075c-1.14017,3.00045 -3.12047,5.58085 -5.52084,7.68117c-0.36005,-0.84013 0.36005,-1.86028 0.60009,-2.70041c0.96015,-3.00045 2.10032,-7.08107 1.68025,-10.26156c0,0 -3.00045,-1.68025 -4.68071,-3.3005c-1.68025,-1.62025 -2.52038,-3.18049 -3.3005,-2.94045c-1.80027,0.48007 -3.54054,1.20019 -5.28081,1.86029c-5.04076,1.9803 -9.54145,5.10077 -15.06229,5.2808c1.20018,-2.04031 4.26065,-3.3005 6.24095,-4.44067c2.46037,-1.44022 5.52084,-2.22034 7.8612,-3.90059c4.32065,-3.12047 -7.2611,-5.40082 -8.64131,-5.58085c-2.88044,-0.36005 -5.8809,-1.80027 -8.46129,-3.3005c-0.84013,-0.48007 -3.48053,-1.02016 -3.48053,-1.02016c0,0 6.78103,0.12002 7.62116,0.42007c3.18049,0.72011 6.48099,1.80027 9.66147,2.46037c4.5607,0.90014 9.96151,-0.30005 9.96151,-0.30005c1.3202,-2.04031 6.00092,-3.9606 6.00092,-3.9606c-1.38021,-3.54054 -3.66056,-5.46082 -7.62116,-7.98121c-1.62025,-1.08016 -8.88135,-4.6207 -8.88135,-4.6207c1.56024,-0.96015 3.48053,-0.78012 5.10077,-0.72011c1.56024,0.06001 3.78057,0.96015 5.22079,1.56024c2.58039,1.14017 5.46083,3.06046 7.62116,4.80073c1.02015,0.84013 1.86028,1.74027 2.70041,2.76042c0.48007,0.6601 1.9803,2.58039 1.9803,2.58039l5.9409,0.72011c0,0 -5.88089,-6.78103 -11.28171,-10.68162c1.80027,-1.02015 6.06092,1.3202 7.68117,2.28035c2.22034,1.3202 3.90059,3.2405 5.58084,5.16079c0.78012,0.84013 2.5804,2.88043 2.5804,2.88043c0,0 3.36051,0.90014 4.68071,1.50023c2.04031,0.90014 3.90059,2.40036 5.88089,3.48053c1.38021,0.72011 3.00045,1.56023 3.78057,3.00045c0.48007,0.90014 0.78011,1.02015 0.24003,1.74026c-0.60009,0.6601 -2.22033,0.96015 -4.02061,3.48053c0.84013,-0.48007 4.32065,-3.18049 4.80073,-2.70041z" fill="#f7e37c"/><path d="M243.66813,171.17866c0,0 0,0.06001 -0.06001,0.12002c-0.72011,0.96015 -7.50114,1.92029 -7.38112,1.86028c1.92029,-1.38021 4.50068,-2.46037 4.50068,-2.46037c-0.12002,-0.24004 -0.18003,-0.48007 -0.30005,-0.72011c-1.56024,0.96015 -3.12047,1.74026 -4.86074,2.22034c0,-0.12002 -0.06001,-0.30004 -0.12002,-0.42006c0.90014,-0.18003 1.80027,-0.48007 2.6404,-0.90014c0.72011,-0.42006 1.44022,-0.84013 2.16033,-1.3202c-0.18003,-0.30005 -0.30005,-0.54008 -0.48007,-0.84013c-1.56024,0.78012 -3.06046,1.62025 -4.68071,2.16033c-0.06001,-0.18003 -0.12001,-0.30005 -0.18003,-0.48007c1.56024,-0.54008 3.06046,-1.32019 4.56069,-2.10031c-0.24004,-0.36005 -0.48007,-0.72011 -0.78012,-1.08016c-0.42006,0.18003 -0.78012,0.30004 -1.02015,0.42006c-1.14017,0.48007 -2.28034,0.90014 -3.42052,1.26019c-0.12002,-0.18003 -0.18003,-0.30005 -0.24004,-0.48007c1.02015,-0.30005 2.10032,-0.66009 3.12047,-1.14017c0.24004,-0.12002 0.6601,-0.30005 1.08016,-0.48008c-0.18003,-0.18003 -0.36006,-0.36005 -0.54008,-0.54008c-1.50023,0.24004 -3.00045,0.36005 -4.50068,0.60009c-0.12002,-0.18003 -0.18002,-0.36005 -0.30004,-0.48007c1.44022,-0.24004 2.88043,-0.36005 4.32065,-0.60009c-0.30005,-0.30005 -0.60009,-0.54008 -0.96015,-0.84013c-1.44022,0.24004 -2.88044,0.36006 -4.32066,0.30005c-0.12002,-0.18003 -0.30004,-0.36006 -0.42006,-0.54009c1.38021,0.06001 2.76041,0 4.14063,-0.18003c-0.48007,-0.42006 -1.08017,-0.78012 -1.68026,-1.20019c-1.14017,0 -2.34035,0.00001 -3.54053,-0.12001c-0.18003,-0.18003 -0.30005,-0.36006 -0.42007,-0.54009c0,-0.06001 0.06001,-0.06001 0.12002,-0.06001c1.02015,0.12002 1.9803,0.12002 3.00045,0.12002c-0.06001,0 -0.06001,-0.06001 -0.12002,-0.06001c-0.30005,-0.12002 -0.72011,-0.36005 -1.20018,-0.6601c-0.84013,-0.06001 -1.68025,-0.12001 -2.52038,-0.18003c-0.12002,-0.18003 -0.30005,-0.36006 -0.48007,-0.54009c0.6601,0 1.26019,0.06001 1.86028,0.12002c-1.14017,-0.60009 -5.34081,-3.24049 -5.46083,-3.3005c-0.06001,-0.06001 2.70041,-0.78012 2.70041,-0.78012c1.68025,0 3.18048,0.42006 4.68071,1.08016c0.84013,0.36005 7.98121,5.2808 10.14154,10.32157c0.48007,1.02015 0.96015,2.10032 0.96015,2.46037z" fill="#f7e37c"/><path d="M243.90816,182.6404c2.16033,5.04076 0.54008,11.28171 0.24003,12.06184c-0.60009,1.50023 -4.6207,7.98121 -4.6207,7.98121c0,-0.12002 1.02016,-4.98076 1.38021,-6.18094c-0.36005,0.48007 -0.78012,0.96014 -1.14017,1.44022c0,-0.24004 -0.06001,-0.48007 -0.06001,-0.72011c0.54008,-0.6601 1.08017,-1.3202 1.62025,-1.9803c0.18003,-0.54008 0.24004,-1.02015 0.30005,-1.3202c0,-0.06001 0,-0.06001 0,-0.12002c-0.6601,0.72011 -1.3202,1.44022 -1.9803,2.22034c-0.06001,0.06001 -0.06001,0.06 -0.12002,0.06c-0.06001,-0.24004 -0.06001,-0.42006 -0.12002,-0.6601c0.72011,-0.90014 1.56024,-1.80027 2.40036,-2.6404c0.12002,-0.72011 0.24004,-1.38021 0.30005,-2.04031c-1.08016,0.84013 -2.10032,1.80028 -3.00046,2.88044c-0.06001,-0.24004 -0.06,-0.48007 -0.12001,-0.72011c0.96015,-1.08016 2.0403,-2.04031 3.18048,-2.88044c0.06001,-0.42006 0.06001,-0.84013 0.06001,-1.26019c-1.20018,0.84013 -2.28034,1.86029 -3.42052,2.76042c-0.06001,-0.18003 -0.06001,-0.36005 -0.12002,-0.54008c1.20018,-0.96015 2.34036,-1.9203 3.54054,-2.82043c0,-0.24004 0,-0.54008 0,-0.78012c-0.42006,0.18003 -0.84013,0.36005 -1.08016,0.48007c-1.08016,0.42006 -2.04031,0.90014 -3.00045,1.50023c-0.06001,-0.18003 -0.12001,-0.30005 -0.18003,-0.48007c1.02015,-0.60009 2.10032,-1.14017 3.3005,-1.56024c0.24004,-0.12002 0.60009,-0.24004 1.02015,-0.42006c-0.06001,-0.42006 -0.12002,-0.90014 -0.24004,-1.3202c-1.62025,0.54008 -3.18048,1.08016 -4.68071,1.86028c-0.06001,-0.18003 -0.12001,-0.30005 -0.24004,-0.48007c1.56024,-0.78012 3.18049,-1.3202 4.80073,-1.86028c-0.06001,-0.30005 -0.18003,-0.60009 -0.30005,-0.96015c-0.84013,0.18003 -1.62025,0.36005 -2.46037,0.6601c-0.90014,0.30005 -1.74026,0.78012 -2.52039,1.26019c-0.06001,-0.12002 -0.12001,-0.24004 -0.18003,-0.36006c1.56024,-0.96015 3.18048,-1.50023 4.98076,-1.9803c-0.12002,-0.24004 -0.18003,-0.48007 -0.30005,-0.72011c0,0 -2.58039,1.14018 -4.86074,1.56024c-0.12002,0.06001 5.2808,-4.20064 6.42098,-4.08062c0.06001,0 0.12001,-0.00001 0.18003,0.06c0.18003,-0.06001 0.6601,1.02016 1.02016,2.10032z" fill="#f7e37c"/><path d="M259.03046,184.50069c0.36005,1.20018 0.78012,2.40036 1.14017,3.60054c0,0.06001 -0.06001,0.06001 -0.12002,0.06001c-0.06001,1.86029 -0.96015,3.90059 -1.74027,5.2808c-2.04031,3.60055 -5.34081,5.34082 -8.28125,7.92121c0.90014,-1.08016 2.04031,-2.10032 2.88044,-3.3005c0.18003,-0.24004 0.30005,-0.54009 0.48007,-0.78012c1.92029,-2.22034 3.30051,-4.44067 3.84059,-7.08107c0.12002,-0.54008 0.18002,-0.60009 0.12001,-1.02015c-0.06001,-0.48007 -0.30004,-0.96015 -0.42006,-1.38021c-0.48007,-1.56024 -0.96014,-3.12047 -1.38021,-4.68071c-0.90014,-3.42052 -1.20018,-6.84104 -1.3202,-10.38158c0,-0.78012 -0.06,-1.50023 -0.06,-2.22034c0,-0.18003 0.12002,0.12002 -0.30005,-0.72011c-1.9803,-3.90059 -8.88135,-10.62161 -12.42189,-10.68162c1.80027,-1.02015 6.06092,1.3202 7.68117,2.28035c2.22034,1.3202 3.90059,3.2405 5.58085,5.16079c0.48007,0.60009 1.44022,1.68025 2.04031,2.34035c0,0.06001 0.06001,0.12001 0.06001,0.18003c0.48007,1.14017 0.24004,2.76043 0.30005,3.96061c0.18003,3.9606 0.72011,7.62115 1.92029,11.46174z" fill="#3e3d44"/><path d="M229.98605,178.79982c0.06001,0 0.12002,0 0.18003,0c0.96015,0 0.96015,1.50023 0,1.50023c-0.06001,0 -0.12002,0 -0.18003,0c-0.96015,0 -0.96015,-1.50023 0,-1.50023z" fill="#ffffff"/><path d="M233.6466,179.09987c0.96015,0 0.96015,1.50023 0,1.50023c-0.96015,0 -0.96015,-1.44021 0,-1.50023z" fill="#ffffff"/><path d="M244.8083,187.62116c0.36005,1.44022 0.60009,2.16033 0.30005,3.66056c-0.60009,2.82043 -1.3202,5.64086 -2.40036,8.28126c-0.84013,1.02015 -1.74026,1.9803 -2.76042,2.88044c-0.36005,-0.84013 0.36005,-1.86028 0.60009,-2.70041c0.84013,-2.76042 1.92029,-6.48099 1.74026,-9.54145c0,-0.06001 0.06001,-0.12002 0.06001,-0.12002c0,-0.06001 -0.06001,-0.12001 -0.06001,-0.24003c-0.06001,0 -0.06001,-0.06001 -0.06001,-0.12002c0,-0.06001 0,-0.18003 0,-0.24004h-0.06001c-0.24004,-0.96015 -0.48007,-1.86028 -0.6601,-2.82043c-0.96015,-4.98075 -1.26019,-10.68162 0.54008,-15.54236c-2.94045,-5.9409 -10.62161,-12.54191 -17.7627,-13.142c1.50023,-0.84013 3.36051,-0.6601 4.92075,-0.60009c0.36005,0 0.84013,0.06 1.26019,0.18003c2.34035,0.60009 4.6207,1.68025 6.66101,3.12047c1.80027,1.26019 3.42052,2.70041 4.80073,4.50069c0.78012,1.02015 1.44022,2.10031 2.04031,3.24049c0.42006,0.90014 1.20018,2.04031 1.02016,3.06046c-0.12002,0.84013 -0.54009,1.68026 -0.72011,2.52039c-0.54008,2.22034 -0.6601,4.50069 -0.60009,6.78103c0.12002,2.28035 0.48007,4.56069 1.14017,6.84103z" fill="#3e3d44"/><path d="M216.24396,189.78149c0.06001,-0.24004 0.12001,-0.42006 0.18003,-0.60009v0c0.24004,-0.6601 0.60009,-1.20019 1.08017,-1.74027v0c0.24004,-0.24004 0.48007,-0.48007 0.72011,-0.72011c0.18003,-0.06001 0.36006,-0.12002 0.60009,-0.12002c0.48007,-0.24004 0.90014,-0.48007 1.3202,-0.7201c0.60009,-0.30005 1.20019,-0.6001 1.80027,-0.90014c-0.60009,0.06001 -1.20019,0.12002 -1.80027,0.12002c0.18003,-0.18003 0.36006,-0.36005 0.54008,-0.54008c0.96015,-0.06001 1.9803,-0.12002 2.94045,-0.30005c1.20018,-0.48007 2.46037,-1.02016 3.54054,-1.68026c-1.86029,0.30005 -3.66055,0.48007 -5.52084,0.6001c0.06001,-0.18003 0.12001,-0.36006 0.18003,-0.54009c2.16033,-0.12002 4.26064,-0.36006 6.36096,-0.72011c0.42006,-0.36005 0.6601,-0.72011 0.72011,-1.08016c-2.40036,0.48007 -4.80072,0.60009 -7.20109,0.18003c-0.06001,-0.24004 -0.12002,-0.42006 -0.24004,-0.60009c2.46037,0.48007 4.92074,0.36006 7.38112,-0.12002c-0.12002,-0.36005 -0.48007,-0.72011 -0.96014,-1.08017c-2.28035,0.24004 -4.50069,0.48007 -6.78103,0.6601c-0.12002,-0.12002 -0.30004,-0.30004 -0.42006,-0.48007c2.10032,-0.18003 4.26065,-0.36005 6.36097,-0.60009c-0.60009,-0.30005 -1.3202,-0.6001 -2.04031,-0.84013c-0.30005,0.06001 -0.6601,0.12001 -1.02015,0.18003c-1.44022,0.18003 -2.88044,0.24004 -4.32066,0.24004c-0.24004,-0.18003 -0.48007,-0.36006 -0.72011,-0.54008c1.68025,0.06001 3.36051,0 4.98076,-0.24004c-0.96015,-0.30005 -1.92029,-0.54009 -2.76042,-0.72011c-0.36005,0.06001 -0.78012,0.12002 -1.14017,0.18003c-0.6601,0.06001 -1.3202,0.12002 -1.9803,0.12002c-0.24004,-0.18003 -0.54008,-0.30005 -0.78011,-0.48007c0.6601,0 2.10032,-0.18003 2.04031,-0.18003c-0.96015,-0.12002 -1.9203,-0.36005 -2.88044,-0.6601c-0.30005,0 -0.54008,-0.06001 -0.84013,-0.06001c-0.36005,-0.18003 -0.78012,-0.42006 -1.20018,-0.60009c0.12002,0 -1.3202,-0.78012 -2.16033,-1.20018l4.80073,0.84013l4.50068,0.78012c0,0 13.02198,1.26019 13.02198,4.26064c0,3.06046 -15.90242,9.96152 -18.30278,9.90151z" fill="#f7e37c"/><path d="M228.90588,185.2208c-0.78012,0.30005 -1.56023,0.60009 -2.34035,0.96014c-0.54008,0.18003 -1.02015,0.30005 -1.3202,0.48007c-1.62025,0.78012 -3.24049,1.56024 -4.86074,2.28035c-2.10032,0.84013 -4.26065,1.44021 -6.60101,1.50023c0.30005,-0.42006 0.60009,-0.84013 1.02016,-1.20018c3.78057,-1.38021 6.90105,-3.60054 10.86165,-5.46083c3.00045,-1.38021 6.18094,-2.40036 9.06137,-0.36005c-0.18003,-0.12002 -0.42006,-0.18003 -0.60009,-0.12002c-1.80027,0.48007 -3.54054,1.20019 -5.2208,1.9203z" fill="#3e3d44"/><path d="M224.82526,176.57948c-6.24095,-0.78012 -11.2217,-3.84059 -17.46265,-4.44067c0,0 6.78103,0.12002 7.62116,0.30005c3.18049,0.72011 6.48099,1.80027 9.66147,2.46037c3.84059,0.72011 8.52129,0 9.9015,-0.24004c-0.48007,1.3202 -1.50023,1.92029 -3.06046,2.04031c-2.16033,0.18003 -4.5607,0.12001 -6.66102,-0.12002z" fill="#3e3d44"/></g><g fill="#ffffff"><path d="M246.18094,173.15896c0.96015,0 0.96015,1.50023 0,1.50023c-0.96015,0 -0.96015,-1.50023 0,-1.50023z"/><path d="M248.5213,171.35869c0.96015,0 0.96015,1.50023 0,1.50023c-0.96015,0 -0.96015,-1.50023 0,-1.50023z"/><path d="M249.54145,174.29914c0.96015,0 0.96015,1.50023 0,1.50023c-0.96015,0 -0.96015,-1.44021 0,-1.50023z"/><path d="M248.34127,180c0.96015,0 0.96015,1.50023 0,1.50023c-0.96015,0 -0.96015,-1.44022 0,-1.50023z"/><path d="M246.541,176.87953c0.96015,0 0.96015,1.50023 0,1.50023c-0.96015,0 -0.96015,-1.44022 0,-1.50023z"/><path d="M246.18094,183.18049c0.96015,0 0.96015,1.50023 0,1.50023c-0.96015,0 -0.96015,-1.50023 0,-1.50023z"/><path d="M249.72148,185.52084c0.96015,0 0.96015,1.50023 0,1.50023c-0.96015,0 -0.96015,-1.44021 0,-1.50023z"/><path d="M252.36188,180.78012c0.96015,0 0.96015,1.50023 0,1.50023c-0.96015,0 -0.96015,-1.44021 0,-1.50023z"/><path d="M252.36188,177.3596c0.96015,0 0.96015,1.50023 0,1.50023c-0.96015,0 -0.96015,-1.50023 0,-1.50023z"/><path d="M253.32203,185.52084c0.96015,0 0.96015,1.50023 0,1.50023c-0.96015,0 -0.96015,-1.44021 0,-1.50023z"/><path d="M262.20337,183.18049c0.96015,0 0.96015,1.50023 0,1.50023c-0.96015,0 -0.96015,-1.50023 0,-1.50023z"/><path d="M236.6995,178.25974c0.96015,0 0.96015,1.50023 0,1.50023c-0.90014,0 -0.90014,-1.50023 0,-1.50023z"/><path d="M239.45992,185.04077c0.96015,0 0.96015,1.50023 0,1.50023c-0.96015,0 -0.96015,-1.50023 0,-1.50023z"/><path d="M240.72011,189.12139c0.96015,0 0.96015,1.50023 0,1.50023c-0.96015,0 -0.96015,-1.44022 0,-1.50023z"/><path d="M240.72011,191.58176c0.96015,0 0.96015,1.50023 0,1.50023c-0.96015,0 -0.96015,-1.50023 0,-1.50023z"/><path d="M236.6995,175.07926c0.96015,0 0.96015,1.50023 0,1.50023c-0.90014,0 -0.90014,-1.50023 0,-1.50023z"/><path d="M238.07971,182.16033c0.96015,0 0.96015,1.50023 0,1.50023c-0.90014,0 -0.90014,-1.44021 0,-1.50023z"/><path d="M239.87998,173.15896c0.96015,0 0.96015,1.50023 0,1.50023c-0.96015,0 -0.96015,-1.50023 0,-1.50023z"/><path d="M238.25974,168.53826c0.96015,0 0.96015,1.50023 0,1.50023c-0.96015,0 -0.96015,-1.44021 0,-1.50023z"/><path d="M236.15942,165.05773c0.96015,0 0.96015,1.50023 0,1.50023c-0.96015,0 -0.96015,-1.50023 0,-1.50023z"/><path d="M239.45992,178.07971c0.96015,0 0.96015,1.50023 0,1.50023c-0.96015,0 -0.96015,-1.50023 0,-1.50023z"/></g><g><path d="M259.44296,174.17912c1.26019,-1.3202 3.24049,-1.20018 4.74072,-0.48007c0.36005,0.18003 0.06,0.7201 -0.30005,0.54008c-1.26019,-0.60009 -3.00045,-0.72011 -4.02061,0.36005c-0.24003,0.24004 -0.6601,-0.18003 -0.42006,-0.42006z" fill="#030000"/><g><path d="M260.10306,179.03986c-0.6601,-2.70041 1.9803,-4.02061 3.72057,-3.42052c2.28035,0.72011 1.92029,3.54054 0.24003,4.6207c-2.04031,1.3202 -3.78057,-0.54008 -3.9606,-1.20018z" fill="#ffffff"/><path d="M264.60373,179.39991c-0.78012,0.60009 -1.50023,0.30004 -2.04031,-0.12002c0.48007,-0.36005 0.54008,-1.14017 -0.12002,-1.38021c-0.18003,-0.06001 -0.42007,-0.06001 -0.60009,0c-0.12002,-1.44022 0.90014,-2.52038 2.46037,-2.04031c1.38021,0.42006 1.3202,2.76042 0.30004,3.54054z" fill="#3f669e"/><path d="M263.22353,178.07971c-0.30005,-1.38021 0.90014,-2.10032 1.62025,-1.80027c1.02015,0.36005 0.84013,1.86029 0.12002,2.40036c-0.90013,0.72011 -1.68026,-0.24004 -1.74027,-0.60009z" fill="#030000"/><path d="M263.22353,180.84013c-1.3202,0.36005 -3.00045,-0.48007 -3.42052,-1.80027c-0.30005,-1.56024 0.30005,-3.06046 1.86028,-3.66055c1.38021,-0.54008 3.24049,-0.18003 3.84058,1.3202c0.72011,1.68025 -0.54008,3.78057 -2.28035,4.14063zM264.84378,176.75951c-0.6601,-1.08016 -2.16033,-1.14017 -3.18048,-0.6601c-1.14017,0.54008 -1.56023,1.68026 -1.3202,2.88044c0.36005,1.02015 1.74026,1.62024 2.70041,1.38021c1.44022,-0.36005 2.5804,-2.28034 1.80027,-3.60054z" fill="#030000"/></g></g></g></g></g></svg>