<svg version="1.1" xmlns="http://www.w3.org/2000/svg" xmlns:xlink="http://www.w3.org/1999/xlink" width="73.45883" height="88.26126" viewBox="0,0,73.45883,88.26126"><defs><radialGradient cx="240.00004" cy="166.5" r="27.59091" gradientUnits="userSpaceOnUse" id="color-1"><stop offset="0" stop-color="#fff800"/><stop offset="1" stop-color="#d8d100"/></radialGradient></defs><g transform="translate(-203.2706,-135.86937)"><g data-paper-data="{&quot;isPaintingLayer&quot;:true}" fill-rule="nonzero" stroke="none" stroke-linecap="butt" stroke-linejoin="miter" stroke-miterlimit="10" stroke-dasharray="" stroke-dashoffset="0" style="mix-blend-mode: normal"><path d="M203.27061,220.77467c0,-9.68321 0,-84.9053 0,-84.9053h73.45883c0,0 0,76.11041 0,85.18227c0,1.72475 -1.51954,3.07899 -3.35447,3.07899c-7.31303,0 -55.1569,0 -67.30383,0c-1.78622,0 -2.80053,-1.34969 -2.80053,-3.35596z" fill-opacity="0.59677" fill="#76532f" stroke-width="NaN"/><path d="M212.40913,166.5c0,-15.23804 12.35287,-27.59091 27.59091,-27.59091c15.23804,0 27.59091,12.35287 27.59091,27.59091c0,15.23804 -12.35287,27.59091 -27.59091,27.59091c-15.23804,0 -27.59091,-12.35287 -27.59091,-27.59091z" fill="url(#color-1)" stroke-width="0"/><text transform="translate(234.12001,171.92772) scale(0.45231,0.45231)" font-size="40" xml:space="preserve" fill="#000000" fill-rule="nonzero" stroke="none" stroke-width="1" stroke-linecap="butt" stroke-linejoin="miter" stroke-miterlimit="10" stroke-dasharray="" stroke-dashoffset="0" font-family="&quot;ヒラギノ角ゴ Pro W3&quot;, &quot;Hiragino Kaku Gothic Pro&quot;, Osaka, &quot;メイリオ&quot;, Meiryo, &quot;ＭＳ Ｐゴシック&quot;, &quot;MS PGothic&quot;" font-weight="normal" text-anchor="start" style="mix-blend-mode: normal"><tspan x="0" dy="0">$</tspan></text></g></g></svg>