<svg version="1.1" xmlns="http://www.w3.org/2000/svg" xmlns:xlink="http://www.w3.org/1999/xlink" width="70.50089" height="101.24209" viewBox="0,0,70.50089,101.24209"><g transform="translate(-204.74956,-128.33554)"><g data-paper-data="{&quot;isPaintingLayer&quot;:true}" fill-rule="nonzero" stroke="none" stroke-linecap="butt" stroke-linejoin="miter" stroke-miterlimit="10" stroke-dasharray="" stroke-dashoffset="0" style="mix-blend-mode: normal"><path d="M204.74956,229.5v-99h70.50089v99z" fill="#986b3d" stroke-width="NaN"/><path d="M207.33924,207.57222v-62.66667h65.97149v62.66667z" fill="#00ffea" stroke-width="0"/><text transform="translate(207.78919,141.03493) scale(0.29194,0.29194)" font-size="40" xml:space="preserve" fill="#000000" fill-rule="nonzero" stroke="none" stroke-width="1" stroke-linecap="butt" stroke-linejoin="miter" stroke-miterlimit="10" stroke-dasharray="" stroke-dashoffset="0" font-family="Sans Serif" font-weight="normal" text-anchor="start" style="mix-blend-mode: normal"><tspan x="0" dy="0">Fish Pet Co,</tspan></text><g stroke-width="1"><g><g><path d="M238.17601,186.43911c3.88523,2.25764 8.45301,3.20269 12.70577,4.14775c-1.89011,2.73016 -6.72041,3.20269 -9.76559,3.51771c-4.9878,0.52503 -10.71065,-1.05006 -14.17585,-4.62028c-1.05006,-1.05006 -3.04518,-3.41271 -1.94262,-5.09281c0.78755,-1.15507 3.15019,-0.84005 4.14775,-1.41759z" fill="#86d0fd"/><path d="M229.14547,182.9739l7.29794,2.78267c0,0 3.3602,1.52259 3.83273,1.7326c0,0 0.78755,0.36752 1.20757,0.52503h0.0525c1.7326,0.68254 3.51771,1.20757 5.30282,1.6276v0c1.36508,0.36752 2.73016,0.63004 4.09525,0.94506c-0.10501,0.15751 -0.78755,0.89255 -0.78755,0.89255c-1.26008,0.0525 -2.62516,0.10501 -3.93774,0.0525c-0.31502,0.31502 -1.6276,1.7326 -1.99512,2.15263c-0.36752,0.0525 -0.78755,0.10501 -1.15507,0.15751c0.78755,-0.73504 1.57509,-1.6276 2.20513,-2.36264c-0.42003,-0.0525 -0.89255,-0.0525 -1.31258,-0.10501c-0.89255,-0.10501 -1.94262,-0.15751 -3.04518,-0.26252c-0.0525,0.0525 -2.31014,2.15263 -3.51771,2.94018c-0.42003,-0.0525 -0.84005,-0.10501 -1.20757,-0.15751c0.94506,-0.52503 1.78511,-1.31258 2.57266,-1.94262c0.42003,-0.31502 0.78755,-0.63004 1.15507,-0.94506c-1.15507,-0.15751 -2.25764,-0.42003 -3.09769,-0.89255c-0.0525,0 -0.0525,0 -0.0525,0c-0.0525,0.0525 -2.62516,2.04762 -4.09525,2.88767c-0.36752,-0.10501 -0.68254,-0.21001 -0.99756,-0.36752c0.63004,-0.36752 1.20757,-0.78755 1.78511,-1.15507c0.84005,-0.57753 1.6801,-1.15507 2.52015,-1.7326c-1.10257,-0.63004 -2.10013,-1.15507 -3.09769,-1.6801c-0.47253,0.31502 -0.94506,0.57753 -1.47009,0.89255c-0.99756,0.57753 -2.04762,1.20757 -3.15019,1.6276c-0.21001,-0.15751 -0.42003,-0.31502 -0.63004,-0.52503c1.57509,-0.47253 3.09769,-1.47009 4.41027,-2.31014c0.0525,0 0.0525,-0.0525 0.10501,-0.0525c-0.94506,-0.52503 -1.89011,-1.05006 -2.94018,-1.6801c-0.10501,0.0525 -2.62516,1.15507 -3.83273,1.47009c-0.15751,-0.21001 -0.26252,-0.47253 -0.36752,-0.68254c1.15507,-0.26252 2.31014,-0.73504 3.41271,-1.26008c-0.10501,-0.10501 -1.6276,-1.31258 -2.25764,-1.89011c0.10501,-0.0525 0.26252,-0.0525 0.36752,-0.10501c0,0 2.52015,-0.52503 2.62516,-0.57753z" fill="#194ec2" opacity="0.2"/></g><g><path d="M224.78771,175.20343c-3.20269,0.73504 0.15751,-4.56778 0.57753,-5.40783c1.10257,-2.20513 2.15263,-5.09281 4.09525,-6.6679c2.20513,-1.78511 5.56534,-2.41515 8.243,-3.04518c3.67522,-0.94506 7.98048,-1.6276 11.81321,-1.15507c2.31014,0.26252 4.77779,0.94506 6.93042,1.83761c0.84005,0.36752 5.0403,2.99268 4.83029,4.30526c-0.21001,1.41759 -4.62028,0.0525 -5.40783,0.10501c-4.09525,0.26252 -8.40051,0.31502 -12.28574,1.78511c-3.2552,1.26008 -5.77535,3.46521 -8.66302,5.35532c-1.99512,1.26008 -3.88523,2.04762 -6.03786,2.94018h-4.09525z" fill="#d8d213"/><g fill="#194ec2" opacity="0.2"><path d="M261.27741,164.8078c0,0.10501 0,0.15751 0.10501,0.36752c-0.21001,1.41759 -4.62028,0.0525 -5.40783,0.10501c-4.09525,0.26252 -8.40051,0.31502 -12.28574,1.78511c-3.2552,1.26008 -5.77535,3.51771 -8.66302,5.35532c-1.99512,1.31258 -3.88523,2.04762 -6.03786,2.94018h-4.14775c-0.10501,0 -0.21001,0.0525 -0.31502,0.0525v0c-0.10501,0 -0.21001,0 -0.26252,0c0.63004,-0.36752 1.26008,-0.78755 1.7326,-1.15507c0.94506,-0.68254 1.7326,-1.57509 2.52015,-2.52015c-1.10257,-0.52503 -2.31014,-0.89255 -3.46521,-1.15507c0.15751,-0.31502 0.31502,-0.57753 0.36752,-0.68254c1.20757,0.31502 2.41515,0.68254 3.57022,1.20757c0.42003,-0.57753 0.84005,-1.10257 1.31258,-1.6276c0.31502,-0.36752 0.63004,-0.73504 0.99756,-1.05006c-0.99756,-0.73504 -1.94262,-1.36508 -2.99268,-1.99512c-0.31502,-0.15751 -0.68254,-0.36752 -0.99756,-0.52503c0.10501,-0.21001 0.26252,-0.42003 0.36752,-0.63004c0.36752,0.15751 0.68254,0.31502 0.99756,0.52503c1.10257,0.63004 2.10013,1.36508 3.15019,2.10013c0.57753,-0.47253 1.20757,-0.94506 1.83761,-1.36508c-0.63004,-0.84005 -1.26008,-1.6276 -1.94262,-2.41515c-0.42003,-0.52503 -0.89255,-1.05006 -1.36508,-1.57509c0.21001,-0.15751 0.42003,-0.26252 0.63004,-0.36752c0.31502,0.36752 0.57753,0.73504 0.89255,1.05006c0.84005,0.94506 1.6276,1.89011 2.36264,2.88767c0.36752,-0.21001 0.78755,-0.42003 1.15507,-0.63004c0.63004,-0.26252 1.26008,-0.57753 1.89011,-0.89255c-0.73504,-1.31258 -1.52259,-2.62516 -2.46765,-3.78023v0c0.26252,-0.10501 0.52503,-0.15751 0.78755,-0.21001c0.0525,0.15751 0.15751,0.26252 0.26252,0.36752c0.78755,1.05006 1.47009,2.15263 2.10013,3.3077c1.15507,-0.57753 2.41515,-1.05006 3.57022,-1.36508c0.15751,-0.0525 0.26252,-0.0525 0.42003,-0.10501c-0.63004,-1.05006 -1.31258,-2.10013 -2.10013,-3.09769c0,-0.0525 -0.0525,-0.0525 -0.0525,-0.10501c0.26252,-0.0525 0.52503,-0.10501 0.78755,-0.15751c0.10501,0.10501 0.21001,0.21001 0.31502,0.36752c0.68254,0.89255 1.31258,1.83761 1.83761,2.78267c1.52259,-0.36752 2.99268,-0.63004 4.51527,-0.73504c-0.68254,-1.05006 -1.36508,-2.04762 -2.15263,-2.99268l-0.0525,-0.0525c0.31502,0 0.57753,-0.0525 0.89255,-0.0525c0.78755,0.94506 1.47009,1.99512 2.15263,3.04518c0.94506,-0.0525 1.83761,-0.0525 2.78267,0c-0.42003,-1.10257 -0.78755,-1.99512 -1.36508,-2.94018c0.31502,0 0.63004,0.0525 0.94506,0.10501c0.47253,0.89255 0.78755,1.78511 1.20757,2.88767c0.99756,0.10501 2.04762,0.26252 3.09769,0.47253c0.57753,0.10501 1.20757,0.26252 1.78511,0.42003c-0.36752,-0.89255 -0.63004,-1.6801 -0.94506,-2.36264c0.26252,0.10501 0.52503,0.21001 0.78755,0.31502c0,0 0.0525,0.0525 0.10501,0.0525c0.26252,0.63004 0.52503,1.36508 0.89255,2.20513c1.26008,0.36752 2.46765,0.73504 3.62272,1.26008c0.10501,0.10501 0.15751,0.26252 0.21001,0.36752c0,0.0525 0,0.0525 0,0.0525c0.0525,0.0525 0.0525,0.10501 0.0525,0.15751c0,0.0525 0,0.0525 0,0z"/></g></g><g fill="#86d0fd"><path d="M261.90744,187.12165c0,0.84005 -2.41515,3.83273 -3.20269,4.77779c-0.63004,0.73504 -5.19781,4.25276 -5.35532,2.36264c-0.26252,-3.83273 4.41027,-5.93286 4.09525,-7.14043z"/></g></g><path d="M207.56667,170.63566c0.73504,-0.57753 2.46765,-0.36752 3.3077,-0.26252c2.20513,0.31502 4.35776,2.10013 6.19537,3.2552c1.41759,0.89255 3.62272,2.20513 5.40783,2.15263c1.15507,-0.0525 2.57266,-0.99756 3.46521,-1.6801c1.6801,-1.26008 2.99268,-3.15019 4.35776,-4.72528c1.41759,-1.6276 3.2552,-2.99268 5.19781,-3.93774c1.89011,-0.94506 4.09525,-2.04762 6.09037,-2.57266c4.41027,-1.10257 8.71553,-1.52259 13.17829,-0.52503c3.51771,0.78755 6.77291,1.7326 9.71309,3.88523c2.83517,2.10013 3.51771,4.62028 4.72528,7.71797c0.36752,0.89255 0.73504,1.7326 1.31258,2.52015c0.42003,0.57753 0.94506,0.84005 1.41759,1.26008c0.36752,0.36752 0.78755,0.99756 0.15751,1.36508c-0.52503,0.31502 -1.31258,-0.36752 -1.78511,-0.0525c-0.89255,0.57753 1.26008,1.47009 1.26008,1.47009c-0.0525,1.10257 -1.83761,1.26008 -2.10013,1.47009c-1.47009,1.20757 -3.72772,4.77779 -8.08549,6.45789c-4.35776,1.7326 -7.82297,2.78267 -9.8706,2.88767c-2.41515,0.15751 -5.25032,0.26252 -7.66546,0c-2.10013,-0.21001 -5.35532,-0.21001 -7.14043,-1.26008c-3.2552,-1.83761 -5.51283,-2.78267 -8.61052,-4.88279c-1.83761,-1.20757 -3.20269,-3.51771 -5.46033,-3.62272c-2.73016,-0.10501 -4.62028,2.10013 -6.35288,3.93774c-0.99756,1.05006 -2.36264,2.94018 -3.88523,3.3602c-1.41759,0.42003 -1.10257,-0.84005 -0.89255,-1.83761c0.36752,-1.6276 0.73504,-3.04518 0.52503,-4.67278c-0.10501,-0.84005 -0.26252,-1.7326 -0.36752,-2.57266c-0.31502,-2.36264 -0.78755,-5.56534 -2.52015,-7.24544z" fill="#194ec2"/><g><path d="M271.56803,180.55875c-0.10501,1.10257 -1.89011,1.26008 -2.10013,1.47009c-0.78755,0.63004 -1.78511,1.89011 -3.15019,3.20269c-1.94262,-0.42003 -3.99024,-1.26008 -5.72285,-1.83761c-3.2552,-1.10257 -5.40783,-3.72772 -4.56778,-7.24544c0.89255,-3.62272 0.89255,-13.70333 7.14043,-10.34312l8.87304,13.38831c-0.47253,0.31502 -1.26008,-0.36752 -1.7326,-0.0525c-0.89255,0.57753 1.26008,1.41759 1.26008,1.41759z" fill="#86d0fd"/><path d="M259.5448,176.14849c-0.31502,0.47253 -0.57753,0.99756 -0.89255,1.47009c-0.31502,0.57753 -0.42003,1.26008 -0.73504,1.78511c-0.63004,0.94506 -2.15263,0.63004 -3.15019,0.89255c-1.41759,0.36752 -2.41515,0.47253 -3.3602,-0.68254c-1.26008,-1.52259 -2.62516,-3.3602 -3.51771,-5.14531c-1.05006,-2.10013 -0.47253,-3.99024 2.15263,-3.67522c1.83761,0.21001 3.72772,1.15507 5.30282,2.15263c1.26008,0.78755 3.04518,1.6801 4.09525,2.78267c0.0525,0.0525 0.10501,0.10501 0.10501,0.15751c0.0525,0.0525 0.0525,0.15751 0,0.26252zM258.54724,176.3585c-3.15019,-1.99512 -6.87791,-2.46765 -10.50063,-3.3602c0.15751,0.78755 0.73504,1.7326 1.26008,2.41515c1.57509,0.10501 3.09769,0.26252 4.62028,0.42003c1.52259,0.10501 3.09769,0.21001 4.62028,0.52503zM248.30912,171.79072c-0.10501,0.10501 -0.15751,0.26252 -0.21001,0.42003c2.73016,0.73504 5.51283,1.15507 8.13799,2.15263c-0.0525,0 -0.0525,-0.0525 -0.10501,-0.0525c-1.26008,-0.89255 -2.57266,-1.6276 -4.04274,-2.20513c-0.89255,-0.36752 -3.04518,-1.20757 -3.78023,-0.31502zM249.88422,176.14849c0.47253,0.68254 0.99756,1.6276 1.6276,2.41515c2.04762,-0.10501 4.14775,-0.31502 6.19537,-0.63004c0.0525,-0.15751 0.15751,-0.26252 0.26252,-0.47253c0.0525,-0.15751 0.15751,-0.26252 0.21001,-0.42003c-1.57509,-0.26252 -3.15019,-0.36752 -4.72528,-0.52503c-1.20757,-0.15751 -2.36264,-0.26252 -3.57022,-0.36752c0,0.0525 0,0.0525 0,0zM257.28717,178.72114c-1.7326,0.26252 -3.51771,0.42003 -5.25032,0.52503c0.10501,0.0525 0.15751,0.10501 0.21001,0.15751c1.05006,0.89255 2.88767,0.0525 4.09525,-0.15751c0.63004,-0.10501 0.78755,-0.15751 0.94506,-0.52503z" fill="#86d0fd"/><path d="M271.93555,177.77609c0.36752,0.36752 0.78755,0.99756 0.15751,1.36508c-0.52503,0.31502 -1.31258,-0.36752 -1.78511,-0.0525c-0.89255,0.57753 1.26008,1.47009 1.26008,1.47009c-0.0525,0.94506 -1.36508,1.20757 -1.89011,1.36508c-2.62516,0.36752 -5.88035,-0.36752 -8.08549,-1.10257c-2.83517,-0.94506 -4.72528,-3.2552 -3.99024,-6.30038c0.68254,-2.88767 0.73504,-10.50063 4.9878,-9.45057c0.63004,0.36752 1.26008,0.73504 1.89011,1.20757c2.88767,2.04762 3.51771,4.56778 4.72528,7.71797c0.36752,0.89255 0.73504,1.7326 1.31258,2.52015c0.42003,0.57753 0.94506,0.84005 1.41759,1.26008z" fill="#06134a"/><g><path d="M263.11502,168.95555c3.3077,-0.0525 3.46521,3.67522 0.68254,3.83273c-2.78267,0.15751 -3.46521,-3.83273 -0.68254,-3.83273z" fill="#ffffff"/><path d="M263.69255,171.79072c-0.47253,0.0525 -0.78755,-0.15751 -0.99756,-0.47253c0.73504,-0.15751 0.73504,-0.94506 0,-1.31258c0.10501,-0.15751 0.31502,-0.21001 0.63004,-0.15751c1.6276,0.31502 1.7326,1.89011 0.36752,1.94262z" fill="#06134a"/></g></g><g><path d="M210.87437,170.32064c0.31502,0.0525 0.57753,0.10501 0.89255,0.21001c1.7326,3.57022 3.15019,7.71797 3.41271,11.5507c0.0525,1.05006 0.47253,2.46765 0.68254,3.93774c-0.94506,1.05006 -2.15263,2.52015 -3.46521,2.88767c-1.47009,0.42003 -1.15507,-0.84005 -0.89255,-1.83761c0.42003,-1.57509 0.73504,-2.99268 0.52503,-4.67278c-0.10501,-0.84005 -0.26252,-1.7326 -0.36752,-2.57266c-0.31502,-2.36264 -0.78755,-5.56534 -2.52015,-7.24544l-1.57509,-1.94262c0.73504,-0.52503 2.46765,-0.31502 3.3077,-0.31502z" fill="#06134a"/><path d="M221.26999,181.87133c-1.99512,0.52503 -3.51771,2.25764 -4.9353,3.78023c-0.36752,0.42003 -0.84005,0.94506 -1.31258,1.47009c0,-0.10501 0,-0.21001 0,-0.31502c-0.10501,-1.10257 -1.41759,-0.99756 -1.47009,-2.10013c-0.0525,-1.10257 1.47009,-2.20513 0.94506,-3.3602c-0.26252,-0.57753 -0.68254,-0.52503 -0.68254,-1.31258c0,-0.36752 0.68254,-0.57753 0.68254,-0.84005c0,-0.89255 -1.15507,-1.36508 -1.36508,-2.20513c-0.15751,-0.84005 0.63004,-1.36508 0.10501,-2.46765c-0.31502,-0.78755 -1.20757,-1.15507 -1.36508,-1.94262c0.15751,-0.0525 0.31502,-0.15751 0.52503,-0.21001c-0.36752,-0.52503 -1.41759,-1.31258 -1.7326,-1.99512c0.10501,0.0525 0.15751,0.0525 0.26252,0.0525c2.20513,0.31502 4.35776,2.10013 6.19537,3.2552c0.99756,0.63004 2.36264,1.47009 3.72772,1.89011c0.42003,2.25764 0.47253,4.88279 0.42003,6.30038z" fill="#194ec2"/><path d="M221.90003,181.66132v0.0525c-0.89255,0.10501 -1.6276,0.42003 -2.36264,0.89255c-2.62516,1.10257 -5.19781,2.41515 -7.82297,3.46521c0.0525,-0.26252 0.10501,-0.57753 0.15751,-0.84005c2.88767,-1.15507 5.67034,-2.62516 8.55802,-3.78023c0,-0.36752 0,-0.78755 0,-1.15507c-2.94018,0 -5.93286,-0.10501 -8.82053,-0.63004c-0.0525,-0.26252 -0.0525,-0.52503 -0.10501,-0.78755c2.94018,0.57753 5.93286,0.68254 8.92554,0.68254c0,-0.42003 0,-0.84005 -0.0525,-1.26008c-3.15019,-0.57753 -6.35288,-1.05006 -9.34556,-2.04762c-0.10501,-0.31502 -0.15751,-0.63004 -0.26252,-0.89255c3.04518,1.10257 6.30038,1.6276 9.55558,2.15263c-0.0525,-0.15751 -0.0525,-0.36752 -0.0525,-0.52503c-2.31014,-0.68254 -4.46277,-1.6801 -6.6679,-2.73016c-1.41759,-0.68254 -2.88767,-1.10257 -4.35776,-1.6276c-0.0525,0 -0.0525,-0.0525 -0.10501,-0.10501l-0.78755,-0.94506c1.6801,0.68254 3.46521,1.15507 5.14531,1.89011c2.31014,1.05006 4.41027,2.04762 6.72041,2.78267c0,-0.31502 -0.0525,-0.63004 -0.0525,-0.94506c0.47253,0.21001 0.99756,0.31502 1.47009,0.42003c0,0 1.05006,4.25276 0.26252,5.93286z" fill="#86d0fd"/></g></g><text transform="translate(231.23032,224.78375) scale(0.38351,0.38351)" font-size="40" xml:space="preserve" fill="#000000" fill-rule="nonzero" stroke="none" stroke-width="1" stroke-linecap="butt" stroke-linejoin="miter" stroke-miterlimit="10" stroke-dasharray="" stroke-dashoffset="0" font-family="Sans Serif" font-weight="normal" text-anchor="start" style="mix-blend-mode: normal"><tspan x="0" dy="0">80</tspan></text></g></g></svg>