<svg viewBox="0 0 480 360" xmlns="http://www.w3.org/2000/svg" data-name="Layer 1" id="Layer_1">
  <defs>
    <style>
      .cls-1 {
        fill: #0089bb;
      }

      .cls-2 {
        fill: #fff;
      }

      .cls-3 {
        fill: none;
        stroke: #fff;
        stroke-miterlimit: 10;
      }
    </style>
  </defs>
  <rect height="360" width="480" class="cls-1"></rect>
  <line y2="122" x2="222" y1="122" x1="69" class="cls-3"></line>
  <g>
    <path d="M224,123.5c0,16.29-15.67,29.5-35,29.5-16.44,0-30.24-9.56-33.99-22.44-1.95,.29-3.96,.44-6.01,.44-3.55,0-6.98-.45-10.21-1.28-1.9,14.78-16.75,26.28-34.79,26.28-19.33,0-35-13.21-35-29.5s15.67-29.5,35-29.5c3.55,0,6.98,.45,10.21,1.28,1.9-14.78,16.75-26.28,34.79-26.28,16.44,0,30.24,9.56,33.99,22.44,1.95-.29,3.96-.44,6.01-.44,19.33,0,35,13.21,35,29.5Z" class="cls-2"></path>
    <rect height="33" width="159" y="124" x="68" class="cls-1"></rect>
  </g>
  <path d="M451,67.5c0,16.29-15.67,29.5-35,29.5-16.44,0-30.24-9.56-33.99-22.44-1.95,.29-3.96,.44-6.01,.44-3.55,0-6.98-.45-10.21-1.28-1.9,14.78-16.75,26.28-34.79,26.28-19.33,0-35-13.21-35-29.5s15.67-29.5,35-29.5c3.55,0,6.98,.45,10.21,1.28,1.9-14.78,16.75-26.28,34.79-26.28,16.44,0,30.24,9.56,33.99,22.44,1.95-.29,3.96-.44,6.01-.44,19.33,0,35,13.21,35,29.5Z" class="cls-2"></path>
  <rect height="33" width="159" y="68" x="293" class="cls-1"></rect>
  <path d="M401,295.5c0,16.29-15.67,29.5-35,29.5-16.44,0-30.24-9.56-33.99-22.44-1.95,.29-3.96,.44-6.01,.44-3.55,0-6.98-.45-10.21-1.28-1.9,14.78-16.75,26.28-34.79,26.28-19.33,0-35-13.21-35-29.5s15.67-29.5,35-29.5c3.55,0,6.98,.45,10.21,1.28,1.9-14.78,16.75-26.28,34.79-26.28,16.44,0,30.24,9.56,33.99,22.44,1.95-.29,3.96-.44,6.01-.44,19.33,0,35,13.21,35,29.5Z" class="cls-2"></path>
  <rect height="33" width="159" y="296" x="245" class="cls-1"></rect>
</svg>