<svg version="1.1" xmlns="http://www.w3.org/2000/svg" xmlns:xlink="http://www.w3.org/1999/xlink" width="144.8802" height="109.47496" viewBox="0,0,144.8802,109.47496"><g transform="translate(-167.1198,-125.1104)"><g data-paper-data="{&quot;isPaintingLayer&quot;:true}" fill-rule="nonzero" stroke="none" stroke-linecap="butt" stroke-linejoin="miter" stroke-miterlimit="10" stroke-dasharray="" stroke-dashoffset="0" style="mix-blend-mode: normal"><path d="M168,234.58537v-109.17073h144v109.17073z" fill="#66c0ff" stroke-width="0"/><path d="M201.87778,231.24648l10.18998,-35.74249l8.45976,2.41183l-10.18998,35.74249z" fill="#906d3a" stroke-width="0"/><g stroke-width="1"><path d="M236.42589,193.65228c0,0 -1.12715,8.28261 -10.24039,12.66638c-0.24216,0.10727 -0.49375,0.00028 -0.42867,-0.228c0.55784,-1.95669 2.41245,-8.833 1.01903,-10.00602c3.45927,-2.85735 6.62174,-3.43676 9.65003,-2.43236z" fill="#608899"/><path d="M227.04161,196.51303c0.10727,0.24216 0.20067,0.65667 0.24286,1.1271c0.03275,0.25617 0.03289,0.50305 0.02374,0.78253c-0.00916,0.27949 -0.01831,0.55897 -0.06938,0.86177c-0.01845,0.3121 -0.06952,0.6149 -0.12058,0.9177c-0.05106,0.3028 -0.11143,0.63821 -0.16249,0.94101c-0.10213,0.6056 -0.24617,1.23452 -0.38091,1.83082c-0.12544,0.56369 -0.25089,1.12739 -0.38105,1.58395c-0.26033,0.91312 -0.43698,1.53274 -0.43698,1.53274c0,0 0.11143,-0.63821 0.30653,-1.56993c0.09755,-0.46586 0.18109,-1.00624 0.31583,-1.60254c0.12544,-0.56369 0.26948,-1.19261 0.38091,-1.83082c0.25546,-1.26713 0.46902,-2.51094 0.42655,-3.47513c-0.00028,-0.49375 -0.07037,-0.86635 -0.16834,-1.14112c-0.06536,-0.26547 -0.16792,-0.40049 -0.16792,-0.40049c0,0 0.10255,0.13502 0.19123,0.4424z" fill="#4e6f7d"/><path d="M236.403,194.35101c-0.05578,0.19567 -0.10685,0.49847 -0.19052,0.79197c-0.04649,0.16306 -0.09297,0.32612 -0.13946,0.48917c-0.05578,0.19567 -0.13488,0.34943 -0.19067,0.5451c-0.13488,0.34943 -0.28836,0.76408 -0.47445,1.16944c-0.18609,0.40535 -0.38147,0.84332 -0.64208,1.26269c-0.09769,0.21898 -0.228,0.42867 -0.3583,0.63835c-0.1303,0.20969 -0.30252,0.44269 -0.43282,0.65237c-0.10241,0.11185 -0.16292,0.20039 -0.23272,0.32154l-0.23272,0.32154c-0.17221,0.233 -0.33513,0.43339 -0.49805,0.63378c-0.36774,0.42409 -0.71689,0.78296 -1.07533,1.17444c-0.38176,0.34957 -0.7309,0.70844 -1.10336,1.0254c-0.40507,0.30766 -0.76823,0.59201 -1.1314,0.87636c-0.36316,0.28435 -0.74034,0.49418 -1.0523,0.7226c-0.34457,0.21912 -0.64723,0.41494 -0.93129,0.54552c-0.29336,0.1632 -0.53552,0.27047 -0.74506,0.38704c-0.41909,0.23314 -0.68456,0.29851 -0.68456,0.29851c0,0 0.24216,-0.10727 0.62863,-0.34971c0.20954,-0.11657 0.461,-0.25646 0.72175,-0.42895c0.26075,-0.1725 0.56341,-0.36831 0.87537,-0.59673c0.31196,-0.22842 0.68914,-0.43825 1.01969,-0.73189c0.36316,-0.28435 0.72633,-0.5687 1.09879,-0.88565c0.37246,-0.31696 0.72161,-0.67583 1.10336,-1.0254c0.34915,-0.35887 0.70759,-0.75035 1.03342,-1.15112c0.16292,-0.20039 0.32583,-0.40078 0.48875,-0.60117l0.23272,-0.32154c0.10241,-0.11185 0.16292,-0.20039 0.23272,-0.32154c0.1303,-0.20969 0.29322,-0.41007 0.42352,-0.61976c0.16292,-0.20039 0.26061,-0.41937 0.39091,-0.62906c0.26061,-0.41937 0.45599,-0.85734 0.67469,-1.2534c0.18609,-0.40535 0.37218,-0.81071 0.50706,-1.16014c0.13488,-0.34943 0.26976,-0.69886 0.35344,-0.99236c0.08368,-0.2935 0.15805,-0.5544 0.22314,-0.78268c0.08825,-0.43325 0.13002,-0.70344 0.13002,-0.70344c0,0 0.00014,0.24688 -0.02289,0.69872z" fill="#4e6f7d"/></g><g stroke-width="1"><path d="M183.82623,183.3463c-2.04523,-0.61834 -3.97804,-0.14678 -7.7361,1.53227c-2.95708,1.34321 -5.89612,1.63369 -8.56526,1.47219c-0.37732,-0.03705 -0.54524,-0.43754 -0.26589,-0.67526c2.23948,-1.79462 5.97281,-5.98433 6.53967,-8.46738c0.4693,-2.01719 1.13414,-4.22548 -0.29345,-8.12343c-0.55053,-1.53217 -1.4695,-3.87463 -1.60981,-4.86671c-0.04677,-0.33069 0.3071,-0.58243 0.60532,-0.39162c5.0326,3.37418 7.14116,8.84149 8.18171,11.99438c1.11049,3.27861 2.27563,4.38655 4.03665,4.88861" fill="#6da3b2"/><path d="M183.2793,179.94624c-0.12115,-0.0698 -0.29822,-0.19081 -0.53122,-0.36302c-0.233,-0.17221 -0.48002,-0.41895 -0.70844,-0.7309c-0.22842,-0.31196 -0.43825,-0.68914 -0.67139,-1.10822c-0.11657,-0.20954 -0.22384,-0.4517 -0.29851,-0.68456c-0.07466,-0.23286 -0.18194,-0.47501 -0.2473,-0.74048c-0.17264,-0.50763 -0.37789,-1.02455 -0.57384,-1.57408c-0.43381,-1.07575 -0.92355,-2.20272 -1.48781,-3.31566c-0.29379,-0.57743 -0.59687,-1.12224 -0.90925,-1.63445c-0.30308,-0.54482 -0.65737,-1.0337 -0.97905,-1.5133c-0.32168,-0.47959 -0.65265,-0.92657 -0.99293,-1.34094c-0.34027,-0.41437 -0.68984,-0.79613 -1.0161,-1.13598c-0.65251,-0.6797 -1.20247,-1.22437 -1.63586,-1.5595c-0.20039,-0.16292 -0.36817,-0.31653 -0.48931,-0.38634c-0.12115,-0.0698 -0.17707,-0.12101 -0.17707,-0.12101c0,0 0.05593,0.05121 0.17707,0.12101c0.12115,0.0698 0.30752,0.1582 0.54052,0.33041c0.44269,0.30252 1.08576,0.76795 1.78018,1.42433c0.69442,0.65638 1.44949,1.4711 2.16737,2.41627c0.35429,0.48889 0.69928,1.01039 1.01166,1.52259c0.34499,0.5215 0.63878,1.09893 0.94186,1.64374c0.26118,0.56813 0.52235,1.13626 0.78353,1.70439c0.26118,0.56813 0.48044,1.15957 0.67639,1.70911c0.22856,0.55883 0.3919,1.09907 0.52263,1.63001c0.06536,0.26547 0.13073,0.53094 0.20539,0.7638c0.04205,0.22356 0.14932,0.46572 0.23328,0.66596c0.07466,0.23286 0.20053,0.40979 0.28449,0.61004c0.08396,0.20025 0.17722,0.36788 0.27047,0.53552c0.19581,0.30266 0.41022,0.5401 0.60131,0.73562c0.42409,0.36774 0.64779,0.57257 0.64779,0.57257c0,0 -0.05593,-0.05121 -0.12587,-0.17693z" fill="#4e6f7d"/><path d="M172.56734,166.3137c0.22856,0.55883 0.5644,1.35982 0.96088,2.31915c0.21455,0.48431 0.4198,1.00123 0.60645,1.58338c0.21927,0.59144 0.36401,1.1969 0.45755,1.85829c0.09354,0.66139 0.14517,1.34609 0.08967,2.03551c-0.02289,0.69872 -0.15291,1.40215 -0.31554,2.09629c-0.19524,0.68484 -0.4231,1.36039 -0.70688,1.98472c-0.26047,0.66625 -0.60947,1.27199 -0.97249,1.80321c-0.70273,1.10435 -1.53133,2.03178 -2.23891,2.78212c-0.70759,0.75035 -1.36869,1.33764 -1.83427,1.73384c-0.22814,0.18179 -0.41437,0.34027 -0.54939,0.44283c-0.13502,0.10255 -0.18623,0.15848 -0.18623,0.15848c0,0 0.24673,-0.24702 0.68899,-0.68512c0.40965,-0.44741 1.00553,-1.05329 1.6898,-1.84555c0.67498,-0.75964 1.44765,-1.73827 2.10847,-2.81931c0.33041,-0.54052 0.63751,-1.12295 0.92129,-1.74729c0.28378,-0.62434 0.50234,-1.26727 0.65568,-1.9288c0.15334,-0.66153 0.27406,-1.33235 0.32026,-1.98916c0.0462,-0.65681 0.02718,-1.33221 -0.04304,-1.95169c-0.07023,-0.61948 -0.21497,-1.22494 -0.36901,-1.79779c-0.15404,-0.57285 -0.32668,-1.08047 -0.49932,-1.5881c-0.35457,-0.98264 -0.61589,-1.79764 -0.80254,-2.37979c-0.08868,-0.30738 -0.16334,-0.54024 -0.19137,-0.68928c-0.06065,-0.15834 -0.07466,-0.23286 -0.07466,-0.23286c0,0 0.11199,0.34929 0.28463,0.85691z" fill="#4e6f7d"/><path d="M181.41327,183.15202c-0.3633,0.03747 -0.93615,0.19152 -1.56951,0.4341c-0.63335,0.24258 -1.38313,0.52249 -2.18412,0.85833c-0.79169,0.30323 -1.63459,0.66238 -2.5008,0.97962c-0.42381,0.12601 -0.88952,0.27533 -1.31333,0.40134c-0.43311,0.15862 -0.88023,0.24272 -1.29474,0.33612c-0.21426,0.00944 -0.40521,0.06079 -0.62877,0.10284c-0.18165,0.01874 -0.40521,0.06079 -0.58687,0.07952c-0.40521,0.06079 -0.76852,0.09826 -1.12252,0.10312c-0.3633,0.03747 -0.6754,0.01902 -0.95489,0.00986c-0.27949,-0.00916 -0.52636,-0.00901 -0.73133,-0.03219c-0.37732,-0.03705 -0.6149,-0.06952 -0.6149,-0.06952c0,0 0.25617,-0.03275 0.64279,-0.02832c0.21426,-0.00944 0.42853,-0.01888 0.71731,-0.04233c0.25617,-0.03275 0.57757,-0.04691 0.90826,-0.09368c0.33069,-0.04677 0.70329,-0.11685 1.0759,-0.18694c0.3726,-0.07008 0.78711,-0.16348 1.20162,-0.25688c0.41451,-0.0934 0.83832,-0.21941 1.26213,-0.34542c0.43311,-0.15862 0.85691,-0.28463 1.29002,-0.44325c0.86621,-0.31724 1.69981,-0.64378 2.52411,-0.93771c0.8243,-0.29393 1.57408,-0.57384 2.25406,-0.7326c0.67998,-0.15876 1.26685,-0.23829 1.66276,-0.26646c0.18165,-0.01874 0.35401,-0.00486 0.46114,-0.00958c0.10713,-0.00472 0.17235,0.01388 0.17235,0.01388c0,0 -0.21426,0.00944 -0.67068,0.12615z" fill="#4e6f7d"/></g><g stroke-width="1"><g><path d="M199.14745,193.17992c-2.41325,-0.688 -5.00759,-0.36977 -6.12096,-0.54614c-1.11337,-0.17637 0.75823,-1.79377 0.45486,-2.83234" fill="#aedeeb"/><path d="M197.33995,192.84092c-0.21426,0.00944 -0.50305,0.03289 -0.82444,0.04705c-0.3214,0.01416 -0.70801,0.00972 -1.13654,0.0286c-0.42853,0.01888 -0.88967,0.02846 -1.34151,0.00543c-0.23758,-0.03247 -0.48445,-0.03233 -0.68942,-0.0555c-0.13974,-0.00458 -0.24688,0.00014 -0.37732,-0.03705c-0.13045,-0.03719 -0.26089,-0.07438 -0.39606,-0.2187c-0.13517,-0.14432 -0.1446,-0.35858 -0.10741,-0.48903c0.03719,-0.13045 0.06508,-0.22828 0.12559,-0.31682c0.11171,-0.14446 0.22342,-0.28893 0.30252,-0.44269c0.33971,-0.57313 0.55841,-0.96919 0.55841,-0.96919c0,0 -0.09755,0.46586 -0.34872,1.09949c-0.04649,0.16306 -0.13488,0.34943 -0.21398,0.50319c-0.0791,0.15376 -0.09297,0.32612 -0.06036,0.33541c0.01402,0.07452 0.25159,0.10699 0.46586,0.09755c0.21426,-0.00944 0.45184,0.02303 0.66611,0.01359c0.45184,0.02303 0.90368,0.04606 1.32291,0.0598c0.44254,0.05564 0.81987,0.09269 1.16458,0.12044c0.34471,0.02775 0.6149,0.06952 0.81057,0.1253c0.19567,0.05578 0.2935,0.08368 0.2935,0.08368c0,0 -0.10713,0.00472 -0.21426,0.00944z" fill="#648f9e"/></g><g><path d="M192.3351,189.12201c-1.82624,-0.52065 -3.76849,-0.26335 -4.63499,-0.43985c-0.84318,-0.1346 0.56284,-1.35581 0.33414,-2.16151" fill="#aedeeb"/><path d="M190.94224,188.93648c-0.14904,0.02803 -0.3726,0.07008 -0.66139,0.09354c-0.54496,0.05621 -1.30418,0.12186 -2.05882,0.04776c-0.17235,-0.01388 -0.37732,-0.03705 -0.57299,-0.09283c-0.09783,-0.02789 -0.19567,-0.05578 -0.33083,-0.20011c-0.02331,-0.04191 -0.02331,-0.04191 -0.04663,-0.08382c-0.02331,-0.04191 0,0 -0.02331,-0.04191c0.0093,-0.03261 -0.02331,-0.04191 -0.01402,-0.07452c-0.01402,-0.07452 -0.01874,-0.18165 -0.00944,-0.21426c0.02317,-0.20497 0.13488,-0.34943 0.21398,-0.50319c0.11171,-0.14446 0.18151,-0.26561 0.25131,-0.38676c0.1396,-0.2423 0.228,-0.42867 0.27448,-0.59173c0.03719,-0.13045 0.03247,-0.23758 0.03247,-0.23758c0,0 0.04663,0.08382 0.06536,0.26547c-0.01388,0.17235 -0.02303,0.45184 -0.13002,0.70344c-0.03719,0.13045 -0.07438,0.26089 -0.15348,0.41465c-0.04649,0.16306 -0.12559,0.31682 -0.12087,0.42395c-0.0093,0.03261 -0.0093,0.03261 -0.0093,0.03261l0.02331,0.04191c-0.04663,-0.08382 -0.02331,-0.04191 -0.02331,-0.04191v0c0,0 0.06522,0.01859 0.13045,0.03719c0.16306,0.04649 0.33541,0.06036 0.50777,0.07424c0.37732,0.03705 0.73133,0.03219 1.07604,0.05994c0.3214,-0.01416 0.66611,0.01359 0.93629,0.05536c0.27949,0.00916 0.51706,0.04163 0.68012,0.08811c0.16306,0.04649 0.26089,0.07438 0.26089,0.07438c0,0 -0.07452,0.01402 -0.29808,0.05607z" fill="#648f9e"/></g><g><path d="M189.38194,181.05136c1.22036,-0.07523 2.10946,-1.09119 2.314,-1.80864c0.20454,-0.71745 -0.30823,-1.39257 0.42782,-1.25325c1.2112,0.20426 2.63794,2.62096 4.09145,2.96482" fill="#6da3b2"/><path d="M195.49303,180.6426c-0.08854,-0.0605 -0.233,-0.17221 -0.41007,-0.29322c-0.35415,-0.24201 -0.77824,-0.60976 -1.19303,-1.01011c-0.37288,-0.42367 -0.79698,-0.79141 -1.15112,-1.03342c-0.32154,-0.23272 -0.61504,-0.31639 -0.61504,-0.31639c0,0 0.06522,0.01859 0.19567,0.05578c0.09783,0.02789 0.2935,0.08368 0.47058,0.20468c0.20969,0.1303 0.41937,0.26061 0.61976,0.42352c0.20039,0.16292 0.42409,0.36774 0.61518,0.56327c0.41479,0.40035 0.83888,0.76809 1.14183,1.06603c0.16778,0.15362 0.30294,0.29794 0.39148,0.35844c0.08854,0.0605 0.14446,0.11171 0.14446,0.11171c0,0 -0.06522,-0.01859 -0.20969,-0.1303z" fill="#4e6f7d"/><path d="M190.80226,180.39842c0.16292,-0.20039 0.40035,-0.41479 0.54925,-0.6897c0.0698,-0.12115 0.1489,-0.27491 0.18609,-0.40535c0.03719,-0.13045 0.07438,-0.26089 0.11157,-0.39134c0.03719,-0.13045 0.06508,-0.22828 0.05106,-0.3028c0.01859,-0.06522 0.02789,-0.09783 0.02789,-0.09783c0,0 -0.0093,0.03261 0.00472,0.10713c0.01402,0.07452 0.02803,0.14904 0.02346,0.28878c-0.00458,0.13974 -0.00916,0.27949 -0.05564,0.44254c-0.01859,0.06522 -0.04649,0.16306 -0.06508,0.22828c-0.01859,0.06522 -0.04649,0.16306 -0.09769,0.21898c-0.19081,0.29822 -0.42824,0.51263 -0.64709,0.66181c-0.18623,0.15848 -0.34457,0.21912 -0.34457,0.21912c0,0 0.13502,-0.10255 0.25603,-0.27963z" fill="#4e6f7d"/></g><g><path d="M212.74697,181.71804c2.24963,-0.34598 3.20754,-3.21122 2.76844,-5.38161c-0.4391,-2.17039 -1.45935,-2.42599 -0.79325,-2.4124c5.20769,0.03894 9.04967,6.59989 9.5723,8.2299c0.52263,1.63001 1.62213,1.97873 2.63766,2.1272" fill="#6da3b2"/><path d="M225.72078,183.83c-0.09783,-0.02789 -0.26089,-0.07438 -0.43797,-0.19539c-0.36345,-0.2094 -0.70844,-0.7309 -1.02554,-1.35024c-0.1539,-0.32597 -0.3078,-0.65195 -0.48502,-1.01983c-0.17722,-0.36788 -0.39634,-0.71245 -0.60617,-1.08963c-0.46156,-0.73105 -0.98835,-1.48069 -1.56634,-2.1744c-0.57799,-0.69371 -1.2398,-1.3408 -1.89689,-1.88075c-0.65709,-0.53995 -1.30946,-0.97278 -1.9245,-1.28917c-0.61504,-0.31639 -1.15084,-0.53967 -1.54218,-0.65124c-0.19567,-0.05578 -0.35873,-0.10227 -0.45656,-0.13016c-0.09783,-0.02789 -0.16306,-0.04649 -0.16306,-0.04649c0,0 0.07452,-0.01402 0.17235,0.01388c0.10713,-0.00472 0.27949,0.00916 0.47516,0.06494c0.20497,0.02317 0.46586,0.09755 0.72675,0.17193c0.26089,0.07438 0.57771,0.19996 0.89453,0.32555c0.65695,0.29308 1.39314,0.67927 2.08284,1.22852c0.34485,0.27463 0.6897,0.54925 1.01596,0.8891c0.33555,0.30724 0.6292,0.63779 0.94616,1.01025c0.60131,0.73562 1.15141,1.52717 1.57106,2.28153c0.20983,0.37718 0.37775,0.77767 0.55496,1.14556c0.1446,0.35858 0.28921,0.71717 0.4105,1.03385c0.12129,0.31668 0.25188,0.60074 0.39176,0.85219c0.13988,0.25145 0.29836,0.43768 0.44283,0.54939c0.13517,0.14432 0.29822,0.19081 0.38676,0.25131c0.08854,0.0605 0.15376,0.0791 0.15376,0.0791c0,0 -0.06522,-0.01859 -0.12115,-0.0698z" fill="#4e6f7d"/><path d="M213.697,181.35416c0.17693,-0.12587 0.40507,-0.30766 0.62849,-0.59659c0.14432,-0.13517 0.22342,-0.28893 0.34443,-0.466c0.11171,-0.14446 0.2094,-0.36345 0.2978,-0.54982c0.0884,-0.18637 0.15348,-0.41465 0.21856,-0.64293c0.06508,-0.22828 0.09755,-0.46586 0.13002,-0.70344c0.03247,-0.23758 0.06494,-0.47516 0.09741,-0.71273c-0.00014,-0.24688 0.03233,-0.48445 0.02289,-0.69872c0.02303,-0.45184 -0.07037,-0.86635 -0.14975,-1.20634c-0.11199,-0.34929 -0.20997,-0.62405 -0.29393,-0.8243c-0.08396,-0.20025 -0.12129,-0.31668 -0.12129,-0.31668c0,0 0.07924,0.09312 0.20511,0.27005c0.12587,0.17693 0.29836,0.43768 0.44297,0.79627c0.1539,0.32597 0.27061,0.78239 0.31281,1.25283c0.04219,0.47044 0.00057,0.9875 -0.07367,1.49527c-0.06508,0.22828 -0.10685,0.49847 -0.17193,0.72675c-0.07438,0.26089 -0.17207,0.47988 -0.26976,0.69886c-0.228,0.42867 -0.50262,0.77352 -0.79127,1.04385c-0.14432,0.13517 -0.27935,0.23772 -0.40507,0.30766c-0.15834,0.06065 -0.28406,0.13059 -0.36788,0.17722c-0.08382,0.04663 -0.19095,0.05135 -0.23286,0.07466c-0.04191,0.02331 -0.07452,0.01402 -0.07452,0.01402c0,0 0.11643,-0.03733 0.25145,-0.13988z" fill="#4e6f7d"/></g><g><g><g><path d="M246.42214,202.00305c-2.24321,3.41562 -19.86074,1.88391 -36.30208,-3.64971c-16.47395,-5.54292 -23.42832,-13.55539 -26.61065,-15.13264c-3.18233,-1.57725 -2.34472,-3.03103 0.34315,-2.68788c7.75153,1.01101 24.84515,-1.30917 42.66019,3.48769c17.78242,4.78757 29.4656,14.39503 28.55361,16.10971c-0.7259,1.30932 -8.64422,1.87282 -8.64422,1.87282z" fill="#6da3b2"/><path d="M185.20536,183.95104c1.80751,0.339 1.17472,1.56908 2.97279,1.69382c1.79807,0.12474 2.75839,1.45638 4.03052,2.31273c1.27213,0.85635 2.91158,0.54798 4.41171,0.97566c1.50013,0.42768 1.37983,1.83913 2.55384,2.17383c1.1414,0.32541 2.65611,1.81511 3.93754,2.63884c1.27213,0.85635 4.65773,-0.50574 5.63122,-0.58082c0.98278,-0.1077 2.24547,0.53439 3.14944,1.0742c0.90397,0.53981 2.64082,-0.48129 4.98928,0.92874c2.37177,1.45194 8.10464,7.56464 10.42308,5.36938c2.31844,-2.19526 6.30563,-2.32797 7.38181,-2.02116c1.07618,0.30681 1.15056,0.04592 1.87245,-0.13616c0.72189,-0.18208 1.5755,1.89491 2.61364,0.85092c1.07075,-1.0347 2.15208,0.11987 2.93947,0.45014c0.75478,0.32097 2.6218,-1.15669 4.91377,-0.78537c2.29196,0.37133 4.19301,1.37171 5.60889,1.10539c0.86163,-0.1775 1.56493,-0.29435 2.46861,-0.24829c0.02803,0.14904 -0.00916,0.27949 -0.03705,0.37732c-0.7259,1.30932 -8.64422,1.87282 -8.64422,1.87282c-2.24321,3.41562 -19.86074,1.88391 -36.30208,-3.64971c-14.83866,-4.97092 -21.9415,-11.96786 -25.52961,-14.47182c0.17235,0.01388 0.38662,0.00444 0.6149,0.06952z" fill="#aedeeb"/><path d="M253.7981,197.89976c-0.19109,-0.19553 -0.47072,-0.45156 -0.8715,-0.77739c-0.40078,-0.32583 -0.88079,-0.74478 -1.43533,-1.14971c-0.57785,-0.44684 -1.22093,-0.91227 -1.92922,-1.3963c-0.7083,-0.48403 -1.51443,-0.99595 -2.35317,-1.51717c-0.83874,-0.52122 -1.75201,-1.02842 -2.68858,-1.57753c-0.45198,-0.26991 -0.94588,-0.5165 -1.43047,-0.7957c-0.49389,-0.24659 -1.0111,-0.53509 -1.50499,-0.78169c-1.0204,-0.50248 -2.04079,-1.00496 -3.11239,-1.45152c-1.0623,-0.47917 -2.13391,-0.92572 -3.18219,-1.33037c-1.03899,-0.43726 -2.09657,-0.80929 -3.12155,-1.17203c-1.03427,-0.33013 -2.02663,-0.68357 -2.96307,-0.9858c-0.93644,-0.30223 -1.81695,-0.55326 -2.66485,-0.79499c-1.67248,-0.44155 -3.04217,-0.83204 -4.03911,-1.04574c-0.99694,-0.2137 -1.56063,-0.33914 -1.56063,-0.33914c0,0 0.57299,0.09283 1.57923,0.27392c0.49847,0.10685 1.10407,0.20898 1.79821,0.37161c0.69414,0.16263 1.4535,0.34386 2.3107,0.55298c0.8572,0.20912 1.77032,0.46945 2.71605,0.73907c0.94573,0.26962 1.95669,0.55784 2.98166,0.92058c1.02497,0.36274 2.08256,0.73477 3.16346,1.14872c1.04829,0.40465 2.12919,0.81859 3.19149,1.29776c1.0623,0.47917 2.11531,0.99095 3.13571,1.49343c0.5265,0.25589 1.0111,0.53509 1.50499,0.78169c0.51721,0.2885 0.97849,0.5258 1.46308,0.805c0.93658,0.54911 1.84054,1.08892 2.66999,1.64275c0.82945,0.55383 1.59367,1.08906 2.29267,1.6057c0.699,0.51664 1.33278,1.01469 1.87802,1.45223c0.54524,0.43754 1.02526,0.85649 1.38412,1.20563c0.35887,0.34915 0.6292,0.63779 0.82029,0.83332c0.15848,0.18623 0.27033,0.28864 0.27033,0.28864c0,0 -0.11185,-0.10241 -0.30294,-0.29794z" fill="#4e6f7d"/><path d="M215.89127,181.94446c-0.6149,-0.06952 -1.5419,-0.15749 -2.60864,-0.25004c-1.06674,-0.09255 -2.34774,-0.17566 -3.70327,-0.24475c-1.38814,-0.07839 -2.80888,-0.16608 -4.27154,-0.23045c-1.45336,-0.09699 -2.91602,-0.16136 -4.27154,-0.23045c-1.35552,-0.06909 -2.61321,-0.11029 -3.69855,-0.13762c-1.08534,-0.02733 -1.99832,-0.04078 -2.63181,-0.04507c-0.63349,-0.00429 -0.9875,0.00057 -0.9875,0.00057c0,0 0.3633,-0.03747 1.0061,-0.06579c0.64279,-0.02832 1.55105,-0.122 2.64568,-0.12728c1.10393,-0.0379 2.38021,-0.06192 3.74504,-0.02544c0.66611,0.01359 1.36482,0.03648 2.09615,0.06867c0.69872,0.02289 1.43005,0.05508 2.16137,0.08726c1.46266,0.06437 2.91602,0.16136 4.26224,0.26306c1.34623,0.1017 2.60864,0.25004 3.69869,0.3845c1.05744,0.12516 1.96585,0.27835 2.59476,0.42239c0.33541,0.06036 0.56369,0.12544 0.72675,0.17193c0.16306,0.04649 0.26089,0.07438 0.26089,0.07438c0,0 -0.33541,-0.06036 -1.02483,-0.11586z" fill="#4e6f7d"/><path d="M239.34771,203.93553c-0.35401,0.00486 -0.81515,0.01444 -1.44864,0.01015c-0.6242,-0.03691 -1.36482,-0.03648 -2.23589,-0.07325c-0.88037,-0.00415 -1.83998,-0.10142 -2.90672,-0.19397c-1.06674,-0.09255 -2.18941,-0.2363 -3.40991,-0.40795c-1.2205,-0.17165 -2.49693,-0.3945 -3.80597,-0.62665c-2.61808,-0.4643 -5.39463,-1.11483 -8.16189,-1.79798c-2.75796,-0.71575 -5.46943,-1.59457 -7.96664,-2.48282c-1.24396,-0.46043 -2.4553,-0.91157 -3.59213,-1.37672c-1.13682,-0.46515 -2.20843,-0.91171 -3.1729,-1.36298c-0.50319,-0.21398 -0.97377,-0.41866 -1.40244,-0.64666c-0.42867,-0.228 -0.83402,-0.41409 -1.23008,-0.63279c-0.39606,-0.2187 -0.73619,-0.38619 -1.06702,-0.5863c-0.34013,-0.16749 -0.64765,-0.32569 -0.91326,-0.5072c-0.27491,-0.1489 -0.51721,-0.2885 -0.72689,-0.41881c-0.20039,-0.16292 -0.35415,-0.24201 -0.49861,-0.35372c-0.26561,-0.18151 -0.41007,-0.29322 -0.41007,-0.29322c0,0 0.18637,0.0884 0.45198,0.26991c0.11185,0.10241 0.29822,0.19081 0.50791,0.32111c0.21898,0.09769 0.46128,0.23729 0.73619,0.38619c0.27491,0.1489 0.58243,0.3071 0.92256,0.47459c0.34013,0.16749 0.68026,0.33499 1.08562,0.52108c0.37274,0.17679 0.81071,0.37218 1.24868,0.56756c0.47058,0.20468 0.90854,0.40007 1.41173,0.61405c0.97377,0.41866 2.05467,0.83261 3.20079,1.26515c1.14612,0.43254 2.35747,0.88367 3.61072,1.31149c2.50651,0.85564 5.21798,1.73445 7.95263,2.4083c2.72535,0.70646 5.5019,1.35699 8.11068,1.8539c1.29974,0.26476 2.54356,0.47832 3.75476,0.68258c1.17859,0.19496 2.33387,0.34801 3.39131,0.47317c0.51706,0.04163 1.03413,0.08325 1.50928,0.14819c0.47516,0.06494 0.95031,0.12988 1.36954,0.14361c0.86177,0.06938 1.5931,0.10156 2.2173,0.13847c0.6242,0.03691 1.08534,0.02733 1.43005,0.05508c0.35401,-0.00486 0.52636,0.00901 0.52636,0.00901c0,0 -0.17235,-0.01388 -0.48903,0.10741z" fill="#648f9e"/><path d="M193.70077,190.63974c-0.21898,-0.09769 -0.49389,-0.24659 -0.7595,-0.4281c-0.26561,-0.18151 -0.53122,-0.36302 -0.82945,-0.55383c-0.25631,-0.21412 -0.55454,-0.40493 -0.82015,-0.58644c-0.26561,-0.18151 -0.49861,-0.35372 -0.699,-0.51664c-0.40078,-0.32583 -0.65709,-0.53995 -0.65709,-0.53995c0,0 0.26561,0.18151 0.71759,0.45142c0.20969,0.1303 0.48459,0.2792 0.75021,0.46071c0.26561,0.18151 0.53122,0.36302 0.82945,0.55383c0.26561,0.18151 0.56383,0.37232 0.82945,0.55383c0.26561,0.18151 0.49861,0.35372 0.7083,0.48403c0.41007,0.29322 0.7083,0.48403 0.7083,0.48403c0,0 -0.30752,-0.1582 -0.7781,-0.36288z" fill="#648f9e"/><path d="M188.05299,186.7023c-0.20039,-0.16292 -0.466,-0.34443 -0.75493,-0.56785c-0.28893,-0.22342 -0.57785,-0.44684 -0.86678,-0.67026c-0.27963,-0.25603 -0.60117,-0.48875 -0.85748,-0.70287c-0.28893,-0.22342 -0.51263,-0.42824 -0.74563,-0.60046c-0.20039,-0.16292 -0.40078,-0.32583 -0.51263,-0.42824c-0.11185,-0.10241 -0.20039,-0.16292 -0.20039,-0.16292c0,0 0.05593,0.05121 0.20969,0.1303c0.14446,0.11171 0.33083,0.20011 0.56383,0.37232c0.2423,0.1396 0.50791,0.32111 0.79683,0.54453c0.28893,0.22342 0.57785,0.44684 0.86678,0.67026c0.27963,0.25603 0.60117,0.48875 0.85748,0.70287c0.28893,0.22342 0.53594,0.47015 0.73633,0.63307c0.42409,0.36774 0.70372,0.62377 0.70372,0.62377c0,0 -0.29822,-0.19081 -0.79683,-0.54453z" fill="#648f9e"/></g><path d="M252.9662,201.1888c-0.45642,0.11671 -1.08047,0.32668 -1.83498,0.49946c-0.7545,0.17278 -1.65804,0.37359 -2.64082,0.48129c-0.98278,0.1077 -2.03079,0.1968 -3.11154,0.02973c-0.27019,-0.04177 -0.54038,-0.08353 -0.79197,-0.19052c-0.26089,-0.07438 -0.51249,-0.18137 -0.74077,-0.24645c-0.47988,-0.17207 -0.97835,-0.27892 -1.4442,-0.37647c-0.96433,-0.2044 -1.84012,-0.3483 -2.61808,-0.4643c-0.77796,-0.116 -1.42547,-0.19482 -1.86801,-0.25046c-0.44254,-0.05564 -0.71273,-0.09741 -0.71273,-0.09741c0,0 0.24688,-0.00014 0.70801,-0.00972c0.45184,0.02303 1.08534,0.02733 1.88189,0.07811c0.40993,0.04635 0.82916,0.06008 1.27171,0.11572c0.44254,0.05564 0.927,0.08797 1.39286,0.18552c0.50777,0.07424 0.97363,0.17179 1.49541,0.32055c0.26089,0.07438 0.47988,0.17207 0.74077,0.24645c0.22828,0.06508 0.48917,0.13946 0.72675,0.17193c0.46586,0.09755 0.99222,0.10657 1.48597,0.10628c0.49375,-0.00028 0.9968,-0.03318 1.46723,-0.07537c0.98278,-0.1077 1.85843,-0.21068 2.63625,-0.34155c0.77782,-0.13087 1.40659,-0.23371 1.85371,-0.31781c0.44712,-0.0841 0.70329,-0.11685 0.70329,-0.11685c0,0 -0.24216,0.10727 -0.60074,0.25188z" fill="#648f9e"/><path d="M238.89634,196.61337c-0.21613,-0.06162 -0.30392,-0.41818 -0.19609,-0.79641c0.10783,-0.37823 0.37045,-0.63489 0.58658,-0.57327c0.21613,0.06162 0.30392,0.41818 0.19609,0.79641c-0.10783,0.37823 -0.37045,0.63489 -0.58658,0.57327z" fill="#212f33"/></g><path d="M231.86585,193.93904c-0.11171,0.14446 -0.2187,0.39606 -0.33499,0.68026c-0.04649,0.16306 -0.12559,0.31682 -0.17207,0.47988c-0.0791,0.15376 -0.12559,0.31682 -0.18137,0.51249c-0.01388,0.17235 -0.10227,0.35873 -0.12544,0.56369c-0.05578,0.19567 -0.07896,0.40064 -0.10213,0.6056c-0.02317,0.20497 -0.03705,0.37732 -0.02761,0.59158c-0.02317,0.20497 -0.01373,0.41923 0.005,0.60088c-0.01388,0.17235 0.03747,0.3633 0.05621,0.54496c0.01874,0.18165 0.07938,0.33999 0.10741,0.48903c0.02803,0.14904 0.05607,0.29808 0.0934,0.41451c0.03733,0.11643 0.07466,0.23286 0.08868,0.30738c0.06065,0.15834 0.09798,0.27477 0.09798,0.27477c0,0 -0.07924,-0.09312 -0.1725,-0.26075c-0.04663,-0.08382 -0.09326,-0.16764 -0.1632,-0.29336c-0.06994,-0.12573 -0.13988,-0.25145 -0.20053,-0.40979c-0.06065,-0.15834 -0.12129,-0.31668 -0.17264,-0.50763c-0.02803,-0.14904 -0.11199,-0.34929 -0.12143,-0.56355c-0.04205,-0.22356 -0.0841,-0.44712 -0.06093,-0.65209c0.02317,-0.20497 0.02303,-0.45184 0.0462,-0.65681c0.02317,-0.20497 0.05564,-0.44254 0.11143,-0.63821c0.03247,-0.23758 0.12087,-0.42395 0.17665,-0.61962c0.0884,-0.18637 0.17679,-0.37274 0.25589,-0.5265c0.0791,-0.15376 0.19081,-0.29822 0.26991,-0.45198c0.0698,-0.12115 0.17221,-0.233 0.24201,-0.35415c0.0605,-0.08854 0.16292,-0.20039 0.21412,-0.25631c0.11171,-0.14446 0.20482,-0.2237 0.20482,-0.2237c0,0 -0.0605,0.08854 -0.13488,0.34943z" fill="#4e6f7d"/><path d="M230.594,193.57643c-0.11171,0.14446 -0.2187,0.39606 -0.33499,0.68026c-0.04649,0.16306 -0.12559,0.31682 -0.17207,0.47988c-0.0791,0.15376 -0.12559,0.31682 -0.18137,0.51249c-0.01388,0.17235 -0.10227,0.35873 -0.12544,0.56369c-0.05578,0.19567 -0.07896,0.40064 -0.10213,0.6056c-0.02317,0.20497 -0.03705,0.37732 -0.02761,0.59158c-0.02317,0.20497 -0.01373,0.41923 0.005,0.60088c-0.01388,0.17235 0.03747,0.3633 0.05621,0.54496c0.01874,0.18165 0.07938,0.33999 0.10741,0.48903c0.02803,0.14904 0.05607,0.29808 0.0934,0.41451c0.03733,0.11643 0.07466,0.23286 0.08868,0.30738c0.06065,0.15834 0.09798,0.27477 0.09798,0.27477c0,0 -0.07924,-0.09312 -0.1725,-0.26075c-0.04663,-0.08382 -0.09326,-0.16764 -0.1632,-0.29336c-0.06994,-0.12573 -0.13988,-0.25145 -0.20053,-0.40979c-0.06065,-0.15834 -0.12129,-0.31668 -0.17264,-0.50763c-0.02803,-0.14904 -0.11199,-0.34929 -0.12143,-0.56355c-0.04205,-0.22356 -0.0841,-0.44712 -0.06093,-0.65209c0.02317,-0.20497 0.02303,-0.45184 0.0462,-0.65681c0.02317,-0.20497 0.05564,-0.44254 0.11143,-0.63821c0.03247,-0.23758 0.12087,-0.42395 0.17665,-0.61962c0.0884,-0.18637 0.17679,-0.37274 0.25589,-0.5265c0.0791,-0.15376 0.19081,-0.29822 0.26991,-0.45198c0.0698,-0.12115 0.17221,-0.233 0.24201,-0.35415c0.0605,-0.08854 0.16292,-0.20039 0.21412,-0.25631c0.11171,-0.14446 0.20482,-0.2237 0.20482,-0.2237c0,0 -0.0605,0.08854 -0.13488,0.34943z" fill="#4e6f7d"/><path d="M228.96343,193.11159c-0.11171,0.14446 -0.2187,0.39606 -0.33499,0.68026c-0.04649,0.16306 -0.12559,0.31682 -0.17207,0.47988c-0.0791,0.15376 -0.12559,0.31682 -0.18137,0.51249c-0.01388,0.17235 -0.10227,0.35873 -0.12544,0.56369c-0.05578,0.19567 -0.07896,0.40064 -0.10213,0.6056c-0.02317,0.20497 -0.03705,0.37732 -0.02761,0.59158c-0.02317,0.20497 -0.01373,0.41923 0.005,0.60088c-0.01388,0.17235 0.03747,0.3633 0.05621,0.54496c0.01874,0.18165 0.07938,0.33999 0.10741,0.48903c0.02803,0.14904 0.05607,0.29808 0.0934,0.41451c0.03733,0.11643 0.07466,0.23286 0.08868,0.30738c0.06065,0.15834 0.09798,0.27477 0.09798,0.27477c0,0 -0.07924,-0.09312 -0.1725,-0.26075c-0.04663,-0.08382 -0.09326,-0.16764 -0.1632,-0.29336c-0.06994,-0.12573 -0.13988,-0.25145 -0.20053,-0.40979c-0.06065,-0.15834 -0.12129,-0.31668 -0.17264,-0.50763c-0.02803,-0.14904 -0.11199,-0.34929 -0.12143,-0.56355c-0.04205,-0.22356 -0.0841,-0.44712 -0.06093,-0.65209c0.02317,-0.20497 0.02303,-0.45184 0.0462,-0.65681c0.02317,-0.20497 0.05564,-0.44254 0.11143,-0.63821c0.03247,-0.23758 0.12087,-0.42395 0.17665,-0.61962c0.0884,-0.18637 0.17679,-0.37274 0.25589,-0.5265c0.0791,-0.15376 0.19081,-0.29822 0.26991,-0.45198c0.0698,-0.12115 0.17221,-0.233 0.24201,-0.35415c0.0605,-0.08854 0.16292,-0.20039 0.21412,-0.25631c0.11171,-0.14446 0.20482,-0.2237 0.20482,-0.2237c0,0 -0.0605,0.08854 -0.13488,0.34943z" fill="#4e6f7d"/><path d="M247.32913,199.68748c0.0093,-0.03261 -0.03733,-0.11643 -0.06065,-0.15834c-0.01402,-0.07452 -0.06994,-0.12573 -0.08396,-0.20025c-0.05593,-0.05121 -0.06994,-0.12573 -0.11657,-0.20954c-0.06065,-0.15834 -0.12129,-0.31668 -0.14932,-0.46572c-0.02803,-0.14904 -0.03275,-0.25617 -0.03275,-0.25617c0,0 0.13974,0.00458 0.25159,0.10699c0.05593,0.05121 0.14446,0.11171 0.19109,0.19553c0.08854,0.0605 0.12587,0.17693 0.1725,0.26075c0.08396,0.20025 0.0841,0.44712 0.03761,0.61018c-0.05578,0.19567 -0.17221,0.233 -0.17221,0.233c0,0 0,0 -0.03733,-0.11643z" fill="#4e6f7d"/></g></g><g stroke-width="1"><path d="M227.17848,199.61986c0,0 -6.54566,6.13837 -17.11151,3.61978c-0.2935,-0.08368 -0.43339,-0.33513 -0.21455,-0.48431c1.76933,-1.25868 7.97127,-5.69668 7.60683,-7.6342c4.81636,-0.07263 7.86367,1.60717 9.71922,4.49874z" fill="#6da3b2"/><path d="M217.39432,195.59628c-0.08368,0.2935 -0.26976,0.69886 -0.53967,1.15084c-0.16292,0.20039 -0.30252,0.44269 -0.50734,0.66639c-0.17221,0.233 -0.38634,0.48931 -0.62377,0.70372c-0.23744,0.21441 -0.48417,0.46142 -0.72161,0.67583c-0.23744,0.21441 -0.48417,0.46142 -0.75422,0.66653c-0.24673,0.24702 -0.51678,0.45212 -0.78683,0.65723c-0.24673,0.24702 -0.50748,0.41951 -0.77753,0.62462c-0.49819,0.3869 -0.98708,0.74119 -1.42476,1.03956c-0.43768,0.29836 -0.78225,0.51749 -1.043,0.68999c-0.21884,0.14918 -0.38648,0.24244 -0.38648,0.24244c0,0 0.11171,-0.14446 0.33985,-0.32626c0.23744,-0.21441 0.55869,-0.47544 0.94045,-0.82501c0.41437,-0.34027 0.83804,-0.71316 1.34552,-1.13267c0.47487,-0.42881 1.01497,-0.83903 1.53175,-1.29115c0.27005,-0.20511 0.51678,-0.45212 0.78683,-0.65723c0.27005,-0.20511 0.50748,-0.41951 0.74492,-0.63392c0.23744,-0.21441 0.46558,-0.3962 0.6704,-0.6199c0.23744,-0.21441 0.40035,-0.41479 0.56327,-0.61518c0.28392,-0.37746 0.52594,-0.73161 0.64222,-1.01582c0.11629,-0.28421 0.13016,-0.45656 0.13016,-0.45656c0,0 0.05135,0.19095 -0.13016,0.45656z" fill="#4e6f7d"/><path d="M226.5919,200.19312c-0.18623,0.15848 -0.42367,0.37288 -0.69371,0.57799c-0.13502,0.10255 -0.30266,0.19581 -0.44698,0.33098c-0.17693,0.12587 -0.34457,0.21912 -0.5215,0.34499c-0.34457,0.21912 -0.76366,0.45227 -1.18275,0.68541c-0.40979,0.20053 -0.87079,0.45699 -1.37841,0.62962c-0.23286,0.07466 -0.47501,0.18194 -0.74978,0.27991c-0.24216,0.10727 -0.50763,0.17264 -0.78239,0.27061c-0.11643,0.03733 -0.24216,0.10727 -0.3912,0.13531l-0.41451,0.0934c-0.26547,0.06536 -0.56355,0.12143 -0.82902,0.1868c-0.59616,0.11213 -1.14112,0.16834 -1.69537,0.25716c-0.56827,0.0143 -1.11323,0.07051 -1.64889,0.09411c-0.52636,-0.00901 -1.04343,-0.05064 -1.53718,-0.05036c-0.49375,0.00028 -0.95961,-0.09727 -1.36954,-0.14361c-0.44254,-0.05564 -0.81987,-0.09269 -1.14598,-0.18566c-0.33541,-0.06036 -0.63821,-0.11143 -0.86649,-0.17651c-0.49847,-0.10685 -0.75936,-0.18123 -0.75936,-0.18123c0,0 0.3121,0.01845 0.78725,0.08339c0.23758,0.03247 0.54038,0.08353 0.88509,0.11129c0.33541,0.06036 0.72203,0.0648 1.14126,0.07853c0.20497,0.02317 0.45184,0.02303 0.65681,0.0462c0.21426,-0.00944 0.45184,0.02303 0.69872,0.02289c0.49375,-0.00028 0.9968,-0.03318 1.52316,-0.02416c0.51235,-0.06551 1.048,-0.0891 1.59296,-0.14531c0.52164,-0.09812 1.0759,-0.18694 1.63015,-0.27576c0.29808,-0.05607 0.56355,-0.12143 0.82902,-0.1868l0.41451,-0.0934c0.11643,-0.03733 0.26547,-0.06536 0.3819,-0.1027c0.27477,-0.09798 0.50763,-0.17264 0.7731,-0.238c0.27477,-0.09798 0.51692,-0.20525 0.74978,-0.27991c0.49833,-0.14003 0.95003,-0.36387 1.39243,-0.5551c0.20954,-0.11657 0.41909,-0.23314 0.61934,-0.3171c0.20025,-0.08396 0.40979,-0.20053 0.57743,-0.29379c0.17693,-0.12587 0.34457,-0.21912 0.5122,-0.31238c0.16764,-0.09326 0.33527,-0.18651 0.47029,-0.28907c0.29336,-0.1632 0.5215,-0.34499 0.74034,-0.49418c0.17693,-0.12587 0.35387,-0.25174 0.44698,-0.33098c0.09312,-0.07924 0.14432,-0.13517 0.14432,-0.13517c0,0 -0.16292,0.20039 -0.55397,0.58257z" fill="#4e6f7d"/></g><path d="M239.74399,181.33781c1.29388,0.17612 2.57924,0.93687 3.70579,1.56658c0.9561,0.54287 48.52512,26.16238 48.52512,26.16238c0,0 0.04933,0.70597 0.08676,0.95559c-10.56123,-3.87124 -50.34525,-20.95485 -50.51719,-21.04933c-1.06507,-0.58467 -2.66544,-1.24298 -3.461,-2.16098c-1.04853,-1.21118 -0.69886,-2.92526 -0.16811,-4.28575c0.24111,-0.45739 1.33552,-1.03122 1.82862,-1.18847z" fill="#ffc800" stroke-width="1"/><path d="M291.51604,211.24156c-1.3476,0.00585 -1.94106,-1.58441 -1.96824,-2.06819c-0.0172,-0.30609 0.00529,-1.94581 0.56693,-2.32147c0.56214,-0.37583 1.52978,-0.47436 2.46197,0.18472c0.93219,0.65908 0.28496,4.20307 -1.06066,4.20494z" fill="#ffc800" stroke-width="1"/><text transform="translate(169.82978,141.56217) rotate(8.98231) scale(0.45338,0.45338)" font-size="40" xml:space="preserve" fill="#000000" fill-rule="nonzero" stroke="none" stroke-width="1" stroke-linecap="butt" stroke-linejoin="miter" stroke-miterlimit="10" stroke-dasharray="" stroke-dashoffset="0" font-family="&quot;ヒラギノ角ゴ Pro W3&quot;, &quot;Hiragino Kaku Gothic Pro&quot;, Osaka, &quot;メイリオ&quot;, Meiryo, &quot;ＭＳ Ｐゴシック&quot;, &quot;MS PGothic&quot;" font-weight="normal" text-anchor="start" style="mix-blend-mode: normal"><tspan x="0" dy="0">Whack-A-Shark</tspan></text><text transform="translate(228.375,178.38643) scale(0.12451,0.12451)" font-size="40" xml:space="preserve" fill="#000000" fill-rule="nonzero" stroke="none" stroke-width="1" stroke-linecap="butt" stroke-linejoin="miter" stroke-miterlimit="10" stroke-dasharray="" stroke-dashoffset="0" font-family="&quot;ヒラギノ角ゴ Pro W3&quot;, &quot;Hiragino Kaku Gothic Pro&quot;, Osaka, &quot;メイリオ&quot;, Meiryo, &quot;ＭＳ Ｐゴシック&quot;, &quot;MS PGothic&quot;" font-weight="normal" text-anchor="start" style="mix-blend-mode: normal"><tspan x="0" dy="0">Bonk</tspan></text></g></g></svg>