<svg version="1.1" xmlns="http://www.w3.org/2000/svg" xmlns:xlink="http://www.w3.org/1999/xlink" width="199.99998" height="199.99998" viewBox="0,0,199.99998,199.99998"><defs><linearGradient x1="240" y1="80.00001" x2="240" y2="279.99999" gradientUnits="userSpaceOnUse" id="color-1"><stop offset="0" stop-color="#66d6ff"/><stop offset="1" stop-color="#66b0ff"/></linearGradient></defs><g transform="translate(-140.00001,-80.00001)"><g data-paper-data="{&quot;isPaintingLayer&quot;:true}" stroke="none" stroke-linecap="butt" stroke-linejoin="miter" stroke-miterlimit="10" stroke-dasharray="" stroke-dashoffset="0" style="mix-blend-mode: normal"><path d="M140.00001,279.99999v-199.99998h199.99998v199.99998z" fill="url(#color-1)" fill-rule="nonzero" stroke-width="0"/><g fill-rule="nonzero" stroke-width="1"><g><path d="M321.34284,114.28661l8.89049,16.5547c0,0 -14.79193,4.06203 -17.62769,-0.61314c-2.9124,-4.67517 8.7372,-15.94156 8.7372,-15.94156z" fill="#e2bb7d"/><path d="M328.77713,128.31212c-2.98904,1.07299 -6.13137,1.60948 -9.35034,1.68613c-1.9927,0 -4.13868,0 -6.20801,-0.07664c-0.30657,0.07664 -0.53649,0.22993 -0.76642,0.30657c0,-0.07664 0,-0.07664 -0.07664,-0.15328c-0.30657,-0.53649 -0.45985,-1.14963 -0.45985,-1.76277c0.15328,-0.84306 0.38321,-2.14598 0.76642,-2.9124c0.15328,-0.22993 0.38321,-0.38321 0.53649,-0.45985c1.68613,-1.30292 3.21897,-2.75912 4.75181,-4.21532c1.53284,-1.4562 2.9124,-3.14233 4.13868,-4.9051l0.84306,1.60948c-1.68613,2.22262 -3.52554,4.29196 -5.59488,6.13137c-0.99635,0.91971 -1.91605,2.14598 -2.9124,3.21897c2.60583,-1.14963 5.21166,-2.37591 7.43429,-3.75546c1.07299,-0.61314 2.06934,-1.22627 2.98904,-1.91605l0.76642,1.37956c-1.14963,0.84306 -2.37591,1.60948 -3.60218,2.37591c-1.91605,1.14963 -3.75546,2.45255 -5.74816,3.67882c0.61314,0 1.14963,0 1.76277,0c3.4489,0 6.82115,-0.53649 10.04012,-1.60948z" fill="#d2ae69"/></g><g><path d="M255.20068,130.15153c-2.9124,4.67517 -17.62769,0.61314 -17.62769,0.61314l8.81384,-16.47806c0,0 11.6496,11.26639 8.81384,15.86492z" fill="#e2bb7d"/><path d="M239.64233,126.93256c3.21897,1.07299 6.59122,1.60948 10.04012,1.60948c0.61314,0 1.14963,0 1.76277,0c-1.9927,-1.22627 -3.83211,-2.52919 -5.74816,-3.67882c-1.22627,-0.76642 -2.45255,-1.53284 -3.60218,-2.37591l0.76642,-1.37956c0.91971,0.68978 1.91605,1.30292 2.98904,1.91605c2.22262,1.37956 4.82845,2.60583 7.43429,3.75546c-0.99635,-1.07299 -1.91605,-2.29926 -2.9124,-3.21897c-2.06934,-1.83941 -3.90875,-3.90875 -5.59488,-6.13137l0.84306,-1.60948c1.22627,1.76277 2.60583,3.4489 4.13868,4.9051c1.53284,1.4562 3.06569,2.9124 4.75181,4.21532c0.15328,0.07664 0.38321,0.22993 0.53649,0.45985c0.38321,0.76642 0.61314,2.06934 0.76642,2.9124c0,0.61314 -0.15328,1.22627 -0.45985,1.76277c-0.07664,0.07664 -0.07664,0.07664 -0.07664,0.15328c-0.22993,-0.07664 -0.45985,-0.22993 -0.76642,-0.30657c-2.06934,0.07664 -4.21532,0.07664 -6.20801,0.07664c-3.21897,-0.07664 -6.3613,-0.61314 -9.35034,-1.68613z" fill="#d2ae69"/></g></g><g fill-rule="nonzero" stroke-width="1"><path d="M314.52169,143.10405c2.83576,2.98904 8.35399,4.3686 8.35399,4.3686c0,0 -6.05473,-0.68978 -9.58027,0.53649c-0.07664,0.38321 -0.22993,0.84306 -0.38321,1.22627c2.29926,3.06569 6.74451,5.05838 6.74451,5.05838c0,0 -4.82845,-1.4562 -8.35399,-1.30292c-0.30657,0.53649 -0.61314,1.07299 -0.91971,1.60948c1.4562,3.98539 6.05473,7.35764 6.05473,7.35764c0,0 -4.98174,-2.60583 -8.58392,-3.06569c0,4.75181 4.98174,9.96348 4.98174,9.96348c0,0 -6.43794,-5.13502 -10.1934,-5.13502c-0.22993,0.15328 -0.38321,0.30657 -0.61314,0.45985c-0.15328,3.83211 2.37591,8.20071 2.75912,8.7372l0.07664,0.07664l-0.07664,-0.07664l-0.30657,-0.38321c-0.91971,-1.14963 -3.83211,-4.29196 -6.43794,-5.74816c-0.30657,0.22993 -0.68978,0.38321 -1.07299,0.61314c-0.68978,3.90875 1.07299,8.81384 1.07299,8.81384c0,0 -2.52919,-4.67517 -5.13502,-7.05108c-0.45985,0.15328 -0.91971,0.30657 -1.37956,0.45985c-1.37956,3.83211 -0.38321,8.96713 -0.38321,8.96713c0,0 -1.68613,-5.05838 -3.98539,-7.89414c-0.30657,0.07664 -0.61314,0.07664 -0.91971,0.15328l-0.07664,0.07664h-1.37956c-2.37591,3.67882 -2.52919,9.42698 -2.52919,9.42698c0,0 -0.68978,-6.05473 -2.45255,-9.42698h-1.37956c-0.22993,0 -0.53649,0 -0.76642,-0.07664c-2.60583,2.98904 -3.75546,7.74086 -3.75546,7.74086c0,0 0.53649,-4.98174 -0.22993,-8.50728c-0.84306,-0.15328 -1.60948,-0.45985 -2.37591,-0.68978c-3.21897,2.29926 -5.36495,6.97443 -5.36495,6.97443c0,0 1.60948,-5.21166 1.30292,-8.7372c-0.53649,-0.30657 -1.14963,-0.53649 -1.68613,-0.91971c-3.37225,1.76277 -6.13137,5.51823 -6.13137,5.51823c0,0 2.22262,-4.21532 2.9124,-7.66421c-0.38321,-0.30657 -0.68978,-0.53649 -1.07299,-0.84306c-4.59853,0.38321 -9.35034,4.98174 -9.35034,4.98174c0,0 4.44524,-5.51823 5.05838,-9.2737c-0.38321,-0.45985 -0.68978,-0.91971 -1.07299,-1.37956c-3.29561,0.38321 -6.59122,2.22262 -7.35764,2.68247l-0.07664,0.07664h-0.15328l0.07664,-0.07664l0.07664,-0.07664l0.38321,-0.38321c0.22993,-0.22993 0.61314,-0.53649 0.99635,-0.91971c1.30292,-1.22627 2.45255,-2.45255 3.52554,-3.83211v-0.07664c0.15328,-0.15328 0.30657,-0.30657 0.38321,-0.53649c-0.45985,-0.76642 -0.84306,-1.60948 -1.22627,-2.37591c-3.67882,0 -7.51093,1.68613 -7.51093,1.68613c0,0 3.83211,-2.29926 6.20801,-4.9051c-0.22993,-0.76642 -0.45985,-1.4562 -0.68978,-2.22262c-3.67882,-0.84306 -7.89414,-0.07664 -7.89414,-0.07664c0,0 4.21532,-1.37956 7.12772,-3.37225c-0.07664,-0.76642 -0.15328,-1.60948 -0.22993,-2.37591c-3.60218,-2.75912 -10.1934,-3.21897 -10.1934,-3.21897c0,0 7.20436,-0.84306 10.27005,-3.06569c0.68978,-6.43794 3.29561,-12.49267 7.51093,-17.39776c-0.07664,-4.67517 -4.98174,-9.88683 -4.98174,-9.88683c0,0 6.20801,4.9051 9.96348,5.13502c0.38321,-0.30657 0.68978,-0.53649 1.07299,-0.76642c-0.22993,-3.98539 -2.83576,-8.20071 -2.83576,-8.20071c0,0 0.15328,0.15328 0.38321,0.45985l-0.15328,-0.22993c0,0 0.84306,0.99635 2.06934,2.29926c1.22627,1.30292 2.60583,2.45255 4.06203,3.37225c2.14598,-1.14963 4.52189,-2.06934 6.89779,-2.68247c1.37956,-3.83211 0.38321,-8.89049 0.38321,-8.89049c0,0 1.76277,5.21166 4.13868,8.12407c0.38321,-0.07664 0.84306,-0.07664 1.30292,-0.15328c3.37225,-3.37225 3.4489,-10.7299 3.4489,-10.7299c0,0 0.99635,8.27735 3.60218,10.88318l0.68978,0.07664c2.9124,-2.9124 4.21532,-8.12407 4.21532,-8.12407c0,0 -0.61314,5.67152 0.45985,9.19706c2.45255,0.84306 4.82845,1.83941 7.05108,3.21897c3.90875,-1.4562 7.12772,-5.97809 7.12772,-5.97809c0,0 -2.52919,4.67517 -3.06569,8.27735c4.75181,0.22993 10.1934,-4.98174 10.1934,-4.98174c0,0 -6.20801,7.66421 -5.05838,11.11311l0.15328,0.22993c4.21532,0.15328 9.04377,-2.83576 9.04377,-2.83576c0,0 -4.75181,3.83211 -6.3613,7.12772c0.30657,0.53649 0.53649,1.07299 0.76642,1.60948c0.61314,1.22627 1.07299,2.52919 1.4562,3.83211c0.45985,1.60948 0.84306,3.21897 1.07299,4.82845c2.45255,4.67517 11.6496,4.9051 11.6496,4.9051h-0.15328c-1.14963,0.07664 -9.73355,1.22627 -11.18975,4.29196z" fill="#eac685"/><path d="M315.05819,144.94346c-1.4562,-0.68978 -2.9124,-1.30292 -4.3686,-1.83941c-1.22627,2.06934 -2.75912,3.98539 -4.3686,5.74816c0.84306,1.30292 1.91605,2.45255 3.06569,3.52554c-1.37956,-0.91971 -2.75912,-1.76277 -4.21532,-2.45255c-0.84306,0.91971 -1.76277,1.60948 -2.68247,2.37591c0.45985,1.9927 1.22627,3.75546 2.14598,5.51823c-1.22627,-1.53284 -2.52919,-2.9124 -3.90875,-4.21532c-1.30292,0.91971 -2.75912,1.76277 -4.21532,2.45255c0.53649,2.29926 1.53284,4.44524 2.75912,6.43794c0,0 -2.83576,-3.37225 -5.74816,-5.21166c-1.37956,0.53649 -2.75912,0.91971 -4.13868,1.22627c0,1.9927 0.22993,3.90875 0.76642,5.8248c-0.84306,-1.83941 -1.83941,-3.67882 -2.98904,-5.36495c-1.07299,0.22993 -2.22262,0.30657 -3.29561,0.38321c-0.68978,1.9927 -0.99635,4.13868 -1.07299,6.20801c-0.30657,-2.14598 -0.76642,-4.13868 -1.37956,-6.20801c-1.4562,0 -2.98904,-0.15328 -4.44524,-0.38321c-1.07299,1.91605 -1.91605,3.98539 -2.45255,6.20801c0.15328,-2.22262 0.07664,-4.52189 -0.22993,-6.74451c-1.22627,-0.30657 -2.37591,-0.61314 -3.60218,-1.07299c-2.9124,2.29926 -4.9051,6.05473 -4.9051,6.05473c0.84306,-2.37591 1.4562,-4.9051 1.76277,-7.35764c-1.22627,-0.61314 -2.45255,-1.30292 -3.60218,-2.06934c-1.76277,1.14963 -3.37225,2.60583 -4.75181,4.21532c1.07299,-1.76277 1.9927,-3.67882 2.75912,-5.67152c-0.76642,-0.53649 -1.4562,-1.14963 -2.14598,-1.76277c-4.3686,-0.53649 -9.81019,3.52554 -9.81019,3.52554c0,0 4.75181,-4.59853 5.74816,-8.04742c-1.30292,-1.68613 -2.29926,-3.4489 -3.21897,-5.28831c-2.22262,0.07664 -4.44524,0.53649 -6.51458,1.30292c1.91605,-1.07299 3.75546,-2.29926 5.44159,-3.67882c-0.61314,-1.60948 -1.14963,-3.37225 -1.53284,-5.13502c0,-0.15328 0,-0.38321 0.07664,-0.61314c-2.9124,-2.29926 -7.12772,-3.29561 -7.12772,-3.29561c0,0 4.3686,0.45985 7.89414,-0.15328c0.30657,-0.99635 0.61314,-1.9927 0.99635,-2.9124c-1.68613,-1.53284 -3.60218,-2.83576 -5.67152,-3.83211c2.22262,0.68978 4.52189,1.07299 6.82115,1.30292c0.53649,-0.99635 1.14963,-2.06934 1.76277,-3.06569c-1.83941,-3.29561 -5.44159,-5.90144 -5.44159,-5.90144c0,0 4.06203,2.14598 7.51093,2.9124c3.37225,-4.13868 7.74086,-7.43429 12.72259,-9.50362c0,-2.45255 -0.45985,-4.9051 -1.22627,-7.20436c1.14963,2.22262 2.60583,4.21532 4.21532,6.13137c2.22262,-0.68978 4.52189,-1.07299 6.89779,-1.30292c3.37225,-3.29561 3.60218,-10.65326 3.60218,-10.65326c0,0 0.99635,8.27735 3.60218,10.88318c2.52919,0.30657 4.98174,0.99635 7.35764,1.91605c2.83576,-2.37591 4.59853,-6.43794 4.59853,-6.43794c0,0 -1.37956,4.52189 -1.30292,7.97078c4.3686,2.29926 8.04742,5.59488 10.95982,9.50362c4.21532,0.15328 9.04377,-2.83576 9.04377,-2.83576c0,0 -4.75181,3.83211 -6.3613,7.12772c0.22993,0.38321 0.38321,0.84306 0.61314,1.22627c3.60218,0.76642 7.58757,0 7.58757,0c-2.14598,0.76642 -4.29196,1.76277 -6.3613,2.9124c0.22993,0.61314 0.38321,1.22627 0.61314,1.83941c3.83211,1.68613 9.58027,0.61314 9.58027,0.61314c0,0 -6.59122,2.22262 -8.96713,4.98174c-0.61314,2.52919 -1.53284,4.9051 -2.75912,7.12772c0.99635,1.22627 2.22262,2.29926 3.90875,2.75912z" fill="#f2d39a"/></g><g fill-rule="nonzero" stroke-width="1"><g fill="#e7c684"><path d="M260.18242,130.91795c0,0.61314 -0.53649,1.14963 -1.14963,1.14963c-0.61314,0 -1.14963,-0.53649 -1.14963,-1.14963v-0.22993c0,-0.61314 0.45985,-1.14963 1.14963,-1.14963c0.68978,0 1.14963,0.53649 1.14963,1.14963z"/><path d="M264.78095,130.22818c0.15328,0.30657 0.07664,0.68978 -0.07664,0.91971c-0.30657,0.45985 -0.76642,0.61314 -1.22627,0.53649c-0.22993,0 -0.38321,-0.07664 -0.61314,-0.15328c-0.53649,-0.30657 -0.76642,-1.07299 -0.38321,-1.60948c0.30657,-0.45985 0.84306,-0.76642 1.37956,-0.68978c0.53649,0.07664 0.99635,0.45985 0.91971,0.99635z"/><path d="M261.17877,136.35955c-1.4562,0 -1.4562,-2.37591 0,-2.37591c1.53284,0 1.4562,2.37591 0,2.37591z"/><path d="M267.99992,136.20626c-1.4562,0 -1.4562,-2.37591 0,-2.37591c1.53284,0 1.53284,2.29926 0,2.37591z"/><path d="M295.82101,133.83036c-1.07299,0 -1.07299,-1.60948 0,-1.60948c1.07299,0 1.07299,1.68613 0,1.60948z"/><path d="M299.49983,131.45445c-1.4562,0 -1.4562,-2.37591 0,-2.37591c1.53284,0 1.53284,2.37591 0,2.37591z"/><path d="M306.55091,132.22087c-1.4562,0 -1.4562,-2.37591 0,-2.37591c1.53284,0 1.53284,2.29926 0,2.37591z"/><path d="M300.87939,134.97999c-1.07299,0 -1.07299,-1.60948 0,-1.60948c1.07299,0 1.07299,1.68613 0,1.60948z"/><path d="M282.48528,130.07489c-1.4562,0 -1.4562,-2.37591 0,-2.37591c1.4562,0 1.4562,2.37591 0,2.37591z"/></g><g><path d="M293.29182,114.89975c-0.07664,-0.38321 0.15328,-0.76642 0.53649,-0.91971c1.30292,-0.53649 2.83576,0 3.90875,0.91971c0.84306,0.61314 -0.30657,1.68613 -1.07299,1.07299c-0.61314,-0.53649 -1.53284,-0.76642 -2.37591,-0.45985c-0.38321,0.07664 -0.76642,-0.15328 -0.99635,-0.61314z" fill="#d2ae69"/><g><path d="M290.99256,123.94352c-0.22993,-2.22262 1.30292,-4.29196 3.52554,-4.52189c2.22262,-0.22993 4.29196,1.30292 4.52189,3.52554c0.15328,1.53284 -0.53649,2.9124 -1.60948,3.75546c-0.53649,-0.15328 -1.14963,-0.30657 -1.53284,-0.30657c-1.07299,-0.07664 -2.06934,0.15328 -2.98904,0.53649c-1.07299,-0.61314 -1.83941,-1.68613 -1.91605,-2.98904z" fill="#ffffff"/><path d="M295.13123,125.32308c-0.38321,0.07664 -0.68978,0 -0.99635,-0.15328c0.38321,-0.30657 0.68978,-0.68978 0.61314,-1.22627c-0.07664,-0.68978 -0.68978,-1.14963 -1.37956,-1.07299c-0.07664,0 -0.07664,0.07664 -0.15328,0.07664c0.22993,-0.68978 0.76642,-1.14963 1.4562,-1.22627c0.99635,-0.07664 1.9927,0.61314 2.06934,1.60948c0.15328,0.99635 -0.53649,1.91605 -1.60948,1.9927z" fill="#737977"/></g></g><path d="M278.04004,135.20991c1.68613,2.98904 6.97443,2.68247 8.43063,-0.30657c0.38321,-0.61314 1.30292,0 0.99635,0.61314c-1.76277,3.75546 -8.27735,3.98539 -10.34669,0.30657c-0.30657,-0.61314 0.61314,-1.14963 0.91971,-0.61314z" fill="#737977"/><g><path d="M266.23715,115.05303c1.14963,-0.84306 2.60583,-1.22627 4.06203,-0.91971c0.99635,0.07664 0.61314,1.60948 -0.38321,1.4562c0.38321,0.07664 -0.68978,0 -0.91971,0c-0.61314,0 -1.14963,0.15328 -1.68613,0.53649c-0.76642,0.68978 -1.83941,-0.38321 -1.07299,-1.07299z" fill="#d2ae69"/><g><path d="M267.38678,127.00921c-1.07299,-0.61314 -1.83941,-1.68613 -1.9927,-2.98904c-0.22993,-2.22262 1.30292,-4.29196 3.52554,-4.52189c2.22262,-0.22993 4.29196,1.30292 4.52189,3.52554c0.22993,1.4562 -0.45985,2.83576 -1.53284,3.67882c-0.53649,-0.22993 -1.07299,-0.30657 -1.4562,-0.30657c-1.07299,-0.07664 -2.14598,0.15328 -3.06569,0.61314z" fill="#ffffff"/><path d="M269.37948,125.39972c-0.38321,0 -0.68978,0 -1.07299,-0.22993c0.38321,-0.22993 0.61314,-0.68978 0.53649,-1.14963c-0.07664,-0.61314 -0.68978,-1.14963 -1.30292,-1.07299c0.30657,-0.68978 0.84306,-1.14963 1.53284,-1.22627c0.99635,-0.07664 1.9927,0.61314 2.06934,1.60948c0.15328,0.99635 -0.61314,1.91605 -1.76277,2.06934z" fill="#737977"/></g></g><path d="M287.23709,141.95442c-4.3686,2.29926 -4.98174,9.50362 -4.98174,9.50362c0,0 -0.61314,-8.20071 -3.83211,-9.2737c0,0 2.60583,0.91971 4.29196,0.91971c2.06934,0.07664 4.52189,-1.14963 4.52189,-1.14963z" fill="#eac685"/></g><g fill-rule="nonzero" stroke-width="1"><path d="M190.32121,147.43882c-1.4595,-0.2919 -0.8757,-0.1946 -1.1676,-1.4595c-0.2919,-1.6541 -1.7514,-2.91899 -2.14059,-4.67039c-0.2919,-1.4595 -0.0973,-4.08659 0.6811,-5.35149c1.26489,-2.14059 2.33519,-3.79469 4.76769,-4.76769c1.84869,-0.6811 3.60009,-0.4865 5.44879,-0.7784c2.2379,-0.2919 3.98929,0.97299 6.03259,1.6541c2.43249,0.7784 5.15689,1.7514 7.68668,1.84869c0.6811,0 1.55679,0 2.2379,-0.2919c0.5838,-0.2919 0.97299,-0.8757 1.55679,-1.0703c1.84869,-0.5838 4.28119,0.3892 5.93529,-1.0703c1.6541,-1.4595 0.7784,-3.98929 2.91899,-4.96229c0.7784,-0.2919 1.4595,-0.3892 2.14059,-0.8757c0.8757,-0.5838 1.55679,-0.3892 2.62709,-0.7784c2.5298,-0.8757 3.98929,-0.0973 6.03259,1.26489c0.5838,0.3892 1.1676,0.97299 1.7514,1.1676c0.3892,0.1946 0.8757,0.1946 1.1676,0.2919c1.26489,0.5838 1.26489,0.5838 2.04329,3.60009c0.4865,1.946 -0.0973,7.78398 -0.0973,7.78398z" fill="#120201"/><path d="M192.55911,149.28752c-1.4595,-0.2919 -0.8757,-0.1946 -1.1676,-1.4595c-0.2919,-1.6541 -1.4595,-1.55679 -1.7514,-3.30819c-0.2919,-1.4595 -1.6541,-3.89199 -0.8757,-5.25419c1.26489,-2.14059 1.946,-5.15689 4.47579,-6.12988c1.84869,-0.6811 3.60009,-0.4865 5.44879,-0.7784c2.2379,-0.2919 3.98929,0.97299 6.03259,1.6541c2.43249,0.7784 5.15689,1.7514 7.68668,1.84869c0.6811,0 1.55679,0 2.2379,-0.2919c0.5838,-0.2919 0.97299,-0.8757 1.55679,-1.0703c1.84869,-0.5838 4.28119,0.3892 5.93529,-1.0703c1.6541,-1.4595 0.7784,-3.98929 2.91899,-4.96229c0.7784,-0.2919 1.4595,-0.3892 2.14059,-0.8757c0.8757,-0.5838 1.55679,-0.3892 2.62709,-0.7784c2.5298,-0.8757 3.98929,-0.0973 6.03259,1.26489c0.5838,0.3892 1.1676,0.97299 1.7514,1.1676c0.3892,0.1946 0.8757,0.1946 1.1676,0.2919c1.26489,0.5838 1.26489,0.5838 2.04329,3.60009c0.4865,1.946 -0.0973,7.78398 -0.0973,7.78398z" fill="#e85f1a"/><path d="M221.45714,131.67626c0,-0.0973 1.946,2.14059 2.82169,3.98929c0.1946,0.2919 0.8757,1.84869 0.97299,2.14059c0.4865,1.1676 0.97299,2.33519 1.4595,3.69739l-16.73556,2.82169c-0.2919,-0.97299 -0.5838,-1.946 -0.8757,-2.91899c-0.1946,-0.6811 -0.3892,-1.26489 -0.6811,-1.946c0,-0.0973 -0.0973,-0.0973 -0.0973,-0.1946v-0.0973v0c-0.0973,-0.2919 -0.2919,-0.5838 -0.3892,-0.8757c-0.6811,-1.55679 -1.4595,-3.69739 -2.43249,-5.54609c2.04329,0.5838 4.18389,1.26489 6.22719,1.3622c0.6811,0 1.55679,0 2.2379,-0.2919c0.5838,-0.2919 0.97299,-0.8757 1.55679,-1.0703c1.946,-0.5838 4.37849,0.3892 5.93529,-1.0703c0,-0.0973 0,-0.0973 0,0z" fill="#fcc3ac"/><path d="M209.97576,137.12504l1.6541,6.81099l-21.50324,3.60009c-0.0973,-0.0973 -0.1946,-0.0973 -0.2919,-0.0973c-0.0973,0 -0.0973,0 -0.0973,0c-0.1946,0 -0.2919,-0.0973 -0.3892,-0.0973v0c0,-0.0973 -0.0973,-0.0973 -0.0973,-0.0973v0c-0.0973,0 -0.0973,-0.0973 -0.0973,-0.0973v0v-0.0973v0v-0.0973c0,-0.0973 0,-0.0973 0,-0.1946v0c1.1676,-0.8757 2.33519,-1.55679 3.50279,-2.33519c-0.8757,-1.4595 -1.946,-2.72439 -3.21089,-3.89199c-0.7784,-0.7784 -1.55679,-1.7514 -2.43249,-2.5298c0.0973,-0.3892 0.1946,-0.7784 0.2919,-1.0703c1.0703,0.8757 1.946,1.946 2.91899,2.82169c1.26489,1.1676 2.43249,2.5298 3.30819,4.08659c0.5838,-0.3892 1.1676,-0.7784 1.7514,-1.0703c-1.3622,-3.50279 -3.21089,-6.81099 -5.44879,-9.82728c0.1946,-0.2919 0.3892,-0.4865 0.6811,-0.6811c2.33519,3.11359 4.18389,6.42178 5.64339,10.02188c0.1946,-0.0973 0.3892,-0.1946 0.5838,-0.2919c0.5838,-0.3892 1.26489,-0.6811 1.84869,-0.97299c-0.97299,-3.60009 -2.14059,-7.20018 -4.08659,-10.31378c0.3892,-0.0973 0.6811,-0.0973 1.0703,-0.0973c1.84869,3.11359 2.91899,6.51909 3.89199,10.02188c1.3622,-0.5838 2.62709,-1.1676 3.98929,-1.6541c-0.7784,-3.01629 -2.04329,-5.83798 -3.79469,-8.46508c0.4865,0.0973 0.97299,0.1946 1.4595,0.3892c1.4595,2.43249 2.5298,4.96229 3.30819,7.68668c0.2919,-0.0973 5.44879,-1.4595 5.54609,-1.4595z" fill="#f47621"/><path d="M222.13823,142.18463l-3.30819,0.3892l-2.14059,0.3892l-3.60009,0.5838l-1.26489,0.1946l-1.6541,-6.81099c0,0 -0.8757,-2.33519 -1.3622,-3.50279c0.3892,0.0973 0.6811,0.0973 0.97299,0.1946c0.4865,1.0703 0.8757,2.04329 1.26489,3.11359c1.26489,-0.2919 2.5298,-0.4865 3.79469,-0.6811c-0.2919,-0.7784 -0.5838,-1.6541 -0.8757,-2.43249v0c0.1946,-0.0973 0.3892,-0.1946 0.5838,-0.3892c0.2919,0.97299 0.6811,1.84869 0.97299,2.82169c0.0973,0 0.0973,0 0.1946,0c1.3622,-0.1946 2.62709,-0.2919 3.89199,-0.3892c-0.2919,-1.0703 -0.6811,-2.14059 -1.0703,-3.21089c0.1946,0 0.4865,0 0.7784,0c0.3892,1.0703 0.7784,2.14059 1.0703,3.21089z" fill="#ffffff"/><path d="M240.23599,138.58454v0c0,0.0973 0,0.1946 0,0.2919v0c0,0.0973 -18.00045,3.30819 -18.00045,3.30819l-1.7514,-6.61638c0.2919,0 5.15689,0 5.44879,0c-0.6811,-2.62709 -1.7514,-5.05959 -2.91899,-7.49208c0.1946,-0.3892 0.3892,-0.6811 0.6811,-0.97299c1.4595,2.72439 2.5298,5.54609 3.30819,8.46508c0.7784,0 1.55679,0.0973 2.33519,0.1946c-0.0973,-3.60009 -0.6811,-7.10289 -2.04329,-10.41107c0.2919,-0.0973 0.6811,-0.0973 0.97299,-0.1946c1.3622,3.40549 1.946,7.10289 2.04329,10.80027c0.8757,0.0973 1.84869,0.2919 2.72439,0.4865c0.1946,-3.98929 -0.1946,-8.07588 -1.55679,-11.87057c0.3892,0 0.6811,0.0973 1.0703,0.1946c1.26489,3.89199 1.55679,7.88128 1.4595,11.96787c0.8757,0.1946 1.7514,0.3892 2.62709,0.6811c0.1946,-3.60009 0,-7.29748 -0.8757,-10.80027c0.3892,0.2919 0.7784,0.5838 1.1676,0.7784c0.7784,3.30819 0.8757,6.81099 0.6811,10.31378c0.8757,0.2919 1.7514,0.5838 2.62709,0.8757z" fill="#f47621"/></g><g fill-rule="nonzero" stroke-width="1"><path d="M220.58144,168.16367c-0.5838,0.97299 -6.32449,4.18389 -8.17318,5.05959c-0.97299,0.3892 -1.946,0.7784 -3.01629,1.1676c-0.6811,0.2919 -1.1676,0.5838 -1.55679,0.7784c-2.04329,0.97299 -4.47579,1.7514 -6.71368,2.33519c-1.4595,0.3892 -1.946,-0.4865 -3.79469,-1.0703c-1.84869,-0.5838 -3.30819,0.6811 -5.25419,0.2919c-0.6811,-0.1946 -1.4595,-0.3892 -1.84869,-1.0703c-0.1946,-0.2919 -0.3892,-0.97299 -0.5838,-1.1676c-0.5838,-0.4865 -0.97299,0.0973 -1.6541,-0.1946c-0.5838,-0.1946 -1.0703,-0.8757 -1.26489,-1.4595c-0.1946,-0.97299 -0.2919,-1.4595 -0.2919,-2.2379c-0.0973,-1.0703 -0.7784,-1.946 -0.2919,-3.11359c0.4865,-1.26489 2.2379,-1.84869 3.30819,-2.2379c0.3892,-0.1946 0.8757,-0.3892 1.3622,-0.4865c0.8757,-0.7784 2.33519,-1.26489 3.11359,-1.55679c1.55679,-0.6811 3.40549,-0.97299 4.96229,-1.6541z" fill="#000600"/><path d="M220.48414,167.96907c-0.5838,0.97299 -6.32449,4.18389 -8.17318,5.05959c-2.04329,0.97299 -4.47579,1.7514 -6.71368,2.33519c-1.4595,0.3892 -3.21089,0.6811 -3.79469,-1.0703c-1.84869,-0.0973 -3.69739,0.6811 -5.64339,0.2919c-0.6811,-0.1946 -1.4595,-0.3892 -1.84869,-1.0703c-0.1946,-0.2919 0,-0.97299 -0.1946,-1.1676c-0.4865,-0.5838 -1.7514,0.0973 -2.43249,-0.1946c-0.5838,-0.1946 -1.0703,-0.8757 -1.26489,-1.4595c-0.1946,-0.8757 0.4865,-1.4595 0.4865,-2.2379c-0.0973,-1.0703 -1.1676,-1.84869 -0.6811,-3.01629c0.4865,-1.1676 2.62709,-1.84869 3.69739,-2.2379c1.55679,-0.6811 3.40549,-0.97299 4.96229,-1.6541z" fill="#e85f1a"/><path d="M198.78629,161.83918l21.50324,6.42178c-0.2919,0.5838 -3.21089,2.33519 -5.35149,3.60009c-2.04329,-0.4865 -6.22719,-1.84869 -6.22719,-1.84869c-2.62709,2.91899 -5.64339,5.44879 -8.95158,7.58938c-0.2919,-0.0973 -0.6811,-0.2919 -1.0703,-0.4865c3.30819,-2.04329 6.22719,-4.57309 8.95158,-7.39479c-1.1676,-0.2919 -2.33519,-0.5838 -3.50279,-0.8757c-1.84869,1.55679 -3.69739,3.11359 -5.64339,4.47579c-1.55679,1.1676 -3.21089,2.33519 -4.96229,3.40549c-0.5838,0.0973 -1.0703,0.0973 -1.6541,0c-0.0973,-0.0973 -0.1946,-0.0973 -0.2919,-0.0973c2.2379,-1.26489 4.37849,-2.82169 6.32449,-4.18389c1.7514,-1.26489 3.40549,-2.62709 4.96229,-3.98929c-0.7784,-0.1946 -1.6541,-0.4865 -2.5298,-0.6811c-4.18389,2.5298 -8.65968,4.47579 -13.33007,5.83798c-0.1946,-0.1946 -0.2919,-0.4865 -0.3892,-0.7784c0,-0.0973 0,-0.0973 0,-0.0973c4.37849,-1.26489 8.56238,-3.01629 12.45437,-5.25419c-1.1676,-0.3892 -2.43249,-0.6811 -3.60009,-1.0703c-3.01629,1.0703 -6.32449,1.55679 -9.53538,1.946c0,-0.2919 0.0973,-0.5838 0.1946,-0.8757c0,-0.0973 0.0973,-0.0973 0.0973,-0.1946c2.5298,-0.3892 5.05959,-0.7784 7.49208,-1.4595c-1.0703,-0.2919 -2.2379,-0.5838 -3.30819,-0.97299c0.0973,0 0.1946,-0.0973 0.2919,-0.0973c0.8757,-0.7784 3.11359,-1.55679 3.11359,-1.55679c0,0 3.50279,-1.0703 4.96229,-1.3622z" fill="#f47621"/></g><g stroke-width="1"><path d="M247.63078,169.03937c-0.6811,0.8757 -1.1676,1.946 -1.84869,2.91899c-1.1676,1.55679 -2.43249,3.11359 -3.69739,4.57309c-1.0703,1.26489 -2.14059,2.5298 -3.30819,3.79469c-1.7514,2.14059 -3.60009,4.47579 -5.93529,6.12988c-2.43249,1.7514 -1.0703,-0.7784 -1.4595,-1.6541c-1.0703,0.3892 -1.55679,1.3622 -2.82169,0.4865c-0.7784,-0.4865 -1.0703,-1.3622 -1.0703,-2.2379c0,-0.8757 0.2919,-1.1676 0.0973,-1.84869c-0.1946,-0.8757 -0.5838,-0.97299 0,-1.946c0.2919,-0.4865 0.3892,-1.55679 0.2919,-1.84869c-0.2919,-1.0703 0.4865,-2.14059 1.26489,-2.91899c1.1676,-1.26489 0,-2.14059 1.84869,-2.82169c0.1946,-0.0973 0.4865,-0.0973 0.6811,-0.1946c0.4865,-0.97299 0.4865,-1.946 1.3622,-2.62709c0.2919,-0.1946 0.4865,-0.2919 0.6811,-0.3892c1.0703,-0.3892 2.33519,-0.4865 3.40549,-0.7784z" fill="#000600" fill-rule="nonzero"/><path d="M248.11727,169.03937c-0.6811,0.8757 -1.1676,1.946 -1.84869,2.91899c-1.1676,1.55679 -2.43249,3.11359 -3.69739,4.57309c-2.04329,2.33519 -3.98929,4.96229 -6.51909,6.71368c-2.43249,1.7514 -3.01629,-0.2919 -4.28119,-1.1676c-0.7784,-0.4865 -1.0703,-1.3622 -1.0703,-2.2379c0,-0.8757 0.2919,-1.1676 0.0973,-1.84869c-0.1946,-0.8757 -0.5838,-0.97299 0,-1.946c0.1946,-0.4865 0.3892,-0.2919 0.4865,-0.8757c0.0973,-0.3892 -0.0973,-0.6811 -0.1946,-0.97299c-0.2919,-1.0703 -0.2919,-1.26489 0.4865,-2.04329c1.1676,-1.26489 0.7784,-3.01629 2.62709,-3.69739c1.0703,-0.3892 2.33519,-0.4865 3.40549,-0.7784z" fill="#e85f1a" fill-rule="nonzero"/><path d="M241.89009,168.84476c0,0.1946 -0.0973,0.3892 -0.0973,0.5838c0.0973,0.0973 0.0973,0.2919 -0.0973,0.4865v0c-1.4595,6.12988 -4.67039,11.87057 -8.95158,16.63826c-1.1676,0.7784 -1.3622,0.5838 -1.3622,0c3.79469,-4.08659 6.81099,-8.95158 8.56238,-14.20576c-3.01629,4.86499 -7.00558,9.43808 -11.48137,12.94087c-0.2919,-0.1946 -0.4865,-0.4865 -0.6811,-0.7784c3.98929,-3.11359 7.49208,-7.00558 10.31378,-11.28677c-1.26489,1.0703 -2.62709,2.14059 -3.98929,3.21089c-2.04329,1.4595 -4.28119,3.30819 -6.81099,4.18389c-0.0973,-0.3892 -0.1946,-0.5838 0,-1.0703c2.72439,-1.0703 5.25419,-3.21089 7.39479,-4.86499c1.84869,-1.4595 3.69739,-3.01629 5.35149,-4.67039c0.2919,-0.5838 0.4865,-1.0703 0.7784,-1.55679c0.0973,-0.0973 0.0973,-0.1946 0.0973,-0.2919l1.0703,0.0973c-0.0973,0.1946 -0.1946,0.3892 -0.0973,0.5838z" fill="#f47621" fill-rule="nonzero"/><path d="M244.71178,172.25026c-0.6811,0.8757 -1.1676,1.946 -1.84869,2.91899c-1.1676,1.55679 -2.43249,3.11359 -3.69739,4.57309c-2.04329,2.33519 -3.98929,4.96229 -6.51909,6.71368c-2.43249,1.7514 -1.0703,-0.7784 -1.4595,-1.6541c-1.0703,0.3892 -1.55679,1.3622 -2.82169,0.4865c-0.7784,-0.4865 -1.0703,-1.3622 -1.0703,-2.2379c0,-0.8757 0.2919,-1.1676 0.0973,-1.84869c-0.1946,-0.8757 -0.5838,-0.97299 0,-1.946c0.2919,-0.4865 0.3892,-1.55679 0.2919,-1.84869c-0.2919,-1.0703 0.4865,-2.14059 1.26489,-2.91899c1.1676,-1.26489 0,-2.14059 1.84869,-2.82169c1.0703,-0.3892 2.33519,-0.4865 3.40549,-0.7784z" fill="none" fill-rule="evenodd"/></g><g fill-rule="nonzero" stroke-width="1"><path d="M185.31662,150.55241c3.40549,-3.21089 8.17318,-6.22719 12.35707,-8.56238c6.22719,-3.50279 11.96787,-5.05959 18.97346,-5.93529c13.52467,-1.7514 25.68714,1.26489 36.97391,9.14618c5.64339,3.89199 11.77327,6.90828 14.69227,13.23277c0.97299,1.1676 -3.98929,3.40549 -7.00558,3.60009c2.82169,2.82169 7.78398,-1.1676 7.10289,0.0973c-0.97299,2.14059 -4.18389,4.76769 -5.15689,5.25419c-8.46508,4.67039 -19.94645,9.24348 -29.67643,7.68668c-13.33007,-2.14059 -26.95203,-5.05959 -39.99021,-8.85428c-1.84869,-0.4865 -6.22719,-1.84869 -6.22719,-1.84869c-2.33519,-1.26489 -1.55679,-2.72439 -3.21089,-4.47579z" fill="#f47621"/><path d="M253.42646,171.95836c-1.4595,0.5838 -2.91899,1.0703 -4.37849,1.55679c-7.88128,-3.60009 -13.52467,-15.56796 -13.03817,-23.93574c0.1946,-4.08659 2.43249,-7.49208 4.86499,-10.70297c0.0973,-0.0973 0.1946,-0.1946 0.2919,-0.2919c2.91899,1.0703 5.83798,2.5298 8.65968,4.18389c-3.98929,5.05959 -7.39479,11.67597 -5.64339,18.00045c1.0703,3.79469 3.98929,6.81099 6.71368,9.43808c0.6811,0.5838 1.7514,1.26489 2.5298,1.7514z" fill="#ffffff"/><path d="M224.43112,135.66554c0.1946,0.2919 11.38407,26.17364 1.4595,36.77931c-0.4865,0.4865 -1.0703,0.8757 -1.55679,1.1676c-3.50279,-0.6811 -7.00558,-1.3622 -10.50837,-2.14059c0.4865,-5.25419 -0.5838,-11.38407 -0.97299,-15.27606c-0.5838,-6.32449 -2.33519,-12.64897 -4.86499,-18.48696c0,0 3.11359,-1.0703 7.97858,-1.6541c2.91899,-0.3892 5.74069,-0.5838 8.46508,-0.3892z" fill="#ffffff"/><g><path d="M249.92367,156.0985c-0.0973,-2.14059 1.4595,-4.47579 5.25419,-3.98929c2.43249,0.2919 3.79469,1.55679 3.89199,3.01629c0.1946,1.84869 -1.84869,4.08659 -4.28119,4.28119c-2.5298,0.1946 -4.86499,-1.7514 -4.86499,-3.30819z" fill="#ffffff"/><path d="M253.32916,156.1958c0.6811,-0.3892 0.4865,-1.7514 -0.4865,-2.14059c0.1946,-0.1946 0.4865,-0.1946 0.7784,-0.2919c2.91899,-0.7784 3.79469,2.2379 1.946,3.50279c-1.3622,0.8757 -2.82169,0.0973 -2.91899,-0.7784c0.1946,0 0.4865,-0.0973 0.6811,-0.2919z" fill="#000600"/><path d="M248.17227,150.26051c2.04329,-2.2379 5.44879,-2.5298 8.27048,-1.7514c0.7784,0.1946 0.4865,1.4595 -0.3892,1.26489c-2.33519,-0.6811 -5.15689,-0.4865 -6.90828,1.4595c-0.4865,0.6811 -1.4595,-0.2919 -0.97299,-0.97299z" fill="#e85f1a"/></g></g><g fill-rule="nonzero" stroke-width="1"><path d="M237.317,166.89878c0,0.0973 -7.00558,3.11359 -8.65968,3.21089c-3.11359,0.1946 -4.86499,-0.7784 -6.81099,-2.91899c-0.3892,-0.3892 -1.1676,-0.5838 -1.55679,-1.0703c-0.4865,-0.6811 -0.97299,-1.3622 -1.0703,-2.14059c-0.0973,-1.26489 -0.4865,-2.2379 -1.0703,-3.30819c-0.6811,-1.26489 -0.6811,-2.72439 -0.7784,-4.18389c-0.0973,-1.4595 0.7784,-2.14059 1.6541,-3.30819c0.5838,-0.6811 1.1676,-1.7514 2.04329,-2.04329c0.4865,-0.1946 1.1676,0 1.7514,-0.0973c0.5838,-0.0973 1.0703,-0.5838 1.7514,-0.4865c1.0703,0.1946 2.04329,1.7514 2.72439,2.43249c1.55679,1.55679 3.11359,3.11359 4.57309,4.67039c1.4595,1.55679 3.50279,3.21089 5.44879,3.98929z" fill="#f47621"/><path d="M237.9008,167.38527v0v0c-1.0703,0.7784 -2.72439,1.26489 -3.98929,1.7514c-1.84869,0.6811 -3.69739,1.55679 -5.64339,1.6541c-2.91899,0.0973 -4.57309,-1.26489 -6.71368,-2.91899c-2.43249,-1.84869 -2.5298,-3.21089 -3.60009,-6.12988c-1.0703,-2.82169 -2.04329,-5.44879 -0.1946,-8.07588c1.6541,-2.33519 2.91899,-3.21089 5.74069,-3.50279c2.5298,-0.1946 3.40549,1.55679 5.05959,3.30819c2.82169,2.82169 5.44879,6.03259 9.14618,7.78398c0.1946,0.0973 0.2919,0.3892 0.2919,0.5838c0,1.6541 0,3.30819 0,4.96229c0.0973,0.1946 0.0973,0.3892 -0.0973,0.5838zM227.10052,163.39598c2.82169,1.0703 5.83798,1.7514 8.95158,2.04329c0.1946,-0.0973 0.2919,-0.0973 0.4865,-0.1946c-6.71368,-1.55679 -13.23277,-5.25419 -17.80586,-10.21647c-0.4865,0.97299 -0.4865,2.04329 -0.3892,3.01629c2.5298,2.43249 5.93529,4.18389 8.75698,5.35149zM223.88963,151.52541c1.26489,1.84869 2.82169,3.60009 4.28119,4.96229c1.4595,1.3622 3.01629,2.33519 4.67039,3.01629v0c-2.2379,-1.946 -4.47579,-4.28119 -6.42178,-6.51909c-0.7784,-0.7784 -1.6541,-1.26489 -2.5298,-1.4595zM219.51114,153.66601c0,0.0973 -0.0973,0.0973 -0.0973,0.1946c4.47579,4.86499 10.80027,8.65968 17.41666,10.11918c0,-0.3892 0,-0.7784 -0.0973,-1.0703c-3.30819,-0.97299 -6.51909,-2.62709 -9.14618,-5.05959c-1.7514,-1.6541 -3.69739,-3.89199 -5.25419,-6.12988c-1.0703,0.2919 -2.04329,0.8757 -2.82169,1.946zM221.55444,166.21767c0.1946,0.1946 0.4865,0.2919 0.6811,0.4865c0.2919,0.1946 0.4865,0.3892 0.6811,0.5838c2.43249,0.0973 4.76769,0 6.90828,-0.2919c1.0703,-0.0973 2.04329,-0.3892 3.11359,-0.6811c-2.72439,-0.4865 -5.44879,-1.26489 -7.88128,-2.43249c-2.04329,-0.8757 -4.28119,-2.14059 -6.22719,-3.69739c0.2919,0.8757 0.6811,1.84869 0.97299,2.82169c0.5838,1.7514 0.4865,2.04329 1.7514,3.21089zM236.344,166.80147h-0.0973c-1.84869,0.6811 -3.79469,1.26489 -5.64339,1.55679c-1.946,0.2919 -3.98929,0.2919 -6.03259,0.1946c0.6811,0.3892 1.4595,0.7784 2.43249,0.8757c1.946,0.2919 3.69739,-0.4865 5.54609,-1.1676c1.0703,-0.3892 2.62709,-0.7784 3.79469,-1.4595z" fill="#e85f1a"/></g><g fill-rule="nonzero" stroke-width="1"><path d="M187.20762,164.36898l-3.98929,-0.3892v0.0973c-3.30819,1.3622 -6.61638,1.84869 -9.63267,1.7514c-1.3622,0 -2.04329,0.4865 -3.01629,0c-0.0973,0 -0.2919,0.0973 -0.4865,0.0973c-1.0703,0.1946 -1.4595,0 -2.43249,-0.3892c-1.0703,-0.4865 -2.91899,-0.1946 -3.69739,-1.26489c-1.0703,-1.3622 -0.8757,-0.5838 -2.14059,-2.33519c-0.7784,-1.0703 -1.4595,-3.50279 -1.3622,-3.89199c0.1946,-1.4595 0.0973,-1.3622 -0.7784,-2.82169c-0.4865,-0.7784 -0.0973,-1.26489 -0.3892,-2.2379c-0.2919,-0.97299 0.8757,-2.14059 0.8757,-3.40549c0,-1.26489 0,-2.62709 0.4865,-3.40549c0.6811,-0.97299 2.2379,-1.3622 2.82169,-2.5298c1.0703,-2.04329 2.43249,-2.5298 4.57309,-1.946c0.8757,0.1946 2.04329,0.1946 2.82169,-0.0973c0.97299,-0.3892 1.7514,-0.0973 2.62709,0.4865c0.2919,0.1946 0.5838,0.2919 0.7784,0.4865c3.79469,0 11.28677,3.89199 12.55167,3.69739c0,0 2.62709,0.8757 3.98929,-0.1946c2.62709,16.24906 -3.60009,18.38966 -3.60009,18.29235z" fill="#e85f1a"/><path d="M192.07261,155.5147c0,7.49208 -4.67039,8.85428 -4.67039,8.85428c-0.0973,0.0973 -0.1946,0.0973 -0.1946,0.0973l-3.98929,-0.3892v0.0973c-1.7514,0.7784 -3.50279,1.1676 -5.25419,1.4595c5.54609,-6.22719 7.39479,-14.20576 0.3892,-22.18435c3.69739,1.26489 7.58938,3.01629 8.46508,2.82169c0,0 1.946,0.5838 2.72439,0.2919c0,0 0.6811,-0.5838 0.7784,-0.5838c0,0 1.7514,2.04329 1.7514,9.53538z" fill="#120201"/><path d="M185.84543,164.17438l-2.43249,-0.2919v0.0973c-1.84869,0.7784 -3.69739,1.1676 -5.44879,1.4595c0.7784,-0.97299 1.3622,-1.946 1.946,-3.01629c-3.79469,1.3622 -7.78398,2.43249 -11.67597,3.21089c-0.0973,-0.0973 -0.1946,-0.0973 -0.3892,-0.1946c-0.5838,-0.1946 -1.4595,-0.1946 -2.2379,-0.3892c2.43249,-0.4865 4.86499,-1.1676 7.20018,-1.7514c2.62709,-0.6811 5.25419,-1.4595 7.78398,-2.33519c0.2919,-0.7784 0.5838,-1.55679 0.7784,-2.43249c-2.91899,0.6811 -5.74069,1.1676 -8.65968,1.55679c-3.69739,0.4865 -7.39479,0.97299 -11.18948,0.97299c-0.0973,-0.2919 -0.2919,-0.6811 -0.3892,-0.97299c4.08659,0 8.27048,-0.4865 12.25977,-1.0703c2.72439,-0.3892 5.44879,-0.8757 8.17318,-1.4595c0.0973,-0.6811 0.1946,-1.3622 0.1946,-2.04329c-6.90828,1.0703 -14.01117,1.7514 -21.01675,1.7514c0,-0.3892 -0.0973,-0.5838 -0.2919,-0.97299c7.10289,0 14.30307,-0.6811 21.30865,-1.7514c0,-0.4865 -0.0973,-0.97299 -0.0973,-1.4595c-7.39479,0.6811 -14.78956,0.1946 -22.18435,-0.4865c0,-0.2919 0.1946,-0.6811 0.2919,-0.97299c7.29748,0.6811 14.59497,1.0703 21.79515,0.3892c-0.0973,-0.3892 -0.0973,-0.6811 -0.1946,-1.0703c-3.69739,0 -7.49208,-0.2919 -11.18948,-0.97299c-3.21089,-0.4865 -6.22719,-1.4595 -9.24348,-2.43249c-0.1946,0 -0.2919,-0.0973 -0.4865,-0.0973c0,-0.2919 0.0973,-0.5838 0.1946,-0.8757c1.0703,0.2919 2.14059,0.5838 3.11359,0.8757c2.43249,0.7784 5.05959,1.3622 7.68668,1.7514c3.21089,0.4865 6.42178,0.7784 9.63267,0.7784c-0.0973,-0.2919 -0.0973,-0.4865 -0.1946,-0.6811c-2.82169,-0.7784 -5.54609,-1.84869 -8.27048,-3.11359c-2.5298,-1.1676 -5.64339,-2.2379 -7.97858,-4.08659c0.2919,-0.2919 0.5838,-0.4865 0.8757,-0.5838c2.33519,1.6541 5.35149,2.72439 7.58938,3.79469c2.43249,1.0703 4.86499,2.04329 7.39479,2.82169c-0.5838,-1.55679 -1.26489,-3.11359 -2.14059,-4.76769c3.60009,1.0703 8.46508,2.82169 8.46508,2.82169c0,0 1.26489,0.3892 2.43249,0.3892c1.55679,4.96229 2.14059,10.80027 0.2919,14.49766c-0.8757,1.6541 -2.2379,2.62709 -3.69739,3.11359z" fill="#ffffff"/><path d="M170.56936,165.82848c-0.0973,0 -0.2919,0.0973 -0.4865,0.0973c-1.0703,0.1946 -1.4595,0 -2.43249,-0.3892c-1.0703,-0.4865 -2.91899,-0.1946 -3.69739,-1.26489c-1.0703,-1.3622 -0.8757,-0.5838 -2.14059,-2.33519c-0.7784,-1.0703 -1.4595,-3.50279 -1.3622,-3.89199c0.1946,-1.4595 0.0973,-1.3622 -0.7784,-2.82169c-0.4865,-0.7784 -0.0973,-1.26489 -0.3892,-2.2379c-0.2919,-0.97299 0.8757,-2.14059 0.8757,-3.40549c0,-1.26489 0,-2.62709 0.5838,-3.40549c0.6811,-0.97299 2.2379,-1.3622 2.82169,-2.5298c1.0703,-2.04329 2.43249,-2.5298 4.57309,-1.946c0.8757,0.1946 2.04329,0.1946 2.82169,-0.0973c0.97299,-0.3892 1.7514,-0.0973 2.62709,0.4865c0.2919,0.1946 0.5838,0.2919 0.7784,0.4865v0c-0.7784,0 -1.3622,0.0973 -1.7514,0.4865c0.2919,1.55679 -3.69739,0.3892 -4.76769,1.1676c-0.3892,0.2919 0,0.8757 -0.2919,1.0703c0,0 -0.8757,0.2919 -1.26489,0.5838c-0.6811,0.4865 -1.26489,0.6811 -1.7514,1.26489c-0.4865,0.6811 -0.8757,1.55679 -1.3622,2.33519c-0.3892,0.5838 0.1946,3.21089 -0.1946,4.08659c-0.97299,2.43249 -0.0973,2.04329 0.7784,3.50279c0.8757,1.55679 0.4865,3.01629 2.2379,3.98929c0.5838,0.2919 1.0703,0.3892 1.6541,0.8757c0.6811,0.4865 0.2919,1.1676 0.5838,1.7514c0.3892,0.7784 0.97299,0.97299 1.6541,1.55679c0.2919,0.1946 0.4865,0.3892 0.6811,0.5838z" fill="#120201"/></g><g fill-rule="nonzero" stroke-width="1"><g><path d="M194.44903,191.8229c5.67152,3.29561 12.33938,4.67517 18.5474,6.05473c-2.75912,3.98539 -9.81019,4.67517 -14.25544,5.13502c-7.281,0.76642 -15.63499,-1.53284 -20.69338,-6.74451c-1.53284,-1.53284 -4.44524,-4.98174 -2.83576,-7.43429c1.14963,-1.68613 4.59853,-1.22627 6.05473,-2.06934z" fill="#86d0fd"/><path d="M181.26658,186.76451l10.65326,4.06203c0,0 4.9051,2.22262 5.59488,2.52919c0,0 1.14963,0.53649 1.76277,0.76642h0.07664c2.52919,0.99635 5.13502,1.76277 7.74086,2.37591v0c1.9927,0.53649 3.98539,0.91971 5.97809,1.37956c-0.15328,0.22993 -1.14963,1.30292 -1.14963,1.30292c-1.83941,0.07664 -3.83211,0.15328 -5.74816,0.07664c-0.45985,0.45985 -2.37591,2.52919 -2.9124,3.14233c-0.53649,0.07664 -1.14963,0.15328 -1.68613,0.22993c1.14963,-1.07299 2.29926,-2.37591 3.21897,-3.4489c-0.61314,-0.07664 -1.30292,-0.07664 -1.91605,-0.15328c-1.30292,-0.15328 -2.83576,-0.22993 -4.44524,-0.38321c-0.07664,0.07664 -3.37225,3.14233 -5.13502,4.29196c-0.61314,-0.07664 -1.22627,-0.15328 -1.76277,-0.22993c1.37956,-0.76642 2.60583,-1.91605 3.75546,-2.83576c0.61314,-0.45985 1.14963,-0.91971 1.68613,-1.37956c-1.68613,-0.22993 -3.29561,-0.61314 -4.52189,-1.30292c-0.07664,0 -0.07664,0 -0.07664,0c-0.07664,0.07664 -3.83211,2.98904 -5.97809,4.21532c-0.53649,-0.15328 -0.99635,-0.30657 -1.4562,-0.53649c0.91971,-0.53649 1.76277,-1.14963 2.60583,-1.68613c1.22627,-0.84306 2.45255,-1.68613 3.67882,-2.52919c-1.60948,-0.91971 -3.06569,-1.68613 -4.52189,-2.45255c-0.68978,0.45985 -1.37956,0.84306 -2.14598,1.30292c-1.4562,0.84306 -2.98904,1.76277 -4.59853,2.37591c-0.30657,-0.22993 -0.61314,-0.45985 -0.91971,-0.76642c2.29926,-0.68978 4.52189,-2.14598 6.43794,-3.37225c0.07664,0 0.07664,-0.07664 0.15328,-0.07664c-1.37956,-0.76642 -2.75912,-1.53284 -4.29196,-2.45255c-0.15328,0.07664 -3.83211,1.68613 -5.59488,2.14598c-0.22993,-0.30657 -0.38321,-0.68978 -0.53649,-0.99635c1.68613,-0.38321 3.37225,-1.07299 4.98174,-1.83941c-0.15328,-0.15328 -2.37591,-1.91605 -3.29561,-2.75912c0.15328,-0.07664 0.38321,-0.07664 0.53649,-0.15328c0,0 3.67882,-0.76642 3.83211,-0.84306z" fill="#194ec2" opacity="0.2"/></g><g><path d="M174.90528,175.42148c-4.67517,1.07299 0.22993,-6.66787 0.84306,-7.89414c1.60948,-3.21897 3.14233,-7.43429 5.97809,-9.73355c3.21897,-2.60583 8.12407,-3.52554 12.03281,-4.44524c5.36495,-1.37956 11.6496,-2.37591 17.24448,-1.68613c3.37225,0.38321 6.97443,1.37956 10.11676,2.68247c1.22627,0.53649 7.35764,4.3686 7.05108,6.28465c-0.30657,2.06934 -6.74451,0.07664 -7.89414,0.15328c-5.97809,0.38321 -12.26274,0.45985 -17.93426,2.60583c-4.75181,1.83941 -8.43063,5.05838 -12.64595,7.8175c-2.9124,1.83941 -5.67152,2.98904 -8.81384,4.29196h-5.97809z" fill="#d8d213"/><g fill="#194ec2" opacity="0.2"><path d="M228.17156,160.24634c0,0.15328 0,0.22993 0.15328,0.53649c-0.30657,2.06934 -6.74451,0.07664 -7.89414,0.15328c-5.97809,0.38321 -12.26274,0.45985 -17.93426,2.60583c-4.75181,1.83941 -8.43063,5.13502 -12.64595,7.8175c-2.9124,1.91605 -5.67152,2.98904 -8.81384,4.29196h-6.05473c-0.15328,0 -0.30657,0.07664 -0.45985,0.07664v0c-0.15328,0 -0.30657,0 -0.38321,0c0.91971,-0.53649 1.83941,-1.14963 2.52919,-1.68613c1.37956,-0.99635 2.52919,-2.29926 3.67882,-3.67882c-1.60948,-0.76642 -3.37225,-1.30292 -5.05838,-1.68613c0.22993,-0.45985 0.45985,-0.84306 0.53649,-0.99635c1.76277,0.45985 3.52554,0.99635 5.21166,1.76277c0.61314,-0.84306 1.22627,-1.60948 1.91605,-2.37591c0.45985,-0.53649 0.91971,-1.07299 1.4562,-1.53284c-1.4562,-1.07299 -2.83576,-1.9927 -4.3686,-2.9124c-0.45985,-0.22993 -0.99635,-0.53649 -1.4562,-0.76642c0.15328,-0.30657 0.38321,-0.61314 0.53649,-0.91971c0.53649,0.22993 0.99635,0.45985 1.4562,0.76642c1.60948,0.91971 3.06569,1.9927 4.59853,3.06569c0.84306,-0.68978 1.76277,-1.37956 2.68247,-1.9927c-0.91971,-1.22627 -1.83941,-2.37591 -2.83576,-3.52554c-0.61314,-0.76642 -1.30292,-1.53284 -1.9927,-2.29926c0.30657,-0.22993 0.61314,-0.38321 0.91971,-0.53649c0.45985,0.53649 0.84306,1.07299 1.30292,1.53284c1.22627,1.37956 2.37591,2.75912 3.4489,4.21532c0.53649,-0.30657 1.14963,-0.61314 1.68613,-0.91971c0.91971,-0.38321 1.83941,-0.84306 2.75912,-1.30292c-1.07299,-1.91605 -2.22262,-3.83211 -3.60218,-5.51823v0c0.38321,-0.15328 0.76642,-0.22993 1.14963,-0.30657c0.07664,0.22993 0.22993,0.38321 0.38321,0.53649c1.14963,1.53284 2.14598,3.14233 3.06569,4.82845c1.68613,-0.84306 3.52554,-1.53284 5.21166,-1.9927c0.22993,-0.07664 0.38321,-0.07664 0.61314,-0.15328c-0.91971,-1.53284 -1.91605,-3.06569 -3.06569,-4.52189c0,-0.07664 -0.07664,-0.07664 -0.07664,-0.15328c0.38321,-0.07664 0.76642,-0.15328 1.14963,-0.22993c0.15328,0.15328 0.30657,0.30657 0.45985,0.53649c0.99635,1.30292 1.91605,2.68247 2.68247,4.06203c2.22262,-0.53649 4.3686,-0.91971 6.59122,-1.07299c-0.99635,-1.53284 -1.9927,-2.98904 -3.14233,-4.3686l-0.07664,-0.07664c0.45985,0 0.84306,-0.07664 1.30292,-0.07664c1.14963,1.37956 2.14598,2.9124 3.14233,4.44524c1.37956,-0.07664 2.68247,-0.07664 4.06203,0c-0.61314,-1.60948 -1.14963,-2.9124 -1.9927,-4.29196c0.45985,0 0.91971,0.07664 1.37956,0.15328c0.68978,1.30292 1.14963,2.60583 1.76277,4.21532c1.4562,0.15328 2.98904,0.38321 4.52189,0.68978c0.84306,0.15328 1.76277,0.38321 2.60583,0.61314c-0.53649,-1.30292 -0.91971,-2.45255 -1.37956,-3.4489c0.38321,0.15328 0.76642,0.30657 1.14963,0.45985c0,0 0.07664,0.07664 0.15328,0.07664c0.38321,0.91971 0.76642,1.9927 1.30292,3.21897c1.83941,0.53649 3.60218,1.07299 5.28831,1.83941c0.15328,0.15328 0.22993,0.38321 0.30657,0.53649c0,0.07664 0,0.07664 0,0.07664c0.07664,0.07664 0.07664,0.15328 0.07664,0.22993c0,0.07664 0,0.07664 0,0z"/></g></g><g fill="#86d0fd"><path d="M229.09127,192.81924c0,1.22627 -3.52554,5.59488 -4.67517,6.97443c-0.91971,1.07299 -7.58757,6.20801 -7.8175,3.4489c-0.38321,-5.59488 6.43794,-8.66056 5.97809,-10.42333z"/></g></g><path d="M149.76666,168.75361c1.07299,-0.84306 3.60218,-0.53649 4.82845,-0.38321c3.21897,0.45985 6.3613,3.06569 9.04377,4.75181c2.06934,1.30292 5.28831,3.21897 7.89414,3.14233c1.68613,-0.07664 3.75546,-1.4562 5.05838,-2.45255c2.45255,-1.83941 4.3686,-4.59853 6.3613,-6.89779c2.06934,-2.37591 4.75181,-4.3686 7.58757,-5.74816c2.75912,-1.37956 5.97809,-2.98904 8.89049,-3.75546c6.43794,-1.60948 12.72259,-2.22262 19.23717,-0.76642c5.13502,1.14963 9.88683,2.52919 14.17879,5.67152c4.13868,3.06569 5.13502,6.74451 6.89779,11.26639c0.53649,1.30292 1.07299,2.52919 1.91605,3.67882c0.61314,0.84306 1.37956,1.22627 2.06934,1.83941c0.53649,0.53649 1.14963,1.4562 0.22993,1.9927c-0.76642,0.45985 -1.91605,-0.53649 -2.60583,-0.07664c-1.30292,0.84306 1.83941,2.14598 1.83941,2.14598c-0.07664,1.60948 -2.68247,1.83941 -3.06569,2.14598c-2.14598,1.76277 -5.44159,6.97443 -11.80289,9.42698c-6.3613,2.52919 -11.41968,4.06203 -14.40872,4.21532c-3.52554,0.22993 -7.66421,0.38321 -11.18975,0c-3.06569,-0.30657 -7.8175,-0.30657 -10.42333,-1.83941c-4.75181,-2.68247 -8.04742,-4.06203 -12.56931,-7.12772c-2.68247,-1.76277 -4.67517,-5.13502 -7.97078,-5.28831c-3.98539,-0.15328 -6.74451,3.06569 -9.2737,5.74816c-1.4562,1.53284 -3.4489,4.29196 -5.67152,4.9051c-2.06934,0.61314 -1.60948,-1.22627 -1.30292,-2.68247c0.53649,-2.37591 1.07299,-4.44524 0.76642,-6.82115c-0.15328,-1.22627 -0.38321,-2.52919 -0.53649,-3.75546c-0.45985,-3.4489 -1.14963,-8.12407 -3.67882,-10.57661z" fill="#194ec2" fill-rule="nonzero" stroke-width="1"/><g fill-rule="nonzero" stroke-width="1"><path d="M243.19342,183.23898c-0.15328,1.60948 -2.75912,1.83941 -3.06569,2.14598c-1.14963,0.91971 -2.60583,2.75912 -4.59853,4.67517c-2.83576,-0.61314 -5.8248,-1.83941 -8.35399,-2.68247c-4.75181,-1.60948 -7.89414,-5.44159 -6.66787,-10.57661c1.30292,-5.28831 1.30292,-20.0036 10.42333,-15.0985l12.95252,19.54374c-0.68978,0.45985 -1.83941,-0.53649 -2.52919,-0.07664c-1.30292,0.84306 1.83941,2.06934 1.83941,2.06934z" fill="#86d0fd"/><path d="M225.64237,176.80104c-0.45985,0.68978 -0.84306,1.4562 -1.30292,2.14598c-0.45985,0.84306 -0.61314,1.83941 -1.07299,2.60583c-0.91971,1.37956 -3.14233,0.91971 -4.59853,1.30292c-2.06934,0.53649 -3.52554,0.68978 -4.9051,-0.99635c-1.83941,-2.22262 -3.83211,-4.9051 -5.13502,-7.51093c-1.53284,-3.06569 -0.68978,-5.8248 3.14233,-5.36495c2.68247,0.30657 5.44159,1.68613 7.74086,3.14233c1.83941,1.14963 4.44524,2.45255 5.97809,4.06203c0.07664,0.07664 0.15328,0.15328 0.15328,0.22993c0.07664,0.07664 0.07664,0.22993 0,0.38321zM224.18617,177.10761c-4.59853,-2.9124 -10.04012,-3.60218 -15.32843,-4.9051c0.22993,1.14963 1.07299,2.52919 1.83941,3.52554c2.29926,0.15328 4.52189,0.38321 6.74451,0.61314c2.22262,0.15328 4.52189,0.30657 6.74451,0.76642zM209.24096,170.43974c-0.15328,0.15328 -0.22993,0.38321 -0.30657,0.61314c3.98539,1.07299 8.04742,1.68613 11.87953,3.14233c-0.07664,0 -0.07664,-0.07664 -0.15328,-0.07664c-1.83941,-1.30292 -3.75546,-2.37591 -5.90144,-3.21897c-1.30292,-0.53649 -4.44524,-1.76277 -5.51823,-0.45985zM211.54022,176.80104c0.68978,0.99635 1.4562,2.37591 2.37591,3.52554c2.98904,-0.15328 6.05473,-0.45985 9.04377,-0.91971c0.07664,-0.22993 0.22993,-0.38321 0.38321,-0.68978c0.07664,-0.22993 0.22993,-0.38321 0.30657,-0.61314c-2.29926,-0.38321 -4.59853,-0.53649 -6.89779,-0.76642c-1.76277,-0.22993 -3.4489,-0.38321 -5.21166,-0.53649c0,0.07664 0,0.07664 0,0zM222.34676,180.5565c-2.52919,0.38321 -5.13502,0.61314 -7.66421,0.76642c0.15328,0.07664 0.22993,0.15328 0.30657,0.22993c1.53284,1.30292 4.21532,0.07664 5.97809,-0.22993c0.91971,-0.15328 1.14963,-0.22993 1.37956,-0.76642z" fill="#86d0fd"/><path d="M243.72992,179.17694c0.53649,0.53649 1.14963,1.4562 0.22993,1.9927c-0.76642,0.45985 -1.91605,-0.53649 -2.60583,-0.07664c-1.30292,0.84306 1.83941,2.14598 1.83941,2.14598c-0.07664,1.37956 -1.9927,1.76277 -2.75912,1.9927c-3.83211,0.53649 -8.58392,-0.53649 -11.80289,-1.60948c-4.13868,-1.37956 -6.89779,-4.75181 -5.8248,-9.19706c0.99635,-4.21532 1.07299,-15.32843 7.281,-13.79558c0.91971,0.53649 1.83941,1.07299 2.75912,1.76277c4.21532,2.98904 5.13502,6.66787 6.89779,11.26639c0.53649,1.30292 1.07299,2.52919 1.91605,3.67882c0.61314,0.84306 1.37956,1.22627 2.06934,1.83941z" fill="#06134a"/><g><path d="M230.85404,166.30107c4.82845,-0.07664 5.05838,5.36495 0.99635,5.59488c-4.06203,0.22993 -5.05838,-5.59488 -0.99635,-5.59488z" fill="#ffffff"/><path d="M231.6971,170.43974c-0.68978,0.07664 -1.14963,-0.22993 -1.4562,-0.68978c1.07299,-0.22993 1.07299,-1.37956 0,-1.91605c0.15328,-0.22993 0.45985,-0.30657 0.91971,-0.22993c2.37591,0.45985 2.52919,2.75912 0.53649,2.83576z" fill="#06134a"/></g></g><g fill-rule="nonzero" stroke-width="1"><path d="M154.59512,168.29376c0.45985,0.07664 0.84306,0.15328 1.30292,0.30657c2.52919,5.21166 4.59853,11.26639 4.98174,16.86127c0.07664,1.53284 0.68978,3.60218 0.99635,5.74816c-1.37956,1.53284 -3.14233,3.67882 -5.05838,4.21532c-2.14598,0.61314 -1.68613,-1.22627 -1.30292,-2.68247c0.61314,-2.29926 1.07299,-4.3686 0.76642,-6.82115c-0.15328,-1.22627 -0.38321,-2.52919 -0.53649,-3.75546c-0.45985,-3.4489 -1.14963,-8.12407 -3.67882,-10.57661l-2.29926,-2.83576c1.07299,-0.76642 3.60218,-0.45985 4.82845,-0.45985z" fill="#06134a"/><path d="M169.77026,185.15503c-2.9124,0.76642 -5.13502,3.29561 -7.20436,5.51823c-0.53649,0.61314 -1.22627,1.37956 -1.91605,2.14598c0,-0.15328 0,-0.30657 0,-0.45985c-0.15328,-1.60948 -2.06934,-1.4562 -2.14598,-3.06569c-0.07664,-1.60948 2.14598,-3.21897 1.37956,-4.9051c-0.38321,-0.84306 -0.99635,-0.76642 -0.99635,-1.91605c0,-0.53649 0.99635,-0.84306 0.99635,-1.22627c0,-1.30292 -1.68613,-1.9927 -1.9927,-3.21897c-0.22993,-1.22627 0.91971,-1.9927 0.15328,-3.60218c-0.45985,-1.14963 -1.76277,-1.68613 -1.9927,-2.83576c0.22993,-0.07664 0.45985,-0.22993 0.76642,-0.30657c-0.53649,-0.76642 -2.06934,-1.91605 -2.52919,-2.9124c0.15328,0.07664 0.22993,0.07664 0.38321,0.07664c3.21897,0.45985 6.3613,3.06569 9.04377,4.75181c1.4562,0.91971 3.4489,2.14598 5.44159,2.75912c0.61314,3.29561 0.68978,7.12772 0.61314,9.19706z" fill="#194ec2"/><path d="M170.68997,184.84846v0.07664c-1.30292,0.15328 -2.37591,0.61314 -3.4489,1.30292c-3.83211,1.60948 -7.58757,3.52554 -11.41968,5.05838c0.07664,-0.38321 0.15328,-0.84306 0.22993,-1.22627c4.21532,-1.68613 8.27735,-3.83211 12.49267,-5.51823c0,-0.53649 0,-1.14963 0,-1.68613c-4.29196,0 -8.66056,-0.15328 -12.87588,-0.91971c-0.07664,-0.38321 -0.07664,-0.76642 -0.15328,-1.14963c4.29196,0.84306 8.66056,0.99635 13.02916,0.99635c0,-0.61314 0,-1.22627 -0.07664,-1.83941c-4.59853,-0.84306 -9.2737,-1.53284 -13.6423,-2.98904c-0.15328,-0.45985 -0.22993,-0.91971 -0.38321,-1.30292c4.44524,1.60948 9.19706,2.37591 13.94887,3.14233c-0.07664,-0.22993 -0.07664,-0.53649 -0.07664,-0.76642c-3.37225,-0.99635 -6.51458,-2.45255 -9.73355,-3.98539c-2.06934,-0.99635 -4.21532,-1.60948 -6.3613,-2.37591c-0.07664,0 -0.07664,-0.07664 -0.15328,-0.15328l-1.14963,-1.37956c2.45255,0.99635 5.05838,1.68613 7.51093,2.75912c3.37225,1.53284 6.43794,2.98904 9.81019,4.06203c0,-0.45985 -0.07664,-0.91971 -0.07664,-1.37956c0.68978,0.30657 1.4562,0.45985 2.14598,0.61314c0,0 1.53284,6.20801 0.38321,8.66056z" fill="#86d0fd"/></g><g fill-rule="nonzero" stroke-width="1"><path d="M289.3161,190.67326c0.61314,0.61314 -3.67882,7.66421 -13.56566,9.73355c-0.76642,0.22993 -1.60948,0.38321 -2.45255,0.61314c-0.07664,2.37591 -1.22627,4.98174 -2.22262,6.74451c-2.60583,4.59853 -6.82115,6.82115 -10.57661,10.11676c1.14963,-1.37956 2.60583,-2.68247 3.67882,-4.21532c2.52919,-3.52554 2.98904,-7.58757 4.3686,-11.34304c-3.14233,0.76642 -6.3613,1.37956 -9.19706,1.07299c-1.30292,-0.15328 -2.9124,-0.22993 -2.9124,-0.22993c0,0 -1.37956,5.13502 -1.83941,6.3613c-1.4562,3.83211 -3.98539,7.12772 -7.05108,9.81019c-0.45985,-1.07299 0.45985,-2.37591 0.76642,-3.4489c1.22627,-3.83211 2.68247,-9.04377 2.14598,-13.1058c0,0 -3.83211,-2.14598 -5.97809,-4.21532c-2.14598,-2.06934 -3.21897,-4.06203 -4.21532,-3.75546c-2.29926,0.61314 -4.52189,1.53284 -6.74451,2.37591c-6.43794,2.52919 -12.1861,6.51458 -19.23717,6.74451c1.53284,-2.60583 5.44159,-4.21532 7.97078,-5.67152c3.14233,-1.83941 7.05108,-2.83576 10.04012,-4.98174c5.51823,-3.98539 -9.2737,-6.89779 -11.03647,-7.12772c-3.67882,-0.45985 -7.51093,-2.29926 -10.80654,-4.21532c-1.07299,-0.61314 -4.44524,-1.30292 -4.44524,-1.30292c0,0 8.66056,0.15328 9.73355,0.53649c4.06203,0.91971 8.27735,2.29926 12.33938,3.14233c5.8248,1.14963 12.72259,-0.38321 12.72259,-0.38321c1.68613,-2.60583 7.66421,-5.05838 7.66421,-5.05838c-1.76277,-4.52189 -4.67517,-6.97443 -9.73355,-10.1934c-2.06934,-1.37956 -11.34304,-5.90144 -11.34304,-5.90144c1.9927,-1.22627 4.44524,-0.99635 6.51458,-0.91971c1.9927,0.07664 4.82845,1.22627 6.66787,1.9927c3.29561,1.4562 6.97443,3.90875 9.73355,6.13137c1.30292,1.07299 2.37591,2.22262 3.4489,3.52554c0.61314,0.84306 2.52919,3.29561 2.52919,3.29561l7.58757,0.91971c0,0 -7.51093,-8.66056 -14.40872,-13.6423c2.29926,-1.30292 7.74086,1.68613 9.81019,2.9124c2.83576,1.68613 4.98174,4.13868 7.12772,6.59122c0.99635,1.07299 3.29561,3.67882 3.29561,3.67882c0,0 4.29196,1.14963 5.97809,1.91605c2.60583,1.14963 4.98174,3.06569 7.51093,4.44524c1.76277,0.91971 3.83211,1.9927 4.82845,3.83211c0.61314,1.14963 0.99635,1.30292 0.30657,2.22262c-0.76642,0.84306 -2.83576,1.22627 -5.13502,4.44524c1.07299,-0.61314 5.51823,-4.06203 6.13137,-3.4489z" fill="#f7e37c"/><path d="M252.37459,179.40687c0,0 0,0.07664 -0.07664,0.15328c-0.91971,1.22627 -9.58027,2.45255 -9.42698,2.37591c2.45255,-1.76277 5.74816,-3.14233 5.74816,-3.14233c-0.15328,-0.30657 -0.22993,-0.61314 -0.38321,-0.91971c-1.9927,1.22627 -3.98539,2.22262 -6.20801,2.83576c0,-0.15328 -0.07664,-0.38321 -0.15328,-0.53649c1.14963,-0.22993 2.29926,-0.61314 3.37225,-1.14963c0.91971,-0.53649 1.83941,-1.07299 2.75912,-1.68613c-0.22993,-0.38321 -0.38321,-0.68978 -0.61314,-1.07299c-1.9927,0.99635 -3.90875,2.06934 -5.97809,2.75912c-0.07664,-0.22993 -0.15328,-0.38321 -0.22993,-0.61314c1.9927,-0.68978 3.90875,-1.68613 5.8248,-2.68247c-0.30657,-0.45985 -0.61314,-0.91971 -0.99635,-1.37956c-0.53649,0.22993 -0.99635,0.38321 -1.30292,0.53649c-1.4562,0.61314 -2.9124,1.14963 -4.3686,1.60948c-0.15328,-0.22993 -0.22993,-0.38321 -0.30657,-0.61314c1.30292,-0.38321 2.68247,-0.84306 3.98539,-1.4562c0.30657,-0.15328 0.84306,-0.38321 1.37956,-0.61314c-0.22993,-0.22993 -0.45985,-0.45985 -0.68978,-0.68978c-1.91605,0.30657 -3.83211,0.45985 -5.74816,0.76642c-0.15328,-0.22993 -0.22993,-0.45985 -0.38321,-0.61314c1.83941,-0.30657 3.67882,-0.45985 5.51823,-0.76642c-0.38321,-0.38321 -0.76642,-0.68978 -1.22627,-1.07299c-1.83941,0.30657 -3.67882,0.45985 -5.51823,0.38321c-0.15328,-0.22993 -0.38321,-0.45985 -0.53649,-0.68978c1.76277,0.07664 3.52554,0 5.28831,-0.22993c-0.61314,-0.53649 -1.37956,-0.99635 -2.14598,-1.53284c-1.4562,0 -2.98904,0 -4.52189,-0.15328c-0.22993,-0.22993 -0.38321,-0.45985 -0.53649,-0.68978c0,-0.07664 0.07664,-0.07664 0.15328,-0.07664c1.30292,0.15328 2.52919,0.15328 3.83211,0.15328c-0.07664,0 -0.07664,-0.07664 -0.15328,-0.07664c-0.38321,-0.15328 -0.91971,-0.45985 -1.53284,-0.84306c-1.07299,-0.07664 -2.14598,-0.15328 -3.21897,-0.22993c-0.15328,-0.22993 -0.38321,-0.45985 -0.61314,-0.68978c0.84306,0 1.60948,0.07664 2.37591,0.15328c-1.4562,-0.76642 -6.82115,-4.13868 -6.97443,-4.21532c-0.07664,-0.07664 3.4489,-0.99635 3.4489,-0.99635c2.14598,0 4.06203,0.53649 5.97809,1.37956c1.07299,0.45985 10.1934,6.74451 12.95252,13.18245c0.61314,1.30292 1.22627,2.68247 1.22627,3.14233z" fill="#f7e37c"/><path d="M252.68116,194.04552c2.75912,6.43794 0.68978,14.40872 0.30657,15.40507c-0.76642,1.91605 -5.90144,10.1934 -5.90144,10.1934c0,-0.15328 1.30292,-6.3613 1.76277,-7.89414c-0.45985,0.61314 -0.99635,1.22627 -1.4562,1.83941c0,-0.30657 -0.07664,-0.61314 -0.07664,-0.91971c0.68978,-0.84306 1.37956,-1.68613 2.06934,-2.52919c0.22993,-0.68978 0.30657,-1.30292 0.38321,-1.68613c0,-0.07664 0,-0.07664 0,-0.15328c-0.84306,0.91971 -1.68613,1.83941 -2.52919,2.83576c-0.07664,0.07664 -0.07664,0.07664 -0.15328,0.07664c-0.07664,-0.30657 -0.07664,-0.53649 -0.15328,-0.84306c0.91971,-1.14963 1.9927,-2.29926 3.06569,-3.37225c0.15328,-0.91971 0.30657,-1.76277 0.38321,-2.60583c-1.37956,1.07299 -2.68247,2.29926 -3.83211,3.67882c-0.07664,-0.30657 -0.07664,-0.61314 -0.15328,-0.91971c1.22627,-1.37956 2.60583,-2.60583 4.06203,-3.67882c0.07664,-0.53649 0.07664,-1.07299 0.07664,-1.60948c-1.53284,1.07299 -2.9124,2.37591 -4.3686,3.52554c-0.07664,-0.22993 -0.07664,-0.45985 -0.15328,-0.68978c1.53284,-1.22627 2.98904,-2.45255 4.52189,-3.60218c0,-0.30657 0,-0.68978 0,-0.99635c-0.53649,0.22993 -1.07299,0.45985 -1.37956,0.61314c-1.37956,0.53649 -2.60583,1.14963 -3.83211,1.91605c-0.07664,-0.22993 -0.15328,-0.38321 -0.22993,-0.61314c1.30292,-0.76642 2.68247,-1.4562 4.21532,-1.9927c0.30657,-0.15328 0.76642,-0.30657 1.30292,-0.53649c-0.07664,-0.53649 -0.15328,-1.14963 -0.30657,-1.68613c-2.06934,0.68978 -4.06203,1.37956 -5.97809,2.37591c-0.07664,-0.22993 -0.15328,-0.38321 -0.30657,-0.61314c1.9927,-0.99635 4.06203,-1.68613 6.13137,-2.37591c-0.07664,-0.38321 -0.22993,-0.76642 -0.38321,-1.22627c-1.07299,0.22993 -2.06934,0.45985 -3.14233,0.84306c-1.14963,0.38321 -2.22262,0.99635 -3.21897,1.60948c-0.07664,-0.15328 -0.15328,-0.30657 -0.22993,-0.45985c1.9927,-1.22627 4.06203,-1.91605 6.3613,-2.52919c-0.15328,-0.30657 -0.22993,-0.61314 -0.38321,-0.91971c0,0 -3.29561,1.4562 -6.20801,1.9927c-0.15328,0.07664 6.74451,-5.36495 8.20071,-5.21166c0.07664,0 0.15328,0 0.22993,0.07664c0.22993,-0.07664 0.84306,1.30292 1.30292,2.68247z" fill="#f7e37c"/><path d="M271.99497,196.42142c0.45985,1.53284 0.99635,3.06569 1.4562,4.59853c0,0.07664 -0.07664,0.07664 -0.15328,0.07664c-0.07664,2.37591 -1.22627,4.98174 -2.22262,6.74451c-2.60583,4.59853 -6.82115,6.82115 -10.57661,10.11676c1.14963,-1.37956 2.60583,-2.68247 3.67882,-4.21532c0.22993,-0.30657 0.38321,-0.68978 0.61314,-0.99635c2.45255,-2.83576 4.21532,-5.67152 4.9051,-9.04377c0.15328,-0.68978 0.22993,-0.76642 0.15328,-1.30292c-0.07664,-0.61314 -0.38321,-1.22627 -0.53649,-1.76277c-0.61314,-1.9927 -1.22627,-3.98539 -1.76277,-5.97809c-1.14963,-4.3686 -1.53284,-8.7372 -1.68613,-13.25909c0,-0.99635 -0.07664,-1.91605 -0.07664,-2.83576c0,-0.22993 0.15328,0.15328 -0.38321,-0.91971c-2.52919,-4.98174 -11.34304,-13.56566 -15.86492,-13.6423c2.29926,-1.30292 7.74086,1.68613 9.81019,2.9124c2.83576,1.68613 4.98174,4.13868 7.12772,6.59122c0.61314,0.76642 1.83941,2.14598 2.60583,2.98904c0,0.07664 0.07664,0.15328 0.07664,0.22993c0.61314,1.4562 0.30657,3.52554 0.38321,5.05838c0.22993,5.05838 0.91971,9.73355 2.45255,14.63865z" fill="#3e3d44"/><path d="M234.90018,189.14042c0.07664,0 0.15328,0 0.22993,0c1.22627,0 1.22627,1.91605 0,1.91605c-0.07664,0 -0.15328,0 -0.22993,0c-1.22627,0 -1.22627,-1.91605 0,-1.91605z" fill="#ffffff"/><path d="M239.57535,189.52363c1.22627,0 1.22627,1.91605 0,1.91605c-1.22627,0 -1.22627,-1.83941 0,-1.91605z" fill="#ffffff"/><path d="M253.83079,200.40681c0.45985,1.83941 0.76642,2.75912 0.38321,4.67517c-0.76642,3.60218 -1.68613,7.20436 -3.06569,10.57661c-1.07299,1.30292 -2.22262,2.52919 -3.52554,3.67882c-0.45985,-1.07299 0.45985,-2.37591 0.76642,-3.4489c1.07299,-3.52554 2.45255,-8.27735 2.22262,-12.1861c0,-0.07664 0.07664,-0.15328 0.07664,-0.15328c0,-0.07664 -0.07664,-0.15328 -0.07664,-0.30657c-0.07664,0 -0.07664,-0.07664 -0.07664,-0.15328c0,-0.07664 0,-0.22993 0,-0.30657h-0.07664c-0.30657,-1.22627 -0.61314,-2.37591 -0.84306,-3.60218c-1.22627,-6.3613 -1.60948,-13.6423 0.68978,-19.85031c-3.75546,-7.58757 -13.56566,-16.01821 -22.68607,-16.78463c1.91605,-1.07299 4.29196,-0.84306 6.28465,-0.76642c0.45985,0 1.07299,0.07664 1.60948,0.22993c2.98904,0.76642 5.90144,2.14598 8.50728,3.98539c2.29926,1.60948 4.3686,3.4489 6.13137,5.74816c0.99635,1.30292 1.83941,2.68247 2.60583,4.13868c0.53649,1.14963 1.53284,2.60583 1.30292,3.90875c-0.15328,1.07299 -0.68978,2.14598 -0.91971,3.21897c-0.68978,2.83576 -0.84306,5.74816 -0.76642,8.66056c0.15328,2.9124 0.61314,5.8248 1.4562,8.7372z" fill="#3e3d44"/><path d="M217.34914,203.16593c0.07664,-0.30657 0.15328,-0.53649 0.22993,-0.76642v0c0.30657,-0.84306 0.76642,-1.53284 1.37956,-2.22262v0c0.30657,-0.30657 0.61314,-0.61314 0.91971,-0.91971c0.22993,-0.07664 0.45985,-0.15328 0.76642,-0.15328c0.61314,-0.30657 1.14963,-0.61314 1.68613,-0.91971c0.76642,-0.38321 1.53284,-0.76642 2.29926,-1.14963c-0.76642,0.07664 -1.53284,0.15328 -2.29926,0.15328c0.22993,-0.22993 0.45985,-0.45985 0.68978,-0.68978c1.22627,-0.07664 2.52919,-0.15328 3.75546,-0.38321c1.53284,-0.61314 3.14233,-1.30292 4.52189,-2.14598c-2.37591,0.38321 -4.67517,0.61314 -7.05108,0.76642c0.07664,-0.22993 0.15328,-0.45985 0.22993,-0.68978c2.75912,-0.15328 5.44159,-0.45985 8.12407,-0.91971c0.53649,-0.45985 0.84306,-0.91971 0.91971,-1.37956c-3.06569,0.61314 -6.13137,0.76642 -9.19706,0.22993c-0.07664,-0.30657 -0.15328,-0.53649 -0.30657,-0.76642c3.14233,0.61314 6.28465,0.45985 9.42698,-0.15328c-0.15328,-0.45985 -0.61314,-0.91971 -1.22627,-1.37956c-2.9124,0.30657 -5.74816,0.61314 -8.66056,0.84306c-0.15328,-0.15328 -0.38321,-0.38321 -0.53649,-0.61314c2.68247,-0.22993 5.44159,-0.45985 8.12407,-0.76642c-0.76642,-0.38321 -1.68613,-0.76642 -2.60583,-1.07299c-0.38321,0.07664 -0.84306,0.15328 -1.30292,0.22993c-1.83941,0.22993 -3.67882,0.30657 -5.51823,0.30657c-0.30657,-0.22993 -0.61314,-0.45985 -0.91971,-0.68978c2.14598,0.07664 4.29196,0 6.3613,-0.30657c-1.22627,-0.38321 -2.45255,-0.68978 -3.52554,-0.91971c-0.45985,0.07664 -0.99635,0.15328 -1.4562,0.22993c-0.84306,0.07664 -1.68613,0.15328 -2.52919,0.15328c-0.30657,-0.22993 -0.68978,-0.38321 -0.99635,-0.61314c0.84306,0 2.68247,-0.22993 2.60583,-0.22993c-1.22627,-0.15328 -2.45255,-0.45985 -3.67882,-0.84306c-0.38321,0 -0.68978,-0.07664 -1.07299,-0.07664c-0.45985,-0.22993 -0.99635,-0.53649 -1.53284,-0.76642c0.15328,0 -1.68613,-0.99635 -2.75912,-1.53284l6.13137,1.07299l5.74816,0.99635c0,0 16.63134,1.60948 16.63134,5.44159c0,3.90875 -20.31016,12.72259 -23.37585,12.64595z" fill="#f7e37c"/><path d="M233.52062,197.34113c-0.99635,0.38321 -1.9927,0.76642 -2.98904,1.22627c-0.68978,0.22993 -1.30292,0.38321 -1.68613,0.61314c-2.06934,0.99635 -4.13868,1.9927 -6.20801,2.9124c-2.68247,1.07299 -5.44159,1.83941 -8.43063,1.91605c0.38321,-0.53649 0.76642,-1.07299 1.30292,-1.53284c4.82845,-1.76277 8.81384,-4.59853 13.87223,-6.97443c3.83211,-1.76277 7.89414,-3.06569 11.57296,-0.45985c-0.22993,-0.15328 -0.53649,-0.22993 -0.76642,-0.15328c-2.29926,0.61314 -4.52189,1.53284 -6.66787,2.45255z" fill="#3e3d44"/><path d="M228.30896,186.30466c-7.97078,-0.99635 -14.33208,-4.9051 -22.30286,-5.67152c0,0 8.66056,0.15328 9.73355,0.38321c4.06203,0.91971 8.27735,2.29926 12.33938,3.14233c4.9051,0.91971 10.88318,0 12.64595,-0.30657c-0.61314,1.68613 -1.91605,2.45255 -3.90875,2.60583c-2.75912,0.22993 -5.8248,0.15328 -8.50728,-0.15328z" fill="#3e3d44"/></g><g fill="#ffffff" fill-rule="nonzero" stroke-width="1"><path d="M255.58389,181.93606c1.22627,0 1.22627,1.91605 0,1.91605c-1.22627,0 -1.22627,-1.91605 0,-1.91605z"/><path d="M258.57294,179.6368c1.22627,0 1.22627,1.91605 0,1.91605c-1.22627,0 -1.22627,-1.91605 0,-1.91605z"/><path d="M259.87585,183.39226c1.22627,0 1.22627,1.91605 0,1.91605c-1.22627,0 -1.22627,-1.83941 0,-1.91605z"/><path d="M258.34301,190.67326c1.22627,0 1.22627,1.91605 0,1.91605c-1.22627,0 -1.22627,-1.83941 0,-1.91605z"/><path d="M256.04375,186.68787c1.22627,0 1.22627,1.91605 0,1.91605c-1.22627,0 -1.22627,-1.83941 0,-1.91605z"/><path d="M255.58389,194.7353c1.22627,0 1.22627,1.91605 0,1.91605c-1.22627,0 -1.22627,-1.91605 0,-1.91605z"/><path d="M260.10578,197.72434c1.22627,0 1.22627,1.91605 0,1.91605c-1.22627,0 -1.22627,-1.83941 0,-1.91605z"/><path d="M263.47803,191.66961c1.22627,0 1.22627,1.91605 0,1.91605c-1.22627,0 -1.22627,-1.83941 0,-1.91605z"/><path d="M263.47803,187.30101c1.22627,0 1.22627,1.91605 0,1.91605c-1.22627,0 -1.22627,-1.91605 0,-1.91605z"/><path d="M264.70431,197.72434c1.22627,0 1.22627,1.91605 0,1.91605c-1.22627,0 -1.22627,-1.83941 0,-1.91605z"/><path d="M276.04734,194.7353c1.22627,0 1.22627,1.91605 0,1.91605c-1.22627,0 -1.22627,-1.91605 0,-1.91605z"/><path d="M243.47444,188.45064c1.22627,0 1.22627,1.91605 0,1.91605c-1.14963,0 -1.14963,-1.91605 0,-1.91605z"/><path d="M246.99998,197.1112c1.22627,0 1.22627,1.91605 0,1.91605c-1.22627,0 -1.22627,-1.91605 0,-1.91605z"/><path d="M248.60946,202.32287c1.22627,0 1.22627,1.91605 0,1.91605c-1.22627,0 -1.22627,-1.83941 0,-1.91605z"/><path d="M248.60946,205.46519c1.22627,0 1.22627,1.91605 0,1.91605c-1.22627,0 -1.22627,-1.91605 0,-1.91605z"/><path d="M243.47444,184.38861c1.22627,0 1.22627,1.91605 0,1.91605c-1.14963,0 -1.14963,-1.91605 0,-1.91605z"/><path d="M245.23721,193.43238c1.22627,0 1.22627,1.91605 0,1.91605c-1.14963,0 -1.14963,-1.83941 0,-1.91605z"/><path d="M247.53647,181.93606c1.22627,0 1.22627,1.91605 0,1.91605c-1.22627,0 -1.22627,-1.91605 0,-1.91605z"/><path d="M245.46713,176.03462c1.22627,0 1.22627,1.91605 0,1.91605c-1.22627,0 -1.22627,-1.83941 0,-1.91605z"/><path d="M242.78466,171.58937c1.22627,0 1.22627,1.91605 0,1.91605c-1.22627,0 -1.22627,-1.91605 0,-1.91605z"/><path d="M246.99998,188.22072c1.22627,0 1.22627,1.91605 0,1.91605c-1.22627,0 -1.22627,-1.91605 0,-1.91605z"/></g><g fill-rule="nonzero" stroke-width="1"><path d="M272.5218,183.23898c1.60948,-1.68613 4.13868,-1.53284 6.05473,-0.61314c0.45985,0.22993 0.07664,0.91971 -0.38321,0.68978c-1.60948,-0.76642 -3.83211,-0.91971 -5.13502,0.45985c-0.30657,0.30657 -0.84306,-0.22993 -0.53649,-0.53649z" fill="#030000"/><g><path d="M273.36487,189.44699c-0.84306,-3.4489 2.52919,-5.13502 4.75181,-4.3686c2.9124,0.91971 2.45255,4.52189 0.30657,5.90144c-2.60583,1.68613 -4.82845,-0.68978 -5.05838,-1.53284z" fill="#ffffff"/><path d="M279.11303,189.90684c-0.99635,0.76642 -1.91605,0.38321 -2.60583,-0.15328c0.61314,-0.45985 0.68978,-1.4562 -0.15328,-1.76277c-0.22993,-0.07664 -0.53649,-0.07664 -0.76642,0c-0.15328,-1.83941 1.14963,-3.21897 3.14233,-2.60583c1.76277,0.53649 1.68613,3.52554 0.38321,4.52189z" fill="#3f669e"/><path d="M277.35026,188.22072c-0.38321,-1.76277 1.14963,-2.68247 2.06934,-2.29926c1.30292,0.45985 1.07299,2.37591 0.15328,3.06569c-1.14963,0.91971 -2.14598,-0.30657 -2.22262,-0.76642z" fill="#030000"/><path d="M277.35026,191.74625c-1.68613,0.45985 -3.83211,-0.61314 -4.3686,-2.29926c-0.38321,-1.9927 0.38321,-3.90875 2.37591,-4.67517c1.76277,-0.68978 4.13868,-0.22993 4.9051,1.68613c0.91971,2.14598 -0.68978,4.82845 -2.9124,5.28831zM279.4196,186.53459c-0.84306,-1.37956 -2.75912,-1.4562 -4.06203,-0.84306c-1.4562,0.68978 -1.9927,2.14598 -1.68613,3.67882c0.45985,1.30292 2.22262,2.06934 3.4489,1.76277c1.83941,-0.45985 3.29561,-2.9124 2.29926,-4.59853z" fill="#030000"/></g></g><g stroke-width="1"><g fill-rule="nonzero"><path d="M300.85386,147.65148h-2.22262c-0.45985,-0.22993 -0.99635,-0.38321 -1.83941,-0.38321c-0.99635,0 -1.4562,0.15328 -1.9927,0.38321l-4.06203,0.07664c-0.45985,-0.22993 -0.99635,-0.38321 -1.9927,-0.38321c-0.99635,0 -1.4562,0.15328 -1.9927,0.38321l-4.06203,0.07664c-0.45985,-0.22993 -0.99635,-0.38321 -1.9927,-0.38321c-0.99635,0 -1.4562,0.15328 -1.9927,0.38321l-4.06203,0.07664c-0.45985,-0.22993 -0.99635,-0.38321 -1.9927,-0.38321c-0.99635,0 -1.4562,0.15328 -1.9927,0.38321l-3.90875,0.07664c-0.61314,-0.30657 -1.07299,-0.53649 -2.22262,-0.38321c-0.68978,0.07664 -1.14963,0.22993 -1.53284,0.38321h-2.45255c-0.07664,-0.07664 -0.07664,-0.07664 -0.15328,-0.15328c0,-0.53649 0.15328,-1.30292 0.22993,-1.91605c0.07664,-0.61314 -0.45985,-1.53284 -0.22993,-2.22262c0.22993,-0.68978 1.14963,-0.99635 1.53284,-1.68613c0.30657,-0.61314 0.07664,-1.60948 0.45985,-2.22262c0.38321,-0.53649 1.37956,-0.68978 1.83941,-1.30292c0.45985,-0.53649 0.30657,-1.60948 0.76642,-2.14598c0.45985,-0.53649 1.53284,-0.53649 1.9927,-1.07299c0.53649,-0.53649 0.53649,-1.60948 0.99635,-2.06934c0.53649,-0.53649 1.60948,-0.45985 2.06934,-0.84306c0.68978,-0.61314 0.99635,-1.68613 1.37956,-1.83941c0.61314,-0.22993 1.4562,0.22993 2.14598,0c0.61314,-0.22993 0.99635,-1.14963 1.68613,-1.30292c0.61314,-0.15328 1.4562,0.38321 2.14598,0.22993c0.68978,-0.15328 1.14963,-0.99635 1.83941,-1.14963c0.68978,-0.15328 1.4562,0.45985 2.14598,0.38321c0.68978,-0.07664 1.22627,-0.91971 1.91605,-0.99635c0.68978,-0.07664 1.37956,0.68978 2.06934,0.61314c0.68978,-0.07664 1.37956,-0.84306 1.9927,-0.84306c0.68978,0 1.37956,0.76642 1.9927,0.84306c0.68978,0.07664 1.4562,-0.61314 2.06934,-0.45985c0.76642,0.15328 1.30292,1.14963 2.14598,1.53284c0.68978,0.30657 1.76277,0.07664 2.52919,0.61314c0.68978,0.45985 0.91971,1.53284 1.53284,2.14598c0.61314,0.61314 1.76277,0.68978 2.29926,1.30292c0.53649,0.61314 0.45985,1.76277 0.91971,2.45255c0.45985,0.68978 1.53284,1.14963 1.83941,1.91605c0.30657,0.76642 -0.15328,1.76277 -0.07664,2.60583c0.07664,0.84306 0.84306,1.68613 0.68978,2.52919c-0.15328,0.84306 -1.07299,1.37956 -1.4562,2.22262c-0.22993,0.53649 -0.30657,1.30292 -0.53649,1.91605c-0.15328,0.15328 -0.30657,0.30657 -0.45985,0.61314z" fill="#cec800"/><path d="M300.77721,144.81572c0.15328,0.15328 0.38321,0.30657 0.61314,0.45985c-0.15328,0.45985 -0.22993,0.99635 -0.38321,1.53284c-0.15328,0.15328 -0.30657,0.30657 -0.45985,0.45985h-2.22262c-0.45985,-0.22993 -0.99635,-0.38321 -1.83941,-0.38321c-0.99635,0 -1.4562,0.15328 -1.9927,0.38321l-4.06203,0.07664c-0.45985,-0.22993 -0.99635,-0.38321 -1.9927,-0.38321c-0.99635,0 -1.4562,0.15328 -1.9927,0.38321l-4.06203,0.07664c-0.45985,-0.22993 -0.99635,-0.38321 -1.9927,-0.38321c-0.99635,0 -1.4562,0.15328 -1.9927,0.38321l-4.06203,0.07664c-0.45985,-0.22993 -0.99635,-0.38321 -1.9927,-0.38321c-0.99635,0 -1.4562,0.15328 -1.9927,0.38321l-3.90875,0.07664c-0.61314,-0.30657 -1.07299,-0.53649 -2.22262,-0.38321c-0.68978,0.07664 -1.14963,0.22993 -1.53284,0.38321h-2.29926c0.53649,-0.76642 1.14963,-1.60948 1.37956,-1.83941c-0.53649,-0.45985 -1.07299,-0.99635 -1.68613,-1.37956c-0.15328,-0.38321 -0.15328,-0.68978 -0.07664,-1.07299c0.84306,0.53649 1.68613,1.14963 2.37591,1.83941c0.76642,-0.68978 1.53284,-1.30292 2.29926,-1.83941c-0.68978,-1.37956 -1.60948,-2.68247 -2.83576,-3.52554c0,-0.15328 0.07664,-0.22993 0.15328,-0.38321c0.07664,-0.15328 0.22993,-0.30657 0.38321,-0.38321c1.37956,0.91971 2.29926,2.29926 3.06569,3.83211c0.84306,-0.45985 1.68613,-0.84306 2.52919,-1.14963c-0.91971,-1.83941 -2.14598,-3.83211 -3.67882,-5.21166c0,-0.22993 0.07664,-0.38321 0.22993,-0.53649c0.07664,-0.07664 0.22993,-0.15328 0.30657,-0.22993c1.4562,1.30292 2.60583,3.14233 3.52554,4.82845c0.15328,0.30657 0.30657,0.61314 0.45985,0.91971c0.68978,-0.22993 1.37956,-0.38321 2.06934,-0.53649c-0.76642,-2.83576 -1.91605,-5.51823 -3.60218,-7.74086c0.07664,-0.07664 0.15328,-0.22993 0.22993,-0.30657c0.15328,-0.15328 0.30657,-0.22993 0.45985,-0.30657c1.83941,2.37591 3.06569,5.21166 3.83211,8.20071c0.61314,-0.07664 1.14963,-0.15328 1.76277,-0.22993c-0.07664,-0.22993 -0.07664,-0.45985 -0.15328,-0.68978c-0.45985,-2.68247 -1.14963,-6.43794 -2.75912,-9.19706c0.07664,-0.22993 0.22993,-0.38321 0.38321,-0.45985c0.07664,-0.07664 0.22993,-0.07664 0.30657,-0.07664c1.22627,2.22262 1.91605,4.82845 2.45255,6.97443c0.30657,1.14963 0.53649,2.22262 0.68978,3.37225c0.45985,-0.07664 0.84306,-0.07664 1.30292,-0.15328c0.38321,0 0.76642,-0.07664 1.14963,-0.07664c-0.38321,-3.67882 -1.30292,-7.20436 -2.83576,-10.65326c0.22993,-0.30657 0.45985,-0.53649 0.76642,-0.61314c1.60948,3.60218 2.60583,7.35764 2.98904,11.18975c0.84306,-0.07664 1.60948,-0.15328 2.37591,-0.15328c0.07664,-2.60583 -0.15328,-5.21166 -0.61314,-7.74086c-0.22993,-1.37956 -0.76642,-2.60583 -1.30292,-3.90875c0.15328,-0.15328 0.38321,-0.22993 0.61314,-0.30657c0.07664,0 0.07664,0 0.15328,0c0.61314,1.76277 1.30292,3.52554 1.60948,5.44159c0.30657,2.14598 0.45985,4.3686 0.45985,6.51458c0.76642,0 1.4562,0 2.14598,0c0.07664,-1.14963 0.15328,-2.29926 0.15328,-3.4489c0.07664,-2.52919 0.15328,-6.13137 -1.07299,-8.81384c0.22993,-0.07664 0.38321,-0.22993 0.61314,-0.22993c0.07664,0 0.22993,0 0.30657,0c0.84306,2.06934 1.07299,4.59853 1.14963,6.74451c0.07664,1.91605 0,3.90875 -0.15328,5.8248c0.84306,0.07664 1.60948,0.15328 2.45255,0.22993c0.61314,-4.21532 0.30657,-8.7372 0,-12.95252c0.15328,-0.07664 0.22993,-0.07664 0.38321,-0.07664c0.22993,0 0.45985,0.07664 0.61314,0.15328c0.30657,4.21532 0.53649,8.7372 -0.07664,13.02916c0.53649,0.07664 0.99635,0.15328 1.4562,0.22993c0.15328,-0.30657 0.22993,-0.68978 0.30657,-0.99635c0.99635,-3.60218 2.22262,-8.20071 1.4562,-12.03281c0.15328,0 0.30657,0 0.45985,0c0.15328,0.07664 0.38321,0.15328 0.53649,0.30657c0.53649,3.67882 -0.45985,7.8175 -1.30292,11.18975c-0.15328,0.61314 -0.30657,1.22627 -0.45985,1.83941c0.61314,0.15328 1.22627,0.30657 1.83941,0.45985c1.68613,-3.67882 2.9124,-7.58757 3.60218,-11.72625c0.15328,0.07664 0.22993,0.15328 0.38321,0.22993c0.22993,0.15328 0.30657,0.30657 0.45985,0.45985c-0.68978,3.98539 -1.83941,7.74086 -3.52554,11.34304c0.76642,0.22993 1.4562,0.45985 2.22262,0.68978c1.91605,-2.98904 3.4489,-6.13137 4.29196,-9.42698c0.15328,0.15328 0.30657,0.22993 0.45985,0.38321c0.15328,0.07664 0.22993,0.30657 0.30657,0.45985c-0.84306,3.14233 -2.37591,6.05473 -4.13868,8.89049c0.15328,0.07664 0.30657,0.07664 0.45985,0.15328c0.53649,0.22993 0.99635,0.38321 1.4562,0.61314c1.68613,-1.91605 3.06569,-4.06203 4.21532,-6.3613c0.22993,0.15328 0.38321,0.38321 0.45985,0.61314c0.07664,0.07664 0.07664,0.22993 0.07664,0.38321c-0.99635,1.9927 -2.29926,3.98539 -3.83211,5.67152c0.45985,0.22993 0.91971,0.45985 1.37956,0.68978c0.99635,-0.91971 1.91605,-1.91605 2.68247,-2.98904c0.15328,0.38321 0.30657,0.76642 0.30657,1.14963c-0.68978,0.84306 -1.37956,1.60948 -2.45255,2.14598z" fill="#fbdf00"/></g><g fill-rule="nonzero"><path d="M258.70068,161.67699c-2.29926,0.15328 -5.05838,2.29926 -7.05108,3.37225c-2.22262,1.22627 -4.13868,1.91605 -6.51458,2.52919c-0.76642,-3.06569 4.59853,-9.42698 4.59853,-9.42698c0,0 -4.75181,-9.73355 -1.07299,-12.03281c1.83941,1.14963 3.37225,3.06569 5.21166,4.29196c1.76277,1.14963 3.98539,1.83941 5.51823,2.98904z" fill="#cec800"/><path d="M260.31017,154.24271l-0.38321,3.67882l-0.22993,2.29926l-0.99635,0.45985c-1.68613,0.84306 -3.4489,1.53284 -5.21166,2.14598c-2.75912,0.99635 -5.44159,2.22262 -8.27735,2.98904c0.15328,-0.30657 0.22993,-0.68978 0.38321,-1.07299c2.37591,-0.68978 4.59853,-1.68613 6.89779,-2.45255c2.14598,-0.76642 4.3686,-1.91605 6.43794,-3.21897l-0.07664,-0.61314c-3.60218,1.91605 -7.58757,2.83576 -11.6496,3.06569c0.22993,-0.38321 0.45985,-0.68978 0.68978,-0.99635c3.83211,-0.38321 7.66421,-1.22627 11.03647,-3.21897c0.07664,0 0.07664,0 0.07664,0v-0.15328c-2.9124,0.38321 -5.8248,0.91971 -8.89049,0.84306c-0.15328,0 -0.38321,0 -0.53649,0c-0.07664,-0.15328 -0.22993,-0.45985 -0.38321,-0.84306c0.99635,0 1.83941,-0.07664 2.52919,-0.07664c2.52919,0 4.98174,-0.53649 7.43429,-0.84306l0.07664,-0.53649c-3.67882,0.61314 -7.58757,-0.22993 -11.11311,-1.53284c-0.07664,-0.38321 -0.22993,-0.76642 -0.30657,-1.14963c3.60218,1.37956 7.74086,2.37591 11.49632,1.68613v-0.07664c-3.29561,-0.61314 -8.81384,-2.60583 -12.03281,-5.59488c0,-0.38321 0.07664,-0.76642 0.15328,-1.14963c2.9124,2.9124 8.43063,4.52189 11.95617,6.05473z" fill="#fbdf00"/></g><g fill-rule="nonzero"><path d="M261.07659,167.80836c0.91971,0.68978 0.45985,1.30292 1.37956,2.06934c0.91971,0.76642 1.37956,0.15328 2.29926,0.91971c0.91971,0.76642 0.45985,1.30292 1.37956,2.06934c0.91971,0.68978 1.30292,0.15328 2.29926,0.84306c0.99635,0.45985 1.9927,1.53284 3.4489,1.9927c1.22627,0.30657 2.75912,0 4.06203,0.38321c1.30292,0.38321 2.37591,1.4562 3.60218,1.91605c1.30292,0.45985 2.83576,0.22993 3.98539,0.76642c1.4562,0.68978 1.91605,1.07299 2.68247,1.91605c0,0.76642 0.61314,2.29926 0.22993,2.98904c-0.30657,0.61314 -1.37956,0.76642 -1.91605,1.37956c-0.45985,0.53649 -0.53649,1.60948 -1.14963,2.06934c-0.61314,0.53649 -1.68613,0.22993 -2.29926,0.53649c-0.76642,0.30657 -1.37956,1.22627 -1.9927,1.22627c-0.76642,-0.07664 -1.60948,-0.84306 -2.60583,-0.99635c-0.84306,-0.07664 -1.83941,0.53649 -2.75912,0.30657c-0.84306,-0.15328 -1.53284,-1.14963 -2.37591,-1.37956c-0.84306,-0.22993 -1.91605,0.15328 -2.75912,-0.15328c-0.84306,-0.38321 -1.30292,-1.37956 -2.06934,-1.83941c-0.76642,-0.45985 -1.91605,-0.38321 -2.60583,-0.91971c-0.68978,-0.61314 -0.76642,-1.76277 -1.37956,-2.45255c-0.61314,-0.68978 -1.76277,-0.91971 -2.22262,-1.68613c-0.45985,-0.68978 -0.30657,-1.91605 -0.68978,-2.68247c-0.38321,-0.84306 -1.4562,-1.30292 -1.76277,-2.14598c-0.22993,-0.68978 0.22993,-1.60948 0,-2.22262c-0.22993,-0.68978 -1.14963,-1.14963 -1.30292,-1.76277c-0.15328,-0.76642 0.45985,-1.53284 0.45985,-2.14598c0,-0.84306 -0.45985,-1.76277 0.07664,-2.14598c0.38321,-0.30657 1.07299,0.15328 1.9927,0.22993c1.07299,0.61314 1.30292,0.15328 1.9927,0.91971z" fill="#cec800"/><path d="M258.85397,167.42515c0.07664,0.07664 0.22993,0.07664 0.30657,0.07664c0.07664,0.07664 0.22993,0.07664 0.30657,0.15328h0.07664c0.07664,0 0.15328,0.07664 0.22993,0.07664c0.07664,0 0.07664,0 0.07664,0c0.45985,0.15328 0.76642,0.07664 1.14963,0.30657c0.15328,0 0.30657,0.07664 0.45985,0.22993c0.22993,0.15328 0.38321,0.30657 0.45985,0.45985c0,0.07664 0.07664,0.07664 0.07664,0.15328c0.22993,0.30657 0.22993,0.61314 0.45985,0.99635v0c0,0.07664 0.07664,0.07664 0.07664,0.15328v0l0.07664,0.07664v0c0,0.07664 0.07664,0.07664 0.15328,0.15328c0.53649,0.38321 0.91971,0.38321 1.30292,0.45985c0.07664,0 0.15328,0 0.22993,0v0c0.07664,0 0.15328,0.07664 0.22993,0.07664c0.07664,0 0.07664,0 0.07664,0c0.07664,0 0.15328,0 0.22993,0.07664v0c0.15328,0 0.22993,0.07664 0.30657,0.15328c0.91971,0.76642 0.45985,1.30292 1.37956,2.06934c0.07664,0.07664 0.07664,0.07664 0.07664,0.07664c0.30657,0.22993 0.61314,0.30657 0.84306,0.38321v0c0.15328,0 0.38321,0.07664 0.53649,0.07664h0.07664h0.07664h0.07664h0.07664c0,0.07664 0.07664,0.07664 0.07664,0.07664h0.07664c0.07664,0 0.07664,0.07664 0.15328,0.07664h0.07664c0.07664,0.07664 0.15328,0.07664 0.22993,0.15328c0.15328,0.07664 0.30657,0.15328 0.45985,0.22993l0.07664,0.07664c0.07664,0.15328 0.22993,0.22993 0.38321,0.30657c0.38321,0.22993 0.76642,0.53649 1.14963,0.76642c0.07664,0 0.07664,0.07664 0.15328,0.07664c0.15328,0.07664 0.22993,0.07664 0.30657,0.15328c0.07664,0.07664 0.15328,0.07664 0.22993,0.15328c0.07664,0 0.15328,0.07664 0.22993,0.07664c0.22993,0.07664 0.38321,0.07664 0.53649,0.15328c0.15328,0 0.30657,0.07664 0.45985,0.07664c0.07664,0 0.15328,0 0.22993,0c0.07664,0 0.22993,0 0.30657,0c0.15328,0 0.22993,0 0.30657,0c0.07664,0 0.15328,0 0.22993,0c0.53649,0.07664 0.99635,0.07664 1.53284,0.07664c0.15328,0 0.30657,0.07664 0.45985,0.07664h0.07664c0.15328,0.07664 0.38321,0.07664 0.53649,0.15328c1.30292,0.38321 2.37591,1.4562 3.60218,1.91605c0.15328,0.07664 0.30657,0.15328 0.45985,0.15328c0.07664,0 0.07664,0 0.15328,0c0.15328,0 0.22993,0.07664 0.38321,0.07664h0.07664c0.76642,0.07664 1.4562,0.07664 2.14598,0.22993c0.22993,0 0.53649,0.07664 0.76642,0.22993c0.30657,0.07664 0.45985,0.22993 0.68978,0.30657c0.45985,0.22993 0.76642,0.45985 1.07299,0.68978v0c0,0.07664 0.07664,0.07664 0.15328,0.15328l0.07664,0.07664c0.07664,0.07664 0.07664,0.07664 0.15328,0.15328c0.07664,0.07664 0.07664,0.07664 0.15328,0.15328c0,0 0.07664,0 0.07664,0.07664c0.07664,0.07664 0.15328,0.15328 0.22993,0.22993c0,0.07664 0,0.22993 0,0.30657v0.07664c0.07664,0.45985 0.22993,1.14963 0.30657,1.76277c-0.15328,0 -0.38321,0 -0.53649,0c0.07664,0.30657 0.22993,0.68978 0.30657,0.99635c-0.22993,0.22993 -0.53649,0.38321 -0.84306,0.53649c-0.15328,-0.53649 -0.38321,-1.07299 -0.53649,-1.60948c-0.53649,0 -1.07299,-0.07664 -1.60948,-0.07664c0.07664,1.30292 0.22993,2.68247 0.30657,3.98539c-0.15328,0.15328 -0.22993,0.30657 -0.38321,0.38321c-0.15328,0.07664 -0.30657,0.15328 -0.53649,0.22993c-0.07664,-1.53284 -0.22993,-3.14233 -0.38321,-4.67517c-0.76642,-0.07664 -1.4562,-0.15328 -2.22262,-0.22993c-0.15328,2.06934 -0.30657,4.21532 -0.84306,6.28465c-0.15328,0 -0.22993,0.07664 -0.38321,0.07664c-0.15328,0 -0.38321,-0.07664 -0.53649,-0.15328c0.07664,-0.53649 0.22993,-1.07299 0.30657,-1.53284c0.38321,-1.60948 0.45985,-3.29561 0.53649,-4.9051c-0.68978,-0.15328 -1.37956,-0.22993 -2.06934,-0.38321c-0.68978,2.14598 -1.60948,4.29196 -2.75912,6.20801c-0.22993,0.07664 -0.53649,0.07664 -0.84306,0c-0.07664,0 -0.15328,-0.07664 -0.22993,-0.07664c1.22627,-1.9927 2.22262,-4.13868 2.83576,-6.3613c-1.22627,-0.22993 -2.45255,-0.53649 -3.60218,-0.91971c-1.07299,2.06934 -2.22262,3.98539 -3.60218,5.90144c-0.22993,0 -0.45985,-0.07664 -0.68978,-0.15328c-0.15328,-0.07664 -0.22993,-0.07664 -0.30657,-0.15328c1.37956,-1.83941 2.60583,-3.83211 3.67882,-5.90144c-0.99635,-0.38321 -1.9927,-0.76642 -2.9124,-1.14963c-0.30657,-0.15328 -0.53649,-0.22993 -0.76642,-0.38321c-0.38321,0.61314 -0.76642,1.22627 -1.22627,1.76277c-0.91971,1.14963 -1.91605,2.14598 -3.06569,3.14233c-0.07664,0 -0.07664,0 -0.15328,-0.07664c-0.22993,-0.15328 -0.30657,-0.38321 -0.45985,-0.61314c1.37956,-1.22627 2.68247,-2.52919 3.67882,-3.98539c0.15328,-0.15328 0.22993,-0.38321 0.38321,-0.61314c-1.07299,-0.61314 -2.06934,-1.22627 -2.9124,-1.91605c-1.14963,1.30292 -2.52919,2.52919 -3.98539,3.4489c-0.15328,-0.07664 -0.30657,-0.22993 -0.38321,-0.38321c-0.07664,-0.07664 -0.07664,-0.22993 -0.15328,-0.38321c1.37956,-0.91971 2.68247,-2.06934 3.83211,-3.29561c-1.07299,-0.84306 -1.91605,-1.83941 -2.68247,-2.83576c-0.15328,0.15328 -0.38321,0.30657 -0.53649,0.45985c-0.84306,0.68978 -1.68613,1.22627 -2.60583,1.68613c-0.15328,-0.15328 -0.22993,-0.30657 -0.30657,-0.45985c-0.07664,-0.15328 -0.07664,-0.22993 -0.07664,-0.38321c0.76642,-0.45985 1.53284,-0.91971 2.29926,-1.53284c0.22993,-0.15328 0.45985,-0.30657 0.68978,-0.53649c-0.45985,-0.61314 -0.84306,-1.30292 -1.22627,-1.91605c-0.91971,0.38321 -1.83941,0.68978 -2.83576,0.91971c-0.07664,-0.15328 -0.15328,-0.30657 -0.22993,-0.45985c0,-0.15328 0,-0.30657 0,-0.45985c0.91971,-0.22993 1.83941,-0.53649 2.68247,-0.84306c-0.22993,-0.45985 -0.45985,-0.84306 -0.61314,-1.30292c-0.53649,-0.07664 -1.14963,-0.22993 -1.68613,-0.45985c0,-0.38321 -0.07664,-0.76642 0.07664,-0.99635c0.38321,0.22993 0.84306,0.38321 1.30292,0.45985c-0.07664,-0.15328 -0.15328,-0.38321 -0.22993,-0.61314v0c0.07664,0 0.22993,0.07664 0.38321,0.07664c0.07664,0 0.07664,0 0.07664,0c0.07664,0.07664 0.15328,0.07664 0.22993,0.07664c0.07664,0 0.07664,0 0.15328,0.61314z" fill="#fbdf00"/></g><g><path d="M294.49256,180.14775c-0.07664,3.90875 -0.68978,8.12407 -4.06203,11.49632c-1.53284,-2.45255 -0.61314,-3.14233 -0.61314,-5.13502c-0.07664,-1.37956 -0.30657,-3.14233 0.68978,-4.29196c0.45985,-0.53649 1.07299,-0.53649 1.30292,-1.37956z" fill="#d8d213" fill-rule="nonzero"/><path d="M294.49256,180.14775c-0.07664,3.90875 -0.68978,8.12407 -4.06203,11.49632c-1.53284,-2.45255 -0.61314,-3.14233 -0.61314,-5.13502c-0.07664,-1.37956 -0.30657,-3.14233 0.68978,-4.29196c0.45985,-0.53649 3.21897,-1.76277 3.21897,-1.76277z" fill="none" fill-rule="evenodd"/><path d="M294.41592,180.0711c0,0.22993 0,0.38321 0,0.61314c-0.84306,2.52919 -1.53284,5.05838 -3.14233,7.281c-0.53649,0.68978 -0.99635,1.4562 -1.60948,2.14598c-0.15328,-0.45985 -0.15328,-0.84306 -0.15328,-1.22627c0.61314,-0.76642 1.07299,-1.53284 1.53284,-2.22262c0.76642,-1.22627 1.30292,-2.60583 1.76277,-3.98539c-0.84306,0.99635 -1.91605,1.91605 -3.06569,2.68247c0,-0.38321 0,-0.76642 0,-1.14963c1.30292,-0.99635 2.52919,-2.14598 3.37225,-3.4489c0.38321,-0.22993 0.61314,-0.30657 0.61314,-0.30657z" fill="#fbdf00" fill-rule="nonzero"/></g></g><g fill-rule="nonzero" stroke-width="1"><g fill="#fbdf00"><path d="M318.63483,167.34851c-1.30292,1.9927 -3.4489,2.9124 -7.58757,1.83941c0,2.37591 4.59853,2.14598 5.51823,1.76277c-0.15328,3.60218 -6.59122,4.44524 -8.58392,4.9051c-7.281,1.68613 -9.88683,5.67152 -16.32477,6.59122c-7.20436,0.99635 -15.86492,-0.07664 -22.45614,-2.98904c-6.97443,-3.14233 -10.1934,-9.12041 -11.26639,-13.02916c-1.4562,-4.06203 -3.29561,-3.06569 -5.05838,-1.91605c-0.99635,-1.37956 1.9927,-4.3686 2.06934,-7.51093c0.07664,-3.21897 -0.61314,-6.20801 -0.61314,-6.20801c2.45255,1.22627 3.90875,0.68978 4.52189,-0.22993c0.61314,-0.84306 0.84306,-1.68613 1.4562,-2.45255c4.52189,-6.05473 9.73355,-6.89779 15.63499,-7.51093c7.20436,-0.76642 13.6423,-0.30657 20.46345,2.37591c3.29561,1.30292 5.67152,2.29926 7.8175,5.36495c2.14598,2.98904 3.14233,4.82845 5.05838,7.89414c1.76277,2.83576 4.75181,5.51823 7.05108,7.8175c0.91971,0.84306 3.06569,1.9927 2.29926,3.29561z"/></g><g><path d="M299.4743,162.13685c-2.29926,-0.15328 -4.52189,-0.84306 -6.28465,-2.37591c-0.53649,-0.45985 -2.14598,-1.83941 -2.14598,-2.68247c0,-0.68978 0.99635,-1.37956 1.4562,-1.76277c1.91605,-1.53284 4.52189,-2.14598 6.97443,-2.06934c2.29926,0 7.05108,1.83941 7.281,4.75181c0.30657,3.37225 -5.13502,3.98539 -7.281,4.13868zM305.91224,158.07481c0,-0.30657 -1.07299,-1.53284 -1.4562,-1.91605c-1.60948,-1.53284 -3.67882,-2.06934 -5.8248,-1.9927c-1.9927,0.07664 -4.06203,0.61314 -5.67152,1.83941c-0.38321,0.22993 -0.68978,0.53649 -0.99635,0.91971c-0.07664,0.07664 -0.07664,0.07664 -0.07664,0.07664c0.84306,2.75912 5.28831,4.13868 7.58757,4.21532c1.76277,-0.07664 6.74451,-0.68978 6.43794,-3.14233z" fill="#cec800"/><path d="M302.69327,151.94344c-2.83576,-1.60948 -6.51458,-1.22627 -9.2737,0.30657c-0.53649,0.22993 -0.91971,-0.53649 -0.45985,-0.76642c3.06569,-1.68613 7.05108,-1.9927 10.1934,-0.30657c0.45985,0.30657 0.07664,0.99635 -0.45985,0.76642z" fill="#cec800"/><path d="M294.26263,157.15511c0,0 1.22627,-1.9927 4.98174,-1.9927c2.98904,0 4.21532,2.60583 4.21532,2.60583c0,0 0,2.29926 -4.21532,2.29926c-3.52554,0 -4.98174,-2.9124 -4.98174,-2.9124z" fill="#ffffff"/><path d="M303.53633,157.84489c0,0 -0.07664,2.22262 -4.06203,2.29926c-0.53649,-0.45985 -0.84306,-0.91971 -1.07299,-1.53284c0.53649,-0.15328 0.91971,-0.61314 0.91971,-1.14963c0,-0.61314 -0.38321,-1.07299 -0.91971,-1.14963c0.15328,-0.45985 0.38321,-0.84306 0.68978,-1.14963c0.07664,0 0.07664,0 0.15328,0c3.06569,0 4.29196,2.68247 4.29196,2.68247z" fill="#748706"/><path d="M303.53633,157.84489c0,0 0,1.4562 -2.14598,2.06934c-0.91971,-0.45985 -1.53284,-1.30292 -1.53284,-2.37591c0,-0.84306 0.38321,-1.60948 0.99635,-2.06934c1.83941,0.68978 2.68247,2.37591 2.68247,2.37591z" fill="#302f38"/></g><path d="M280.23712,167.65508c-4.82845,4.29196 -15.63499,-1.14963 -17.78097,-6.28465c-1.53284,-3.75546 1.83941,-5.74816 4.9051,-6.82115c2.06934,-0.68978 3.98539,-0.99635 6.05473,-0.15328c2.60583,0.99635 4.75181,3.06569 7.35764,4.21532c0.22993,0.07664 0.22993,0.22993 0.22993,0.38321c0,1.76277 0,3.4489 0,5.21166c0,1.37956 0.30657,2.45255 -0.76642,3.4489zM269.04737,154.85584c3.37225,1.53284 6.82115,2.9124 10.42333,3.98539c-2.29926,-1.22627 -4.3686,-3.14233 -6.89779,-3.90875c-1.14963,-0.38321 -2.29926,-0.30657 -3.52554,-0.07664zM280.16048,159.99087v-0.07664c-4.29196,-1.22627 -8.43063,-2.83576 -12.41603,-4.75181c-1.07299,0.38321 -2.06934,0.84306 -2.98904,1.4562c4.98174,2.06934 10.11676,3.14233 15.40507,3.37225zM262.99264,159.91422c3.29561,0.91971 6.82115,1.22627 10.04012,1.60948c1.76277,0.22993 3.75546,0.15328 5.67152,0.07664c-5.13502,-0.53649 -10.04012,-2.14598 -14.79193,-4.3686c-0.91971,0.91971 -1.14963,1.83941 -0.91971,2.68247zM266.05833,164.28283c2.52919,0.07664 5.13502,-0.07664 7.51093,-0.22993c2.22262,-0.22993 4.44524,-0.53649 6.59122,-1.07299v-0.07664c-2.68247,0 -5.44159,-0.15328 -8.12407,-0.53649c-2.83576,-0.38321 -5.90144,-0.68978 -8.81384,-1.37956c0.53649,1.14963 1.60948,2.29926 2.83576,3.29561zM268.66416,165.96895c0.76642,0.45985 1.68613,0.84306 2.52919,1.14963c3.14233,-0.76642 6.13137,-1.83941 9.04377,-3.21897c0,0 0,-0.07664 0,-0.15328c-1.91605,0.45985 -3.83211,0.76642 -5.8248,0.99635c-2.29926,0.22993 -4.75181,0.38321 -7.20436,0.38321c0.53649,0.38321 0.99635,0.68978 1.4562,0.84306zM280.23712,164.89596c-2.45255,1.14963 -4.9051,2.06934 -7.51093,2.75912c0.84306,0.15328 1.60948,0.30657 2.37591,0.38321c1.37956,0.15328 4.21532,0 4.98174,-1.4562c0.22993,-0.38321 0.22993,-0.99635 0.15328,-1.68613z" fill="#cec800"/></g><text transform="translate(165.025,245.76875) scale(0.5,0.5)" font-size="40" xml:space="preserve" fill="#000000" fill-rule="nonzero" stroke="none" stroke-width="1" stroke-linecap="butt" stroke-linejoin="miter" stroke-miterlimit="10" stroke-dasharray="" stroke-dashoffset="0" font-family="&quot; Pro W3&quot;, &quot;Hiragino Kaku Gothic Pro&quot;, Osaka, &quot;&quot;, Meiryo, &quot; &quot;, &quot;MS PGothic&quot;" font-weight="normal" text-anchor="start" style="mix-blend-mode: normal"><tspan x="0" dy="0">CasualQuarium</tspan></text></g></g></svg>