<svg version="1.1" xmlns="http://www.w3.org/2000/svg" xmlns:xlink="http://www.w3.org/1999/xlink" width="697.93522" height="631.66483" viewBox="0,0,697.93522,631.66483"><g transform="translate(108.96762,135.83243)"><g data-paper-data="{&quot;isPaintingLayer&quot;:true}" stroke="none" stroke-linecap="butt" stroke-linejoin="miter" stroke-miterlimit="10" stroke-dasharray="" stroke-dashoffset="0" style="mix-blend-mode: normal"><path d="M-30.58377,378.47979v-396.95957h541.16754v396.95957z" fill="#8cf7ff" fill-rule="nonzero" stroke-width="0"/><path d="M-42.29081,419.05508l184.99521,-469.60322l36.12332,14.2304l-184.99521,469.60322z" fill="#befbff" fill-rule="nonzero" stroke-width="0"/><path d="M-108.96762,333.77079l184.99521,-469.60322l36.12332,14.2304l-184.99521,469.60322z" fill="#befbff" fill-rule="nonzero" stroke-width="0"/><path d="M58.54883,437.71168l184.99521,-469.60322l36.12332,14.2304l-184.99521,469.60322z" fill="#befbff" fill-rule="nonzero" stroke-width="0"/><path d="M170.9199,453.69078l184.99521,-469.60322l36.12332,14.2304l-184.99521,469.60322z" fill="#befbff" fill-rule="nonzero" stroke-width="0"/><path d="M287.21665,467.6464l184.99521,-469.60322l36.12332,14.2304l-184.99521,469.60322z" fill="#befbff" fill-rule="nonzero" stroke-width="0"/><path d="M367.84907,481.602l184.99521,-469.60322l36.12332,14.2304l-184.99521,469.60322z" fill="#befbff" fill-rule="nonzero" stroke-width="0"/><path d="M49.66098,466.35099v-13.95561h24.80997v13.95561z" fill="#befbff" fill-rule="nonzero" stroke-width="0"/><g stroke-width="1"><g fill-rule="nonzero"><path d="M81.08873,223.9762c-2.78776,0.75013 -1.68942,0.41626 -3.28642,-1.53037c-1.9323,-2.62298 -5.55831,-3.5637 -7.74353,-6.27194c-1.76465,-2.2848 -3.68977,-7.01776 -3.42683,-9.88648c0.35394,-4.80962 0.78884,-8.60616 4.17772,-12.39266c2.62584,-2.77629 5.83704,-3.94698 8.79818,-6.04693c3.63749,-2.43526 7.77077,-1.74601 11.90834,-2.32275c4.89775,-0.74296 10.47039,-1.39923 14.95045,-3.40962c1.1836,-0.58678 2.70537,-1.34121 3.63749,-2.43525c0.76304,-1.01021 0.93642,-2.36003 1.78328,-3.20115c2.70967,-2.6072 7.77507,-3.012 9.39213,-6.97333c1.61706,-3.96132 -2.08418,-7.60311 0.79744,-11.13814c1.1012,-1.17786 2.20098,-1.93373 2.96545,-3.36594c1.01881,-1.76895 2.37007,-2.01756 3.8947,-3.61598c3.64179,-3.70124 6.84867,-3.60595 11.57303,-2.9991c1.34982,0.17338 2.86729,0.68494 4.04945,0.52016c0.844,0.00287 1.68943,-0.41626 2.28051,-0.49865c2.70106,-0.07522 2.70107,-0.07523 6.65236,4.49582c2.52194,2.96258 6.53699,13.61067 6.53699,13.61067z" fill="#120201"/><path d="M86.57038,225.26083c-2.78776,0.75013 -1.68942,0.41627 -3.28642,-1.53037c-1.93229,-2.62298 -3.87749,-1.44799 -5.89362,-4.24005c-1.76464,-2.28481 -6.22748,-5.33838 -6.04836,-8.37618c0.35394,-4.80962 -1.06107,-10.63805 2.4969,-14.50838c2.62585,-2.77629 5.83704,-3.94698 8.79818,-6.04693c3.63749,-2.43526 7.77077,-1.74601 11.90834,-2.32276c4.89774,-0.74296 10.47039,-1.39923 14.95045,-3.40962c1.1836,-0.58678 2.70537,-1.34122 3.63749,-2.43526c0.76304,-1.01021 0.93642,-2.36003 1.78328,-3.20115c2.70967,-2.6072 7.77507,-3.012 9.39213,-6.97332c1.61706,-3.96132 -2.08417,-7.60312 0.79745,-11.13814c1.1012,-1.17786 2.20097,-1.93373 2.96544,-3.36594c1.01881,-1.76895 2.37007,-2.01756 3.8947,-3.61598c3.64179,-3.70124 6.84868,-3.60595 11.57304,-2.9991c1.34982,0.17338 2.86729,0.68494 4.04945,0.52016c0.844,0.00287 1.68943,-0.41626 2.28051,-0.49865c2.70106,-0.07522 2.70107,-0.07523 6.65236,4.49582c2.52195,2.96258 6.53699,13.61067 6.53699,13.61067z" fill="#e85f1a"/><path d="M121.61629,169.76006c-0.08382,-0.16908 5.22588,2.04336 8.34034,4.50155c0.58965,0.33961 3.11446,2.4582 3.53502,2.88163c1.85134,1.60989 3.70268,3.21979 5.72167,5.16786l-26.65176,19.32154c-1.34552,-1.43938 -2.69103,-2.87875 -4.03654,-4.31813c-0.92495,-1.01594 -1.76608,-1.86281 -2.86012,-2.79493c-0.08382,-0.16908 -0.25291,-0.08526 -0.33674,-0.25435l-0.08383,-0.16908v0c-0.42057,-0.42343 -1.01021,-0.76304 -1.43078,-1.18646c-2.52482,-2.11858 -5.72167,-5.16786 -9.00521,-7.54223c4.05375,-0.74583 8.36041,-1.4064 11.99503,-2.99766c1.1836,-0.58678 2.70537,-1.34121 3.63749,-2.43525c0.76304,-1.01021 0.93642,-2.36003 1.78328,-3.20115c2.87876,-2.69103 7.94415,-3.09583 9.39213,-6.97333c-0.08382,-0.16908 -0.08382,-0.16908 0,0z" fill="#fcc3ac"/><path d="M106.35845,189.12031l8.74227,10.41094l-34.26633,24.7817c-0.25291,-0.08526 -0.422,-0.00144 -0.59108,0.08239c-0.16908,0.08382 -0.16908,0.08383 -0.16908,0.08383c-0.33817,0.16765 -0.59109,0.08239 -0.76017,0.16622v0c-0.08382,-0.16908 -0.25291,-0.08526 -0.25291,-0.08526v0c-0.16908,0.08382 -0.25291,-0.08526 -0.25291,-0.08526v0l-0.08383,-0.16908v0l-0.08383,-0.16908c-0.08382,-0.16908 -0.08382,-0.16908 -0.16765,-0.33817v0c1.2746,-2.52768 2.71684,-4.71719 4.07525,-7.07579c-2.77916,-1.78185 -5.72884,-3.05788 -8.93285,-3.99717c-2.02329,-0.68207 -4.21424,-1.70232 -6.40661,-2.30057c-0.16622,-0.76017 -0.33244,-1.52034 -0.41483,-2.11142c2.61437,0.59968 5.05822,1.70519 7.50351,2.3887c3.20402,0.93929 6.40661,2.30058 9.2696,4.25151c0.67921,-1.17929 1.35842,-2.3586 2.12145,-3.36881c-5.38493,-4.91351 -11.44763,-9.06973 -17.9352,-12.38338c0.08669,-0.67491 0.25721,-1.18073 0.59681,-1.77038c6.74048,3.39891 12.80319,7.55513 18.44103,12.55391c0.25435,-0.33674 0.50869,-0.67348 0.76304,-1.01022c0.67921,-1.17929 1.61133,-2.27334 2.37437,-3.28355c-4.79242,-5.4179 -9.923,-10.66815 -15.98714,-14.40237c0.59252,-0.50439 1.09978,-0.75586 1.77612,-1.09117c5.89506,3.81805 10.6889,8.81395 15.39749,14.06277c1.86424,-2.18807 3.5594,-4.29233 5.50746,-6.31132c-3.95129,-4.57104 -8.58035,-8.38479 -13.88719,-11.44123c0.92926,-0.25005 1.85851,-0.50009 2.87159,-0.58105c4.63193,2.96975 8.67134,6.44389 12.37115,10.50768c0.42343,-0.42057 8.2114,-7.23054 8.38048,-7.31436z" fill="#f47621"/><path d="M131.85308,187.43451l-5.4136,3.52643l-3.38458,2.52051l-5.75321,4.11607l-2.03046,1.42791l-8.74227,-10.41094c0,0 -3.53359,-3.30362 -5.38493,-4.91351c0.76017,-0.16622 1.26743,-0.4177 1.85851,-0.50009c1.76752,1.44081 3.28212,2.79637 4.88054,4.321c1.94663,-1.59699 3.97709,-3.0249 6.00755,-4.45281c-1.17786,-1.1012 -2.43955,-2.3715 -3.61741,-3.4727v0c0.25435,-0.33674 0.50869,-0.67347 0.67921,-1.17929c1.34552,1.43938 2.77629,2.62584 4.12181,4.06522c0.16908,-0.08382 0.16908,-0.08382 0.33817,-0.16765c2.19955,-1.51173 4.31384,-2.77056 6.42812,-4.02938c-1.42934,-1.60846 -3.02778,-3.1331 -4.6262,-4.65774c0.33817,-0.16765 0.84543,-0.41913 1.35269,-0.67061c1.59842,1.52463 3.19685,3.04928 4.62619,4.65774z" fill="#ffffff"/><path d="M160.20143,165.58673v0c0.08382,0.16908 0.16766,0.33817 0.25148,0.50725v0c0.08382,0.16908 -28.43074,21.25671 -28.43074,21.25671l-8.7437,-9.98895c0.50725,-0.25148 8.96154,-4.44277 9.46879,-4.69425c-3.4469,-3.97852 -7.40249,-7.28358 -11.52716,-10.50481c0.00287,-0.844 0.08956,-1.5189 0.34534,-2.27764c4.88341,3.477 9.1743,7.45839 13.04176,11.86035c1.35269,-0.6706 2.78919,-1.17213 4.2257,-1.67365c-3.27065,-6.17234 -7.30289,-11.75646 -12.52017,-16.33181c0.42343,-0.42057 1.09977,-0.75586 1.5232,-1.17643c5.3011,4.74443 9.501,10.66672 12.85547,17.00815c1.60559,-0.58535 3.4641,-1.08544 5.15353,-1.5017c-3.09869,-7.10016 -7.29572,-13.86645 -12.93213,-19.28722c0.67634,-0.33531 1.26742,-0.4177 2.02759,-0.58392c5.55115,5.67369 9.49527,12.35471 12.84687,19.54013c1.68942,-0.41626 3.37884,-0.83253 5.15209,-1.0797c-2.76339,-6.42381 -6.28695,-12.68141 -10.82645,-18.01406c0.92782,0.17195 1.85564,0.34391 2.69964,0.34678c4.20276,5.0783 7.38958,11.08155 10.06914,17.33628c1.77325,-0.24717 3.5465,-0.49435 5.31974,-0.74153z" fill="#f47621"/></g><g fill-rule="nonzero"><path d="M151.52924,233.92156c-0.17625,2.19381 -7.38604,12.71936 -9.84424,15.83382c-1.35555,1.5146 -2.7111,3.0292 -4.23574,4.62763c-0.93212,1.09404 -1.52607,2.02043 -2.03476,2.6939c-2.71254,3.4512 -6.26907,6.89953 -9.65508,9.84204c-2.20098,1.93373 -3.80084,0.83109 -7.51642,1.40927c-3.71558,0.57818 -5.16212,4.03368 -8.87914,5.03386c-1.35125,0.24861 -2.87158,0.58105 -4.13471,-0.26725c-0.58965,-0.33961 -1.5146,-1.35555 -2.02042,-1.52607c-1.43365,-0.34247 -1.60703,1.00734 -3.0421,1.08687c-1.18216,0.16479 -2.61437,-0.59968 -3.4555,-1.44654c-1.17643,-1.52321 -1.76465,-2.28481 -2.43525,-3.63749c-1.09117,-1.77612 -3.0292,-2.7111 -3.18969,-5.15925c-0.24431,-2.61724 2.29628,-5.14062 3.82091,-6.73905c0.50869,-0.67348 1.18647,-1.43078 1.94807,-2.01899c0.85116,-2.10712 2.96832,-4.20993 4.06952,-5.38779c2.11858,-2.52481 5.07973,-4.62476 7.19832,-7.14957z" fill="#000600"/><path d="M151.1925,233.66721c-0.17625,2.19381 -7.38604,12.71936 -9.84423,15.83382c-2.71254,3.4512 -6.26907,6.89953 -9.65508,9.84204c-2.20098,1.93373 -4.99304,3.94986 -7.51642,1.40927c-3.29645,1.42361 -5.83847,4.36899 -9.55548,5.36916c-1.35125,0.24861 -2.87158,0.58105 -4.13471,-0.26725c-0.58965,-0.33961 -0.83826,-1.69085 -1.34409,-1.86137c-1.34839,-0.59538 -2.95971,1.67795 -4.39479,1.75747c-1.18216,0.16479 -2.61437,-0.59969 -3.4555,-1.44655c-1.0926,-1.35412 -0.41196,-2.95541 -1.08256,-4.30809c-1.09117,-1.77612 -3.62172,-2.20672 -3.78221,-4.65487c-0.16048,-2.44816 2.97262,-5.47592 4.49726,-7.07435c2.11858,-2.52481 5.07973,-4.62476 7.19832,-7.14957z" fill="#e85f1a"/><path d="M108.2054,241.708l42.90041,-7.36589c-0.0043,1.26599 -3.568,6.82431 -6.19815,10.86659c-3.96992,0.91492 -12.41417,2.15223 -12.41417,2.15223c-2.05053,7.33586 -5.11271,14.33069 -9.01744,20.90065c-0.59108,0.08239 -1.43508,0.07952 -2.27907,0.07666c3.98856,-6.40087 6.88166,-13.31188 9.1851,-20.56248c-2.28051,0.49865 -4.561,0.99731 -6.84151,1.49596c-1.87141,4.29806 -3.74282,8.59612 -5.95096,12.63984c-1.69946,3.37024 -3.568,6.82431 -5.68946,10.19311c-0.93069,0.67204 -1.77612,1.09117 -2.87446,1.42504c-0.25291,-0.08526 -0.422,-0.00143 -0.59108,0.08239c2.79923,-4.12611 5.1779,-8.67564 7.38604,-12.71936c1.9538,-3.70698 3.6547,-7.49922 5.1865,-11.20763c-1.52033,0.33243 -3.29358,0.57961 -4.983,0.99587c-5.09121,8.00074 -11.19262,15.23844 -18.13516,21.62928c-0.50583,-0.17052 -0.92638,-0.59395 -1.34695,-1.01738c-0.08383,-0.16908 -0.08383,-0.16908 -0.08383,-0.16908c6.51911,-5.97028 12.28092,-12.61833 17.11634,-19.86033c-2.36433,0.32957 -4.81392,0.91205 -7.17825,1.24162c-4.31957,4.45854 -9.64934,8.15405 -14.89387,11.59665c-0.25148,-0.50725 -0.33387,-1.09834 -0.41626,-1.68942c-0.08383,-0.16908 0.08526,-0.25292 0.00143,-0.422c4.06092,-2.85582 8.12184,-5.71163 11.7622,-8.99088c-2.11142,0.41483 -4.39193,0.91348 -6.58717,1.15922c0.16908,-0.08382 0.25435,-0.33674 0.42344,-0.42056c0.85116,-2.10712 4.06952,-5.3878 4.06952,-5.3878c0,0 5.16499,-4.87767 7.4498,-6.64232z" fill="#f47621"/></g><g><path d="M199.28944,212.13972c-0.42917,2.10855 -0.3525,4.38762 -0.69785,6.66525c-0.68781,3.71128 -1.54471,7.50639 -2.48543,11.13241c-0.77021,3.12019 -1.5404,6.24039 -2.47969,9.44442c-1.19937,5.22875 -2.40017,10.87949 -5.03318,15.76576c-2.71827,5.13918 -2.53055,-0.4306 -3.96132,-1.61706c-1.52463,1.59843 -1.53181,3.70841 -4.48435,3.27638c-1.77181,-0.17482 -3.0335,-1.44511 -3.78793,-2.96688c-0.75443,-1.52177 -0.49866,-2.2805 -1.42361,-3.29645c-1.09261,-1.35412 -1.85277,-1.1879 -1.67651,-3.38171c0.08812,-1.0969 -0.66487,-3.04068 -1.08544,-3.4641c-1.42934,-1.60847 -0.99874,-4.13901 -0.31667,-6.1623c0.93929,-3.20402 -1.84417,-3.71988 0.78167,-6.49617c0.25435,-0.33673 0.7616,-0.58822 1.01594,-0.92495c0.00717,-2.10999 -0.83109,-3.80084 0.1039,-5.73887c0.33961,-0.58965 0.59395,-0.92639 0.8483,-1.26312c1.52463,-1.59843 3.63892,-2.85725 5.24738,-4.28659z" fill="#000600" fill-rule="nonzero"/><path d="M200.13487,211.72059c-0.42917,2.10855 -0.35251,4.38762 -0.69785,6.66526c-0.68781,3.71128 -1.54471,7.50639 -2.48543,11.13241c-1.53897,5.8184 -2.65738,12.06022 -5.54474,17.28324c-2.71827,5.13918 -5.49313,2.09135 -8.44568,1.65931c-1.77181,-0.17482 -3.0335,-1.44511 -3.78793,-2.96689c-0.75444,-1.52177 -0.49866,-2.2805 -1.42361,-3.29645c-1.0926,-1.35412 -1.85277,-1.1879 -1.67652,-3.38171c-0.08096,-1.01308 0.42487,-0.84256 0.091,-1.9409c-0.16622,-0.76017 -0.75586,-1.09977 -1.17643,-1.5232c-1.42934,-1.60847 -1.59699,-1.94664 -0.91492,-3.96993c0.93929,-3.20402 -1.24592,-5.91226 1.37993,-8.68855c1.52464,-1.59843 3.63892,-2.85725 5.24738,-4.28659z" fill="#e85f1a" fill-rule="nonzero"/><path d="M189.14574,216.74728c0.16765,0.33817 0.16622,0.76017 0.33387,1.09834c0.25291,0.08526 0.42057,0.42343 0.25005,0.92926v0c2.74475,11.90977 2.11065,24.65208 -1.22163,36.62561c-1.35842,2.3586 -1.86425,2.18808 -2.3672,1.17356c3.07364,-10.3708 4.124,-21.42368 2.64094,-32.06317c-1.05036,11.05288 -4.04304,22.43676 -8.80324,32.37983c-0.67491,-0.08669 -1.26455,-0.42629 -1.8542,-0.7659c4.25008,-8.8476 6.98412,-18.62875 8.19925,-28.49947c-1.27603,2.94967 -2.72114,5.98318 -4.16625,9.01668c-2.29341,4.29663 -4.58968,9.43725 -8.23147,13.13849c-0.50439,-0.59251 -0.84113,-0.84686 -0.92209,-1.85994c3.81231,-4.20706 6.36436,-10.10642 8.6592,-14.82505c1.95523,-4.12898 3.82664,-8.42704 5.27606,-12.72653c0.0043,-1.26599 -0.07665,-2.27907 0.01147,-3.37598c0.08526,-0.25291 0.00144,-0.422 -0.08239,-0.59108l1.94376,-0.753c-0.00143,0.422 -0.00286,0.84399 0.33387,1.09834z" fill="#f47621" fill-rule="nonzero"/><path d="M196.98313,220.23432c-0.42917,2.10855 -0.35251,4.38763 -0.69785,6.66526c-0.68781,3.71128 -1.54471,7.50638 -2.48544,11.1324c-1.53897,5.8184 -2.65738,12.06022 -5.54474,17.28324c-2.71827,5.13918 -2.53054,-0.4306 -3.96132,-1.61707c-1.52463,1.59843 -1.53181,3.70841 -4.48435,3.27638c-1.77181,-0.17482 -3.0335,-1.44511 -3.78793,-2.96688c-0.75443,-1.52177 -0.49866,-2.2805 -1.42361,-3.29645c-1.09261,-1.35412 -1.85278,-1.1879 -1.67652,-3.38171c0.08812,-1.0969 -0.66487,-3.04067 -1.08543,-3.4641c-1.42934,-1.60847 -0.99874,-4.13902 -0.31666,-6.16231c0.93929,-3.20402 -1.84417,-3.71988 0.78167,-6.49617c1.52463,-1.59843 3.63892,-2.85725 5.24739,-4.28659z" fill="none" fill-rule="evenodd"/></g><g fill-rule="nonzero"><path d="M74.64054,233.91354c3.15174,-8.51373 8.83833,-17.86285 14.09718,-25.52542c7.80374,-11.45193 16.43857,-19.10304 27.85829,-26.66027c21.99402,-14.69534 45.72831,-19.93193 72.13212,-15.95981c13.16,1.90151 26.41099,1.86213 36.93224,10.33792c2.69677,1.19076 -3.99859,9.35485 -9.07259,12.29163c7.33443,2.47253 12.52092,-8.7351 12.42706,-5.9502c0.15332,4.55814 -3.16321,11.8897 -4.43493,13.57339c-10.6868,15.40896 -26.69907,33.24744 -44.94883,38.92466c-25.00888,7.76427 -51.19563,14.42733 -77.1223,19.06567c-3.63175,0.74726 -12.41416,2.15224 -12.41416,2.15224c-5.14779,-0.18629 -5.0525,-3.39318 -9.43581,-5.01168z" fill="#f47621"/><path d="M211.44209,212.43421c-2.03333,2.2719 -4.15048,4.37472 -6.26763,6.47753c-16.79749,0.53373 -36.91504,-15.40187 -43.27864,-30.36236c-3.18251,-7.26925 -2.22745,-15.11523 -0.76658,-22.7907c0.08526,-0.25291 0.17052,-0.50582 0.25578,-0.75874c5.99465,-0.65483 12.3246,-0.63333 18.65312,-0.18983c-2.57356,12.22931 -2.79139,26.66103 5.70083,36.14272c5.12915,5.67225 12.80031,8.39912 19.79801,10.61731c1.68655,0.42773 4.13328,0.68924 5.90509,0.86406z" fill="#ffffff"/><path d="M129.78754,174.34544c0.58965,0.33961 42.33217,35.67637 34.22248,62.65693c-0.4263,1.26455 -1.10551,2.44386 -1.69946,3.37024c-6.67386,1.83414 -13.34772,3.66827 -20.1054,5.33332c-3.68117,-9.54975 -10.82215,-19.28005 -14.85153,-25.70817c-6.4632,-10.4876 -14.95542,-19.9693 -24.3812,-27.93495c0,0 4.48865,-4.54236 12.43997,-9.74817c4.73726,-3.19112 9.47309,-5.96025 14.37514,-7.9692z" fill="#ffffff"/><g><path d="M191.69139,187.891c-2.01326,-3.63605 -1.31971,-9.03532 5.69375,-11.4591c4.47862,-1.58839 7.93555,-0.56384 9.36202,1.88861c1.93087,3.04497 0.30807,8.69429 -3.75142,11.12811c-4.22857,2.51764 -9.96314,1.14775 -11.30436,-1.55761z" fill="#ffffff"/><path d="M197.69321,185.12618c0.8483,-1.26313 -0.66344,-3.46266 -2.6896,-3.30075c0.17052,-0.50582 0.67778,-0.7573 1.10121,-1.17787c4.40196,-3.86746 8.52234,0.61975 6.39945,4.41056c-1.61276,2.69533 -4.81966,2.60004 -5.74318,1.16209c0.33817,-0.16765 0.76161,-0.58821 0.93213,-1.09404z" fill="#000600"/><path d="M183.61829,179.25474c1.6228,-5.64931 7.28932,-9.09047 12.8634,-10.16875c1.52033,-0.33244 2.10281,2.11715 0.41339,2.53341c-4.64483,0.82823 -9.38066,3.59735 -10.74768,8.48793c-0.25865,1.60273 -2.78776,0.75014 -2.52912,-0.8526z" fill="#e85f1a"/></g></g><g fill-rule="nonzero"><path d="M179.5222,217.30539c0.08383,0.16908 -9.49172,11.4462 -12.28235,13.04033c-5.24308,3.0206 -9.12488,2.83862 -14.35076,0.79525c-1.01164,-0.34104 -2.53198,-0.0086 -3.62745,-0.51873c-1.43221,-0.76447 -2.86442,-1.52893 -3.70411,-2.79779c-1.25882,-2.11428 -2.77342,-3.46984 -4.71002,-4.82682c-2.27334,-1.61133 -3.53073,-4.14761 -4.9572,-6.60007c-1.42648,-2.45245 -0.49148,-4.39049 0.02438,-7.17395c0.42773,-1.68655 0.52016,-4.04945 1.79045,-5.31114c0.67777,-0.7573 2.02903,-1.00591 2.95971,-1.67795c0.93068,-0.67204 1.35699,-1.9366 2.62441,-2.3543c2.02759,-0.58391 5.05966,1.2832 6.83004,1.88001c4.04658,1.36416 8.09316,2.72831 11.97066,4.17629c3.8775,1.44798 8.85334,2.56209 12.90565,2.23825z" fill="#f47621"/><path d="M180.95585,217.64786v0v0c-1.18934,2.27477 -3.64466,4.54524 -5.42364,6.4804c-2.62585,2.77629 -5.08403,5.89075 -8.38192,7.73636c-4.98874,2.68386 -9.03675,1.74171 -14.18167,0.71142c-5.81983,-1.11698 -7.16248,-3.40035 -11.53719,-7.55083c-4.29089,-3.9814 -8.24505,-7.70845 -7.29573,-13.86645c0.86263,-5.48309 2.30632,-8.09459 6.95832,-11.0328c4.22857,-2.51764 7.25921,-0.22854 11.64253,1.38996c7.33443,2.47253 14.66599,5.78905 22.60011,5.6472c0.422,0.00143 0.84256,0.42487 1.01022,0.76304c1.42504,2.87446 2.85008,5.74891 4.27512,8.62336c0.33673,0.25435 0.50439,0.59252 0.33387,1.09834zM158.75049,220.02003c5.82557,-0.57101 11.65399,-1.98601 17.31621,-4.16118c0.25434,-0.33673 0.42344,-0.42057 0.67778,-0.7573c-13.00811,3.07862 -27.52223,2.2697 -39.74437,-2.41384c-0.00717,2.10998 0.91491,3.96992 1.92226,5.57695c6.49187,2.04766 13.91873,2.15729 19.82812,1.75537zM142.94391,202.15785c3.79081,2.12289 8.00504,3.82521 11.71488,4.93502c3.70985,1.10981 7.25348,1.45945 10.71471,1.21801v0c-5.56548,-1.45371 -11.46627,-3.58377 -16.77598,-5.79622c-2.02329,-0.68207 -3.96419,-0.77307 -5.65361,-0.35681zM137.17923,209.6499c0.08382,0.16908 -0.08526,0.25291 -0.00143,0.42199c11.96923,4.59829 26.22899,5.74393 38.98419,2.58006c-0.3353,-0.67634 -0.6706,-1.35269 -1.09117,-1.77612c-6.58716,1.15922 -13.59203,1.05103 -20.25298,-0.91281c-4.46858,-1.36559 -9.77828,-3.57804 -14.41165,-6.12579c-1.60847,1.42934 -2.79636,3.28212 -3.22696,5.81267zM151.54357,229.70159c0.50583,0.17052 1.0969,0.08812 1.60273,0.25865c0.67491,0.0867 1.18072,0.25721 1.68655,0.42773c4.31097,-1.92656 8.28519,-4.10747 11.75359,-6.45889c1.77612,-1.09117 3.21549,-2.43669 4.82396,-3.86603c-5.15353,1.5017 -10.55853,2.49615 -15.79157,2.56277c-4.30523,0.23858 -9.28393,-0.03154 -14.00686,-1.06039c1.26169,1.27029 2.77629,2.62585 4.1218,4.06522c2.52338,2.54058 2.60577,3.13166 5.8098,4.07095zM177.74752,217.97456l-0.16908,0.08383c-2.62585,2.77629 -5.5046,5.46732 -8.46575,7.56727c-3.13023,2.18378 -6.68103,3.94411 -10.31565,5.53538c1.5189,0.08956 3.2069,0.0953 4.98157,-0.57388c3.63319,-1.16926 6.00611,-4.03081 8.63196,-6.8071c1.52463,-1.59843 3.8947,-3.61599 5.33695,-5.8055z" fill="#e85f1a"/></g><g fill-rule="nonzero"><path d="M90.2637,256.07951l-7.26781,2.76052l0.08383,0.16909c-4.57534,5.21728 -9.90512,8.91278 -15.2306,11.34231c-2.3672,1.17356 -3.13167,2.60577 -5.24165,2.5986c-0.16908,0.08382 -0.42343,0.42057 -0.7616,0.58821c-1.69229,1.26025 -2.53628,1.25739 -4.56244,1.41931c-2.27907,0.07666 -5.24021,2.17661 -7.51498,0.98727c-3.03351,-1.44511 -2.02472,-0.26008 -5.7317,-2.21388c-2.27477,-1.18934 -5.55402,-4.82969 -5.72024,-5.58986c-0.91922,-2.70394 -1.00448,-2.45102 -3.78364,-4.23287c-1.51604,-0.93356 -1.25883,-2.11429 -2.60434,-3.55367c-1.34552,-1.43937 -0.3224,-4.47432 -1.41214,-6.67242c-1.08973,-2.19811 -2.2633,-4.5653 -2.08848,-6.33712c0.34534,-2.27763 2.71541,-4.2952 2.72401,-6.82718c0.09959,-4.47288 2.04766,-6.49188 6.2705,-7.32153c1.68942,-0.41626 3.71845,-1.42217 4.81966,-2.60004c1.35555,-1.5146 2.95971,-1.67795 4.98443,-1.41787c0.67491,0.08669 1.26599,0.0043 1.77182,0.17482c6.59434,-3.26921 22.96695,-2.96038 24.99741,-4.38829c0,0 5.31975,-0.74153 6.76486,-3.77504c18.56423,25.97398 9.58693,35.05872 9.50311,34.88963z" fill="#e85f1a"/><path d="M91.08982,236.50143c6.45459,13.01959 -0.48795,19.41043 -0.48795,19.41043c-0.08526,0.25291 -0.25435,0.33673 -0.25435,0.33673l-7.26781,2.76053l0.08383,0.16908c-2.37293,2.86155 -5.08117,5.04675 -7.87323,7.06288c4.27301,-15.59955 0.61192,-31.05725 -18.43597,-38.8868c7.51498,-0.98727 15.78727,-1.29677 17.14139,-2.38937c0,0 3.88467,-0.66201 4.98587,-1.83987c0,0 0.68064,-1.60129 0.84973,-1.68512c0,0 4.80389,2.04192 11.25848,15.06151z" fill="#120201"/><path d="M87.72885,256.9149l-4.47861,1.58839l0.08383,0.16908c-2.54201,2.94538 -5.41934,5.21441 -8.2114,7.23053c0.51442,-2.36146 0.69067,-4.55527 0.7831,-6.91817c-5.42077,5.63641 -11.43119,10.93321 -17.524,15.63893c-0.25291,-0.08526 -0.422,-0.00143 -0.844,-0.00287c-1.18216,0.16479 -2.70394,0.91922 -4.22427,1.25166c3.80801,-2.94107 7.44836,-6.22033 11.00346,-9.24666c3.97852,-3.4469 7.87323,-7.06288 11.51502,-10.76412c-0.16335,-1.60416 -0.32671,-3.20833 -0.74296,-4.89775c-4.48578,3.69838 -8.97013,6.97476 -13.70739,10.16588c-6.00612,4.03081 -12.01224,8.06163 -18.60657,11.33083c-0.42056,-0.42343 -1.09404,-0.93212 -1.5146,-1.35555c7.10159,-3.52069 13.95314,-7.97063 20.38269,-12.42201c4.39909,-3.02347 8.71436,-6.21602 12.9458,-9.57766c-0.41769,-1.26743 -0.83539,-2.53485 -1.42217,-3.71844c-11.08299,7.81158 -22.83945,15.11447 -35.0136,21.14993c-0.33531,-0.67634 -0.67204,-0.93069 -1.34552,-1.43938c12.34324,-6.11929 24.26878,-13.50601 35.52086,-21.40141c-0.41913,-0.84542 -1.00735,-1.60703 -1.42648,-2.45246c-12.26372,7.55437 -25.53334,13.07971 -38.97062,18.26688c-0.25148,-0.50725 -0.24862,-1.35125 -0.33101,-1.94233c13.2682,-5.10334 26.28491,-10.71395 38.21045,-18.10066c-0.50439,-0.59252 -0.75586,-1.09977 -1.26026,-1.69228c-6.42525,3.18539 -13.27106,5.94734 -20.28309,7.94913c-5.99895,1.92083 -12.07886,2.82857 -18.15877,3.73632c-0.33817,0.16765 -0.59109,0.0824 -0.92926,0.25005c-0.25148,-0.50725 -0.33387,-1.09834 -0.41626,-1.68942c2.11142,-0.41483 4.22284,-0.82966 6.16517,-1.16066c4.89774,-0.74297 9.96601,-1.99175 14.86662,-3.57871c5.99895,-1.92083 11.83026,-4.17983 17.41008,-6.94608c-0.42057,-0.42343 -0.58822,-0.7616 -0.92496,-1.01595c-5.57408,1.07827 -11.23057,1.56545 -17.0547,1.71447c-5.40214,0.15045 -11.73495,0.97294 -17.3857,-0.22787c0.25578,-0.75874 0.59538,-1.34838 1.01881,-1.76895c5.48309,0.86263 11.64683,0.12397 16.45788,0.05591c5.14923,-0.2357 10.21462,-0.6405 15.28145,-1.46729c-2.35573,-2.20241 -4.88054,-4.321 -7.82735,-6.44102c7.17825,-1.24162 17.14139,-2.38937 17.14139,-2.38937c0,0 2.53341,-0.4134 4.56244,-1.41931c6.98049,7.28214 13.02456,16.92433 12.99732,24.94227c-0.09673,3.62888 -1.62566,6.4933 -3.74282,8.59612z" fill="#ffffff"/><path d="M62.60747,272.95002c-0.16908,0.08382 -0.42343,0.42057 -0.7616,0.58821c-1.69229,1.26025 -2.53628,1.25739 -4.56244,1.41931c-2.27907,0.07666 -5.24021,2.17661 -7.51498,0.98727c-3.03351,-1.44511 -2.02472,-0.26008 -5.7317,-2.21388c-2.27477,-1.18934 -5.55402,-4.82969 -5.72024,-5.58986c-0.91922,-2.70394 -1.00448,-2.45102 -3.78364,-4.23287c-1.51604,-0.93356 -1.25883,-2.11429 -2.60434,-3.55367c-1.34552,-1.43937 -0.3224,-4.47432 -1.41214,-6.67242c-1.08973,-2.19811 -2.2633,-4.56531 -1.91939,-6.42095c0.34534,-2.27763 2.7154,-4.29519 2.724,-6.82717c0.0996,-4.47288 2.04766,-6.49188 6.2705,-7.32153c1.68942,-0.41626 3.71845,-1.42217 4.81966,-2.60003c1.35555,-1.5146 2.95971,-1.67796 4.98443,-1.41788c0.67491,0.0867 1.26599,0.0043 1.77182,0.17482v0c-1.35269,0.67061 -2.28337,1.34265 -2.62441,2.35429c1.84847,2.45389 -6.08994,3.86173 -7.27928,6.1365c-0.42486,0.84256 0.75444,1.52177 0.41483,2.11142c0,0 -1.27029,1.26169 -1.69515,2.10425c-0.76447,1.43221 -1.61133,2.27333 -1.9538,3.70697c-0.25865,1.60273 -0.18055,3.4598 -0.35538,5.23161c-0.17338,1.34982 3.10442,5.41217 3.18251,7.26924c0.4048,5.0654 1.59126,3.63462 4.37042,5.41647c2.86299,1.95094 3.44403,4.82252 7.32583,5.00451c1.26599,0.0043 2.19525,-0.24574 3.62889,0.09673c1.60273,0.25865 1.51317,1.77754 2.52338,2.54058c1.34695,1.01738 2.52912,0.8526 4.21567,1.28033c0.67491,0.0867 1.18073,0.25721 1.68655,0.42773z" fill="#120201"/></g></g><text transform="translate(47.9167,90.37008) scale(1.28084,1.28084)" font-size="40" xml:space="preserve" fill="#000000" fill-rule="nonzero" stroke="none" stroke-width="1" stroke-linecap="butt" stroke-linejoin="miter" stroke-miterlimit="10" stroke-dasharray="" stroke-dashoffset="0" font-family="&quot;ヒラギノ角ゴ Pro W3&quot;, &quot;Hiragino Kaku Gothic Pro&quot;, Osaka, &quot;メイリオ&quot;, Meiryo, &quot;ＭＳ Ｐゴシック&quot;, &quot;MS PGothic&quot;" font-weight="normal" text-anchor="start" style="mix-blend-mode: normal"><tspan x="0" dy="0">CasualQuarium</tspan></text><text transform="translate(204.45667,113.01949) scale(0.5,0.5)" font-size="40" xml:space="preserve" fill="#000000" fill-rule="nonzero" stroke="none" stroke-width="1" stroke-linecap="butt" stroke-linejoin="miter" stroke-miterlimit="10" stroke-dasharray="" stroke-dashoffset="0" font-family="&quot;ヒラギノ角ゴ Pro W3&quot;, &quot;Hiragino Kaku Gothic Pro&quot;, Osaka, &quot;メイリオ&quot;, Meiryo, &quot;ＭＳ Ｐゴシック&quot;, &quot;MS PGothic&quot;" font-weight="normal" text-anchor="start" style="mix-blend-mode: normal"><tspan x="0" dy="0">by: realawesomecatgames</tspan></text><text transform="translate(322.28521,353.54551) scale(0.5,0.5)" font-size="40" xml:space="preserve" fill="#000000" fill-rule="nonzero" stroke="none" stroke-width="1" stroke-linecap="butt" stroke-linejoin="miter" stroke-miterlimit="10" stroke-dasharray="" stroke-dashoffset="0" font-family="Pixel" font-weight="normal" text-anchor="start" style="mix-blend-mode: normal"><tspan x="0" dy="0">Mobile friendly!</tspan></text><text transform="translate(5.8036,352.57172) scale(0.5,0.5)" font-size="40" xml:space="preserve" fill="#000000" fill-rule="nonzero" stroke="none" stroke-width="1" stroke-linecap="butt" stroke-linejoin="miter" stroke-miterlimit="10" stroke-dasharray="" stroke-dashoffset="0" font-family="Handwriting" font-weight="normal" text-anchor="start" style="mix-blend-mode: normal"><tspan x="0" dy="0">Ver 1.0</tspan></text><text transform="translate(266.77921,171.44686) scale(0.5,0.5)" font-size="40" xml:space="preserve" fill="#000000" fill-rule="nonzero" stroke="none" stroke-width="1" stroke-linecap="butt" stroke-linejoin="miter" stroke-miterlimit="10" stroke-dasharray="" stroke-dashoffset="0" font-family="Serif" font-weight="normal" text-anchor="start" style="mix-blend-mode: normal"><tspan x="0" dy="0">Fun with Fish!</tspan><tspan x="0" dy="46.15px">Unique Soundtrack!</tspan><tspan x="0" dy="46.15px">Fun Gameplay!</tspan></text></g></g></svg>