<svg version="1.1" xmlns="http://www.w3.org/2000/svg" xmlns:xlink="http://www.w3.org/1999/xlink" width="108.77478" height="75.6" viewBox="0,0,108.77478,75.6"><g transform="translate(-185.61261,-142.2)"><g data-paper-data="{&quot;isPaintingLayer&quot;:true}" fill-rule="nonzero" stroke="none" stroke-width="1" stroke-linecap="butt" stroke-linejoin="miter" stroke-miterlimit="10" stroke-dasharray="" stroke-dashoffset="0" style="mix-blend-mode: normal"><g><path d="M294.31261,180c0.8,0.8 -4.8,10 -17.7,12.7c-1,0.3 -2.1,0.5 -3.2,0.8c-0.1,3.1 -1.6,6.5 -2.9,8.8c-3.4,6 -8.9,8.9 -13.8,13.2c1.5,-1.8 3.4,-3.5 4.8,-5.5c3.3,-4.6 3.9,-9.9 5.7,-14.8c-4.1,1 -8.3,1.8 -12,1.4c-1.7,-0.2 -3.8,-0.3 -3.8,-0.3c0,0 -1.8,6.7 -2.4,8.3c-1.9,5 -5.2,9.3 -9.2,12.8c-0.6,-1.4 0.6,-3.1 1,-4.5c1.6,-5 3.5,-11.8 2.8,-17.1c0,0 -5,-2.8 -7.8,-5.5c-2.8,-2.7 -4.2,-5.3 -5.5,-4.9c-3,0.8 -5.9,2 -8.8,3.1c-8.4,3.3 -15.9,8.5 -25.1,8.8c2,-3.4 7.1,-5.5 10.4,-7.4c4.1,-2.4 9.2,-3.7 13.1,-6.5c7.2,-5.2 -12.1,-9 -14.4,-9.3c-4.8,-0.6 -9.8,-3 -14.1,-5.5c-1.4,-0.8 -5.8,-1.7 -5.8,-1.7c0,0 11.3,0.2 12.7,0.7c5.3,1.2 10.8,3 16.1,4.1c7.6,1.5 16.6,-0.5 16.6,-0.5c2.2,-3.4 10,-6.6 10,-6.6c-2.3,-5.9 -6.1,-9.1 -12.7,-13.3c-2.7,-1.8 -14.8,-7.7 -14.8,-7.7c2.6,-1.6 5.8,-1.3 8.5,-1.2c2.6,0.1 6.3,1.6 8.7,2.6c4.3,1.9 9.1,5.1 12.7,8c1.7,1.4 3.1,2.9 4.5,4.6c0.8,1.1 3.3,4.3 3.3,4.3l9.9,1.2c0,0 -9.8,-11.3 -18.8,-17.8c3,-1.7 10.1,2.2 12.8,3.8c3.7,2.2 6.5,5.4 9.3,8.6c1.3,1.4 4.3,4.8 4.3,4.8c0,0 5.6,1.5 7.8,2.5c3.4,1.5 6.5,4 9.8,5.8c2.3,1.2 5,2.6 6.3,5c0.8,1.5 1.3,1.7 0.4,2.9c-1,1.1 -3.7,1.6 -6.7,5.8c1.4,-0.8 7.2,-5.3 8,-4.5z" fill="#f7e37c"/><path d="M246.11261,165.3c0,0 0,0.1 -0.1,0.2c-1.2,1.6 -12.5,3.2 -12.3,3.1c3.2,-2.3 7.5,-4.1 7.5,-4.1c-0.2,-0.4 -0.3,-0.8 -0.5,-1.2c-2.6,1.6 -5.2,2.9 -8.1,3.7c0,-0.2 -0.1,-0.5 -0.2,-0.7c1.5,-0.3 3,-0.8 4.4,-1.5c1.2,-0.7 2.4,-1.4 3.6,-2.2c-0.3,-0.5 -0.5,-0.9 -0.8,-1.4c-2.6,1.3 -5.1,2.7 -7.8,3.6c-0.1,-0.3 -0.2,-0.5 -0.3,-0.8c2.6,-0.9 5.1,-2.2 7.6,-3.5c-0.4,-0.6 -0.8,-1.2 -1.3,-1.8c-0.7,0.3 -1.3,0.5 -1.7,0.7c-1.9,0.8 -3.8,1.5 -5.7,2.1c-0.2,-0.3 -0.3,-0.5 -0.4,-0.8c1.7,-0.5 3.5,-1.1 5.2,-1.9c0.4,-0.2 1.1,-0.5 1.8,-0.8c-0.3,-0.3 -0.6,-0.6 -0.9,-0.9c-2.5,0.4 -5,0.6 -7.5,1c-0.2,-0.3 -0.3,-0.6 -0.5,-0.8c2.4,-0.4 4.8,-0.6 7.2,-1c-0.5,-0.5 -1,-0.9 -1.6,-1.4c-2.4,0.4 -4.8,0.6 -7.2,0.5c-0.2,-0.3 -0.5,-0.6 -0.7,-0.9c2.3,0.1 4.6,0 6.9,-0.3c-0.8,-0.7 -1.8,-1.3 -2.8,-2c-1.9,0 -3.9,0 -5.9,-0.2c-0.3,-0.3 -0.5,-0.6 -0.7,-0.9c0,-0.1 0.1,-0.1 0.2,-0.1c1.7,0.2 3.3,0.2 5,0.2c-0.1,0 -0.1,-0.1 -0.2,-0.1c-0.5,-0.2 -1.2,-0.6 -2,-1.1c-1.4,-0.1 -2.8,-0.2 -4.2,-0.3c-0.2,-0.3 -0.5,-0.6 -0.8,-0.9c1.1,0 2.1,0.1 3.1,0.2c-1.9,-1 -8.9,-5.4 -9.1,-5.5c-0.1,-0.1 4.5,-1.3 4.5,-1.3c2.8,0 5.3,0.7 7.8,1.8c1.4,0.6 13.3,8.8 16.9,17.2c0.8,1.7 1.6,3.5 1.6,4.1z" fill="#f7e37c"/><path d="M246.51261,184.4c3.6,8.4 0.9,18.8 0.4,20.1c-1,2.5 -7.7,13.3 -7.7,13.3c0,-0.2 1.7,-8.3 2.3,-10.3c-0.6,0.8 -1.3,1.6 -1.9,2.4c0,-0.4 -0.1,-0.8 -0.1,-1.2c0.9,-1.1 1.8,-2.2 2.7,-3.3c0.3,-0.9 0.4,-1.7 0.5,-2.2c0,-0.1 0,-0.1 0,-0.2c-1.1,1.2 -2.2,2.4 -3.3,3.7c-0.1,0.1 -0.1,0.1 -0.2,0.1c-0.1,-0.4 -0.1,-0.7 -0.2,-1.1c1.2,-1.5 2.6,-3 4,-4.4c0.2,-1.2 0.4,-2.3 0.5,-3.4c-1.8,1.4 -3.5,3 -5,4.8c-0.1,-0.4 -0.1,-0.8 -0.2,-1.2c1.6,-1.8 3.4,-3.4 5.3,-4.8c0.1,-0.7 0.1,-1.4 0.1,-2.1c-2,1.4 -3.8,3.1 -5.7,4.6c-0.1,-0.3 -0.1,-0.6 -0.2,-0.9c2,-1.6 3.9,-3.2 5.9,-4.7c0,-0.4 0,-0.9 0,-1.3c-0.7,0.3 -1.4,0.6 -1.8,0.8c-1.8,0.7 -3.4,1.5 -5,2.5c-0.1,-0.3 -0.2,-0.5 -0.3,-0.8c1.7,-1 3.5,-1.9 5.5,-2.6c0.4,-0.2 1,-0.4 1.7,-0.7c-0.1,-0.7 -0.2,-1.5 -0.4,-2.2c-2.7,0.9 -5.3,1.8 -7.8,3.1c-0.1,-0.3 -0.2,-0.5 -0.4,-0.8c2.6,-1.3 5.3,-2.2 8,-3.1c-0.1,-0.5 -0.3,-1 -0.5,-1.6c-1.4,0.3 -2.7,0.6 -4.1,1.1c-1.5,0.5 -2.9,1.3 -4.2,2.1c-0.1,-0.2 -0.2,-0.4 -0.3,-0.6c2.6,-1.6 5.3,-2.5 8.3,-3.3c-0.2,-0.4 -0.3,-0.8 -0.5,-1.2c0,0 -4.3,1.9 -8.1,2.6c-0.2,0.1 8.8,-7 10.7,-6.8c0.1,0 0.2,0 0.3,0.1c0.3,-0.1 1.1,1.7 1.7,3.5z" fill="#f7e37c"/><path d="M271.71261,187.5c0.6,2 1.3,4 1.9,6c0,0.1 -0.1,0.1 -0.2,0.1c-0.1,3.1 -1.6,6.5 -2.9,8.8c-3.4,6 -8.9,8.9 -13.8,13.2c1.5,-1.8 3.4,-3.5 4.8,-5.5c0.3,-0.4 0.5,-0.9 0.8,-1.3c3.2,-3.7 5.5,-7.4 6.4,-11.8c0.2,-0.9 0.3,-1 0.2,-1.7c-0.1,-0.8 -0.5,-1.6 -0.7,-2.3c-0.8,-2.6 -1.6,-5.2 -2.3,-7.8c-1.5,-5.7 -2,-11.4 -2.2,-17.3c0,-1.3 -0.1,-2.5 -0.1,-3.7c0,-0.3 0.2,0.2 -0.5,-1.2c-3.3,-6.5 -14.8,-17.7 -20.7,-17.8c3,-1.7 10.1,2.2 12.8,3.8c3.7,2.2 6.5,5.4 9.3,8.6c0.8,1 2.4,2.8 3.4,3.9c0,0.1 0.1,0.2 0.1,0.3c0.8,1.9 0.4,4.6 0.5,6.6c0.3,6.6 1.2,12.7 3.2,19.1z" fill="#3e3d44"/><path d="M223.31261,178c0.1,0 0.2,0 0.3,0c1.6,0 1.6,2.5 0,2.5c-0.1,0 -0.2,0 -0.3,0c-1.6,0 -1.6,-2.5 0,-2.5z" fill="#ffffff"/><path d="M229.41261,178.5c1.6,0 1.6,2.5 0,2.5c-1.6,0 -1.6,-2.4 0,-2.5z" fill="#ffffff"/><path d="M248.01261,192.7c0.6,2.4 1,3.6 0.5,6.1c-1,4.7 -2.2,9.4 -4,13.8c-1.4,1.7 -2.9,3.3 -4.6,4.8c-0.6,-1.4 0.6,-3.1 1,-4.5c1.4,-4.6 3.2,-10.8 2.9,-15.9c0,-0.1 0.1,-0.2 0.1,-0.2c0,-0.1 -0.1,-0.2 -0.1,-0.4c-0.1,0 -0.1,-0.1 -0.1,-0.2c0,-0.1 0,-0.3 0,-0.4h-0.1c-0.4,-1.6 -0.8,-3.1 -1.1,-4.7c-1.6,-8.3 -2.1,-17.8 0.9,-25.9c-4.9,-9.9 -17.7,-20.9 -29.6,-21.9c2.5,-1.4 5.6,-1.1 8.2,-1c0.6,0 1.4,0.1 2.1,0.3c3.9,1 7.7,2.8 11.1,5.2c3,2.1 5.7,4.5 8,7.5c1.3,1.7 2.4,3.5 3.4,5.4c0.7,1.5 2,3.4 1.7,5.1c-0.2,1.4 -0.9,2.8 -1.2,4.2c-0.9,3.7 -1.1,7.5 -1,11.3c0.2,3.8 0.8,7.6 1.9,11.4z" fill="#3e3d44"/><path d="M200.41261,196.3c0.1,-0.4 0.2,-0.7 0.3,-1v0c0.4,-1.1 1,-2 1.8,-2.9v0c0.4,-0.4 0.8,-0.8 1.2,-1.2c0.3,-0.1 0.6,-0.2 1,-0.2c0.8,-0.4 1.5,-0.8 2.2,-1.2c1,-0.5 2,-1 3,-1.5c-1,0.1 -2,0.2 -3,0.2c0.3,-0.3 0.6,-0.6 0.9,-0.9c1.6,-0.1 3.3,-0.2 4.9,-0.5c2,-0.8 4.1,-1.7 5.9,-2.8c-3.1,0.5 -6.1,0.8 -9.2,1c0.1,-0.3 0.2,-0.6 0.3,-0.9c3.6,-0.2 7.1,-0.6 10.6,-1.2c0.7,-0.6 1.1,-1.2 1.2,-1.8c-4,0.8 -8,1 -12,0.3c-0.1,-0.4 -0.2,-0.7 -0.4,-1c4.1,0.8 8.2,0.6 12.3,-0.2c-0.2,-0.6 -0.8,-1.2 -1.6,-1.8c-3.8,0.4 -7.5,0.8 -11.3,1.1c-0.2,-0.2 -0.5,-0.5 -0.7,-0.8c3.5,-0.3 7.1,-0.6 10.6,-1c-1,-0.5 -2.2,-1 -3.4,-1.4c-0.5,0.1 -1.1,0.2 -1.7,0.3c-2.4,0.3 -4.8,0.4 -7.2,0.4c-0.4,-0.3 -0.8,-0.6 -1.2,-0.9c2.8,0.1 5.6,0 8.3,-0.4c-1.6,-0.5 -3.2,-0.9 -4.6,-1.2c-0.6,0.1 -1.3,0.2 -1.9,0.3c-1.1,0.1 -2.2,0.2 -3.3,0.2c-0.4,-0.3 -0.9,-0.5 -1.3,-0.8c1.1,0 3.5,-0.3 3.4,-0.3c-1.6,-0.2 -3.2,-0.6 -4.8,-1.1c-0.5,0 -0.9,-0.1 -1.4,-0.1c-0.6,-0.3 -1.3,-0.7 -2,-1c0.2,0 -2.2,-1.3 -3.6,-2l8,1.4l7.5,1.3c0,0 21.7,2.1 21.7,7.1c0,5.1 -26.5,16.6 -30.5,16.5z" fill="#f7e37c"/><path d="M221.51261,188.7c-1.3,0.5 -2.6,1 -3.9,1.6c-0.9,0.3 -1.7,0.5 -2.2,0.8c-2.7,1.3 -5.4,2.6 -8.1,3.8c-3.5,1.4 -7.1,2.4 -11,2.5c0.5,-0.7 1,-1.4 1.7,-2c6.3,-2.3 11.5,-6 18.1,-9.1c5,-2.3 10.3,-4 15.1,-0.6c-0.3,-0.2 -0.7,-0.3 -1,-0.2c-3,0.8 -5.9,2 -8.7,3.2z" fill="#3e3d44"/><path d="M214.71261,174.3c-10.4,-1.3 -18.7,-6.4 -29.1,-7.4c0,0 11.3,0.2 12.7,0.5c5.3,1.2 10.8,3 16.1,4.1c6.4,1.2 14.2,0 16.5,-0.4c-0.8,2.2 -2.5,3.2 -5.1,3.4c-3.6,0.3 -7.6,0.2 -11.1,-0.2z" fill="#3e3d44"/></g><g fill="#ffffff"><path d="M250.3,168.6c1.6,0 1.6,2.5 0,2.5c-1.6,0 -1.6,-2.5 0,-2.5z"/><path d="M254.2,165.6c1.6,0 1.6,2.5 0,2.5c-1.6,0 -1.6,-2.5 0,-2.5z"/><path d="M255.9,170.5c1.6,0 1.6,2.5 0,2.5c-1.6,0 -1.6,-2.4 0,-2.5z"/><path d="M253.9,180c1.6,0 1.6,2.5 0,2.5c-1.6,0 -1.6,-2.4 0,-2.5z"/><path d="M250.9,174.8c1.6,0 1.6,2.5 0,2.5c-1.6,0 -1.6,-2.4 0,-2.5z"/><path d="M250.3,185.3c1.6,0 1.6,2.5 0,2.5c-1.6,0 -1.6,-2.5 0,-2.5z"/><path d="M256.2,189.2c1.6,0 1.6,2.5 0,2.5c-1.6,0 -1.6,-2.4 0,-2.5z"/><path d="M260.6,181.3c1.6,0 1.6,2.5 0,2.5c-1.6,0 -1.6,-2.4 0,-2.5z"/><path d="M260.6,175.6c1.6,0 1.6,2.5 0,2.5c-1.6,0 -1.6,-2.5 0,-2.5z"/><path d="M262.2,189.2c1.6,0 1.6,2.5 0,2.5c-1.6,0 -1.6,-2.4 0,-2.5z"/><path d="M277,185.3c1.6,0 1.6,2.5 0,2.5c-1.6,0 -1.6,-2.5 0,-2.5z"/><path d="M234.5,177.1c1.6,0 1.6,2.5 0,2.5c-1.5,0 -1.5,-2.5 0,-2.5z"/><path d="M239.1,188.4c1.6,0 1.6,2.5 0,2.5c-1.6,0 -1.6,-2.5 0,-2.5z"/><path d="M241.2,195.2c1.6,0 1.6,2.5 0,2.5c-1.6,0 -1.6,-2.4 0,-2.5z"/><path d="M241.2,199.3c1.6,0 1.6,2.5 0,2.5c-1.6,0 -1.6,-2.5 0,-2.5z"/><path d="M234.5,171.8c1.6,0 1.6,2.5 0,2.5c-1.5,0 -1.5,-2.5 0,-2.5z"/><path d="M236.8,183.6c1.6,0 1.6,2.5 0,2.5c-1.5,0 -1.5,-2.4 0,-2.5z"/><path d="M239.8,168.6c1.6,0 1.6,2.5 0,2.5c-1.6,0 -1.6,-2.5 0,-2.5z"/><path d="M237.1,160.9c1.6,0 1.6,2.5 0,2.5c-1.6,0 -1.6,-2.4 0,-2.5z"/><path d="M233.6,155.1c1.6,0 1.6,2.5 0,2.5c-1.6,0 -1.6,-2.5 0,-2.5z"/><path d="M239.1,176.8c1.6,0 1.6,2.5 0,2.5c-1.6,0 -1.6,-2.5 0,-2.5z"/></g><g><path d="M272.4,170.3c2.1,-2.2 5.4,-2 7.9,-0.8c0.6,0.3 0.1,1.2 -0.5,0.9c-2.1,-1 -5,-1.2 -6.7,0.6c-0.4,0.4 -1.1,-0.3 -0.7,-0.7z" fill="#030000"/><g><path d="M273.5,178.4c-1.1,-4.5 3.3,-6.7 6.2,-5.7c3.8,1.2 3.2,5.9 0.4,7.7c-3.4,2.2 -6.3,-0.9 -6.6,-2z" fill="#ffffff"/><path d="M281,179c-1.3,1 -2.5,0.5 -3.4,-0.2c0.8,-0.6 0.9,-1.9 -0.2,-2.3c-0.3,-0.1 -0.7,-0.1 -1,0c-0.2,-2.4 1.5,-4.2 4.1,-3.4c2.3,0.7 2.2,4.6 0.5,5.9z" fill="#3f669e"/><path d="M278.7,176.8c-0.5,-2.3 1.5,-3.5 2.7,-3c1.7,0.6 1.4,3.1 0.2,4c-1.5,1.2 -2.8,-0.4 -2.9,-1z" fill="#030000"/><path d="M278.7,181.4c-2.2,0.6 -5,-0.8 -5.7,-3c-0.5,-2.6 0.5,-5.1 3.1,-6.1c2.3,-0.9 5.4,-0.3 6.4,2.2c1.2,2.8 -0.9,6.3 -3.8,6.9zM281.4,174.6c-1.1,-1.8 -3.6,-1.9 -5.3,-1.1c-1.9,0.9 -2.6,2.8 -2.2,4.8c0.6,1.7 2.9,2.7 4.5,2.3c2.4,-0.6 4.3,-3.8 3,-6z" fill="#030000"/></g></g></g></g></svg>