<svg version="1.1" xmlns="http://www.w3.org/2000/svg" xmlns:xlink="http://www.w3.org/1999/xlink" width="132.51546" height="86.92285" viewBox="0,0,132.51546,86.92285"><g transform="translate(-174.25254,-158.9)"><g data-paper-data="{&quot;isPaintingLayer&quot;:true}" fill-rule="nonzero" stroke="none" stroke-linecap="butt" stroke-linejoin="miter" stroke-miterlimit="10" stroke-dasharray="" stroke-dashoffset="0" style="mix-blend-mode: normal"><path d="M243.91503,245.82285v-54.80044h12.97052v54.80044z" fill="#906d3a" stroke-width="0"/><g stroke-width="1"><path d="M277.70514,178.55c0,0 1.75,12.2 -9.4,22.1c-0.3,0.25 -0.7,0.2 -0.7,-0.15c0,-3 -0.15,-13.5 -2.6,-14.6c3.75,-5.45 8,-7.55 12.7,-7.35z" fill="#608899"/><path d="M265.55514,186.4c0.25,0.3 0.55,0.85 0.8,1.5c0.15,0.35 0.25,0.7 0.35,1.1c0.1,0.4 0.2,0.8 0.25,1.25c0.1,0.45 0.15,0.9 0.2,1.35c0.05,0.45 0.1,0.95 0.15,1.4c0.1,0.9 0.15,1.85 0.2,2.75c0.05,0.85 0.1,1.7 0.1,2.4c0,1.4 0,2.35 0,2.35c0,0 -0.1,-0.95 -0.2,-2.35c-0.05,-0.7 -0.15,-1.5 -0.2,-2.4c-0.05,-0.85 -0.1,-1.8 -0.2,-2.75c-0.15,-1.9 -0.35,-3.75 -0.8,-5.1c-0.2,-0.7 -0.45,-1.2 -0.7,-1.55c-0.2,-0.35 -0.4,-0.5 -0.4,-0.5c0,0 0.2,0.15 0.45,0.55z" fill="#4e6f7d"/><path d="M277.95514,179.55c0,0.3 0.05,0.75 0.05,1.2c0,0.25 0,0.5 0,0.75c0,0.3 -0.05,0.55 -0.05,0.85c-0.05,0.55 -0.1,1.2 -0.2,1.85c-0.1,0.65 -0.2,1.35 -0.4,2.05c-0.05,0.35 -0.15,0.7 -0.25,1.05c-0.1,0.35 -0.25,0.75 -0.35,1.1c-0.1,0.2 -0.15,0.35 -0.2,0.55l-0.2,0.55c-0.15,0.4 -0.3,0.75 -0.45,1.1c-0.35,0.75 -0.7,1.4 -1.05,2.1c-0.4,0.65 -0.75,1.3 -1.15,1.9c-0.45,0.6 -0.85,1.15 -1.25,1.7c-0.4,0.55 -0.85,1 -1.2,1.45c-0.4,0.45 -0.75,0.85 -1.1,1.15c-0.35,0.35 -0.65,0.6 -0.9,0.85c-0.5,0.5 -0.85,0.7 -0.85,0.7c0,0 0.3,-0.25 0.75,-0.75c0.25,-0.25 0.55,-0.55 0.85,-0.9c0.3,-0.35 0.65,-0.75 1,-1.2c0.35,-0.45 0.8,-0.9 1.15,-1.45c0.4,-0.55 0.8,-1.1 1.2,-1.7c0.4,-0.6 0.75,-1.25 1.15,-1.9c0.35,-0.65 0.7,-1.35 1,-2.05c0.15,-0.35 0.3,-0.7 0.45,-1.05l0.2,-0.55c0.1,-0.2 0.15,-0.35 0.2,-0.55c0.1,-0.35 0.25,-0.7 0.35,-1.05c0.15,-0.35 0.2,-0.7 0.3,-1.05c0.2,-0.7 0.3,-1.4 0.45,-2.05c0.1,-0.65 0.2,-1.3 0.25,-1.85c0.05,-0.55 0.1,-1.1 0.1,-1.55c0,-0.45 0,-0.85 0,-1.2c-0.05,-0.65 -0.1,-1.05 -0.1,-1.05c0,0 0.1,0.35 0.25,1z" fill="#4e6f7d"/></g><g stroke-width="1"><path d="M198.95514,185.2c-3.15,-0.05 -5.7,1.4 -10.35,5.3c-3.65,3.1 -7.7,4.7 -11.55,5.55c-0.55,0.1 -0.95,-0.4 -0.65,-0.85c2.45,-3.45 6.05,-10.9 5.85,-14.65c-0.15,-3.05 -0.1,-6.45 -3.7,-11.4c-1.4,-1.95 -3.65,-4.9 -4.25,-6.25c-0.2,-0.45 0.2,-0.95 0.7,-0.8c8.5,2.75 13.7,9.65 16.45,13.7c2.9,4.2 5,5.3 7.7,5.3" fill="#6da3b2"/><path d="M196.80514,180.6c-0.2,-0.05 -0.5,-0.15 -0.9,-0.3c-0.4,-0.15 -0.85,-0.4 -1.3,-0.75c-0.45,-0.35 -0.9,-0.8 -1.4,-1.3c-0.25,-0.25 -0.5,-0.55 -0.7,-0.85c-0.2,-0.3 -0.45,-0.6 -0.65,-0.95c-0.45,-0.65 -0.95,-1.3 -1.45,-2c-1.05,-1.35 -2.2,-2.75 -3.45,-4.1c-0.65,-0.7 -1.3,-1.35 -1.95,-1.95c-0.65,-0.65 -1.35,-1.2 -2,-1.75c-0.65,-0.55 -1.3,-1.05 -1.95,-1.5c-0.65,-0.45 -1.3,-0.85 -1.9,-1.2c-1.2,-0.7 -2.2,-1.25 -2.95,-1.55c-0.35,-0.15 -0.65,-0.3 -0.85,-0.35c-0.2,-0.05 -0.3,-0.1 -0.3,-0.1c0,0 0.1,0.05 0.3,0.1c0.2,0.05 0.5,0.1 0.9,0.25c0.75,0.25 1.85,0.65 3.1,1.3c1.25,0.65 2.65,1.5 4.05,2.55c0.7,0.55 1.4,1.15 2.05,1.75c0.7,0.6 1.35,1.3 2,1.95c0.6,0.7 1.2,1.4 1.8,2.1c0.6,0.7 1.15,1.45 1.65,2.15c0.55,0.7 1,1.4 1.4,2.1c0.2,0.35 0.4,0.7 0.6,1c0.15,0.3 0.4,0.6 0.6,0.85c0.2,0.3 0.45,0.5 0.65,0.75c0.2,0.25 0.4,0.45 0.6,0.65c0.4,0.35 0.8,0.6 1.15,0.8c0.75,0.35 1.15,0.55 1.15,0.55c0,0 -0.1,-0.05 -0.25,-0.2z" fill="#4e6f7d"/><path d="M176.10514,165.6c0.55,0.7 1.35,1.7 2.3,2.9c0.5,0.6 1,1.25 1.5,2c0.55,0.75 1,1.55 1.4,2.45c0.4,0.9 0.75,1.85 0.95,2.85c0.25,1 0.35,2.05 0.4,3.1c0,1.05 -0.05,2.1 -0.2,3.1c-0.1,1.05 -0.35,2.05 -0.65,2.95c-0.55,1.85 -1.35,3.5 -2.05,4.85c-0.7,1.35 -1.4,2.45 -1.9,3.2c-0.25,0.35 -0.45,0.65 -0.6,0.85c-0.15,0.2 -0.2,0.3 -0.2,0.3c0,0 0.25,-0.45 0.7,-1.25c0.4,-0.8 1,-1.9 1.65,-3.3c0.65,-1.35 1.35,-3.05 1.85,-4.85c0.25,-0.9 0.45,-1.85 0.6,-2.85c0.15,-1 0.2,-2 0.15,-3c-0.05,-1 -0.15,-2 -0.35,-2.95c-0.2,-0.95 -0.5,-1.9 -0.85,-2.75c-0.35,-0.85 -0.8,-1.65 -1.25,-2.4c-0.45,-0.75 -0.9,-1.4 -1.35,-2.05c-0.9,-1.25 -1.6,-2.3 -2.1,-3.05c-0.25,-0.4 -0.45,-0.7 -0.55,-0.9c-0.15,-0.2 -0.2,-0.3 -0.2,-0.3c0,0 0.3,0.45 0.75,1.1z" fill="#4e6f7d"/><path d="M195.45514,185.9c-0.5,0.2 -1.25,0.65 -2.05,1.25c-0.8,0.6 -1.75,1.3 -2.75,2.1c-1,0.75 -2.05,1.6 -3.15,2.4c-0.55,0.35 -1.15,0.75 -1.7,1.1c-0.55,0.4 -1.15,0.7 -1.7,1c-0.3,0.1 -0.55,0.25 -0.85,0.4c-0.25,0.1 -0.55,0.25 -0.8,0.35c-0.55,0.25 -1.05,0.45 -1.55,0.6c-0.5,0.2 -0.95,0.3 -1.35,0.4c-0.4,0.1 -0.75,0.2 -1.05,0.25c-0.55,0.1 -0.9,0.15 -0.9,0.15c0,0 0.35,-0.15 0.9,-0.3c0.3,-0.1 0.6,-0.2 1,-0.35c0.35,-0.15 0.8,-0.3 1.25,-0.5c0.45,-0.2 0.95,-0.45 1.45,-0.7c0.5,-0.25 1.05,-0.55 1.6,-0.85c0.55,-0.3 1.1,-0.65 1.65,-1c0.55,-0.4 1.1,-0.75 1.65,-1.15c1.1,-0.8 2.15,-1.6 3.2,-2.35c1.05,-0.75 2,-1.45 2.9,-1.95c0.9,-0.5 1.7,-0.85 2.25,-1.05c0.25,-0.1 0.5,-0.15 0.65,-0.2c0.15,-0.05 0.25,-0.05 0.25,-0.05c0,0 -0.3,0.1 -0.9,0.45z" fill="#4e6f7d"/></g><g stroke-width="1"><g><path d="M224.65514,192.95c-3.7,0 -7.25,1.5 -8.9,1.7c-1.65,0.2 0.35,-2.85 -0.5,-4.2" fill="#aedeeb"/><path d="M221.95514,193.2c-0.3,0.1 -0.7,0.25 -1.15,0.4c-0.45,0.15 -1,0.3 -1.6,0.5c-0.6,0.2 -1.25,0.4 -1.9,0.55c-0.35,0.05 -0.7,0.15 -1,0.2c-0.2,0.05 -0.35,0.1 -0.55,0.1c-0.2,0 -0.4,0 -0.65,-0.15c-0.25,-0.15 -0.35,-0.45 -0.35,-0.65c0,-0.2 0,-0.35 0.05,-0.5c0.1,-0.25 0.2,-0.5 0.25,-0.75c0.25,-0.95 0.4,-1.6 0.4,-1.6c0,0 0.05,0.7 -0.05,1.7c0,0.25 -0.05,0.55 -0.1,0.8c-0.05,0.25 0,0.5 0.05,0.5c0.05,0.1 0.4,0.05 0.7,-0.05c0.3,-0.1 0.65,-0.15 0.95,-0.25c0.65,-0.15 1.3,-0.3 1.9,-0.45c0.65,-0.1 1.2,-0.2 1.7,-0.3c0.5,-0.1 0.9,-0.15 1.2,-0.15c0.3,0 0.45,0 0.45,0c0,0 -0.15,0.05 -0.3,0.1z" fill="#648f9e"/></g><g><path d="M213.35514,189.95c-2.8,0 -5.45,1.15 -6.75,1.25c-1.25,0.15 0.25,-2.15 -0.4,-3.2" fill="#aedeeb"/><path d="M211.30514,190.25c-0.2,0.1 -0.5,0.25 -0.9,0.4c-0.75,0.3 -1.8,0.7 -2.9,0.9c-0.25,0.05 -0.55,0.1 -0.85,0.1c-0.15,0 -0.3,0 -0.55,-0.15c-0.05,-0.05 -0.05,-0.05 -0.1,-0.1c-0.05,-0.05 0,0 -0.05,-0.05c0,-0.05 -0.05,-0.05 -0.05,-0.1c-0.05,-0.1 -0.1,-0.25 -0.1,-0.3c-0.05,-0.3 0.05,-0.55 0.1,-0.8c0.1,-0.25 0.15,-0.45 0.2,-0.65c0.1,-0.4 0.15,-0.7 0.15,-0.95c0,-0.2 -0.05,-0.35 -0.05,-0.35c0,0 0.1,0.1 0.2,0.35c0.05,0.25 0.15,0.65 0.1,1.05c0,0.2 0,0.4 -0.05,0.65c0,0.25 -0.05,0.5 0,0.65c0,0.05 0,0.05 0,0.05l0.05,0.05c-0.1,-0.1 -0.05,-0.05 -0.05,-0.05v0c0,0 0.1,0 0.2,0c0.25,0 0.5,-0.05 0.75,-0.1c0.55,-0.1 1.05,-0.25 1.55,-0.35c0.45,-0.15 0.95,-0.25 1.35,-0.3c0.4,-0.1 0.75,-0.15 1,-0.15c0.25,0 0.4,0 0.4,0c0,0 -0.1,0.05 -0.4,0.2z" fill="#648f9e"/></g><g><path d="M205.90514,179.7c1.7,-0.6 2.55,-2.4 2.55,-3.5c0,-1.1 -1,-1.85 0.1,-1.95c1.8,-0.2 4.8,2.65 7,2.55" fill="#6da3b2"/><path d="M214.40514,176.65c-0.15,-0.05 -0.4,-0.15 -0.7,-0.25c-0.6,-0.2 -1.35,-0.55 -2.1,-0.95c-0.7,-0.45 -1.45,-0.8 -2.05,-1c-0.55,-0.2 -1,-0.2 -1,-0.2c0,0 0.1,0 0.3,0c0.15,0 0.45,0 0.75,0.1c0.35,0.1 0.7,0.2 1.05,0.35c0.35,0.15 0.75,0.35 1.1,0.55c0.75,0.4 1.5,0.75 2.05,1.05c0.3,0.15 0.55,0.3 0.7,0.35c0.15,0.05 0.25,0.1 0.25,0.1c0,0 -0.1,0 -0.35,-0.1z" fill="#4e6f7d"/><path d="M207.65514,178.2c0.15,-0.35 0.4,-0.75 0.5,-1.2c0.05,-0.2 0.1,-0.45 0.1,-0.65c0,-0.2 0,-0.4 0,-0.6c0,-0.2 0,-0.35 -0.05,-0.45c0,-0.1 0,-0.15 0,-0.15c0,0 0,0.05 0.05,0.15c0.05,0.1 0.1,0.2 0.15,0.4c0.05,0.2 0.1,0.4 0.1,0.65c0,0.1 0,0.25 0,0.35c0,0.1 0,0.25 -0.05,0.35c-0.15,0.5 -0.4,0.9 -0.65,1.2c-0.2,0.3 -0.4,0.45 -0.4,0.45c0,0 0.15,-0.2 0.25,-0.5z" fill="#4e6f7d"/></g><g><path d="M239.30514,171.2c3.05,-1.4 3.25,-5.85 1.75,-8.75c-1.5,-2.9 -3.05,-2.85 -2.1,-3.1c7.4,-2.05 15.5,5.7 16.9,7.8c1.4,2.1 3.1,2.15 4.6,1.95" fill="#6da3b2"/><path d="M258.55514,168.95c-0.15,0 -0.4,0 -0.7,-0.1c-0.6,-0.15 -1.3,-0.75 -2,-1.5c-0.35,-0.4 -0.7,-0.8 -1.1,-1.25c-0.4,-0.45 -0.85,-0.85 -1.3,-1.3c-0.95,-0.85 -2,-1.7 -3.1,-2.45c-1.1,-0.75 -2.3,-1.4 -3.45,-1.9c-1.15,-0.5 -2.25,-0.85 -3.25,-1.05c-1,-0.2 -1.85,-0.3 -2.45,-0.3c-0.3,0 -0.55,0 -0.7,0c-0.15,0 -0.25,0 -0.25,0c0,0 0.1,-0.05 0.25,-0.05c0.15,-0.05 0.4,-0.1 0.7,-0.1c0.3,-0.05 0.7,-0.05 1.1,-0.05c0.4,0 0.9,0.05 1.4,0.1c1.05,0.15 2.25,0.4 3.45,0.9c0.6,0.25 1.2,0.5 1.8,0.85c0.6,0.3 1.15,0.65 1.75,1.05c1.15,0.8 2.25,1.7 3.15,2.6c0.45,0.45 0.85,0.95 1.25,1.4c0.35,0.45 0.7,0.9 1,1.3c0.3,0.4 0.6,0.75 0.9,1.05c0.3,0.3 0.6,0.5 0.85,0.6c0.25,0.15 0.5,0.15 0.65,0.2c0.15,0.05 0.25,0.05 0.25,0.05c0,0 -0.1,0 -0.2,-0.05z" fill="#4e6f7d"/><path d="M240.50514,170.3c0.2,-0.25 0.45,-0.6 0.65,-1.1c0.15,-0.25 0.2,-0.5 0.3,-0.8c0.1,-0.25 0.15,-0.6 0.2,-0.9c0.05,-0.3 0.05,-0.65 0.05,-1c0,-0.35 -0.05,-0.7 -0.1,-1.05c-0.05,-0.35 -0.1,-0.7 -0.15,-1.05c-0.1,-0.35 -0.15,-0.7 -0.25,-1c-0.15,-0.65 -0.45,-1.2 -0.7,-1.65c-0.3,-0.45 -0.55,-0.8 -0.75,-1.05c-0.2,-0.25 -0.3,-0.4 -0.3,-0.4c0,0 0.15,0.1 0.4,0.3c0.25,0.2 0.6,0.5 0.95,0.95c0.35,0.4 0.7,1 0.95,1.65c0.25,0.65 0.4,1.4 0.5,2.15c0,0.35 0.05,0.75 0.05,1.1c0,0.4 -0.05,0.75 -0.1,1.1c-0.15,0.7 -0.4,1.3 -0.7,1.8c-0.15,0.25 -0.3,0.45 -0.45,0.6c-0.2,0.15 -0.35,0.3 -0.45,0.4c-0.1,0.1 -0.25,0.15 -0.3,0.2c-0.05,0.05 -0.1,0.05 -0.1,0.05c0,0 0.15,-0.1 0.3,-0.3z" fill="#4e6f7d"/></g><g><g><g><path d="M295.25514,186.35c-1.8,5.75 -27.4,10.7 -52.95,9.5c-25.6,-1.2 -38.7,-9.75 -43.85,-10.7c-5.15,-0.95 -4.55,-3.35 -0.6,-3.95c11.4,-1.7 34.7,-11.9 61.9,-12.3c27.15,-0.4 47.6,8.5 47,11.3c-0.5,2.15 -11.5,6.15 -11.5,6.15z" fill="#6da3b2"/><path d="M201.15514,185.5c2.7,-0.25 2.3,1.75 4.9,1.2c2.6,-0.55 4.5,0.95 6.65,1.65c2.15,0.7 4.35,-0.4 6.65,-0.4c2.3,0 2.7,2.05 4.5,2.05c1.75,0 4.5,1.5 6.65,2.15c2.15,0.7 6.4,-2.6 7.75,-3.1c1.35,-0.55 3.4,-0.15 4.9,0.25c1.5,0.4 3.55,-1.75 7.45,-0.7c3.95,1.1 14.55,7.45 16.95,3.4c2.4,-4.05 8,-5.85 9.65,-5.85c1.65,0 1.65,-0.4 2.6,-0.95c0.95,-0.55 3,2.05 4.05,0.15c1.1,-1.9 3.1,-0.7 4.35,-0.55c1.2,0.15 3.25,-2.7 6.65,-3.1c3.4,-0.4 6.5,0.25 8.4,-0.7c1.15,-0.6 2.1,-1.05 3.4,-1.35c0.1,0.2 0.1,0.4 0.1,0.55c-0.5,2.15 -11.5,6.15 -11.5,6.15c-1.8,5.75 -27.4,10.7 -52.95,9.5c-23.05,-1.05 -35.95,-8.1 -42.05,-10.2c0.25,-0.05 0.55,-0.15 0.9,-0.15z" fill="#aedeeb"/><path d="M304.05514,177.55c-0.35,-0.2 -0.85,-0.45 -1.55,-0.75c-0.7,-0.3 -1.55,-0.7 -2.5,-1.05c-1,-0.4 -2.1,-0.8 -3.3,-1.2c-1.2,-0.4 -2.55,-0.8 -3.95,-1.2c-1.4,-0.4 -2.9,-0.75 -4.45,-1.15c-0.75,-0.2 -1.55,-0.35 -2.35,-0.55c-0.8,-0.15 -1.65,-0.35 -2.45,-0.5c-1.65,-0.3 -3.3,-0.6 -5,-0.8c-1.7,-0.25 -3.4,-0.45 -5.05,-0.6c-1.65,-0.2 -3.3,-0.3 -4.9,-0.4c-1.6,-0.05 -3.15,-0.15 -4.6,-0.2c-1.45,-0.05 -2.8,-0.05 -4.1,-0.05c-2.55,0.05 -4.65,0.05 -6.15,0.15c-1.5,0.1 -2.35,0.15 -2.35,0.15c0,0 0.85,-0.1 2.35,-0.25c0.75,-0.05 1.65,-0.15 2.7,-0.2c1.05,-0.05 2.2,-0.1 3.5,-0.15c1.3,-0.05 2.7,-0.05 4.15,-0.05c1.45,0 3,0 4.6,0.1c1.6,0.1 3.25,0.2 4.95,0.35c1.65,0.15 3.35,0.3 5.05,0.55c1.7,0.25 3.4,0.55 5.05,0.85c0.85,0.15 1.65,0.35 2.45,0.5c0.85,0.2 1.6,0.35 2.4,0.55c1.55,0.4 3.05,0.8 4.45,1.25c1.4,0.45 2.7,0.9 3.9,1.35c1.2,0.45 2.3,0.9 3.25,1.3c0.95,0.4 1.8,0.8 2.45,1.15c0.65,0.35 1.15,0.65 1.5,0.85c0.3,0.2 0.5,0.3 0.5,0.3c0,0 -0.2,-0.1 -0.55,-0.3z" fill="#4e6f7d"/><path d="M243.85514,170.25c-0.9,0.15 -2.25,0.4 -3.8,0.7c-1.55,0.3 -3.4,0.7 -5.35,1.15c-2,0.45 -4.05,0.9 -6.15,1.4c-2.1,0.45 -4.2,0.95 -6.15,1.4c-1.95,0.45 -3.75,0.9 -5.3,1.3c-1.55,0.4 -2.85,0.75 -3.75,1c-0.9,0.25 -1.4,0.4 -1.4,0.4c0,0 0.5,-0.2 1.4,-0.5c0.9,-0.3 2.15,-0.8 3.7,-1.25c1.55,-0.5 3.35,-1.05 5.3,-1.55c0.95,-0.25 1.95,-0.5 3,-0.75c1,-0.25 2.05,-0.5 3.1,-0.75c2.1,-0.5 4.2,-0.95 6.15,-1.35c1.95,-0.4 3.8,-0.7 5.4,-0.95c1.55,-0.25 2.9,-0.4 3.85,-0.45c0.5,-0.05 0.85,-0.05 1.1,-0.05c0.25,0 0.4,0 0.4,0c0,0 -0.5,0.05 -1.5,0.25z" fill="#4e6f7d"/><path d="M286.00514,191.95c-0.5,0.15 -1.15,0.35 -2.05,0.6c-0.9,0.2 -1.95,0.5 -3.2,0.8c-1.25,0.35 -2.65,0.6 -4.2,0.9c-1.55,0.3 -3.2,0.55 -5,0.8c-1.8,0.25 -3.7,0.45 -5.65,0.65c-3.9,0.4 -8.1,0.6 -12.3,0.75c-4.2,0.1 -8.4,-0.05 -12.3,-0.3c-1.95,-0.15 -3.85,-0.3 -5.65,-0.5c-1.8,-0.2 -3.5,-0.4 -5.05,-0.65c-0.8,-0.1 -1.55,-0.2 -2.25,-0.35c-0.7,-0.15 -1.35,-0.25 -2,-0.4c-0.65,-0.15 -1.2,-0.25 -1.75,-0.4c-0.55,-0.1 -1.05,-0.2 -1.5,-0.35c-0.45,-0.1 -0.85,-0.2 -1.2,-0.3c-0.35,-0.15 -0.6,-0.2 -0.85,-0.3c-0.45,-0.15 -0.7,-0.25 -0.7,-0.25c0,0 0.3,0.05 0.75,0.2c0.2,0.1 0.5,0.15 0.85,0.25c0.35,0.05 0.75,0.15 1.2,0.25c0.45,0.1 0.95,0.2 1.5,0.3c0.55,0.1 1.1,0.2 1.75,0.3c0.6,0.1 1.3,0.2 2,0.3c0.75,0.1 1.45,0.2 2.25,0.3c1.55,0.2 3.25,0.35 5.05,0.5c1.8,0.15 3.7,0.3 5.65,0.4c3.9,0.2 8.1,0.35 12.25,0.2c4.15,-0.1 8.35,-0.3 12.25,-0.65c1.95,-0.15 3.8,-0.35 5.6,-0.55c1.75,-0.2 3.45,-0.45 5,-0.7c0.75,-0.15 1.5,-0.3 2.2,-0.4c0.7,-0.1 1.4,-0.2 2,-0.35c1.25,-0.25 2.3,-0.5 3.2,-0.7c0.9,-0.2 1.55,-0.4 2.05,-0.5c0.5,-0.15 0.75,-0.2 0.75,-0.2c0,0 -0.25,0.05 -0.65,0.35z" fill="#648f9e"/><path d="M215.90514,191.55c-0.35,-0.05 -0.8,-0.15 -1.25,-0.3c-0.45,-0.15 -0.9,-0.3 -1.4,-0.45c-0.45,-0.2 -0.95,-0.35 -1.4,-0.5c-0.45,-0.15 -0.85,-0.3 -1.2,-0.45c-0.7,-0.3 -1.15,-0.5 -1.15,-0.5c0,0 0.45,0.15 1.2,0.35c0.35,0.1 0.8,0.2 1.25,0.35c0.45,0.15 0.9,0.3 1.4,0.45c0.45,0.15 0.95,0.3 1.4,0.45c0.45,0.15 0.85,0.3 1.2,0.4c0.7,0.25 1.2,0.4 1.2,0.4c0,0 -0.5,-0.1 -1.25,-0.2z" fill="#648f9e"/><path d="M206.30514,188.25c-0.35,-0.15 -0.8,-0.3 -1.3,-0.5c-0.5,-0.2 -1,-0.4 -1.5,-0.6c-0.5,-0.25 -1.05,-0.45 -1.5,-0.65c-0.5,-0.2 -0.9,-0.4 -1.3,-0.55c-0.35,-0.15 -0.7,-0.3 -0.9,-0.4c-0.2,-0.1 -0.35,-0.15 -0.35,-0.15c0,0 0.1,0.05 0.35,0.1c0.25,0.1 0.55,0.15 0.95,0.3c0.4,0.1 0.85,0.25 1.35,0.45c0.5,0.2 1,0.4 1.5,0.6c0.5,0.25 1.05,0.45 1.5,0.65c0.5,0.2 0.95,0.45 1.3,0.6c0.75,0.35 1.25,0.6 1.25,0.6c0,0 -0.5,-0.15 -1.35,-0.45z" fill="#648f9e"/></g><path d="M304.20514,182.55c-0.6,0.35 -1.4,0.9 -2.4,1.45c-1,0.55 -2.2,1.2 -3.55,1.75c-1.35,0.55 -2.8,1.1 -4.4,1.3c-0.4,0.05 -0.8,0.1 -1.2,0.05c-0.4,0 -0.8,-0.05 -1.15,-0.05c-0.75,-0.05 -1.5,0 -2.2,0.05c-1.45,0.1 -2.75,0.25 -3.9,0.4c-1.15,0.15 -2.1,0.3 -2.75,0.4c-0.65,0.1 -1.05,0.15 -1.05,0.15c0,0 0.35,-0.1 1,-0.3c0.65,-0.15 1.55,-0.4 2.7,-0.65c0.6,-0.1 1.2,-0.25 1.85,-0.35c0.65,-0.1 1.35,-0.25 2.05,-0.3c0.75,-0.1 1.45,-0.15 2.25,-0.15c0.4,0 0.75,0.05 1.15,0.05c0.35,0 0.75,0 1.1,-0.05c0.7,-0.05 1.45,-0.25 2.15,-0.45c0.7,-0.2 1.4,-0.45 2.05,-0.7c1.35,-0.55 2.55,-1.05 3.6,-1.55c1.05,-0.5 1.9,-0.9 2.5,-1.2c0.6,-0.3 0.95,-0.45 0.95,-0.45c0,0 -0.3,0.25 -0.75,0.6z" fill="#648f9e"/><path d="M282.40514,181.75c-0.33137,0 -0.6,-0.4701 -0.6,-1.05c0,-0.5799 0.26863,-1.05 0.6,-1.05c0.33137,0 0.6,0.4701 0.6,1.05c0,0.5799 -0.26863,1.05 -0.6,1.05z" fill="#212f33"/></g><path d="M271.35514,180.8c-0.1,0.25 -0.15,0.65 -0.2,1.1c0,0.25 -0.05,0.5 -0.05,0.75c-0.05,0.25 -0.05,0.5 -0.05,0.8c0.05,0.25 0,0.55 0.05,0.85c0,0.3 0.05,0.6 0.1,0.9c0.05,0.3 0.1,0.55 0.2,0.85c0.05,0.3 0.15,0.6 0.25,0.85c0.05,0.25 0.2,0.5 0.3,0.75c0.1,0.25 0.25,0.45 0.35,0.65c0.1,0.2 0.2,0.4 0.3,0.55c0.1,0.15 0.2,0.3 0.25,0.4c0.15,0.2 0.25,0.35 0.25,0.35c0,0 -0.15,-0.1 -0.35,-0.3c-0.1,-0.1 -0.2,-0.2 -0.35,-0.35c-0.15,-0.15 -0.3,-0.3 -0.45,-0.5c-0.15,-0.2 -0.3,-0.4 -0.45,-0.65c-0.1,-0.2 -0.3,-0.45 -0.4,-0.75c-0.15,-0.3 -0.3,-0.6 -0.35,-0.9c-0.05,-0.3 -0.15,-0.65 -0.2,-0.95c-0.05,-0.3 -0.1,-0.65 -0.1,-0.95c-0.05,-0.35 0,-0.65 0,-0.95c0.05,-0.3 0.1,-0.6 0.15,-0.85c0.05,-0.25 0.15,-0.5 0.2,-0.75c0.05,-0.2 0.15,-0.4 0.2,-0.6c0.05,-0.15 0.15,-0.35 0.2,-0.45c0.1,-0.25 0.2,-0.4 0.2,-0.4c0,0 -0.05,0.15 -0.05,0.55z" fill="#4e6f7d"/><path d="M269.40514,180.8c-0.1,0.25 -0.15,0.65 -0.2,1.1c0,0.25 -0.05,0.5 -0.05,0.75c-0.05,0.25 -0.05,0.5 -0.05,0.8c0.05,0.25 0,0.55 0.05,0.85c0,0.3 0.05,0.6 0.1,0.9c0.05,0.3 0.1,0.55 0.2,0.85c0.05,0.3 0.15,0.6 0.25,0.85c0.05,0.25 0.2,0.5 0.3,0.75c0.1,0.25 0.25,0.45 0.35,0.65c0.1,0.2 0.2,0.4 0.3,0.55c0.1,0.15 0.2,0.3 0.25,0.4c0.15,0.2 0.25,0.35 0.25,0.35c0,0 -0.15,-0.1 -0.35,-0.3c-0.1,-0.1 -0.2,-0.2 -0.35,-0.35c-0.15,-0.15 -0.3,-0.3 -0.45,-0.5c-0.15,-0.2 -0.3,-0.4 -0.45,-0.65c-0.1,-0.2 -0.3,-0.45 -0.4,-0.75c-0.15,-0.3 -0.3,-0.6 -0.35,-0.9c-0.05,-0.3 -0.15,-0.65 -0.2,-0.95c-0.05,-0.3 -0.1,-0.65 -0.1,-0.95c-0.05,-0.35 0,-0.65 0,-0.95c0.05,-0.3 0.1,-0.6 0.15,-0.85c0.05,-0.25 0.15,-0.5 0.2,-0.75c0.05,-0.2 0.15,-0.4 0.2,-0.6c0.05,-0.15 0.15,-0.35 0.2,-0.45c0.1,-0.25 0.2,-0.4 0.2,-0.4c0,0 -0.05,0.15 -0.05,0.55z" fill="#4e6f7d"/><path d="M266.90514,180.8c-0.1,0.25 -0.15,0.65 -0.2,1.1c0,0.25 -0.05,0.5 -0.05,0.75c-0.05,0.25 -0.05,0.5 -0.05,0.8c0.05,0.25 0,0.55 0.05,0.85c0,0.3 0.05,0.6 0.1,0.9c0.05,0.3 0.1,0.55 0.2,0.85c0.05,0.3 0.15,0.6 0.25,0.85c0.05,0.25 0.2,0.5 0.3,0.75c0.1,0.25 0.25,0.45 0.35,0.65c0.1,0.2 0.2,0.4 0.3,0.55c0.1,0.15 0.2,0.3 0.25,0.4c0.15,0.2 0.25,0.35 0.25,0.35c0,0 -0.15,-0.1 -0.35,-0.3c-0.1,-0.1 -0.2,-0.2 -0.35,-0.35c-0.15,-0.15 -0.3,-0.3 -0.45,-0.5c-0.15,-0.2 -0.3,-0.4 -0.45,-0.65c-0.1,-0.2 -0.3,-0.45 -0.4,-0.75c-0.15,-0.3 -0.3,-0.6 -0.35,-0.9c-0.05,-0.3 -0.15,-0.65 -0.2,-0.95c-0.05,-0.3 -0.1,-0.65 -0.1,-0.95c-0.05,-0.35 0,-0.65 0,-0.95c0.05,-0.3 0.1,-0.6 0.15,-0.85c0.05,-0.25 0.15,-0.5 0.2,-0.75c0.05,-0.2 0.15,-0.4 0.2,-0.6c0.05,-0.15 0.15,-0.35 0.2,-0.45c0.1,-0.25 0.2,-0.4 0.2,-0.4c0,0 -0.05,0.15 -0.05,0.55z" fill="#4e6f7d"/><path d="M295.60514,182.7c0,-0.05 -0.1,-0.15 -0.15,-0.2c-0.05,-0.1 -0.15,-0.15 -0.2,-0.25c-0.1,-0.05 -0.15,-0.15 -0.25,-0.25c-0.15,-0.2 -0.3,-0.4 -0.4,-0.6c-0.1,-0.2 -0.15,-0.35 -0.15,-0.35c0,0 0.2,-0.05 0.4,0.05c0.1,0.05 0.25,0.1 0.35,0.2c0.15,0.05 0.25,0.2 0.35,0.3c0.2,0.25 0.3,0.6 0.3,0.85c0,0.3 -0.15,0.4 -0.15,0.4c0,0 0,0 -0.1,-0.15z" fill="#4e6f7d"/></g></g><g stroke-width="1"><path d="M267.00514,190.75c0,0 -6.8,11.35 -22.8,12.05c-0.45,0 -0.75,-0.3 -0.5,-0.6c2,-2.5 9,-11.3 7.7,-13.9c6.8,-2.05 11.8,-0.9 15.6,2.45z" fill="#6da3b2"/><path d="M251.50514,189c0,0.45 -0.1,1.1 -0.3,1.85c-0.15,0.35 -0.25,0.75 -0.45,1.15c-0.15,0.4 -0.35,0.85 -0.6,1.25c-0.25,0.4 -0.5,0.85 -0.75,1.25c-0.25,0.4 -0.5,0.85 -0.8,1.25c-0.25,0.45 -0.55,0.85 -0.85,1.25c-0.25,0.45 -0.55,0.8 -0.85,1.2c-0.55,0.75 -1.1,1.45 -1.6,2.05c-0.5,0.6 -0.9,1.05 -1.2,1.4c-0.25,0.3 -0.45,0.5 -0.45,0.5c0,0 0.1,-0.25 0.35,-0.6c0.25,-0.4 0.6,-0.9 1,-1.55c0.45,-0.65 0.9,-1.35 1.45,-2.15c0.5,-0.8 1.1,-1.6 1.65,-2.45c0.3,-0.4 0.55,-0.85 0.85,-1.25c0.3,-0.4 0.55,-0.8 0.8,-1.2c0.25,-0.4 0.5,-0.75 0.7,-1.15c0.25,-0.4 0.4,-0.75 0.55,-1.1c0.25,-0.65 0.45,-1.25 0.5,-1.7c0.05,-0.45 0,-0.7 0,-0.7c0,0 0.15,0.25 0,0.7z" fill="#4e6f7d"/><path d="M266.40514,191.8c-0.2,0.3 -0.45,0.7 -0.75,1.1c-0.15,0.2 -0.35,0.4 -0.5,0.65c-0.2,0.25 -0.4,0.45 -0.6,0.7c-0.4,0.45 -0.9,0.95 -1.4,1.45c-0.5,0.45 -1.05,1 -1.7,1.45c-0.3,0.2 -0.6,0.45 -0.95,0.7c-0.3,0.25 -0.65,0.45 -1,0.7c-0.15,0.1 -0.3,0.25 -0.5,0.35l-0.55,0.3c-0.35,0.2 -0.75,0.4 -1.1,0.6c-0.8,0.4 -1.55,0.7 -2.3,1.05c-0.8,0.25 -1.55,0.55 -2.3,0.8c-0.75,0.2 -1.5,0.35 -2.2,0.55c-0.7,0.2 -1.4,0.25 -2,0.35c-0.65,0.1 -1.2,0.2 -1.7,0.2c-0.5,0.05 -0.95,0.1 -1.3,0.1c-0.75,0.05 -1.15,0.05 -1.15,0.05c0,0 0.45,-0.1 1.15,-0.2c0.35,-0.05 0.8,-0.1 1.3,-0.2c0.5,-0.05 1.05,-0.2 1.65,-0.35c0.3,-0.05 0.65,-0.15 0.95,-0.2c0.3,-0.1 0.65,-0.15 1,-0.25c0.7,-0.2 1.4,-0.45 2.15,-0.65c0.7,-0.3 1.45,-0.55 2.2,-0.85c0.7,-0.35 1.45,-0.7 2.2,-1.05c0.4,-0.2 0.75,-0.4 1.1,-0.6l0.55,-0.3c0.15,-0.1 0.35,-0.2 0.5,-0.3c0.35,-0.25 0.65,-0.45 1,-0.65c0.35,-0.25 0.65,-0.5 0.95,-0.7c0.65,-0.4 1.2,-0.9 1.75,-1.35c0.25,-0.25 0.5,-0.5 0.75,-0.7c0.25,-0.2 0.5,-0.45 0.7,-0.65c0.2,-0.25 0.4,-0.45 0.6,-0.65c0.2,-0.2 0.4,-0.4 0.55,-0.6c0.35,-0.35 0.6,-0.7 0.85,-1c0.2,-0.25 0.4,-0.5 0.5,-0.65c0.1,-0.15 0.15,-0.25 0.15,-0.25c0,0 -0.15,0.35 -0.55,1.05z" fill="#4e6f7d"/></g></g></g></svg>