<svg version="1.1" xmlns="http://www.w3.org/2000/svg" xmlns:xlink="http://www.w3.org/1999/xlink" width="235.46667" height="162.16667" viewBox="0,0,235.46667,162.16667"><g transform="translate(-122.26667,-98.91667)"><g data-paper-data="{&quot;isPaintingLayer&quot;:true}" stroke="none" stroke-width="1" stroke-linecap="butt" stroke-linejoin="miter" stroke-miterlimit="10" stroke-dasharray="" stroke-dashoffset="0" style="mix-blend-mode: normal"><g fill-rule="nonzero"><g><path d="M346.13333,123.61667l11.6,21.6c0,0 -19.3,5.3 -23,-0.8c-3.8,-6.1 11.4,-20.8 11.4,-20.8z" fill="#e2bb7d"/><path d="M355.83333,141.91667c-3.9,1.4 -8,2.1 -12.2,2.2c-2.6,0 -5.4,0 -8.1,-0.1c-0.4,0.1 -0.7,0.3 -1,0.4c0,-0.1 0,-0.1 -0.1,-0.2c-0.4,-0.7 -0.6,-1.5 -0.6,-2.3c0.2,-1.1 0.5,-2.8 1,-3.8c0.2,-0.3 0.5,-0.5 0.7,-0.6c2.2,-1.7 4.2,-3.6 6.2,-5.5c2,-1.9 3.8,-4.1 5.4,-6.4l1.1,2.1c-2.2,2.9 -4.6,5.6 -7.3,8c-1.3,1.2 -2.5,2.8 -3.8,4.2c3.4,-1.5 6.8,-3.1 9.7,-4.9c1.4,-0.8 2.7,-1.6 3.9,-2.5l1,1.8c-1.5,1.1 -3.1,2.1 -4.7,3.1c-2.5,1.5 -4.9,3.2 -7.5,4.8c0.8,0 1.5,0 2.3,0c4.5,0 8.9,-0.7 13.1,-2.1z" fill="#d2ae69"/></g><g><path d="M259.83333,144.31667c-3.8,6.1 -23,0.8 -23,0.8l11.5,-21.5c0,0 15.2,14.7 11.5,20.7z" fill="#e2bb7d"/><path d="M239.53333,140.11667c4.2,1.4 8.6,2.1 13.1,2.1c0.8,0 1.5,0 2.3,0c-2.6,-1.6 -5,-3.3 -7.5,-4.8c-1.6,-1 -3.2,-2 -4.7,-3.1l1,-1.8c1.2,0.9 2.5,1.7 3.9,2.5c2.9,1.8 6.3,3.4 9.7,4.9c-1.3,-1.4 -2.5,-3 -3.8,-4.2c-2.7,-2.4 -5.1,-5.1 -7.3,-8l1.1,-2.1c1.6,2.3 3.4,4.5 5.4,6.4c2,1.9 4,3.8 6.2,5.5c0.2,0.1 0.5,0.3 0.7,0.6c0.5,1 0.8,2.7 1,3.8c0,0.8 -0.2,1.6 -0.6,2.3c-0.1,0.1 -0.1,0.1 -0.1,0.2c-0.3,-0.1 -0.6,-0.3 -1,-0.4c-2.7,0.1 -5.5,0.1 -8.1,0.1c-4.2,-0.1 -8.3,-0.8 -12.2,-2.2z" fill="#d2ae69"/></g></g><g fill-rule="nonzero"><path d="M337.23333,161.21667c3.7,3.9 10.9,5.7 10.9,5.7c0,0 -7.9,-0.9 -12.5,0.7c-0.1,0.5 -0.3,1.1 -0.5,1.6c3,4 8.8,6.6 8.8,6.6c0,0 -6.3,-1.9 -10.9,-1.7c-0.4,0.7 -0.8,1.4 -1.2,2.1c1.9,5.2 7.9,9.6 7.9,9.6c0,0 -6.5,-3.4 -11.2,-4c0,6.2 6.5,13 6.5,13c0,0 -8.4,-6.7 -13.3,-6.7c-0.3,0.2 -0.5,0.4 -0.8,0.6c-0.2,5 3.1,10.7 3.6,11.4l0.1,0.1l-0.1,-0.1l-0.4,-0.5c-1.2,-1.5 -5,-5.6 -8.4,-7.5c-0.4,0.3 -0.9,0.5 -1.4,0.8c-0.9,5.1 1.4,11.5 1.4,11.5c0,0 -3.3,-6.1 -6.7,-9.2c-0.6,0.2 -1.2,0.4 -1.8,0.6c-1.8,5 -0.5,11.7 -0.5,11.7c0,0 -2.2,-6.6 -5.2,-10.3c-0.4,0.1 -0.8,0.1 -1.2,0.2l-0.1,0.1h-1.8c-3.1,4.8 -3.3,12.3 -3.3,12.3c0,0 -0.9,-7.9 -3.2,-12.3h-1.8c-0.3,0 -0.7,0 -1,-0.1c-3.4,3.9 -4.9,10.1 -4.9,10.1c0,0 0.7,-6.5 -0.3,-11.1c-1.1,-0.2 -2.1,-0.6 -3.1,-0.9c-4.2,3 -7,9.1 -7,9.1c0,0 2.1,-6.8 1.7,-11.4c-0.7,-0.4 -1.5,-0.7 -2.2,-1.2c-4.4,2.3 -8,7.2 -8,7.2c0,0 2.9,-5.5 3.8,-10c-0.5,-0.4 -0.9,-0.7 -1.4,-1.1c-6,0.5 -12.2,6.5 -12.2,6.5c0,0 5.8,-7.2 6.6,-12.1c-0.5,-0.6 -0.9,-1.2 -1.4,-1.8c-4.3,0.5 -8.6,2.9 -9.6,3.5l-0.1,0.1h-0.2l0.1,-0.1l0.1,-0.1l0.5,-0.5c0.3,-0.3 0.8,-0.7 1.3,-1.2c1.7,-1.6 3.2,-3.2 4.6,-5v-0.1c0.2,-0.2 0.4,-0.4 0.5,-0.7c-0.6,-1 -1.1,-2.1 -1.6,-3.1c-4.8,0 -9.8,2.2 -9.8,2.2c0,0 5,-3 8.1,-6.4c-0.3,-1 -0.6,-1.9 -0.9,-2.9c-4.8,-1.1 -10.3,-0.1 -10.3,-0.1c0,0 5.5,-1.8 9.3,-4.4c-0.1,-1 -0.2,-2.1 -0.3,-3.1c-4.7,-3.6 -13.3,-4.2 -13.3,-4.2c0,0 9.4,-1.1 13.4,-4c0.9,-8.4 4.3,-16.3 9.8,-22.7c-0.1,-6.1 -6.5,-12.9 -6.5,-12.9c0,0 8.1,6.4 13,6.7c0.5,-0.4 0.9,-0.7 1.4,-1c-0.3,-5.2 -3.7,-10.7 -3.7,-10.7c0,0 0.2,0.2 0.5,0.6l-0.2,-0.3c0,0 1.1,1.3 2.7,3c1.6,1.7 3.4,3.2 5.3,4.4c2.8,-1.5 5.9,-2.7 9,-3.5c1.8,-5 0.5,-11.6 0.5,-11.6c0,0 2.3,6.8 5.4,10.6c0.5,-0.1 1.1,-0.1 1.7,-0.2c4.4,-4.4 4.5,-14 4.5,-14c0,0 1.3,10.8 4.7,14.2l0.9,0.1c3.8,-3.8 5.5,-10.6 5.5,-10.6c0,0 -0.8,7.4 0.6,12c3.2,1.1 6.3,2.4 9.2,4.2c5.1,-1.9 9.3,-7.8 9.3,-7.8c0,0 -3.3,6.1 -4,10.8c6.2,0.3 13.3,-6.5 13.3,-6.5c0,0 -8.1,10 -6.6,14.5l0.2,0.3c5.5,0.2 11.8,-3.7 11.8,-3.7c0,0 -6.2,5 -8.3,9.3c0.4,0.7 0.7,1.4 1,2.1c0.8,1.6 1.4,3.3 1.9,5c0.6,2.1 1.1,4.2 1.4,6.3c3.2,6.1 15.2,6.4 15.2,6.4h-0.2c-1.5,0.1 -12.7,1.6 -14.6,5.6z" fill="#eac685"/><path d="M337.93333,163.61667c-1.9,-0.9 -3.8,-1.7 -5.7,-2.4c-1.6,2.7 -3.6,5.2 -5.7,7.5c1.1,1.7 2.5,3.2 4,4.6c-1.8,-1.2 -3.6,-2.3 -5.5,-3.2c-1.1,1.2 -2.3,2.1 -3.5,3.1c0.6,2.6 1.6,4.9 2.8,7.2c-1.6,-2 -3.3,-3.8 -5.1,-5.5c-1.7,1.2 -3.6,2.3 -5.5,3.2c0.7,3 2,5.8 3.6,8.4c0,0 -3.7,-4.4 -7.5,-6.8c-1.8,0.7 -3.6,1.2 -5.4,1.6c0,2.6 0.3,5.1 1,7.6c-1.1,-2.4 -2.4,-4.8 -3.9,-7c-1.4,0.3 -2.9,0.4 -4.3,0.5c-0.9,2.6 -1.3,5.4 -1.4,8.1c-0.4,-2.8 -1,-5.4 -1.8,-8.1c-1.9,0 -3.9,-0.2 -5.8,-0.5c-1.4,2.5 -2.5,5.2 -3.2,8.1c0.2,-2.9 0.1,-5.9 -0.3,-8.8c-1.6,-0.4 -3.1,-0.8 -4.7,-1.4c-3.8,3 -6.4,7.9 -6.4,7.9c1.1,-3.1 1.9,-6.4 2.3,-9.6c-1.6,-0.8 -3.2,-1.7 -4.7,-2.7c-2.3,1.5 -4.4,3.4 -6.2,5.5c1.4,-2.3 2.6,-4.8 3.6,-7.4c-1,-0.7 -1.9,-1.5 -2.8,-2.3c-5.7,-0.7 -12.8,4.6 -12.8,4.6c0,0 6.2,-6 7.5,-10.5c-1.7,-2.2 -3,-4.5 -4.2,-6.9c-2.9,0.1 -5.8,0.7 -8.5,1.7c2.5,-1.4 4.9,-3 7.1,-4.8c-0.8,-2.1 -1.5,-4.4 -2,-6.7c0,-0.2 0,-0.5 0.1,-0.8c-3.8,-3 -9.3,-4.3 -9.3,-4.3c0,0 5.7,0.6 10.3,-0.2c0.4,-1.3 0.8,-2.6 1.3,-3.8c-2.2,-2 -4.7,-3.7 -7.4,-5c2.9,0.9 5.9,1.4 8.9,1.7c0.7,-1.3 1.5,-2.7 2.3,-4c-2.4,-4.3 -7.1,-7.7 -7.1,-7.7c0,0 5.3,2.8 9.8,3.8c4.4,-5.4 10.1,-9.7 16.6,-12.4c0,-3.2 -0.6,-6.4 -1.6,-9.4c1.5,2.9 3.4,5.5 5.5,8c2.9,-0.9 5.9,-1.4 9,-1.7c4.4,-4.3 4.7,-13.9 4.7,-13.9c0,0 1.3,10.8 4.7,14.2c3.3,0.4 6.5,1.3 9.6,2.5c3.7,-3.1 6,-8.4 6,-8.4c0,0 -1.8,5.9 -1.7,10.4c5.7,3 10.5,7.3 14.3,12.4c5.5,0.2 11.8,-3.7 11.8,-3.7c0,0 -6.2,5 -8.3,9.3c0.3,0.5 0.5,1.1 0.8,1.6c4.7,1 9.9,0 9.9,0c-2.8,1 -5.6,2.3 -8.3,3.8c0.3,0.8 0.5,1.6 0.8,2.4c5,2.2 12.5,0.8 12.5,0.8c0,0 -8.6,2.9 -11.7,6.5c-0.8,3.3 -2,6.4 -3.6,9.3c1.3,1.6 2.9,3 5.1,3.6z" fill="#f2d39a"/></g><g fill-rule="nonzero"><g fill="#e7c684"><path d="M266.33333,145.31667c0,0.8 -0.7,1.5 -1.5,1.5c-0.8,0 -1.5,-0.7 -1.5,-1.5v-0.3c0,-0.8 0.6,-1.5 1.5,-1.5c0.9,0 1.5,0.7 1.5,1.5z"/><path d="M272.33333,144.41667c0.2,0.4 0.1,0.9 -0.1,1.2c-0.4,0.6 -1,0.8 -1.6,0.7c-0.3,0 -0.5,-0.1 -0.8,-0.2c-0.7,-0.4 -1,-1.4 -0.5,-2.1c0.4,-0.6 1.1,-1 1.8,-0.9c0.7,0.1 1.3,0.6 1.2,1.3z"/><path d="M267.63333,152.41667c-1.9,0 -1.9,-3.1 0,-3.1c2,0 1.9,3.1 0,3.1z"/><path d="M276.53333,152.21667c-1.9,0 -1.9,-3.1 0,-3.1c2,0 2,3 0,3.1z"/><path d="M312.83333,149.11667c-1.4,0 -1.4,-2.1 0,-2.1c1.4,0 1.4,2.2 0,2.1z"/><path d="M317.63333,146.01667c-1.9,0 -1.9,-3.1 0,-3.1c2,0 2,3.1 0,3.1z"/><path d="M326.83333,147.01667c-1.9,0 -1.9,-3.1 0,-3.1c2,0 2,3 0,3.1z"/><path d="M319.43333,150.61667c-1.4,0 -1.4,-2.1 0,-2.1c1.4,0 1.4,2.2 0,2.1z"/><path d="M295.43333,144.21667c-1.9,0 -1.9,-3.1 0,-3.1c1.9,0 1.9,3.1 0,3.1z"/></g><g><path d="M309.53333,124.41667c-0.1,-0.5 0.2,-1 0.7,-1.2c1.7,-0.7 3.7,0 5.1,1.2c1.1,0.8 -0.4,2.2 -1.4,1.4c-0.8,-0.7 -2,-1 -3.1,-0.6c-0.5,0.1 -1,-0.2 -1.3,-0.8z" fill="#d2ae69"/><g><path d="M306.53333,136.21667c-0.3,-2.9 1.7,-5.6 4.6,-5.9c2.9,-0.3 5.6,1.7 5.9,4.6c0.2,2 -0.7,3.8 -2.1,4.9c-0.7,-0.2 -1.5,-0.4 -2,-0.4c-1.4,-0.1 -2.7,0.2 -3.9,0.7c-1.4,-0.8 -2.4,-2.2 -2.5,-3.9z" fill="#ffffff"/><path d="M311.93333,138.01667c-0.5,0.1 -0.9,0 -1.3,-0.2c0.5,-0.4 0.9,-0.9 0.8,-1.6c-0.1,-0.9 -0.9,-1.5 -1.8,-1.4c-0.1,0 -0.1,0.1 -0.2,0.1c0.3,-0.9 1,-1.5 1.9,-1.6c1.3,-0.1 2.6,0.8 2.7,2.1c0.2,1.3 -0.7,2.5 -2.1,2.6z" fill="#737977"/></g></g><path d="M289.63333,150.91667c2.2,3.9 9.1,3.5 11,-0.4c0.5,-0.8 1.7,0 1.3,0.8c-2.3,4.9 -10.8,5.2 -13.5,0.4c-0.4,-0.8 0.8,-1.5 1.2,-0.8z" fill="#737977"/><g><path d="M274.23333,124.61667c1.5,-1.1 3.4,-1.6 5.3,-1.2c1.3,0.1 0.8,2.1 -0.5,1.9c0.5,0.1 -0.9,0 -1.2,0c-0.8,0 -1.5,0.2 -2.2,0.7c-1,0.9 -2.4,-0.5 -1.4,-1.4z" fill="#d2ae69"/><g><path d="M275.73333,140.21667c-1.4,-0.8 -2.4,-2.2 -2.6,-3.9c-0.3,-2.9 1.7,-5.6 4.6,-5.9c2.9,-0.3 5.6,1.7 5.9,4.6c0.3,1.9 -0.6,3.7 -2,4.8c-0.7,-0.3 -1.4,-0.4 -1.9,-0.4c-1.4,-0.1 -2.8,0.2 -4,0.8z" fill="#ffffff"/><path d="M278.33333,138.11667c-0.5,0 -0.9,0 -1.4,-0.3c0.5,-0.3 0.8,-0.9 0.7,-1.5c-0.1,-0.8 -0.9,-1.5 -1.7,-1.4c0.4,-0.9 1.1,-1.5 2,-1.6c1.3,-0.1 2.6,0.8 2.7,2.1c0.2,1.3 -0.8,2.5 -2.3,2.7z" fill="#737977"/></g></g><path d="M301.63333,159.71667c-5.7,3 -6.5,12.4 -6.5,12.4c0,0 -0.8,-10.7 -5,-12.1c0,0 3.4,1.2 5.6,1.2c2.7,0.1 5.9,-1.5 5.9,-1.5z" fill="#eac685"/></g><g fill-rule="nonzero"><path d="M175.18084,166.87252c-1.9043,-0.38086 -1.14258,-0.25391 -1.52344,-1.9043c-0.38086,-2.15821 -2.28516,-3.8086 -2.79297,-6.09376c-0.38086,-1.9043 -0.12695,-5.33204 0.88867,-6.98244c1.65039,-2.79297 3.04688,-4.95118 6.22072,-6.22072c2.41211,-0.88867 4.69727,-0.63477 7.10939,-1.01563c2.91993,-0.38086 5.20509,1.26953 7.87111,2.15821c3.17383,1.01563 6.72853,2.28516 10.02932,2.41211c0.88867,0 2.03125,0 2.91993,-0.38086c0.76172,-0.38086 1.26953,-1.14258 2.03125,-1.39649c2.41211,-0.76172 5.58595,0.50781 7.74416,-1.39649c2.15821,-1.9043 1.01563,-5.20509 3.8086,-6.47462c1.01563,-0.38086 1.9043,-0.50781 2.79297,-1.14258c1.14258,-0.76172 2.03125,-0.50781 3.42774,-1.01563c3.30079,-1.14258 5.20509,-0.12695 7.87111,1.65039c0.76172,0.50781 1.52344,1.26953 2.28516,1.52344c0.50781,0.25391 1.14258,0.25391 1.52344,0.38086c1.65039,0.76172 1.65039,0.76172 2.66602,4.69727c0.63477,2.53907 -0.12695,10.15627 -0.12695,10.15627z" fill="#120201"/><path d="M178.10077,169.28464c-1.9043,-0.38086 -1.14258,-0.25391 -1.52344,-1.9043c-0.38086,-2.15821 -1.9043,-2.03125 -2.28516,-4.31641c-0.38086,-1.9043 -2.15821,-5.07813 -1.14258,-6.85548c1.65039,-2.79297 2.53907,-6.72853 5.83986,-7.99806c2.41211,-0.88867 4.69727,-0.63477 7.10939,-1.01563c2.91993,-0.38086 5.20509,1.26953 7.87111,2.15821c3.17383,1.01563 6.72853,2.28516 10.02932,2.41211c0.88867,0 2.03125,0 2.91993,-0.38086c0.76172,-0.38086 1.26953,-1.14258 2.03125,-1.39649c2.41211,-0.76172 5.58595,0.50781 7.74416,-1.39649c2.15821,-1.9043 1.01563,-5.20509 3.8086,-6.47462c1.01563,-0.38086 1.9043,-0.50781 2.79297,-1.14258c1.14258,-0.76172 2.03125,-0.50781 3.42774,-1.01563c3.30079,-1.14258 5.20509,-0.12695 7.87111,1.65039c0.76172,0.50781 1.52344,1.26953 2.28516,1.52344c0.50781,0.25391 1.14258,0.25391 1.52344,0.38086c1.65039,0.76172 1.65039,0.76172 2.66602,4.69727c0.63477,2.53907 -0.12695,10.15627 -0.12695,10.15627z" fill="#e85f1a"/><path d="M215.80592,146.30608c0,-0.12695 2.53907,2.79297 3.68165,5.20509c0.25391,0.38086 1.14258,2.41211 1.26953,2.79297c0.63477,1.52344 1.26953,3.04688 1.9043,4.82423l-21.83598,3.68165c-0.38086,-1.26953 -0.76172,-2.53907 -1.14258,-3.8086c-0.25391,-0.88867 -0.50781,-1.65039 -0.88867,-2.53907c0,-0.12695 -0.12695,-0.12695 -0.12695,-0.25391v-0.12695v0c-0.12695,-0.38086 -0.38086,-0.76172 -0.50781,-1.14258c-0.88867,-2.03125 -1.9043,-4.82423 -3.17383,-7.23634c2.66602,0.76172 5.45899,1.65039 8.12502,1.77735c0.88867,0 2.03125,0 2.91993,-0.38086c0.76172,-0.38086 1.26953,-1.14258 2.03125,-1.39649c2.53907,-0.76172 5.7129,0.50781 7.74416,-1.39649c0,-0.12695 0,-0.12695 0,0z" fill="#fcc3ac"/><path d="M200.82542,153.41546l2.15821,8.88674l-28.05669,4.69727c-0.12695,-0.12695 -0.25391,-0.12695 -0.38086,-0.12695c-0.12695,0 -0.12695,0 -0.12695,0c-0.25391,0 -0.38086,-0.12695 -0.50781,-0.12695v0c0,-0.12695 -0.12695,-0.12695 -0.12695,-0.12695v0c-0.12695,0 -0.12695,-0.12695 -0.12695,-0.12695v0v-0.12695v0v-0.12695c0,-0.12695 0,-0.12695 0,-0.25391v0c1.52344,-1.14258 3.04688,-2.03125 4.57032,-3.04688c-1.14258,-1.9043 -2.53907,-3.55469 -4.18946,-5.07813c-1.01563,-1.01563 -2.03125,-2.28516 -3.17383,-3.30079c0.12695,-0.50781 0.25391,-1.01563 0.38086,-1.39649c1.39649,1.14258 2.53907,2.53907 3.8086,3.68165c1.65039,1.52344 3.17383,3.30079 4.31641,5.33204c0.76172,-0.50781 1.52344,-1.01563 2.28516,-1.39649c-1.77735,-4.57032 -4.18946,-8.88674 -7.10939,-12.82229c0.25391,-0.38086 0.50781,-0.63477 0.88867,-0.88867c3.04688,4.06251 5.45899,8.37892 7.3633,13.0762c0.25391,-0.12695 0.50781,-0.25391 0.76172,-0.38086c0.76172,-0.50781 1.65039,-0.88867 2.41211,-1.26953c-1.26953,-4.69727 -2.79297,-9.39455 -5.33204,-13.45706c0.50781,-0.12695 0.88867,-0.12695 1.39649,-0.12695c2.41211,4.06251 3.8086,8.50588 5.07813,13.0762c1.77735,-0.76172 3.42774,-1.52344 5.20509,-2.15821c-1.01563,-3.93555 -2.66602,-7.6172 -4.95118,-11.04494c0.63477,0.12695 1.26953,0.25391 1.9043,0.50781c1.9043,3.17383 3.30079,6.47462 4.31641,10.02932c0.38086,-0.12695 7.10939,-1.9043 7.23634,-1.9043z" fill="#f47621"/><path d="M216.69459,160.01704l-4.31641,0.50781l-2.79297,0.50781l-4.69727,0.76172l-1.65039,0.25391l-2.15821,-8.88674c0,0 -1.14258,-3.04688 -1.77735,-4.57032c0.50781,0.12695 0.88867,0.12695 1.26953,0.25391c0.63477,1.39649 1.14258,2.66602 1.65039,4.06251c1.65039,-0.38086 3.30079,-0.63477 4.95118,-0.88867c-0.38086,-1.01563 -0.76172,-2.15821 -1.14258,-3.17383v0c0.25391,-0.12695 0.50781,-0.25391 0.76172,-0.50781c0.38086,1.26953 0.88867,2.41211 1.26953,3.68165c0.12695,0 0.12695,0 0.25391,0c1.77735,-0.25391 3.42774,-0.38086 5.07813,-0.50781c-0.38086,-1.39649 -0.88867,-2.79297 -1.39649,-4.18946c0.25391,0 0.63477,0 1.01563,0c0.50781,1.39649 1.01563,2.79297 1.39649,4.18946z" fill="#ffffff"/><path d="M240.30792,155.31977v0c0,0.12695 0,0.25391 0,0.38086v0c0,0.12695 -23.48637,4.31641 -23.48637,4.31641l-2.28516,-8.63283c0.38086,0 6.72853,0 7.10939,0c-0.88867,-3.42774 -2.28516,-6.60158 -3.8086,-9.77541c0.25391,-0.50781 0.50781,-0.88867 0.88867,-1.26953c1.9043,3.55469 3.30079,7.23634 4.31641,11.04494c1.01563,0 2.03125,0.12695 3.04688,0.25391c-0.12695,-4.69727 -0.88867,-9.2676 -2.66602,-13.58401c0.38086,-0.12695 0.88867,-0.12695 1.26953,-0.25391c1.77735,4.44337 2.53907,9.2676 2.66602,14.09182c1.14258,0.12695 2.41211,0.38086 3.55469,0.63477c0.25391,-5.20509 -0.25391,-10.53713 -2.03125,-15.48831c0.50781,0 0.88867,0.12695 1.39649,0.25391c1.65039,5.07813 2.03125,10.28322 1.9043,15.61526c1.14258,0.25391 2.28516,0.50781 3.42774,0.88867c0.25391,-4.69727 0,-9.5215 -1.14258,-14.09182c0.50781,0.38086 1.01563,0.76172 1.52344,1.01563c1.01563,4.31641 1.14258,8.88674 0.88867,13.45706c1.14258,0.38086 2.28516,0.76172 3.42774,1.14258z" fill="#f47621"/></g><g fill-rule="nonzero"><path d="M214.66334,193.91359c-0.76172,1.26953 -8.25197,5.45899 -10.66408,6.60158c-1.26953,0.50781 -2.53907,1.01563 -3.93555,1.52344c-0.88867,0.38086 -1.52344,0.76172 -2.03125,1.01563c-2.66602,1.26953 -5.83986,2.28516 -8.75978,3.04688c-1.9043,0.50781 -2.53907,-0.63477 -4.95118,-1.39649c-2.41211,-0.76172 -4.31641,0.88867 -6.85548,0.38086c-0.88867,-0.25391 -1.9043,-0.50781 -2.41211,-1.39649c-0.25391,-0.38086 -0.50781,-1.26953 -0.76172,-1.52344c-0.76172,-0.63477 -1.26953,0.12695 -2.15821,-0.25391c-0.76172,-0.25391 -1.39649,-1.14258 -1.65039,-1.9043c-0.25391,-1.26953 -0.38086,-1.9043 -0.38086,-2.91993c-0.12695,-1.39649 -1.01563,-2.53907 -0.38086,-4.06251c0.63477,-1.65039 2.91993,-2.41211 4.31641,-2.91993c0.50781,-0.25391 1.14258,-0.50781 1.77735,-0.63477c1.14258,-1.01563 3.04688,-1.65039 4.06251,-2.03125c2.03125,-0.88867 4.44337,-1.26953 6.47462,-2.15821z" fill="#000600"/><path d="M214.53639,193.65968c-0.76172,1.26953 -8.25197,5.45899 -10.66408,6.60158c-2.66602,1.26953 -5.83986,2.28516 -8.75978,3.04688c-1.9043,0.50781 -4.18946,0.88867 -4.95118,-1.39649c-2.41211,-0.12695 -4.82423,0.88867 -7.3633,0.38086c-0.88867,-0.25391 -1.9043,-0.50781 -2.41211,-1.39649c-0.25391,-0.38086 0,-1.26953 -0.25391,-1.52344c-0.63477,-0.76172 -2.28516,0.12695 -3.17383,-0.25391c-0.76172,-0.25391 -1.39649,-1.14258 -1.65039,-1.9043c-0.25391,-1.14258 0.63477,-1.9043 0.63477,-2.91993c-0.12695,-1.39649 -1.52344,-2.41211 -0.88867,-3.93555c0.63477,-1.52344 3.42774,-2.41211 4.82423,-2.91993c2.03125,-0.88867 4.44337,-1.26953 6.47462,-2.15821z" fill="#e85f1a"/><path d="M186.22578,185.66162l28.05669,8.37892c-0.38086,0.76172 -4.18946,3.04688 -6.98244,4.69727c-2.66602,-0.63477 -8.12502,-2.41211 -8.12502,-2.41211c-3.42774,3.8086 -7.3633,7.10939 -11.67971,9.90236c-0.38086,-0.12695 -0.88867,-0.38086 -1.39649,-0.63477c4.31641,-2.66602 8.12502,-5.96681 11.67971,-9.64846c-1.52344,-0.38086 -3.04688,-0.76172 -4.57032,-1.14258c-2.41211,2.03125 -4.82423,4.06251 -7.3633,5.83986c-2.03125,1.52344 -4.18946,3.04688 -6.47462,4.44337c-0.76172,0.12695 -1.39649,0.12695 -2.15821,0c-0.12695,-0.12695 -0.25391,-0.12695 -0.38086,-0.12695c2.91993,-1.65039 5.7129,-3.68165 8.25197,-5.45899c2.28516,-1.65039 4.44337,-3.42774 6.47462,-5.20509c-1.01563,-0.25391 -2.15821,-0.63477 -3.30079,-0.88867c-5.45899,3.30079 -11.29885,5.83986 -17.39261,7.6172c-0.25391,-0.25391 -0.38086,-0.63477 -0.50781,-1.01563c0,-0.12695 0,-0.12695 0,-0.12695c5.7129,-1.65039 11.1719,-3.93555 16.25003,-6.85548c-1.52344,-0.50781 -3.17383,-0.88867 -4.69727,-1.39649c-3.93555,1.39649 -8.25197,2.03125 -12.44143,2.53907c0,-0.38086 0.12695,-0.76172 0.25391,-1.14258c0,-0.12695 0.12695,-0.12695 0.12695,-0.25391c3.30079,-0.50781 6.60158,-1.01563 9.77541,-1.9043c-1.39649,-0.38086 -2.91993,-0.76172 -4.31641,-1.26953c0.12695,0 0.25391,-0.12695 0.38086,-0.12695c1.14258,-1.01563 4.06251,-2.03125 4.06251,-2.03125c0,0 4.57032,-1.39649 6.47462,-1.77735z" fill="#f47621"/></g><g><path d="M249.95638,195.05617c-0.88867,1.14258 -1.52344,2.53907 -2.41211,3.8086c-1.52344,2.03125 -3.17383,4.06251 -4.82423,5.96681c-1.39649,1.65039 -2.79297,3.30079 -4.31641,4.95118c-2.28516,2.79297 -4.69727,5.83986 -7.74416,7.99806c-3.17383,2.28516 -1.39649,-1.01563 -1.9043,-2.15821c-1.39649,0.50781 -2.03125,1.77735 -3.68165,0.63477c-1.01563,-0.63477 -1.39649,-1.77735 -1.39649,-2.91993c0,-1.14258 0.38086,-1.52344 0.12695,-2.41211c-0.25391,-1.14258 -0.76172,-1.26953 0,-2.53907c0.38086,-0.63477 0.50781,-2.03125 0.38086,-2.41211c-0.38086,-1.39649 0.63477,-2.79297 1.65039,-3.8086c1.52344,-1.65039 0,-2.79297 2.41211,-3.68165c0.25391,-0.12695 0.63477,-0.12695 0.88867,-0.25391c0.63477,-1.26953 0.63477,-2.53907 1.77735,-3.42774c0.38086,-0.25391 0.63477,-0.38086 0.88867,-0.50781c1.39649,-0.50781 3.04688,-0.63477 4.44337,-1.01563z" fill="#000600" fill-rule="nonzero"/><path d="M250.59114,195.05617c-0.88867,1.14258 -1.52344,2.53907 -2.41211,3.8086c-1.52344,2.03125 -3.17383,4.06251 -4.82423,5.96681c-2.66602,3.04688 -5.20509,6.47462 -8.50588,8.75978c-3.17383,2.28516 -3.93555,-0.38086 -5.58595,-1.52344c-1.01563,-0.63477 -1.39649,-1.77735 -1.39649,-2.91993c0,-1.14258 0.38086,-1.52344 0.12695,-2.41211c-0.25391,-1.14258 -0.76172,-1.26953 0,-2.53907c0.25391,-0.63477 0.50781,-0.38086 0.63477,-1.14258c0.12695,-0.50781 -0.12695,-0.88867 -0.25391,-1.26953c-0.38086,-1.39649 -0.38086,-1.65039 0.63477,-2.66602c1.52344,-1.65039 1.01563,-3.93555 3.42774,-4.82423c1.39649,-0.50781 3.04688,-0.63477 4.44337,-1.01563z" fill="#e85f1a" fill-rule="nonzero"/><path d="M242.46613,194.80226c0,0.25391 -0.12695,0.50781 -0.12695,0.76172c0.12695,0.12695 0.12695,0.38086 -0.12695,0.63477v0c-1.9043,7.99806 -6.09376,15.48831 -11.67971,21.70903c-1.52344,1.01563 -1.77735,0.76172 -1.77735,0c4.95118,-5.33204 8.88674,-11.67971 11.1719,-18.53519c-3.93555,6.34767 -9.14064,12.31448 -14.9805,16.8848c-0.38086,-0.25391 -0.63477,-0.63477 -0.88867,-1.01563c5.20509,-4.06251 9.77541,-9.14064 13.45706,-14.72659c-1.65039,1.39649 -3.42774,2.79297 -5.20509,4.18946c-2.66602,1.9043 -5.58595,4.31641 -8.88674,5.45899c-0.12695,-0.50781 -0.25391,-0.76172 0,-1.39649c3.55469,-1.39649 6.85548,-4.18946 9.64846,-6.34767c2.41211,-1.9043 4.82423,-3.93555 6.98244,-6.09376c0.38086,-0.76172 0.63477,-1.39649 1.01563,-2.03125c0.12695,-0.12695 0.12695,-0.25391 0.12695,-0.38086l1.39649,0.12695c-0.12695,0.25391 -0.25391,0.50781 -0.12695,0.76172z" fill="#f47621" fill-rule="nonzero"/><path d="M246.14777,199.24563c-0.88867,1.14258 -1.52344,2.53907 -2.41211,3.8086c-1.52344,2.03125 -3.17383,4.06251 -4.82423,5.96681c-2.66602,3.04688 -5.20509,6.47462 -8.50588,8.75978c-3.17383,2.28516 -1.39649,-1.01563 -1.9043,-2.15821c-1.39649,0.50781 -2.03125,1.77735 -3.68165,0.63477c-1.01563,-0.63477 -1.39649,-1.77735 -1.39649,-2.91993c0,-1.14258 0.38086,-1.52344 0.12695,-2.41211c-0.25391,-1.14258 -0.76172,-1.26953 0,-2.53907c0.38086,-0.63477 0.50781,-2.03125 0.38086,-2.41211c-0.38086,-1.39649 0.63477,-2.79297 1.65039,-3.8086c1.52344,-1.65039 0,-2.79297 2.41211,-3.68165c1.39649,-0.50781 3.04688,-0.63477 4.44337,-1.01563z" fill="none" fill-rule="evenodd"/></g><g fill-rule="nonzero"><path d="M168.65102,170.93503c4.44337,-4.18946 10.66408,-8.12502 16.12308,-11.1719c8.12502,-4.57032 15.61526,-6.60158 24.75591,-7.74416c17.64652,-2.28516 33.51569,1.65039 48.24228,11.93362c7.3633,5.07813 15.36136,9.01369 19.16996,17.26566c1.26953,1.52344 -5.20509,4.44337 -9.14064,4.69727c3.68165,3.68165 10.15627,-1.52344 9.2676,0.12695c-1.26953,2.79297 -5.45899,6.22072 -6.72853,6.85548c-11.04494,6.09376 -26.02544,12.06057 -38.72078,10.02932c-17.39261,-2.79297 -35.16608,-6.60158 -52.17784,-11.55276c-2.41211,-0.63477 -8.12502,-2.41211 -8.12502,-2.41211c-3.04688,-1.65039 -2.03125,-3.55469 -4.18946,-5.83986z" fill="#f47621"/><path d="M257.51838,198.86477c-1.9043,0.76172 -3.8086,1.39649 -5.7129,2.03125c-10.28322,-4.69727 -17.64652,-20.31254 -17.01175,-31.23053c0.25391,-5.33204 3.17383,-9.77541 6.34767,-13.96487c0.12695,-0.12695 0.25391,-0.25391 0.38086,-0.38086c3.8086,1.39649 7.6172,3.30079 11.29885,5.45899c-5.20509,6.60158 -9.64846,15.2344 -7.3633,23.48637c1.39649,4.95118 5.20509,8.88674 8.75978,12.31448c0.88867,0.76172 2.28516,1.65039 3.30079,2.28516z" fill="#ffffff"/><path d="M219.68627,151.51116c0.25391,0.38086 14.85354,34.15046 1.9043,47.98837c-0.63477,0.63477 -1.39649,1.14258 -2.03125,1.52344c-4.57032,-0.88867 -9.14064,-1.77735 -13.71096,-2.79297c0.63477,-6.85548 -0.76172,-14.85354 -1.26953,-19.93168c-0.76172,-8.25197 -3.04688,-16.50394 -6.34767,-24.12114c0,0 4.06251,-1.39649 10.41018,-2.15821c3.8086,-0.50781 7.49025,-0.76172 11.04494,-0.50781z" fill="#ffffff"/><g><path d="M252.94806,178.17137c-0.12695,-2.79297 1.9043,-5.83986 6.85548,-5.20509c3.17383,0.38086 4.95118,2.03125 5.07813,3.93555c0.25391,2.41211 -2.41211,5.33204 -5.58595,5.58595c-3.30079,0.25391 -6.34767,-2.28516 -6.34767,-4.31641z" fill="#ffffff"/><path d="M257.39143,178.29833c0.88867,-0.50781 0.63477,-2.28516 -0.63477,-2.79297c0.25391,-0.25391 0.63477,-0.25391 1.01563,-0.38086c3.8086,-1.01563 4.95118,2.91993 2.53907,4.57032c-1.77735,1.14258 -3.68165,0.12695 -3.8086,-1.01563c0.25391,0 0.63477,-0.12695 0.88867,-0.38086z" fill="#000600"/><path d="M250.6629,170.55417c2.66602,-2.91993 7.10939,-3.30079 10.79104,-2.28516c1.01563,0.25391 0.63477,1.9043 -0.50781,1.65039c-3.04688,-0.88867 -6.72853,-0.63477 -9.01369,1.9043c-0.63477,0.88867 -1.9043,-0.38086 -1.26953,-1.26953z" fill="#e85f1a"/></g></g><g fill-rule="nonzero"><path d="M236.49932,192.2632c0,0.12695 -9.14064,4.06251 -11.29885,4.18946c-4.06251,0.25391 -6.34767,-1.01563 -8.88674,-3.8086c-0.50781,-0.50781 -1.52344,-0.76172 -2.03125,-1.39649c-0.63477,-0.88867 -1.26953,-1.77735 -1.39649,-2.79297c-0.12695,-1.65039 -0.63477,-2.91993 -1.39649,-4.31641c-0.88867,-1.65039 -0.88867,-3.55469 -1.01563,-5.45899c-0.12695,-1.9043 1.01563,-2.79297 2.15821,-4.31641c0.76172,-0.88867 1.52344,-2.28516 2.66602,-2.66602c0.63477,-0.25391 1.52344,0 2.28516,-0.12695c0.76172,-0.12695 1.39649,-0.76172 2.28516,-0.63477c1.39649,0.25391 2.66602,2.28516 3.55469,3.17383c2.03125,2.03125 4.06251,4.06251 5.96681,6.09376c1.9043,2.03125 4.57032,4.18946 7.10939,5.20509z" fill="#f47621"/><path d="M237.26104,192.89796v0v0c-1.39649,1.01563 -3.55469,1.65039 -5.20509,2.28516c-2.41211,0.88867 -4.82423,2.03125 -7.3633,2.15821c-3.8086,0.12695 -5.96681,-1.65039 -8.75978,-3.8086c-3.17383,-2.41211 -3.30079,-4.18946 -4.69727,-7.99806c-1.39649,-3.68165 -2.66602,-7.10939 -0.25391,-10.53713c2.15821,-3.04688 3.8086,-4.18946 7.49025,-4.57032c3.30079,-0.25391 4.44337,2.03125 6.60158,4.31641c3.68165,3.68165 7.10939,7.87111 11.93362,10.15627c0.25391,0.12695 0.38086,0.50781 0.38086,0.76172c0,2.15821 0,4.31641 0,6.47462c0.12695,0.25391 0.12695,0.50781 -0.12695,0.76172zM223.16921,187.69287c3.68165,1.39649 7.6172,2.28516 11.67971,2.66602c0.25391,-0.12695 0.38086,-0.12695 0.63477,-0.25391c-8.75978,-2.03125 -17.26566,-6.85548 -23.23247,-13.3301c-0.63477,1.26953 -0.63477,2.66602 -0.50781,3.93555c3.30079,3.17383 7.74416,5.45899 11.4258,6.98244zM218.97975,172.20456c1.65039,2.41211 3.68165,4.69727 5.58595,6.47462c1.9043,1.77735 3.93555,3.04688 6.09376,3.93555v0c-2.91993,-2.53907 -5.83986,-5.58595 -8.37892,-8.50588c-1.01563,-1.01563 -2.15821,-1.65039 -3.30079,-1.9043zM213.26685,174.99754c0,0.12695 -0.12695,0.12695 -0.12695,0.25391c5.83986,6.34767 14.09182,11.29885 22.72465,13.20315c0,-0.50781 0,-1.01563 -0.12695,-1.39649c-4.31641,-1.26953 -8.50588,-3.42774 -11.93362,-6.60158c-2.28516,-2.15821 -4.82423,-5.07813 -6.85548,-7.99806c-1.39649,0.38086 -2.66602,1.14258 -3.68165,2.53907zM215.93287,191.37452c0.25391,0.25391 0.63477,0.38086 0.88867,0.63477c0.38086,0.25391 0.63477,0.50781 0.88867,0.76172c3.17383,0.12695 6.22072,0 9.01369,-0.38086c1.39649,-0.12695 2.66602,-0.50781 4.06251,-0.88867c-3.55469,-0.63477 -7.10939,-1.65039 -10.28322,-3.17383c-2.66602,-1.14258 -5.58595,-2.79297 -8.12502,-4.82423c0.38086,1.14258 0.88867,2.41211 1.26953,3.68165c0.76172,2.28516 0.63477,2.66602 2.28516,4.18946zM235.22978,192.13624h-0.12695c-2.41211,0.88867 -4.95118,1.65039 -7.3633,2.03125c-2.53907,0.38086 -5.20509,0.38086 -7.87111,0.25391c0.88867,0.50781 1.9043,1.01563 3.17383,1.14258c2.53907,0.38086 4.82423,-0.63477 7.23634,-1.52344c1.39649,-0.50781 3.42774,-1.01563 4.95118,-1.9043z" fill="#e85f1a"/></g><g fill-rule="nonzero"><path d="M171.11833,188.96241l-5.20509,-0.50781v0.12695c-4.31641,1.77735 -8.63283,2.41211 -12.56838,2.28516c-1.77735,0 -2.66602,0.63477 -3.93555,0c-0.12695,0 -0.38086,0.12695 -0.63477,0.12695c-1.39649,0.25391 -1.9043,0 -3.17383,-0.50781c-1.39649,-0.63477 -3.8086,-0.25391 -4.82423,-1.65039c-1.39649,-1.77735 -1.14258,-0.76172 -2.79297,-3.04688c-1.01563,-1.39649 -1.9043,-4.57032 -1.77735,-5.07813c0.25391,-1.9043 0.12695,-1.77735 -1.01563,-3.68165c-0.63477,-1.01563 -0.12695,-1.65039 -0.50781,-2.91993c-0.38086,-1.26953 1.14258,-2.79297 1.14258,-4.44337c0,-1.65039 0,-3.42774 0.63477,-4.44337c0.88867,-1.26953 2.91993,-1.77735 3.68165,-3.30079c1.39649,-2.66602 3.17383,-3.30079 5.96681,-2.53907c1.14258,0.25391 2.66602,0.25391 3.68165,-0.12695c1.26953,-0.50781 2.28516,-0.12695 3.42774,0.63477c0.38086,0.25391 0.76172,0.38086 1.01563,0.63477c4.95118,0 14.72659,5.07813 16.37698,4.82423c0,0 3.42774,1.14258 5.20509,-0.25391c3.42774,21.20121 -4.69727,23.99419 -4.69727,23.86723z" fill="#e85f1a"/><path d="M177.466,177.40965c0,9.77541 -6.09376,11.55276 -6.09376,11.55276c-0.12695,0.12695 -0.25391,0.12695 -0.25391,0.12695l-5.20509,-0.50781v0.12695c-2.28516,1.01563 -4.57032,1.52344 -6.85548,1.9043c7.23634,-8.12502 9.64846,-18.53519 0.50781,-28.94537c4.82423,1.65039 9.90236,3.93555 11.04494,3.68165c0,0 2.53907,0.76172 3.55469,0.38086c0,0 0.88867,-0.76172 1.01563,-0.76172c0,0 2.28516,2.66602 2.28516,12.44143z" fill="#120201"/><path d="M169.34099,188.7085l-3.17383,-0.38086v0.12695c-2.41211,1.01563 -4.82423,1.52344 -7.10939,1.9043c1.01563,-1.26953 1.77735,-2.53907 2.53907,-3.93555c-4.95118,1.77735 -10.15627,3.17383 -15.2344,4.18946c-0.12695,-0.12695 -0.25391,-0.12695 -0.50781,-0.25391c-0.76172,-0.25391 -1.9043,-0.25391 -2.91993,-0.50781c3.17383,-0.63477 6.34767,-1.52344 9.39455,-2.28516c3.42774,-0.88867 6.85548,-1.9043 10.15627,-3.04688c0.38086,-1.01563 0.76172,-2.03125 1.01563,-3.17383c-3.8086,0.88867 -7.49025,1.52344 -11.29885,2.03125c-4.82423,0.63477 -9.64846,1.26953 -14.59964,1.26953c-0.12695,-0.38086 -0.38086,-0.88867 -0.50781,-1.26953c5.33204,0 10.79104,-0.63477 15.99612,-1.39649c3.55469,-0.50781 7.10939,-1.14258 10.66408,-1.9043c0.12695,-0.88867 0.25391,-1.77735 0.25391,-2.66602c-9.01369,1.39649 -18.28129,2.28516 -27.42193,2.28516c0,-0.50781 -0.12695,-0.76172 -0.38086,-1.26953c9.2676,0 18.66215,-0.88867 27.80279,-2.28516c0,-0.63477 -0.12695,-1.26953 -0.12695,-1.9043c-9.64846,0.88867 -19.29691,0.25391 -28.94537,-0.63477c0,-0.38086 0.25391,-0.88867 0.38086,-1.26953c9.5215,0.88867 19.04301,1.39649 28.43756,0.50781c-0.12695,-0.50781 -0.12695,-0.88867 -0.25391,-1.39649c-4.82423,0 -9.77541,-0.38086 -14.59964,-1.26953c-4.18946,-0.63477 -8.12502,-1.9043 -12.06057,-3.17383c-0.25391,0 -0.38086,-0.12695 -0.63477,-0.12695c0,-0.38086 0.12695,-0.76172 0.25391,-1.14258c1.39649,0.38086 2.79297,0.76172 4.06251,1.14258c3.17383,1.01563 6.60158,1.77735 10.02932,2.28516c4.18946,0.63477 8.37892,1.01563 12.56838,1.01563c-0.12695,-0.38086 -0.12695,-0.63477 -0.25391,-0.88867c-3.68165,-1.01563 -7.23634,-2.41211 -10.79104,-4.06251c-3.30079,-1.52344 -7.3633,-2.91993 -10.41018,-5.33204c0.38086,-0.38086 0.76172,-0.63477 1.14258,-0.76172c3.04688,2.15821 6.98244,3.55469 9.90236,4.95118c3.17383,1.39649 6.34767,2.66602 9.64846,3.68165c-0.76172,-2.03125 -1.65039,-4.06251 -2.79297,-6.22072c4.69727,1.39649 11.04494,3.68165 11.04494,3.68165c0,0 1.65039,0.50781 3.17383,0.50781c2.03125,6.47462 2.79297,14.09182 0.38086,18.91605c-1.14258,2.15821 -2.91993,3.42774 -4.82423,4.06251z" fill="#ffffff"/><path d="M149.40931,190.86671c-0.12695,0 -0.38086,0.12695 -0.63477,0.12695c-1.39649,0.25391 -1.9043,0 -3.17383,-0.50781c-1.39649,-0.63477 -3.8086,-0.25391 -4.82423,-1.65039c-1.39649,-1.77735 -1.14258,-0.76172 -2.79297,-3.04688c-1.01563,-1.39649 -1.9043,-4.57032 -1.77735,-5.07813c0.25391,-1.9043 0.12695,-1.77735 -1.01563,-3.68165c-0.63477,-1.01563 -0.12695,-1.65039 -0.50781,-2.91993c-0.38086,-1.26953 1.14258,-2.79297 1.14258,-4.44337c0,-1.65039 0,-3.42774 0.76172,-4.44337c0.88867,-1.26953 2.91993,-1.77735 3.68165,-3.30079c1.39649,-2.66602 3.17383,-3.30079 5.96681,-2.53907c1.14258,0.25391 2.66602,0.25391 3.68165,-0.12695c1.26953,-0.50781 2.28516,-0.12695 3.42774,0.63477c0.38086,0.25391 0.76172,0.38086 1.01563,0.63477v0c-1.01563,0 -1.77735,0.12695 -2.28516,0.63477c0.38086,2.03125 -4.82423,0.50781 -6.22072,1.52344c-0.50781,0.38086 0,1.14258 -0.38086,1.39649c0,0 -1.14258,0.38086 -1.65039,0.76172c-0.88867,0.63477 -1.65039,0.88867 -2.28516,1.65039c-0.63477,0.88867 -1.14258,2.03125 -1.77735,3.04688c-0.50781,0.76172 0.25391,4.18946 -0.25391,5.33204c-1.26953,3.17383 -0.12695,2.66602 1.01563,4.57032c1.14258,2.03125 0.63477,3.93555 2.91993,5.20509c0.76172,0.38086 1.39649,0.50781 2.15821,1.14258c0.88867,0.63477 0.38086,1.52344 0.76172,2.28516c0.50781,1.01563 1.26953,1.26953 2.15821,2.03125c0.38086,0.25391 0.63477,0.50781 0.88867,0.76172z" fill="#120201"/></g><g fill-rule="nonzero"><g><path d="M180.56667,224.78333c7.4,4.3 16.1,6.1 24.2,7.9c-3.6,5.2 -12.8,6.1 -18.6,6.7c-9.5,1 -20.4,-2 -27,-8.8c-2,-2 -5.8,-6.5 -3.7,-9.7c1.5,-2.2 6,-1.6 7.9,-2.7z" fill="#86d0fd"/><path d="M163.36667,218.18333l13.9,5.3c0,0 6.4,2.9 7.3,3.3c0,0 1.5,0.7 2.3,1h0.1c3.3,1.3 6.7,2.3 10.1,3.1v0c2.6,0.7 5.2,1.2 7.8,1.8c-0.2,0.3 -1.5,1.7 -1.5,1.7c-2.4,0.1 -5,0.2 -7.5,0.1c-0.6,0.6 -3.1,3.3 -3.8,4.1c-0.7,0.1 -1.5,0.2 -2.2,0.3c1.5,-1.4 3,-3.1 4.2,-4.5c-0.8,-0.1 -1.7,-0.1 -2.5,-0.2c-1.7,-0.2 -3.7,-0.3 -5.8,-0.5c-0.1,0.1 -4.4,4.1 -6.7,5.6c-0.8,-0.1 -1.6,-0.2 -2.3,-0.3c1.8,-1 3.4,-2.5 4.9,-3.7c0.8,-0.6 1.5,-1.2 2.2,-1.8c-2.2,-0.3 -4.3,-0.8 -5.9,-1.7c-0.1,0 -0.1,0 -0.1,0c-0.1,0.1 -5,3.9 -7.8,5.5c-0.7,-0.2 -1.3,-0.4 -1.9,-0.7c1.2,-0.7 2.3,-1.5 3.4,-2.2c1.6,-1.1 3.2,-2.2 4.8,-3.3c-2.1,-1.2 -4,-2.2 -5.9,-3.2c-0.9,0.6 -1.8,1.1 -2.8,1.7c-1.9,1.1 -3.9,2.3 -6,3.1c-0.4,-0.3 -0.8,-0.6 -1.2,-1c3,-0.9 5.9,-2.8 8.4,-4.4c0.1,0 0.1,-0.1 0.2,-0.1c-1.8,-1 -3.6,-2 -5.6,-3.2c-0.2,0.1 -5,2.2 -7.3,2.8c-0.3,-0.4 -0.5,-0.9 -0.7,-1.3c2.2,-0.5 4.4,-1.4 6.5,-2.4c-0.2,-0.2 -3.1,-2.5 -4.3,-3.6c0.2,-0.1 0.5,-0.1 0.7,-0.2c0,0 4.8,-1 5,-1.1z" fill="#194ec2" opacity="0.2"/></g><g><path d="M155.06667,203.38333c-6.1,1.4 0.3,-8.7 1.1,-10.3c2.1,-4.2 4.1,-9.7 7.8,-12.7c4.2,-3.4 10.6,-4.6 15.7,-5.8c7,-1.8 15.2,-3.1 22.5,-2.2c4.4,0.5 9.1,1.8 13.2,3.5c1.6,0.7 9.6,5.7 9.2,8.2c-0.4,2.7 -8.8,0.1 -10.3,0.2c-7.8,0.5 -16,0.6 -23.4,3.4c-6.2,2.4 -11,6.6 -16.5,10.2c-3.8,2.4 -7.4,3.9 -11.5,5.6h-7.8z" fill="#d8d213"/><g fill="#194ec2" opacity="0.2"><path d="M224.56667,183.58333c0,0.2 0,0.3 0.2,0.7c-0.4,2.7 -8.8,0.1 -10.3,0.2c-7.8,0.5 -16,0.6 -23.4,3.4c-6.2,2.4 -11,6.7 -16.5,10.2c-3.8,2.5 -7.4,3.9 -11.5,5.6h-7.9c-0.2,0 -0.4,0.1 -0.6,0.1v0c-0.2,0 -0.4,0 -0.5,0c1.2,-0.7 2.4,-1.5 3.3,-2.2c1.8,-1.3 3.3,-3 4.8,-4.8c-2.1,-1 -4.4,-1.7 -6.6,-2.2c0.3,-0.6 0.6,-1.1 0.7,-1.3c2.3,0.6 4.6,1.3 6.8,2.3c0.8,-1.1 1.6,-2.1 2.5,-3.1c0.6,-0.7 1.2,-1.4 1.9,-2c-1.9,-1.4 -3.7,-2.6 -5.7,-3.8c-0.6,-0.3 -1.3,-0.7 -1.9,-1c0.2,-0.4 0.5,-0.8 0.7,-1.2c0.7,0.3 1.3,0.6 1.9,1c2.1,1.2 4,2.6 6,4c1.1,-0.9 2.3,-1.8 3.5,-2.6c-1.2,-1.6 -2.4,-3.1 -3.7,-4.6c-0.8,-1 -1.7,-2 -2.6,-3c0.4,-0.3 0.8,-0.5 1.2,-0.7c0.6,0.7 1.1,1.4 1.7,2c1.6,1.8 3.1,3.6 4.5,5.5c0.7,-0.4 1.5,-0.8 2.2,-1.2c1.2,-0.5 2.4,-1.1 3.6,-1.7c-1.4,-2.5 -2.9,-5 -4.7,-7.2v0c0.5,-0.2 1,-0.3 1.5,-0.4c0.1,0.3 0.3,0.5 0.5,0.7c1.5,2 2.8,4.1 4,6.3c2.2,-1.1 4.6,-2 6.8,-2.6c0.3,-0.1 0.5,-0.1 0.8,-0.2c-1.2,-2 -2.5,-4 -4,-5.9c0,-0.1 -0.1,-0.1 -0.1,-0.2c0.5,-0.1 1,-0.2 1.5,-0.3c0.2,0.2 0.4,0.4 0.6,0.7c1.3,1.7 2.5,3.5 3.5,5.3c2.9,-0.7 5.7,-1.2 8.6,-1.4c-1.3,-2 -2.6,-3.9 -4.1,-5.7l-0.1,-0.1c0.6,0 1.1,-0.1 1.7,-0.1c1.5,1.8 2.8,3.8 4.1,5.8c1.8,-0.1 3.5,-0.1 5.3,0c-0.8,-2.1 -1.5,-3.8 -2.6,-5.6c0.6,0 1.2,0.1 1.8,0.2c0.9,1.7 1.5,3.4 2.3,5.5c1.9,0.2 3.9,0.5 5.9,0.9c1.1,0.2 2.3,0.5 3.4,0.8c-0.7,-1.7 -1.2,-3.2 -1.8,-4.5c0.5,0.2 1,0.4 1.5,0.6c0,0 0.1,0.1 0.2,0.1c0.5,1.2 1,2.6 1.7,4.2c2.4,0.7 4.7,1.4 6.9,2.4c0.2,0.2 0.3,0.5 0.4,0.7c0,0.1 0,0.1 0,0.1c0.1,0.1 0.1,0.2 0.1,0.3c0,0.1 0,0.1 0,0z"/></g></g><g fill="#86d0fd"><path d="M225.76667,226.08333c0,1.6 -4.6,7.3 -6.1,9.1c-1.2,1.4 -9.9,8.1 -10.2,4.5c-0.5,-7.3 8.4,-11.3 7.8,-13.6z"/></g></g><path d="M122.26667,194.68333c1.4,-1.1 4.7,-0.7 6.3,-0.5c4.2,0.6 8.3,4 11.8,6.2c2.7,1.7 6.9,4.2 10.3,4.1c2.2,-0.1 4.9,-1.9 6.6,-3.2c3.2,-2.4 5.7,-6 8.3,-9c2.7,-3.1 6.2,-5.7 9.9,-7.5c3.6,-1.8 7.8,-3.9 11.6,-4.9c8.4,-2.1 16.6,-2.9 25.1,-1c6.7,1.5 12.9,3.3 18.5,7.4c5.4,4 6.7,8.8 9,14.7c0.7,1.7 1.4,3.3 2.5,4.8c0.8,1.1 1.8,1.6 2.7,2.4c0.7,0.7 1.5,1.9 0.3,2.6c-1,0.6 -2.5,-0.7 -3.4,-0.1c-1.7,1.1 2.4,2.8 2.4,2.8c-0.1,2.1 -3.5,2.4 -4,2.8c-2.8,2.3 -7.1,9.1 -15.4,12.3c-8.3,3.3 -14.9,5.3 -18.8,5.5c-4.6,0.3 -10,0.5 -14.6,0c-4,-0.4 -10.2,-0.4 -13.6,-2.4c-6.2,-3.5 -10.5,-5.3 -16.4,-9.3c-3.5,-2.3 -6.1,-6.7 -10.4,-6.9c-5.2,-0.2 -8.8,4 -12.1,7.5c-1.9,2 -4.5,5.6 -7.4,6.4c-2.7,0.8 -2.1,-1.6 -1.7,-3.5c0.7,-3.1 1.4,-5.8 1,-8.9c-0.2,-1.6 -0.5,-3.3 -0.7,-4.9c-0.6,-4.5 -1.5,-10.6 -4.8,-13.8z" fill="#194ec2" fill-rule="nonzero"/><g fill-rule="nonzero"><path d="M244.16667,213.58333c-0.2,2.1 -3.6,2.4 -4,2.8c-1.5,1.2 -3.4,3.6 -6,6.1c-3.7,-0.8 -7.6,-2.4 -10.9,-3.5c-6.2,-2.1 -10.3,-7.1 -8.7,-13.8c1.7,-6.9 1.7,-26.1 13.6,-19.7l16.9,25.5c-0.9,0.6 -2.4,-0.7 -3.3,-0.1c-1.7,1.1 2.4,2.7 2.4,2.7z" fill="#86d0fd"/><path d="M221.26667,205.18333c-0.6,0.9 -1.1,1.9 -1.7,2.8c-0.6,1.1 -0.8,2.4 -1.4,3.4c-1.2,1.8 -4.1,1.2 -6,1.7c-2.7,0.7 -4.6,0.9 -6.4,-1.3c-2.4,-2.9 -5,-6.4 -6.7,-9.8c-2,-4 -0.9,-7.6 4.1,-7c3.5,0.4 7.1,2.2 10.1,4.1c2.4,1.5 5.8,3.2 7.8,5.3c0.1,0.1 0.2,0.2 0.2,0.3c0.1,0.1 0.1,0.3 0,0.5zM219.36667,205.58333c-6,-3.8 -13.1,-4.7 -20,-6.4c0.3,1.5 1.4,3.3 2.4,4.6c3,0.2 5.9,0.5 8.8,0.8c2.9,0.2 5.9,0.4 8.8,1zM199.86667,196.88333c-0.2,0.2 -0.3,0.5 -0.4,0.8c5.2,1.4 10.5,2.2 15.5,4.1c-0.1,0 -0.1,-0.1 -0.2,-0.1c-2.4,-1.7 -4.9,-3.1 -7.7,-4.2c-1.7,-0.7 -5.8,-2.3 -7.2,-0.6zM202.86667,205.18333c0.9,1.3 1.9,3.1 3.1,4.6c3.9,-0.2 7.9,-0.6 11.8,-1.2c0.1,-0.3 0.3,-0.5 0.5,-0.9c0.1,-0.3 0.3,-0.5 0.4,-0.8c-3,-0.5 -6,-0.7 -9,-1c-2.3,-0.3 -4.5,-0.5 -6.8,-0.7c0,0.1 0,0.1 0,0zM216.96667,210.08333c-3.3,0.5 -6.7,0.8 -10,1c0.2,0.1 0.3,0.2 0.4,0.3c2,1.7 5.5,0.1 7.8,-0.3c1.2,-0.2 1.5,-0.3 1.8,-1z" fill="#86d0fd"/><path d="M244.86667,208.28333c0.7,0.7 1.5,1.9 0.3,2.6c-1,0.6 -2.5,-0.7 -3.4,-0.1c-1.7,1.1 2.4,2.8 2.4,2.8c-0.1,1.8 -2.6,2.3 -3.6,2.6c-5,0.7 -11.2,-0.7 -15.4,-2.1c-5.4,-1.8 -9,-6.2 -7.6,-12c1.3,-5.5 1.4,-20 9.5,-18c1.2,0.7 2.4,1.4 3.6,2.3c5.5,3.9 6.7,8.7 9,14.7c0.7,1.7 1.4,3.3 2.5,4.8c0.8,1.1 1.8,1.6 2.7,2.4z" fill="#06134a"/><g><path d="M228.06667,191.48333c6.3,-0.1 6.6,7 1.3,7.3c-5.3,0.3 -6.6,-7.3 -1.3,-7.3z" fill="#ffffff"/><path d="M229.16667,196.88333c-0.9,0.1 -1.5,-0.3 -1.9,-0.9c1.4,-0.3 1.4,-1.8 0,-2.5c0.2,-0.3 0.6,-0.4 1.2,-0.3c3.1,0.6 3.3,3.6 0.7,3.7z" fill="#06134a"/></g></g><g fill-rule="nonzero"><path d="M128.56667,194.08333c0.6,0.1 1.1,0.2 1.7,0.4c3.3,6.8 6,14.7 6.5,22c0.1,2 0.9,4.7 1.3,7.5c-1.8,2 -4.1,4.8 -6.6,5.5c-2.8,0.8 -2.2,-1.6 -1.7,-3.5c0.8,-3 1.4,-5.7 1,-8.9c-0.2,-1.6 -0.5,-3.3 -0.7,-4.9c-0.6,-4.5 -1.5,-10.6 -4.8,-13.8l-3,-3.7c1.4,-1 4.7,-0.6 6.3,-0.6z" fill="#06134a"/><path d="M148.36667,216.08333c-3.8,1 -6.7,4.3 -9.4,7.2c-0.7,0.8 -1.6,1.8 -2.5,2.8c0,-0.2 0,-0.4 0,-0.6c-0.2,-2.1 -2.7,-1.9 -2.8,-4c-0.1,-2.1 2.8,-4.2 1.8,-6.4c-0.5,-1.1 -1.3,-1 -1.3,-2.5c0,-0.7 1.3,-1.1 1.3,-1.6c0,-1.7 -2.2,-2.6 -2.6,-4.2c-0.3,-1.6 1.2,-2.6 0.2,-4.7c-0.6,-1.5 -2.3,-2.2 -2.6,-3.7c0.3,-0.1 0.6,-0.3 1,-0.4c-0.7,-1 -2.7,-2.5 -3.3,-3.8c0.2,0.1 0.3,0.1 0.5,0.1c4.2,0.6 8.3,4 11.8,6.2c1.9,1.2 4.5,2.8 7.1,3.6c0.8,4.3 0.9,9.3 0.8,12z" fill="#194ec2"/><path d="M149.56667,215.68333v0.1c-1.7,0.2 -3.1,0.8 -4.5,1.7c-5,2.1 -9.9,4.6 -14.9,6.6c0.1,-0.5 0.2,-1.1 0.3,-1.6c5.5,-2.2 10.8,-5 16.3,-7.2c0,-0.7 0,-1.5 0,-2.2c-5.6,0 -11.3,-0.2 -16.8,-1.2c-0.1,-0.5 -0.1,-1 -0.2,-1.5c5.6,1.1 11.3,1.3 17,1.3c0,-0.8 0,-1.6 -0.1,-2.4c-6,-1.1 -12.1,-2 -17.8,-3.9c-0.2,-0.6 -0.3,-1.2 -0.5,-1.7c5.8,2.1 12,3.1 18.2,4.1c-0.1,-0.3 -0.1,-0.7 -0.1,-1c-4.4,-1.3 -8.5,-3.2 -12.7,-5.2c-2.7,-1.3 -5.5,-2.1 -8.3,-3.1c-0.1,0 -0.1,-0.1 -0.2,-0.2l-1.5,-1.8c3.2,1.3 6.6,2.2 9.8,3.6c4.4,2 8.4,3.9 12.8,5.3c0,-0.6 -0.1,-1.2 -0.1,-1.8c0.9,0.4 1.9,0.6 2.8,0.8c0,0 2,8.1 0.5,11.3z" fill="#86d0fd"/></g><g fill-rule="nonzero"><path d="M304.34594,223.28333c0.8,0.8 -4.8,10 -17.7,12.7c-1,0.3 -2.1,0.5 -3.2,0.8c-0.1,3.1 -1.6,6.5 -2.9,8.8c-3.4,6 -8.9,8.9 -13.8,13.2c1.5,-1.8 3.4,-3.5 4.8,-5.5c3.3,-4.6 3.9,-9.9 5.7,-14.8c-4.1,1 -8.3,1.8 -12,1.4c-1.7,-0.2 -3.8,-0.3 -3.8,-0.3c0,0 -1.8,6.7 -2.4,8.3c-1.9,5 -5.2,9.3 -9.2,12.8c-0.6,-1.4 0.6,-3.1 1,-4.5c1.6,-5 3.5,-11.8 2.8,-17.1c0,0 -5,-2.8 -7.8,-5.5c-2.8,-2.7 -4.2,-5.3 -5.5,-4.9c-3,0.8 -5.9,2 -8.8,3.1c-8.4,3.3 -15.9,8.5 -25.1,8.8c2,-3.4 7.1,-5.5 10.4,-7.4c4.1,-2.4 9.2,-3.7 13.1,-6.5c7.2,-5.2 -12.1,-9 -14.4,-9.3c-4.8,-0.6 -9.8,-3 -14.1,-5.5c-1.4,-0.8 -5.8,-1.7 -5.8,-1.7c0,0 11.3,0.2 12.7,0.7c5.3,1.2 10.8,3 16.1,4.1c7.6,1.5 16.6,-0.5 16.6,-0.5c2.2,-3.4 10,-6.6 10,-6.6c-2.3,-5.9 -6.1,-9.1 -12.7,-13.3c-2.7,-1.8 -14.8,-7.7 -14.8,-7.7c2.6,-1.6 5.8,-1.3 8.5,-1.2c2.6,0.1 6.3,1.6 8.7,2.6c4.3,1.9 9.1,5.1 12.7,8c1.7,1.4 3.1,2.9 4.5,4.6c0.8,1.1 3.3,4.3 3.3,4.3l9.9,1.2c0,0 -9.8,-11.3 -18.8,-17.8c3,-1.7 10.1,2.2 12.8,3.8c3.7,2.2 6.5,5.4 9.3,8.6c1.3,1.4 4.3,4.8 4.3,4.8c0,0 5.6,1.5 7.8,2.5c3.4,1.5 6.5,4 9.8,5.8c2.3,1.2 5,2.6 6.3,5c0.8,1.5 1.3,1.7 0.4,2.9c-1,1.1 -3.7,1.6 -6.7,5.8c1.4,-0.8 7.2,-5.3 8,-4.5z" fill="#f7e37c"/><path d="M256.14594,208.58333c0,0 0,0.1 -0.1,0.2c-1.2,1.6 -12.5,3.2 -12.3,3.1c3.2,-2.3 7.5,-4.1 7.5,-4.1c-0.2,-0.4 -0.3,-0.8 -0.5,-1.2c-2.6,1.6 -5.2,2.9 -8.1,3.7c0,-0.2 -0.1,-0.5 -0.2,-0.7c1.5,-0.3 3,-0.8 4.4,-1.5c1.2,-0.7 2.4,-1.4 3.6,-2.2c-0.3,-0.5 -0.5,-0.9 -0.8,-1.4c-2.6,1.3 -5.1,2.7 -7.8,3.6c-0.1,-0.3 -0.2,-0.5 -0.3,-0.8c2.6,-0.9 5.1,-2.2 7.6,-3.5c-0.4,-0.6 -0.8,-1.2 -1.3,-1.8c-0.7,0.3 -1.3,0.5 -1.7,0.7c-1.9,0.8 -3.8,1.5 -5.7,2.1c-0.2,-0.3 -0.3,-0.5 -0.4,-0.8c1.7,-0.5 3.5,-1.1 5.2,-1.9c0.4,-0.2 1.1,-0.5 1.8,-0.8c-0.3,-0.3 -0.6,-0.6 -0.9,-0.9c-2.5,0.4 -5,0.6 -7.5,1c-0.2,-0.3 -0.3,-0.6 -0.5,-0.8c2.4,-0.4 4.8,-0.6 7.2,-1c-0.5,-0.5 -1,-0.9 -1.6,-1.4c-2.4,0.4 -4.8,0.6 -7.2,0.5c-0.2,-0.3 -0.5,-0.6 -0.7,-0.9c2.3,0.1 4.6,0 6.9,-0.3c-0.8,-0.7 -1.8,-1.3 -2.8,-2c-1.9,0 -3.9,0 -5.9,-0.2c-0.3,-0.3 -0.5,-0.6 -0.7,-0.9c0,-0.1 0.1,-0.1 0.2,-0.1c1.7,0.2 3.3,0.2 5,0.2c-0.1,0 -0.1,-0.1 -0.2,-0.1c-0.5,-0.2 -1.2,-0.6 -2,-1.1c-1.4,-0.1 -2.8,-0.2 -4.2,-0.3c-0.2,-0.3 -0.5,-0.6 -0.8,-0.9c1.1,0 2.1,0.1 3.1,0.2c-1.9,-1 -8.9,-5.4 -9.1,-5.5c-0.1,-0.1 4.5,-1.3 4.5,-1.3c2.8,0 5.3,0.7 7.8,1.8c1.4,0.6 13.3,8.8 16.9,17.2c0.8,1.7 1.6,3.5 1.6,4.1z" fill="#f7e37c"/><path d="M256.54594,227.68333c3.6,8.4 0.9,18.8 0.4,20.1c-1,2.5 -7.7,13.3 -7.7,13.3c0,-0.2 1.7,-8.3 2.3,-10.3c-0.6,0.8 -1.3,1.6 -1.9,2.4c0,-0.4 -0.1,-0.8 -0.1,-1.2c0.9,-1.1 1.8,-2.2 2.7,-3.3c0.3,-0.9 0.4,-1.7 0.5,-2.2c0,-0.1 0,-0.1 0,-0.2c-1.1,1.2 -2.2,2.4 -3.3,3.7c-0.1,0.1 -0.1,0.1 -0.2,0.1c-0.1,-0.4 -0.1,-0.7 -0.2,-1.1c1.2,-1.5 2.6,-3 4,-4.4c0.2,-1.2 0.4,-2.3 0.5,-3.4c-1.8,1.4 -3.5,3 -5,4.8c-0.1,-0.4 -0.1,-0.8 -0.2,-1.2c1.6,-1.8 3.4,-3.4 5.3,-4.8c0.1,-0.7 0.1,-1.4 0.1,-2.1c-2,1.4 -3.8,3.1 -5.7,4.6c-0.1,-0.3 -0.1,-0.6 -0.2,-0.9c2,-1.6 3.9,-3.2 5.9,-4.7c0,-0.4 0,-0.9 0,-1.3c-0.7,0.3 -1.4,0.6 -1.8,0.8c-1.8,0.7 -3.4,1.5 -5,2.5c-0.1,-0.3 -0.2,-0.5 -0.3,-0.8c1.7,-1 3.5,-1.9 5.5,-2.6c0.4,-0.2 1,-0.4 1.7,-0.7c-0.1,-0.7 -0.2,-1.5 -0.4,-2.2c-2.7,0.9 -5.3,1.8 -7.8,3.1c-0.1,-0.3 -0.2,-0.5 -0.4,-0.8c2.6,-1.3 5.3,-2.2 8,-3.1c-0.1,-0.5 -0.3,-1 -0.5,-1.6c-1.4,0.3 -2.7,0.6 -4.1,1.1c-1.5,0.5 -2.9,1.3 -4.2,2.1c-0.1,-0.2 -0.2,-0.4 -0.3,-0.6c2.6,-1.6 5.3,-2.5 8.3,-3.3c-0.2,-0.4 -0.3,-0.8 -0.5,-1.2c0,0 -4.3,1.9 -8.1,2.6c-0.2,0.1 8.8,-7 10.7,-6.8c0.1,0 0.2,0 0.3,0.1c0.3,-0.1 1.1,1.7 1.7,3.5z" fill="#f7e37c"/><path d="M281.74594,230.78333c0.6,2 1.3,4 1.9,6c0,0.1 -0.1,0.1 -0.2,0.1c-0.1,3.1 -1.6,6.5 -2.9,8.8c-3.4,6 -8.9,8.9 -13.8,13.2c1.5,-1.8 3.4,-3.5 4.8,-5.5c0.3,-0.4 0.5,-0.9 0.8,-1.3c3.2,-3.7 5.5,-7.4 6.4,-11.8c0.2,-0.9 0.3,-1 0.2,-1.7c-0.1,-0.8 -0.5,-1.6 -0.7,-2.3c-0.8,-2.6 -1.6,-5.2 -2.3,-7.8c-1.5,-5.7 -2,-11.4 -2.2,-17.3c0,-1.3 -0.1,-2.5 -0.1,-3.7c0,-0.3 0.2,0.2 -0.5,-1.2c-3.3,-6.5 -14.8,-17.7 -20.7,-17.8c3,-1.7 10.1,2.2 12.8,3.8c3.7,2.2 6.5,5.4 9.3,8.6c0.8,1 2.4,2.8 3.4,3.9c0,0.1 0.1,0.2 0.1,0.3c0.8,1.9 0.4,4.6 0.5,6.6c0.3,6.6 1.2,12.7 3.2,19.1z" fill="#3e3d44"/><path d="M233.34594,221.28333c0.1,0 0.2,0 0.3,0c1.6,0 1.6,2.5 0,2.5c-0.1,0 -0.2,0 -0.3,0c-1.6,0 -1.6,-2.5 0,-2.5z" fill="#ffffff"/><path d="M239.44594,221.78333c1.6,0 1.6,2.5 0,2.5c-1.6,0 -1.6,-2.4 0,-2.5z" fill="#ffffff"/><path d="M258.04594,235.98333c0.6,2.4 1,3.6 0.5,6.1c-1,4.7 -2.2,9.4 -4,13.8c-1.4,1.7 -2.9,3.3 -4.6,4.8c-0.6,-1.4 0.6,-3.1 1,-4.5c1.4,-4.6 3.2,-10.8 2.9,-15.9c0,-0.1 0.1,-0.2 0.1,-0.2c0,-0.1 -0.1,-0.2 -0.1,-0.4c-0.1,0 -0.1,-0.1 -0.1,-0.2c0,-0.1 0,-0.3 0,-0.4h-0.1c-0.4,-1.6 -0.8,-3.1 -1.1,-4.7c-1.6,-8.3 -2.1,-17.8 0.9,-25.9c-4.9,-9.9 -17.7,-20.9 -29.6,-21.9c2.5,-1.4 5.6,-1.1 8.2,-1c0.6,0 1.4,0.1 2.1,0.3c3.9,1 7.7,2.8 11.1,5.2c3,2.1 5.7,4.5 8,7.5c1.3,1.7 2.4,3.5 3.4,5.4c0.7,1.5 2,3.4 1.7,5.1c-0.2,1.4 -0.9,2.8 -1.2,4.2c-0.9,3.7 -1.1,7.5 -1,11.3c0.2,3.8 0.8,7.6 1.9,11.4z" fill="#3e3d44"/><path d="M210.44594,239.58333c0.1,-0.4 0.2,-0.7 0.3,-1v0c0.4,-1.1 1,-2 1.8,-2.9v0c0.4,-0.4 0.8,-0.8 1.2,-1.2c0.3,-0.1 0.6,-0.2 1,-0.2c0.8,-0.4 1.5,-0.8 2.2,-1.2c1,-0.5 2,-1 3,-1.5c-1,0.1 -2,0.2 -3,0.2c0.3,-0.3 0.6,-0.6 0.9,-0.9c1.6,-0.1 3.3,-0.2 4.9,-0.5c2,-0.8 4.1,-1.7 5.9,-2.8c-3.1,0.5 -6.1,0.8 -9.2,1c0.1,-0.3 0.2,-0.6 0.3,-0.9c3.6,-0.2 7.1,-0.6 10.6,-1.2c0.7,-0.6 1.1,-1.2 1.2,-1.8c-4,0.8 -8,1 -12,0.3c-0.1,-0.4 -0.2,-0.7 -0.4,-1c4.1,0.8 8.2,0.6 12.3,-0.2c-0.2,-0.6 -0.8,-1.2 -1.6,-1.8c-3.8,0.4 -7.5,0.8 -11.3,1.1c-0.2,-0.2 -0.5,-0.5 -0.7,-0.8c3.5,-0.3 7.1,-0.6 10.6,-1c-1,-0.5 -2.2,-1 -3.4,-1.4c-0.5,0.1 -1.1,0.2 -1.7,0.3c-2.4,0.3 -4.8,0.4 -7.2,0.4c-0.4,-0.3 -0.8,-0.6 -1.2,-0.9c2.8,0.1 5.6,0 8.3,-0.4c-1.6,-0.5 -3.2,-0.9 -4.6,-1.2c-0.6,0.1 -1.3,0.2 -1.9,0.3c-1.1,0.1 -2.2,0.2 -3.3,0.2c-0.4,-0.3 -0.9,-0.5 -1.3,-0.8c1.1,0 3.5,-0.3 3.4,-0.3c-1.6,-0.2 -3.2,-0.6 -4.8,-1.1c-0.5,0 -0.9,-0.1 -1.4,-0.1c-0.6,-0.3 -1.3,-0.7 -2,-1c0.2,0 -2.2,-1.3 -3.6,-2l8,1.4l7.5,1.3c0,0 21.7,2.1 21.7,7.1c0,5.1 -26.5,16.6 -30.5,16.5z" fill="#f7e37c"/><path d="M231.54594,231.98333c-1.3,0.5 -2.6,1 -3.9,1.6c-0.9,0.3 -1.7,0.5 -2.2,0.8c-2.7,1.3 -5.4,2.6 -8.1,3.8c-3.5,1.4 -7.1,2.4 -11,2.5c0.5,-0.7 1,-1.4 1.7,-2c6.3,-2.3 11.5,-6 18.1,-9.1c5,-2.3 10.3,-4 15.1,-0.6c-0.3,-0.2 -0.7,-0.3 -1,-0.2c-3,0.8 -5.9,2 -8.7,3.2z" fill="#3e3d44"/><path d="M224.74594,217.58333c-10.4,-1.3 -18.7,-6.4 -29.1,-7.4c0,0 11.3,0.2 12.7,0.5c5.3,1.2 10.8,3 16.1,4.1c6.4,1.2 14.2,0 16.5,-0.4c-0.8,2.2 -2.5,3.2 -5.1,3.4c-3.6,0.3 -7.6,0.2 -11.1,-0.2z" fill="#3e3d44"/></g><g fill="#ffffff" fill-rule="nonzero"><path d="M260.33333,211.88333c1.6,0 1.6,2.5 0,2.5c-1.6,0 -1.6,-2.5 0,-2.5z"/><path d="M264.23333,208.88333c1.6,0 1.6,2.5 0,2.5c-1.6,0 -1.6,-2.5 0,-2.5z"/><path d="M265.93333,213.78333c1.6,0 1.6,2.5 0,2.5c-1.6,0 -1.6,-2.4 0,-2.5z"/><path d="M263.93333,223.28333c1.6,0 1.6,2.5 0,2.5c-1.6,0 -1.6,-2.4 0,-2.5z"/><path d="M260.93333,218.08333c1.6,0 1.6,2.5 0,2.5c-1.6,0 -1.6,-2.4 0,-2.5z"/><path d="M260.33333,228.58333c1.6,0 1.6,2.5 0,2.5c-1.6,0 -1.6,-2.5 0,-2.5z"/><path d="M266.23333,232.48333c1.6,0 1.6,2.5 0,2.5c-1.6,0 -1.6,-2.4 0,-2.5z"/><path d="M270.63333,224.58333c1.6,0 1.6,2.5 0,2.5c-1.6,0 -1.6,-2.4 0,-2.5z"/><path d="M270.63333,218.88333c1.6,0 1.6,2.5 0,2.5c-1.6,0 -1.6,-2.5 0,-2.5z"/><path d="M272.23333,232.48333c1.6,0 1.6,2.5 0,2.5c-1.6,0 -1.6,-2.4 0,-2.5z"/><path d="M287.03333,228.58333c1.6,0 1.6,2.5 0,2.5c-1.6,0 -1.6,-2.5 0,-2.5z"/><path d="M244.53333,220.38333c1.6,0 1.6,2.5 0,2.5c-1.5,0 -1.5,-2.5 0,-2.5z"/><path d="M249.13333,231.68333c1.6,0 1.6,2.5 0,2.5c-1.6,0 -1.6,-2.5 0,-2.5z"/><path d="M251.23333,238.48333c1.6,0 1.6,2.5 0,2.5c-1.6,0 -1.6,-2.4 0,-2.5z"/><path d="M251.23333,242.58333c1.6,0 1.6,2.5 0,2.5c-1.6,0 -1.6,-2.5 0,-2.5z"/><path d="M244.53333,215.08333c1.6,0 1.6,2.5 0,2.5c-1.5,0 -1.5,-2.5 0,-2.5z"/><path d="M246.83333,226.88333c1.6,0 1.6,2.5 0,2.5c-1.5,0 -1.5,-2.4 0,-2.5z"/><path d="M249.83333,211.88333c1.6,0 1.6,2.5 0,2.5c-1.6,0 -1.6,-2.5 0,-2.5z"/><path d="M247.13333,204.18333c1.6,0 1.6,2.5 0,2.5c-1.6,0 -1.6,-2.4 0,-2.5z"/><path d="M243.63333,198.38333c1.6,0 1.6,2.5 0,2.5c-1.6,0 -1.6,-2.5 0,-2.5z"/><path d="M249.13333,220.08333c1.6,0 1.6,2.5 0,2.5c-1.6,0 -1.6,-2.5 0,-2.5z"/></g><g fill-rule="nonzero"><path d="M282.43333,213.58333c2.1,-2.2 5.4,-2 7.9,-0.8c0.6,0.3 0.1,1.2 -0.5,0.9c-2.1,-1 -5,-1.2 -6.7,0.6c-0.4,0.4 -1.1,-0.3 -0.7,-0.7z" fill="#030000"/><g><path d="M283.53333,221.68333c-1.1,-4.5 3.3,-6.7 6.2,-5.7c3.8,1.2 3.2,5.9 0.4,7.7c-3.4,2.2 -6.3,-0.9 -6.6,-2z" fill="#ffffff"/><path d="M291.03333,222.28333c-1.3,1 -2.5,0.5 -3.4,-0.2c0.8,-0.6 0.9,-1.9 -0.2,-2.3c-0.3,-0.1 -0.7,-0.1 -1,0c-0.2,-2.4 1.5,-4.2 4.1,-3.4c2.3,0.7 2.2,4.6 0.5,5.9z" fill="#3f669e"/><path d="M288.73333,220.08333c-0.5,-2.3 1.5,-3.5 2.7,-3c1.7,0.6 1.4,3.1 0.2,4c-1.5,1.2 -2.8,-0.4 -2.9,-1z" fill="#030000"/><path d="M288.73333,224.68333c-2.2,0.6 -5,-0.8 -5.7,-3c-0.5,-2.6 0.5,-5.1 3.1,-6.1c2.3,-0.9 5.4,-0.3 6.4,2.2c1.2,2.8 -0.9,6.3 -3.8,6.9zM291.43333,217.88333c-1.1,-1.8 -3.6,-1.9 -5.3,-1.1c-1.9,0.9 -2.6,2.8 -2.2,4.8c0.6,1.7 2.9,2.7 4.5,2.3c2.4,-0.6 4.3,-3.8 3,-6z" fill="#030000"/></g></g><g><g fill-rule="nonzero"><path d="M319.40001,167.15h-2.9c-0.6,-0.3 -1.3,-0.5 -2.4,-0.5c-1.3,0 -1.9,0.2 -2.6,0.5l-5.3,0.1c-0.6,-0.3 -1.3,-0.5 -2.6,-0.5c-1.3,0 -1.9,0.2 -2.6,0.5l-5.3,0.1c-0.6,-0.3 -1.3,-0.5 -2.6,-0.5c-1.3,0 -1.9,0.2 -2.6,0.5l-5.3,0.1c-0.6,-0.3 -1.3,-0.5 -2.6,-0.5c-1.3,0 -1.9,0.2 -2.6,0.5l-5.1,0.1c-0.8,-0.4 -1.4,-0.7 -2.9,-0.5c-0.9,0.1 -1.5,0.3 -2,0.5h-3.2c-0.1,-0.1 -0.1,-0.1 -0.2,-0.2c0,-0.7 0.2,-1.7 0.3,-2.5c0.1,-0.8 -0.6,-2 -0.3,-2.9c0.3,-0.9 1.5,-1.3 2,-2.2c0.4,-0.8 0.1,-2.1 0.6,-2.9c0.5,-0.7 1.8,-0.9 2.4,-1.7c0.6,-0.7 0.4,-2.1 1,-2.8c0.6,-0.7 2,-0.7 2.6,-1.4c0.7,-0.7 0.7,-2.1 1.3,-2.7c0.7,-0.7 2.1,-0.6 2.7,-1.1c0.9,-0.8 1.3,-2.2 1.8,-2.4c0.8,-0.3 1.9,0.3 2.8,0c0.8,-0.3 1.3,-1.5 2.2,-1.7c0.8,-0.2 1.9,0.5 2.8,0.3c0.9,-0.2 1.5,-1.3 2.4,-1.5c0.9,-0.2 1.9,0.6 2.8,0.5c0.9,-0.1 1.6,-1.2 2.5,-1.3c0.9,-0.1 1.8,0.9 2.7,0.8c0.9,-0.1 1.8,-1.1 2.6,-1.1c0.9,0 1.8,1 2.6,1.1c0.9,0.1 1.9,-0.8 2.7,-0.6c1,0.2 1.7,1.5 2.8,2c0.9,0.4 2.3,0.1 3.3,0.8c0.9,0.6 1.2,2 2,2.8c0.8,0.8 2.3,0.9 3,1.7c0.7,0.8 0.6,2.3 1.2,3.2c0.6,0.9 2,1.5 2.4,2.5c0.4,1 -0.2,2.3 -0.1,3.4c0.1,1.1 1.1,2.2 0.9,3.3c-0.2,1.1 -1.4,1.8 -1.9,2.9c-0.3,0.7 -0.4,1.7 -0.7,2.5c-0.2,0.2 -0.4,0.4 -0.6,0.8z" fill="#cec800"/><path d="M319.30001,163.45c0.2,0.2 0.5,0.4 0.8,0.6c-0.2,0.6 -0.3,1.3 -0.5,2c-0.2,0.2 -0.4,0.4 -0.6,0.6h-2.9c-0.6,-0.3 -1.3,-0.5 -2.4,-0.5c-1.3,0 -1.9,0.2 -2.6,0.5l-5.3,0.1c-0.6,-0.3 -1.3,-0.5 -2.6,-0.5c-1.3,0 -1.9,0.2 -2.6,0.5l-5.3,0.1c-0.6,-0.3 -1.3,-0.5 -2.6,-0.5c-1.3,0 -1.9,0.2 -2.6,0.5l-5.3,0.1c-0.6,-0.3 -1.3,-0.5 -2.6,-0.5c-1.3,0 -1.9,0.2 -2.6,0.5l-5.1,0.1c-0.8,-0.4 -1.4,-0.7 -2.9,-0.5c-0.9,0.1 -1.5,0.3 -2,0.5h-3c0.7,-1 1.5,-2.1 1.8,-2.4c-0.7,-0.6 -1.4,-1.3 -2.2,-1.8c-0.2,-0.5 -0.2,-0.9 -0.1,-1.4c1.1,0.7 2.2,1.5 3.1,2.4c1,-0.9 2,-1.7 3,-2.4c-0.9,-1.8 -2.1,-3.5 -3.7,-4.6c0,-0.2 0.1,-0.3 0.2,-0.5c0.1,-0.2 0.3,-0.4 0.5,-0.5c1.8,1.2 3,3 4,5c1.1,-0.6 2.2,-1.1 3.3,-1.5c-1.2,-2.4 -2.8,-5 -4.8,-6.8c0,-0.3 0.1,-0.5 0.3,-0.7c0.1,-0.1 0.3,-0.2 0.4,-0.3c1.9,1.7 3.4,4.1 4.6,6.3c0.2,0.4 0.4,0.8 0.6,1.2c0.9,-0.3 1.8,-0.5 2.7,-0.7c-1,-3.7 -2.5,-7.2 -4.7,-10.1c0.1,-0.1 0.2,-0.3 0.3,-0.4c0.2,-0.2 0.4,-0.3 0.6,-0.4c2.4,3.1 4,6.8 5,10.7c0.8,-0.1 1.5,-0.2 2.3,-0.3c-0.1,-0.3 -0.1,-0.6 -0.2,-0.9c-0.6,-3.5 -1.5,-8.4 -3.6,-12c0.1,-0.3 0.3,-0.5 0.5,-0.6c0.1,-0.1 0.3,-0.1 0.4,-0.1c1.6,2.9 2.5,6.3 3.2,9.1c0.4,1.5 0.7,2.9 0.9,4.4c0.6,-0.1 1.1,-0.1 1.7,-0.2c0.5,0 1,-0.1 1.5,-0.1c-0.5,-4.8 -1.7,-9.4 -3.7,-13.9c0.3,-0.4 0.6,-0.7 1,-0.8c2.1,4.7 3.4,9.6 3.9,14.6c1.1,-0.1 2.1,-0.2 3.1,-0.2c0.1,-3.4 -0.2,-6.8 -0.8,-10.1c-0.3,-1.8 -1,-3.4 -1.7,-5.1c0.2,-0.2 0.5,-0.3 0.8,-0.4c0.1,0 0.1,0 0.2,0c0.8,2.3 1.7,4.6 2.1,7.1c0.4,2.8 0.6,5.7 0.6,8.5c1,0 1.9,0 2.8,0c0.1,-1.5 0.2,-3 0.2,-4.5c0.1,-3.3 0.2,-8 -1.4,-11.5c0.3,-0.1 0.5,-0.3 0.8,-0.3c0.1,0 0.3,0 0.4,0c1.1,2.7 1.4,6 1.5,8.8c0.1,2.5 0,5.1 -0.2,7.6c1.1,0.1 2.1,0.2 3.2,0.3c0.8,-5.5 0.4,-11.4 0,-16.9c0.2,-0.1 0.3,-0.1 0.5,-0.1c0.3,0 0.6,0.1 0.8,0.2c0.4,5.5 0.7,11.4 -0.1,17c0.7,0.1 1.3,0.2 1.9,0.3c0.2,-0.4 0.3,-0.9 0.4,-1.3c1.3,-4.7 2.9,-10.7 1.9,-15.7c0.2,0 0.4,0 0.6,0c0.2,0.1 0.5,0.2 0.7,0.4c0.7,4.8 -0.6,10.2 -1.7,14.6c-0.2,0.8 -0.4,1.6 -0.6,2.4c0.8,0.2 1.6,0.4 2.4,0.6c2.2,-4.8 3.8,-9.9 4.7,-15.3c0.2,0.1 0.3,0.2 0.5,0.3c0.3,0.2 0.4,0.4 0.6,0.6c-0.9,5.2 -2.4,10.1 -4.6,14.8c1,0.3 1.9,0.6 2.9,0.9c2.5,-3.9 4.5,-8 5.6,-12.3c0.2,0.2 0.4,0.3 0.6,0.5c0.2,0.1 0.3,0.4 0.4,0.6c-1.1,4.1 -3.1,7.9 -5.4,11.6c0.2,0.1 0.4,0.1 0.6,0.2c0.7,0.3 1.3,0.5 1.9,0.8c2.2,-2.5 4,-5.3 5.5,-8.3c0.3,0.2 0.5,0.5 0.6,0.8c0.1,0.1 0.1,0.3 0.1,0.5c-1.3,2.6 -3,5.2 -5,7.4c0.6,0.3 1.2,0.6 1.8,0.9c1.3,-1.2 2.5,-2.5 3.5,-3.9c0.2,0.5 0.4,1 0.4,1.5c-0.9,1.1 -1.8,2.1 -3.2,2.8z" fill="#fbdf00"/></g><g fill-rule="nonzero"><path d="M264.40001,185.45c-3,0.2 -6.6,3 -9.2,4.4c-2.9,1.6 -5.4,2.5 -8.5,3.3c-1,-4 6,-12.3 6,-12.3c0,0 -6.2,-12.7 -1.4,-15.7c2.4,1.5 4.4,4 6.8,5.6c2.3,1.5 5.2,2.4 7.2,3.9z" fill="#cec800"/><path d="M266.50001,175.75l-0.5,4.8l-0.3,3l-1.3,0.6c-2.2,1.1 -4.5,2 -6.8,2.8c-3.6,1.3 -7.1,2.9 -10.8,3.9c0.2,-0.4 0.3,-0.9 0.5,-1.4c3.1,-0.9 6,-2.2 9,-3.2c2.8,-1 5.7,-2.5 8.4,-4.2l-0.1,-0.8c-4.7,2.5 -9.9,3.7 -15.2,4c0.3,-0.5 0.6,-0.9 0.9,-1.3c5,-0.5 10,-1.6 14.4,-4.2c0.1,0 0.1,0 0.1,0v-0.2c-3.8,0.5 -7.6,1.2 -11.6,1.1c-0.2,0 -0.5,0 -0.7,0c-0.1,-0.2 -0.3,-0.6 -0.5,-1.1c1.3,0 2.4,-0.1 3.3,-0.1c3.3,0 6.5,-0.7 9.7,-1.1l0.1,-0.7c-4.8,0.8 -9.9,-0.3 -14.5,-2c-0.1,-0.5 -0.3,-1 -0.4,-1.5c4.7,1.8 10.1,3.1 15,2.2v-0.1c-4.3,-0.8 -11.5,-3.4 -15.7,-7.3c0,-0.5 0.1,-1 0.2,-1.5c3.8,3.8 11,5.9 15.6,7.9z" fill="#fbdf00"/></g><g fill-rule="nonzero"><path d="M267.50001,193.45c1.2,0.9 0.6,1.7 1.8,2.7c1.2,1 1.8,0.2 3,1.2c1.2,1 0.6,1.7 1.8,2.7c1.2,0.9 1.7,0.2 3,1.1c1.3,0.6 2.6,2 4.5,2.6c1.6,0.4 3.6,0 5.3,0.5c1.7,0.5 3.1,1.9 4.7,2.5c1.7,0.6 3.7,0.3 5.2,1c1.9,0.9 2.5,1.4 3.5,2.5c0,1 0.8,3 0.3,3.9c-0.4,0.8 -1.8,1 -2.5,1.8c-0.6,0.7 -0.7,2.1 -1.5,2.7c-0.8,0.7 -2.2,0.3 -3,0.7c-1,0.4 -1.8,1.6 -2.6,1.6c-1,-0.1 -2.1,-1.1 -3.4,-1.3c-1.1,-0.1 -2.4,0.7 -3.6,0.4c-1.1,-0.2 -2,-1.5 -3.1,-1.8c-1.1,-0.3 -2.5,0.2 -3.6,-0.2c-1.1,-0.5 -1.7,-1.8 -2.7,-2.4c-1,-0.6 -2.5,-0.5 -3.4,-1.2c-0.9,-0.8 -1,-2.3 -1.8,-3.2c-0.8,-0.9 -2.3,-1.2 -2.9,-2.2c-0.6,-0.9 -0.4,-2.5 -0.9,-3.5c-0.5,-1.1 -1.9,-1.7 -2.3,-2.8c-0.3,-0.9 0.3,-2.1 0,-2.9c-0.3,-0.9 -1.5,-1.5 -1.7,-2.3c-0.2,-1 0.6,-2 0.6,-2.8c0,-1.1 -0.6,-2.3 0.1,-2.8c0.5,-0.4 1.4,0.2 2.6,0.3c1.4,0.8 1.7,0.2 2.6,1.2z" fill="#cec800"/><path d="M264.60001,192.95c0.1,0.1 0.3,0.1 0.4,0.1c0.1,0.1 0.3,0.1 0.4,0.2h0.1c0.1,0 0.2,0.1 0.3,0.1c0.1,0 0.1,0 0.1,0c0.6,0.2 1,0.1 1.5,0.4c0.2,0 0.4,0.1 0.6,0.3c0.3,0.2 0.5,0.4 0.6,0.6c0,0.1 0.1,0.1 0.1,0.2c0.3,0.4 0.3,0.8 0.6,1.3v0c0,0.1 0.1,0.1 0.1,0.2v0l0.1,0.1v0c0,0.1 0.1,0.1 0.2,0.2c0.7,0.5 1.2,0.5 1.7,0.6c0.1,0 0.2,0 0.3,0v0c0.1,0 0.2,0.1 0.3,0.1c0.1,0 0.1,0 0.1,0c0.1,0 0.2,0 0.3,0.1v0c0.2,0 0.3,0.1 0.4,0.2c1.2,1 0.6,1.7 1.8,2.7c0.1,0.1 0.1,0.1 0.1,0.1c0.4,0.3 0.8,0.4 1.1,0.5v0c0.2,0 0.5,0.1 0.7,0.1h0.1h0.1h0.1h0.1c0,0.1 0.1,0.1 0.1,0.1h0.1c0.1,0 0.1,0.1 0.2,0.1h0.1c0.1,0.1 0.2,0.1 0.3,0.2c0.2,0.1 0.4,0.2 0.6,0.3l0.1,0.1c0.1,0.2 0.3,0.3 0.5,0.4c0.5,0.3 1,0.7 1.5,1c0.1,0 0.1,0.1 0.2,0.1c0.2,0.1 0.3,0.1 0.4,0.2c0.1,0.1 0.2,0.1 0.3,0.2c0.1,0 0.2,0.1 0.3,0.1c0.3,0.1 0.5,0.1 0.7,0.2c0.2,0 0.4,0.1 0.6,0.1c0.1,0 0.2,0 0.3,0c0.1,0 0.3,0 0.4,0c0.2,0 0.3,0 0.4,0c0.1,0 0.2,0 0.3,0c0.7,0.1 1.3,0.1 2,0.1c0.2,0 0.4,0.1 0.6,0.1h0.1c0.2,0.1 0.5,0.1 0.7,0.2c1.7,0.5 3.1,1.9 4.7,2.5c0.2,0.1 0.4,0.2 0.6,0.2c0.1,0 0.1,0 0.2,0c0.2,0 0.3,0.1 0.5,0.1h0.1c1,0.1 1.9,0.1 2.8,0.3c0.3,0 0.7,0.1 1,0.3c0.4,0.1 0.6,0.3 0.9,0.4c0.6,0.3 1,0.6 1.4,0.9v0c0,0.1 0.1,0.1 0.2,0.2l0.1,0.1c0.1,0.1 0.1,0.1 0.2,0.2c0.1,0.1 0.1,0.1 0.2,0.2c0,0 0.1,0 0.1,0.1c0.1,0.1 0.2,0.2 0.3,0.3c0,0.1 0,0.3 0,0.4v0.1c0.1,0.6 0.3,1.5 0.4,2.3c-0.2,0 -0.5,0 -0.7,0c0.1,0.4 0.3,0.9 0.4,1.3c-0.3,0.3 -0.7,0.5 -1.1,0.7c-0.2,-0.7 -0.5,-1.4 -0.7,-2.1c-0.7,0 -1.4,-0.1 -2.1,-0.1c0.1,1.7 0.3,3.5 0.4,5.2c-0.2,0.2 -0.3,0.4 -0.5,0.5c-0.2,0.1 -0.4,0.2 -0.7,0.3c-0.1,-2 -0.3,-4.1 -0.5,-6.1c-1,-0.1 -1.9,-0.2 -2.9,-0.3c-0.2,2.7 -0.4,5.5 -1.1,8.2c-0.2,0 -0.3,0.1 -0.5,0.1c-0.2,0 -0.5,-0.1 -0.7,-0.2c0.1,-0.7 0.3,-1.4 0.4,-2c0.5,-2.1 0.6,-4.3 0.7,-6.4c-0.9,-0.2 -1.8,-0.3 -2.7,-0.5c-0.9,2.8 -2.1,5.6 -3.6,8.1c-0.3,0.1 -0.7,0.1 -1.1,0c-0.1,0 -0.2,-0.1 -0.3,-0.1c1.6,-2.6 2.9,-5.4 3.7,-8.3c-1.6,-0.3 -3.2,-0.7 -4.7,-1.2c-1.4,2.7 -2.9,5.2 -4.7,7.7c-0.3,0 -0.6,-0.1 -0.9,-0.2c-0.2,-0.1 -0.3,-0.1 -0.4,-0.2c1.8,-2.4 3.4,-5 4.8,-7.7c-1.3,-0.5 -2.6,-1 -3.8,-1.5c-0.4,-0.2 -0.7,-0.3 -1,-0.5c-0.5,0.8 -1,1.6 -1.6,2.3c-1.2,1.5 -2.5,2.8 -4,4.1c-0.1,0 -0.1,0 -0.2,-0.1c-0.3,-0.2 -0.4,-0.5 -0.6,-0.8c1.8,-1.6 3.5,-3.3 4.8,-5.2c0.2,-0.2 0.3,-0.5 0.5,-0.8c-1.4,-0.8 -2.7,-1.6 -3.8,-2.5c-1.5,1.7 -3.3,3.3 -5.2,4.5c-0.2,-0.1 -0.4,-0.3 -0.5,-0.5c-0.1,-0.1 -0.1,-0.3 -0.2,-0.5c1.8,-1.2 3.5,-2.7 5,-4.3c-1.4,-1.1 -2.5,-2.4 -3.5,-3.7c-0.2,0.2 -0.5,0.4 -0.7,0.6c-1.1,0.9 -2.2,1.6 -3.4,2.2c-0.2,-0.2 -0.3,-0.4 -0.4,-0.6c-0.1,-0.2 -0.1,-0.3 -0.1,-0.5c1,-0.6 2,-1.2 3,-2c0.3,-0.2 0.6,-0.4 0.9,-0.7c-0.6,-0.8 -1.1,-1.7 -1.6,-2.5c-1.2,0.5 -2.4,0.9 -3.7,1.2c-0.1,-0.2 -0.2,-0.4 -0.3,-0.6c0,-0.2 0,-0.4 0,-0.6c1.2,-0.3 2.4,-0.7 3.5,-1.1c-0.3,-0.6 -0.6,-1.1 -0.8,-1.7c-0.7,-0.1 -1.5,-0.3 -2.2,-0.6c0,-0.5 -0.1,-1 0.1,-1.3c0.5,0.3 1.1,0.5 1.7,0.6c-0.1,-0.2 -0.2,-0.5 -0.3,-0.8v0c0.1,0 0.3,0.1 0.5,0.1c0.1,0 0.1,0 0.1,0c0.1,0.1 0.2,0.1 0.3,0.1c0.1,0 0.1,0 0.2,0.8z" fill="#fbdf00"/></g><g><path d="M311.10001,209.55c-0.1,5.1 -0.9,10.6 -5.3,15c-2,-3.2 -0.8,-4.1 -0.8,-6.7c-0.1,-1.8 -0.4,-4.1 0.9,-5.6c0.6,-0.7 1.4,-0.7 1.7,-1.8z" fill="#d8d213" fill-rule="nonzero"/><path d="M311.10001,209.55c-0.1,5.1 -0.9,10.6 -5.3,15c-2,-3.2 -0.8,-4.1 -0.8,-6.7c-0.1,-1.8 -0.4,-4.1 0.9,-5.6c0.6,-0.7 4.2,-2.3 4.2,-2.3z" fill="none" fill-rule="evenodd"/><path d="M311.00001,209.45c0,0.3 0,0.5 0,0.8c-1.1,3.3 -2,6.6 -4.1,9.5c-0.7,0.9 -1.3,1.9 -2.1,2.8c-0.2,-0.6 -0.2,-1.1 -0.2,-1.6c0.8,-1 1.4,-2 2,-2.9c1,-1.6 1.7,-3.4 2.3,-5.2c-1.1,1.3 -2.5,2.5 -4,3.5c0,-0.5 0,-1 0,-1.5c1.7,-1.3 3.3,-2.8 4.4,-4.5c0.5,-0.3 0.8,-0.4 0.8,-0.4z" fill="#fbdf00" fill-rule="nonzero"/></g></g><g fill-rule="nonzero"><g fill="#fbdf00"><path d="M342.60001,192.85c-1.7,2.6 -4.5,3.8 -9.9,2.4c0,3.1 6,2.8 7.2,2.3c-0.2,4.7 -8.6,5.8 -11.2,6.4c-9.5,2.2 -12.9,7.4 -21.3,8.6c-9.4,1.3 -20.7,-0.1 -29.3,-3.9c-9.1,-4.1 -13.3,-11.9 -14.7,-17c-1.9,-5.3 -4.3,-4 -6.6,-2.5c-1.3,-1.8 2.6,-5.7 2.7,-9.8c0.1,-4.2 -0.8,-8.1 -0.8,-8.1c3.2,1.6 5.1,0.9 5.9,-0.3c0.8,-1.1 1.1,-2.2 1.9,-3.2c5.9,-7.9 12.7,-9 20.4,-9.8c9.4,-1 17.8,-0.4 26.7,3.1c4.3,1.7 7.4,3 10.2,7c2.8,3.9 4.1,6.3 6.6,10.3c2.3,3.7 6.2,7.2 9.2,10.2c1.2,1.1 4,2.6 3,4.3z"/></g><g><path d="M317.60001,186.05c-3,-0.2 -5.9,-1.1 -8.2,-3.1c-0.7,-0.6 -2.8,-2.4 -2.8,-3.5c0,-0.9 1.3,-1.8 1.9,-2.3c2.5,-2 5.9,-2.8 9.1,-2.7c3,0 9.2,2.4 9.5,6.2c0.4,4.4 -6.7,5.2 -9.5,5.4zM326.00001,180.75c0,-0.4 -1.4,-2 -1.9,-2.5c-2.1,-2 -4.8,-2.7 -7.6,-2.6c-2.6,0.1 -5.3,0.8 -7.4,2.4c-0.5,0.3 -0.9,0.7 -1.3,1.2c-0.1,0.1 -0.1,0.1 -0.1,0.1c1.1,3.6 6.9,5.4 9.9,5.5c2.3,-0.1 8.8,-0.9 8.4,-4.1z" fill="#cec800"/><path d="M321.80001,172.75c-3.7,-2.1 -8.5,-1.6 -12.1,0.4c-0.7,0.3 -1.2,-0.7 -0.6,-1c4,-2.2 9.2,-2.6 13.3,-0.4c0.6,0.4 0.1,1.3 -0.6,1z" fill="#cec800"/><path d="M310.80001,179.55c0,0 1.6,-2.6 6.5,-2.6c3.9,0 5.5,3.4 5.5,3.4c0,0 0,3 -5.5,3c-4.6,0 -6.5,-3.8 -6.5,-3.8z" fill="#ffffff"/><path d="M322.90001,180.45c0,0 -0.1,2.9 -5.3,3c-0.7,-0.6 -1.1,-1.2 -1.4,-2c0.7,-0.2 1.2,-0.8 1.2,-1.5c0,-0.8 -0.5,-1.4 -1.2,-1.5c0.2,-0.6 0.5,-1.1 0.9,-1.5c0.1,0 0.1,0 0.2,0c4,0 5.6,3.5 5.6,3.5z" fill="#748706"/><path d="M322.90001,180.45c0,0 0,1.9 -2.8,2.7c-1.2,-0.6 -2,-1.7 -2,-3.1c0,-1.1 0.5,-2.1 1.3,-2.7c2.4,0.9 3.5,3.1 3.5,3.1z" fill="#302f38"/></g><path d="M292.50001,193.25c-6.3,5.6 -20.4,-1.5 -23.2,-8.2c-2,-4.9 2.4,-7.5 6.4,-8.9c2.7,-0.9 5.2,-1.3 7.9,-0.2c3.4,1.3 6.2,4 9.6,5.5c0.3,0.1 0.3,0.3 0.3,0.5c0,2.3 0,4.5 0,6.8c0,1.8 0.4,3.2 -1,4.5zM277.90001,176.55c4.4,2 8.9,3.8 13.6,5.2c-3,-1.6 -5.7,-4.1 -9,-5.1c-1.5,-0.5 -3,-0.4 -4.6,-0.1zM292.40001,183.25v-0.1c-5.6,-1.6 -11,-3.7 -16.2,-6.2c-1.4,0.5 -2.7,1.1 -3.9,1.9c6.5,2.7 13.2,4.1 20.1,4.4zM270.00001,183.15c4.3,1.2 8.9,1.6 13.1,2.1c2.3,0.3 4.9,0.2 7.4,0.1c-6.7,-0.7 -13.1,-2.8 -19.3,-5.7c-1.2,1.2 -1.5,2.4 -1.2,3.5zM274.00001,188.85c3.3,0.1 6.7,-0.1 9.8,-0.3c2.9,-0.3 5.8,-0.7 8.6,-1.4v-0.1c-3.5,0 -7.1,-0.2 -10.6,-0.7c-3.7,-0.5 -7.7,-0.9 -11.5,-1.8c0.7,1.5 2.1,3 3.7,4.3zM277.40001,191.05c1,0.6 2.2,1.1 3.3,1.5c4.1,-1 8,-2.4 11.8,-4.2c0,0 0,-0.1 0,-0.2c-2.5,0.6 -5,1 -7.6,1.3c-3,0.3 -6.2,0.5 -9.4,0.5c0.7,0.5 1.3,0.9 1.9,1.1zM292.50001,189.65c-3.2,1.5 -6.4,2.7 -9.8,3.6c1.1,0.2 2.1,0.4 3.1,0.5c1.8,0.2 5.5,0 6.5,-1.9c0.3,-0.5 0.3,-1.3 0.2,-2.2z" fill="#cec800"/></g></g></g></svg>