<svg version="1.1" xmlns="http://www.w3.org/2000/svg" xmlns:xlink="http://www.w3.org/1999/xlink" width="12.58574" height="117.19973" viewBox="0,0,12.58574,117.19973"><g transform="translate(-234.19352,-120.91784)"><g data-paper-data="{&quot;isPaintingLayer&quot;:true}" fill="#ffc800" fill-rule="nonzero" stroke="none" stroke-width="1" stroke-linecap="butt" stroke-linejoin="miter" stroke-miterlimit="10" stroke-dasharray="" stroke-dashoffset="0" style="mix-blend-mode: normal"><path d="M245.72609,123.03542c0.79974,2.36386 0.59185,5.21067 0.47305,7.67423c-0.11526,2.09799 -3.4717,105.29669 -3.4717,105.29669c0,0 -1.16602,0.68519 -1.56129,0.96167c-2.36353,-21.36598 -6.98794,-103.97951 -6.97259,-104.35411c0.09405,-2.32002 -0.14142,-5.61867 0.75236,-7.7612c1.18016,-2.82489 4.41074,-3.68525 7.19038,-3.93486c0.98783,0.02333 2.90107,1.40766 3.58979,2.11759z"/><path d="M238.61561,237.07195c-1.15683,-2.30093 1.05925,-4.66973 1.86393,-5.12794c0.50912,-0.28991 3.33401,-1.64685 4.45477,-1.00551c1.12147,0.64205 2.11354,2.21395 1.77908,4.36992c-0.33446,2.15597 -6.94945,4.06445 -8.09779,1.76352z"/></g></g></svg>