<svg version="1.1" xmlns="http://www.w3.org/2000/svg" xmlns:xlink="http://www.w3.org/1999/xlink" width="70.50089" height="101.31048" viewBox="0,0,70.50089,101.31048"><g transform="translate(-204.74959,-128.33553)"><g data-paper-data="{&quot;isPaintingLayer&quot;:true}" fill-rule="nonzero" stroke="none" stroke-linecap="butt" stroke-linejoin="miter" stroke-miterlimit="10" stroke-dasharray="" stroke-dashoffset="0" style="mix-blend-mode: normal"><path d="M204.7496,229.50004v-99h70.50089v99z" fill="#986b3d" stroke-width="NaN"/><path d="M207.33926,207.57224v-62.66667h65.97149v62.66667z" fill="#00ffea" stroke-width="0"/><text transform="translate(226.83603,224.85214) scale(0.38351,0.38351)" font-size="40" xml:space="preserve" fill="#000000" fill-rule="nonzero" stroke="none" stroke-width="1" stroke-linecap="butt" stroke-linejoin="miter" stroke-miterlimit="10" stroke-dasharray="" stroke-dashoffset="0" font-family="Sans Serif" font-weight="normal" text-anchor="start" style="mix-blend-mode: normal"><tspan x="0" dy="0">200</tspan></text><text transform="translate(207.78921,141.03492) scale(0.29194,0.29194)" font-size="40" xml:space="preserve" fill="#000000" fill-rule="nonzero" stroke="none" stroke-width="1" stroke-linecap="butt" stroke-linejoin="miter" stroke-miterlimit="10" stroke-dasharray="" stroke-dashoffset="0" font-family="Sans Serif" font-weight="normal" text-anchor="start" style="mix-blend-mode: normal"><tspan x="0" dy="0">Fish Pet Co,</tspan></text><g stroke-width="1"><g><path d="M266.06049,162.41024l6.06963,11.30208c0,0 -10.09861,2.7732 -12.03461,-0.41859c-1.98833,-3.19179 5.96499,-10.88348 5.96499,-10.88348z" fill="#e2bb7d"/><path d="M271.13596,171.98561c-2.04066,0.73254 -4.18596,1.09881 -6.38358,1.15113c-1.36043,0 -2.82552,0 -4.23828,-0.05232c-0.2093,0.05232 -0.36627,0.15698 -0.52324,0.2093c0,-0.05232 0,-0.05233 -0.05232,-0.10465c-0.2093,-0.36627 -0.31395,-0.78486 -0.31395,-1.20346c0.10465,-0.57557 0.26163,-1.46509 0.52325,-1.98833c0.10465,-0.15697 0.26162,-0.26162 0.36627,-0.31394c1.15114,-0.88951 2.19763,-1.88368 3.24412,-2.87785c1.04649,-0.99417 1.98833,-2.1453 2.82552,-3.34876l0.57556,1.09882c-1.15114,1.51741 -2.40692,2.93017 -3.81968,4.18595c-0.68022,0.62789 -1.30811,1.46509 -1.98833,2.19763c1.77903,-0.78486 3.55806,-1.62205 5.07547,-2.5639c0.73254,-0.4186 1.41275,-0.83719 2.04065,-1.30811l0.52325,0.94184c-0.78487,0.57557 -1.62205,1.09882 -2.45925,1.62206c-1.30811,0.78486 -2.5639,1.67438 -3.92433,2.51157c0.41859,0 0.78487,0 1.20346,0c2.3546,0 4.65687,-0.36627 6.8545,-1.09881z" fill="#d2ae69"/></g><g><path d="M220.9045,173.2414c-1.98833,3.19179 -12.03462,0.41859 -12.03462,0.41859l6.0173,-11.24975c0,0 7.95332,7.69169 6.01731,10.83116z" fill="#e2bb7d"/><path d="M210.28264,171.04377c2.19762,0.73254 4.49991,1.09881 6.85451,1.09881c0.4186,0 0.78486,0 1.20346,0c-1.36043,-0.83719 -2.61623,-1.72671 -3.92434,-2.51157c-0.83719,-0.52325 -1.67438,-1.04649 -2.45925,-1.62206l0.52325,-0.94184c0.62789,0.47092 1.30811,0.88952 2.04065,1.30811c1.51741,0.94184 3.29644,1.77903 5.07547,2.5639c-0.68022,-0.73254 -1.30811,-1.56973 -1.98833,-2.19763c-1.41276,-1.25579 -2.66854,-2.66854 -3.81968,-4.18595l0.57557,-1.09882c0.83719,1.20346 1.77903,2.3546 2.82552,3.34876c1.04649,0.99417 2.09298,1.98833 3.24411,2.87785c0.10465,0.05232 0.26163,0.15697 0.36628,0.31394c0.26162,0.52325 0.41859,1.41276 0.52324,1.98833c0,0.4186 -0.10464,0.83719 -0.31394,1.20346c-0.05232,0.05232 -0.05232,0.05233 -0.05232,0.10465c-0.15697,-0.05232 -0.31394,-0.15698 -0.52325,-0.2093c-1.41276,0.05232 -2.87784,0.05232 -4.23828,0.05232c-2.19762,-0.05232 -4.34293,-0.41859 -6.38358,-1.15113z" fill="#d2ae69"/></g></g><g stroke-width="1"><path d="M261.40361,182.08423c1.93601,2.04065 5.70336,2.98249 5.70336,2.98249c0,0 -4.13362,-0.47092 -6.54055,0.36627c-0.05232,0.26162 -0.15697,0.57558 -0.26162,0.8372c1.56973,2.09297 4.60455,3.45341 4.60455,3.45341c0,0 -3.29643,-0.99416 -5.70336,-0.88951c-0.2093,0.36627 -0.4186,0.73254 -0.6279,1.09881c0.99417,2.72087 4.13363,5.02315 4.13363,5.02315c0,0 -3.40109,-1.77904 -5.86034,-2.09298c0,3.24411 3.40109,6.80218 3.40109,6.80218c0,0 -4.39525,-3.50574 -6.95915,-3.50574c-0.15697,0.10465 -0.26163,0.2093 -0.4186,0.31395c-0.10465,2.61622 1.62206,5.59871 1.88368,5.96498l0.05232,0.05232l-0.05232,-0.05232l-0.20929,-0.26162c-0.62789,-0.78486 -2.61623,-2.93017 -4.39526,-3.92434c-0.2093,0.15697 -0.47092,0.26162 -0.73254,0.4186c-0.47092,2.66854 0.73254,6.01731 0.73254,6.01731c0,0 -1.7267,-3.19179 -3.50573,-4.81385c-0.31394,0.10465 -0.6279,0.2093 -0.94184,0.31395c-0.94184,2.61622 -0.26162,6.12196 -0.26162,6.12196c0,0 -1.15113,-3.45341 -2.72087,-5.38942c-0.2093,0.05232 -0.41859,0.05232 -0.62789,0.10465l-0.05233,0.05232h-0.94184c-1.62205,2.51157 -1.72671,6.4359 -1.72671,6.4359c0,0 -0.47092,-4.13363 -1.67438,-6.4359h-0.94184c-0.15697,0 -0.36627,0 -0.52325,-0.05232c-1.77903,2.04065 -2.5639,5.28477 -2.5639,5.28477c0,0 0.36628,-3.40109 -0.15697,-5.80802c-0.57557,-0.10465 -1.09882,-0.31395 -1.62206,-0.47092c-2.19762,1.56974 -3.66271,4.76153 -3.66271,4.76153c0,0 1.09882,-3.55806 0.88952,-5.96499c-0.36627,-0.2093 -0.78487,-0.36628 -1.15114,-0.62789c-2.30228,1.20346 -4.18596,3.76736 -4.18596,3.76736c0,0 1.51741,-2.87784 1.98833,-5.23244c-0.26162,-0.2093 -0.47093,-0.36627 -0.73255,-0.57557c-3.13947,0.26162 -6.38358,3.40109 -6.38358,3.40109c0,0 3.03482,-3.76737 3.45342,-6.33126c-0.26162,-0.31394 -0.47093,-0.62789 -0.73255,-0.94184c-2.24995,0.26162 -4.4999,1.51741 -5.02314,1.83136l-0.05232,0.05232h-0.10465l0.05232,-0.05232l0.05232,-0.05232l0.26163,-0.26163c0.15697,-0.15697 0.4186,-0.36628 0.68022,-0.62789c0.88951,-0.83719 1.67439,-1.67438 2.40693,-2.61622v-0.05232c0.10465,-0.10465 0.20929,-0.20929 0.26162,-0.36627c-0.31394,-0.52325 -0.57557,-1.09881 -0.83719,-1.62206c-2.51157,0 -5.1278,1.15114 -5.1278,1.15114c0,0 2.61623,-1.56974 4.23828,-3.34877c-0.15697,-0.52325 -0.31395,-0.99416 -0.47092,-1.5174c-2.51157,-0.57557 -5.38941,-0.05232 -5.38941,-0.05232c0,0 2.87784,-0.94184 4.86617,-2.30228c-0.05232,-0.52325 -0.10465,-1.09881 -0.15697,-1.62206c-2.45925,-1.88368 -6.95915,-2.19763 -6.95915,-2.19763c0,0 4.9185,-0.57556 7.01148,-2.09297c0.47092,-4.39525 2.24994,-8.52888 5.12779,-11.87764c-0.05232,-3.19179 -3.40109,-6.74985 -3.40109,-6.74985c0,0 4.23828,3.34877 6.80218,3.50574c0.26162,-0.2093 0.47092,-0.36627 0.73254,-0.52325c-0.15697,-2.72087 -1.936,-5.59871 -1.936,-5.59871c0,0 0.10465,0.10464 0.26162,0.31394l-0.10465,-0.15697c0,0 0.57557,0.68022 1.41276,1.56973c0.83719,0.88951 1.77903,1.67438 2.77319,2.30228c1.46508,-0.78486 3.08715,-1.41276 4.7092,-1.83136c0.94184,-2.61622 0.26162,-6.06963 0.26162,-6.06963c0,0 1.20347,3.55806 2.82552,5.54639c0.26162,-0.05232 0.57557,-0.05232 0.88951,-0.10465c2.30228,-2.30228 2.3546,-7.32542 2.3546,-7.32542c0,0 0.68022,5.65104 2.45925,7.43007l0.47092,0.05232c1.98833,-1.98833 2.87784,-5.54638 2.87784,-5.54638c0,0 -0.41859,3.87201 0.31395,6.27893c1.67438,0.57557 3.29643,1.25578 4.81384,2.19762c2.66854,-0.99417 4.86617,-4.0813 4.86617,-4.0813c0,0 -1.72671,3.19179 -2.09298,5.65104c3.24411,0.15697 6.95915,-3.40109 6.95915,-3.40109c0,0 -4.23828,5.23244 -3.45342,7.58704l0.10465,0.15698c2.87784,0.10465 6.17428,-1.936 6.17428,-1.936c0,0 -3.24411,2.61622 -4.34293,4.86617c0.2093,0.36627 0.36627,0.73254 0.52324,1.09881c0.41859,0.83719 0.73255,1.72671 0.99417,2.61623c0.31394,1.09882 0.57556,2.19762 0.73254,3.29644c1.67438,3.19179 7.95332,3.34876 7.95332,3.34876h-0.10465c-0.78487,0.05232 -6.6452,0.8372 -7.63936,2.93017z" fill="#eac685"/><path d="M261.76988,183.34001c-0.99417,-0.47092 -1.98832,-0.88952 -2.98249,-1.25579c-0.83719,1.41276 -1.88368,2.72087 -2.9825,3.92433c0.57557,0.88951 1.30811,1.67439 2.09298,2.40693c-0.94184,-0.62789 -1.88368,-1.20346 -2.87785,-1.67438c-0.57557,0.62789 -1.20346,1.09881 -1.83136,1.62206c0.31394,1.36043 0.83719,2.5639 1.46509,3.76736c-0.83719,-1.04649 -1.72671,-1.98833 -2.66855,-2.87785c-0.88951,0.62789 -1.88367,1.20346 -2.87784,1.67438c0.36627,1.56974 1.04649,3.03482 1.88368,4.39525c0,0 -1.93601,-2.30228 -3.92434,-3.55806c-0.94184,0.36627 -1.88368,0.62789 -2.82552,0.83719c0,1.36043 0.15698,2.66854 0.52325,3.97665c-0.57557,-1.25579 -1.25579,-2.51157 -2.04065,-3.66271c-0.73254,0.15697 -1.51741,0.20929 -2.24995,0.26162c-0.47092,1.36043 -0.68022,2.82552 -0.73254,4.23828c-0.2093,-1.46508 -0.52325,-2.82552 -0.94184,-4.23828c-0.99417,0 -2.04065,-0.10465 -3.03481,-0.26162c-0.73254,1.30811 -1.30812,2.72087 -1.67439,4.23828c0.10465,-1.51741 0.05233,-3.08714 -0.15697,-4.60455c-0.83719,-0.2093 -1.62206,-0.4186 -2.45925,-0.73255c-1.98833,1.56974 -3.34876,4.13363 -3.34876,4.13363c0.57557,-1.62205 0.99416,-3.34876 1.20346,-5.02314c-0.83719,-0.4186 -1.67439,-0.88952 -2.45925,-1.41276c-1.20346,0.78486 -2.30227,1.77903 -3.24411,2.87785c0.73254,-1.20346 1.36043,-2.51157 1.88368,-3.87201c-0.52325,-0.36627 -0.99417,-0.78487 -1.46509,-1.20346c-2.98249,-0.36627 -6.69752,2.40693 -6.69752,2.40693c0,0 3.24411,-3.13947 3.92433,-5.49407c-0.88951,-1.15114 -1.56973,-2.3546 -2.19762,-3.61039c-1.51741,0.05232 -3.03482,0.36627 -4.44758,0.88952c1.30811,-0.73254 2.5639,-1.56973 3.71504,-2.51157c-0.4186,-1.09882 -0.78487,-2.30228 -1.04649,-3.50574c0,-0.10465 0,-0.26162 0.05232,-0.41859c-1.98833,-1.56974 -4.86617,-2.24995 -4.86617,-2.24995c0,0 2.98249,0.31395 5.38942,-0.10465c0.2093,-0.68022 0.4186,-1.36044 0.68022,-1.98833c-1.15114,-1.04649 -2.45925,-1.936 -3.87201,-2.61622c1.51741,0.47092 3.08714,0.73254 4.65687,0.88952c0.36627,-0.68022 0.78486,-1.41276 1.20346,-2.09297c-1.25579,-2.24995 -3.71504,-4.02898 -3.71504,-4.02898c0,0 2.77319,1.46508 5.12779,1.98833c2.30228,-2.82552 5.28476,-5.07547 8.68586,-6.48823c0,-1.67438 -0.31394,-3.34876 -0.83719,-4.9185c0.78486,1.51741 1.77903,2.87785 2.87785,4.18596c1.51741,-0.47092 3.08714,-0.73254 4.70919,-0.88952c2.30228,-2.24995 2.45925,-7.27309 2.45925,-7.27309c0,0 0.68022,5.65104 2.45925,7.43007c1.72671,0.2093 3.40109,0.68022 5.02314,1.30811c1.936,-1.62205 3.13947,-4.39526 3.13947,-4.39526c0,0 -0.94184,3.08714 -0.88951,5.44174c2.98249,1.56974 5.49406,3.81968 7.48239,6.48823c2.87784,0.10465 6.17428,-1.936 6.17428,-1.936c0,0 -3.24411,2.61622 -4.34293,4.86617c0.15697,0.26162 0.26162,0.57557 0.41859,0.83719c2.45925,0.52325 5.18012,0 5.18012,0c-1.46508,0.52325 -2.93016,1.20346 -4.34292,1.98833c0.15697,0.4186 0.26162,0.83719 0.41859,1.25579c2.61622,1.15114 6.54055,0.41859 6.54055,0.41859c0,0 -4.4999,1.51741 -6.12196,3.40109c-0.41859,1.72671 -1.04649,3.34876 -1.88368,4.86617c0.68022,0.83719 1.51741,1.56974 2.66854,1.88368z" fill="#f2d39a"/></g><g stroke-width="1"><g fill="#e7c684"><path d="M224.30559,173.76464c0,0.4186 -0.36627,0.78486 -0.78486,0.78486c-0.4186,0 -0.78487,-0.36627 -0.78487,-0.78486v-0.15698c0,-0.4186 0.31395,-0.78486 0.78487,-0.78486c0.47092,0 0.78486,0.36627 0.78486,0.78486z"/><path d="M227.44506,173.29372c0.10465,0.2093 0.05232,0.47091 -0.05232,0.62789c-0.2093,0.31394 -0.52325,0.4186 -0.83719,0.36628c-0.15697,0 -0.26162,-0.05232 -0.4186,-0.10465c-0.36627,-0.2093 -0.52325,-0.73255 -0.26163,-1.09882c0.2093,-0.31394 0.57557,-0.52325 0.94184,-0.47092c0.36627,0.05232 0.68022,0.31395 0.62789,0.68022z"/><path d="M224.98581,177.47968c-0.99417,0 -0.99417,-1.62206 0,-1.62206c1.04649,0 0.99417,1.62206 0,1.62206z"/><path d="M229.64268,177.37503c-0.99417,0 -0.99417,-1.62206 0,-1.62206c1.04649,0 1.04649,1.56974 0,1.62206z"/><path d="M248.63645,175.75297c-0.73254,0 -0.73254,-1.09881 0,-1.09881c0.73254,0 0.73254,1.15113 0,1.09881z"/><path d="M251.14802,174.13091c-0.99417,0 -0.99417,-1.62205 0,-1.62205c1.04649,0 1.04649,1.62205 0,1.62205z"/><path d="M255.96187,174.65416c-0.99416,0 -0.99416,-1.62206 0,-1.62206c1.04649,0 1.04649,1.56974 0,1.62206z"/><path d="M252.08986,176.53784c-0.73254,0 -0.73254,-1.09882 0,-1.09882c0.73254,0 0.73254,1.15114 0,1.09882z"/><path d="M239.532,173.18907c-0.99417,0 -0.99417,-1.62205 0,-1.62205c0.99417,0 0.99417,1.62205 0,1.62205z"/></g><g><path d="M246.90975,162.82884c-0.05232,-0.26162 0.10465,-0.52325 0.36627,-0.62789c0.88951,-0.36627 1.936,0 2.66854,0.62789c0.57557,0.4186 -0.2093,1.15114 -0.73254,0.73254c-0.4186,-0.36627 -1.04649,-0.52325 -1.62206,-0.31394c-0.26162,0.05232 -0.52324,-0.10465 -0.68022,-0.4186z" fill="#d2ae69"/><g><path d="M245.34001,169.00312c-0.15697,-1.51741 0.88951,-2.93017 2.40693,-3.08714c1.51741,-0.15697 2.93017,0.88951 3.08714,2.40693c0.10465,1.04649 -0.36628,1.98833 -1.09882,2.5639c-0.36627,-0.10465 -0.78487,-0.20929 -1.04649,-0.20929c-0.73254,-0.05232 -1.41276,0.10465 -2.04065,0.36627c-0.73254,-0.4186 -1.25579,-1.15114 -1.30811,-2.04065z" fill="#ffffff"/><path d="M248.16553,169.94496c-0.26162,0.05232 -0.47092,0 -0.68022,-0.10465c0.26162,-0.2093 0.47092,-0.47092 0.4186,-0.83719c-0.05232,-0.47092 -0.47092,-0.78486 -0.94184,-0.73254c-0.05232,0 -0.05232,0.05232 -0.10465,0.05232c0.15697,-0.47092 0.52324,-0.78486 0.99416,-0.83719c0.68022,-0.05232 1.36043,0.41859 1.41276,1.09881c0.10465,0.68022 -0.36627,1.30811 -1.09881,1.36043z" fill="#737977"/></g></g><path d="M236.49718,176.69481c1.15114,2.04065 4.76153,1.83136 5.75569,-0.20929c0.26162,-0.4186 0.88952,0 0.68022,0.41859c-1.20346,2.5639 -5.65104,2.72088 -7.06379,0.2093c-0.2093,-0.4186 0.41859,-0.78487 0.62789,-0.4186z" fill="#737977"/><g><path d="M228.43922,162.93348c0.78486,-0.57557 1.77903,-0.83719 2.77319,-0.62789c0.68022,0.05232 0.4186,1.09882 -0.26162,0.99417c0.26162,0.05232 -0.47092,0 -0.62789,0c-0.4186,0 -0.78487,0.10465 -1.15114,0.36627c-0.52325,0.47092 -1.25579,-0.26162 -0.73254,-0.73254z" fill="#d2ae69"/><g><path d="M229.22409,171.0961c-0.73254,-0.4186 -1.25579,-1.15114 -1.36043,-2.04065c-0.15697,-1.51741 0.88951,-2.93017 2.40693,-3.08714c1.51741,-0.15697 2.93017,0.88951 3.08714,2.40693c0.15697,0.99417 -0.31395,1.936 -1.04649,2.51157c-0.36627,-0.15697 -0.73254,-0.20929 -0.99416,-0.20929c-0.73254,-0.05232 -1.46509,0.10465 -2.09298,0.41859z" fill="#ffffff"/><path d="M230.58452,169.99728c-0.26162,0 -0.47092,0 -0.73254,-0.15697c0.26162,-0.15697 0.4186,-0.47092 0.36627,-0.78486c-0.05232,-0.4186 -0.47092,-0.78486 -0.88952,-0.73254c0.2093,-0.47092 0.57557,-0.78486 1.04649,-0.83719c0.68022,-0.05232 1.36043,0.41859 1.41276,1.09881c0.10465,0.68022 -0.4186,1.30811 -1.20346,1.41276z" fill="#737977"/></g></g><path d="M242.77612,181.29936c-2.98249,1.56974 -3.40109,6.48823 -3.40109,6.48823c0,0 -0.4186,-5.59871 -2.61622,-6.33125c0,0 1.77903,0.62789 2.93017,0.62789c1.41276,0.05232 3.08714,-0.78487 3.08714,-0.78487z" fill="#eac685"/></g></g></g></svg>