<svg version="1.1" xmlns="http://www.w3.org/2000/svg" xmlns:xlink="http://www.w3.org/1999/xlink" width="70.50089" height="101.24209" viewBox="0,0,70.50089,101.24209"><g transform="translate(-204.74956,-128.33554)"><g data-paper-data="{&quot;isPaintingLayer&quot;:true}" stroke="none" stroke-linecap="butt" stroke-linejoin="miter" stroke-miterlimit="10" stroke-dasharray="" stroke-dashoffset="0" style="mix-blend-mode: normal"><path d="M204.74956,229.5v-99h70.50089v99z" fill="#986b3d" fill-rule="nonzero" stroke-width="NaN"/><path d="M207.33924,207.57222v-62.66667h65.97149v62.66667z" fill="#00ffea" fill-rule="nonzero" stroke-width="0"/><g stroke-width="1"><g fill-rule="nonzero"><path d="M226.09068,172.06965c-0.86262,-0.17252 -0.51757,-0.11502 -0.69009,-0.86262c-0.17252,-0.97763 -1.03514,-1.72524 -1.26517,-2.76038c-0.17252,-0.86262 -0.05751,-2.41533 0.40256,-3.16293c0.7476,-1.26517 1.38019,-2.24281 2.81789,-2.81789c1.09265,-0.40256 2.12779,-0.28754 3.22044,-0.46006c1.32268,-0.17252 2.35782,0.57508 3.56549,0.97763c1.4377,0.46006 3.04792,1.03514 4.54312,1.09265c0.40256,0 0.92013,0 1.32268,-0.17252c0.34505,-0.17252 0.57508,-0.51757 0.92013,-0.63259c1.09265,-0.34505 2.53035,0.23003 3.50798,-0.63259c0.97763,-0.86262 0.46006,-2.35782 1.72524,-2.9329c0.46006,-0.17252 0.86262,-0.23003 1.26517,-0.51757c0.51757,-0.34505 0.92013,-0.23003 1.55271,-0.46006c1.4952,-0.51757 2.35782,-0.05751 3.56549,0.7476c0.34505,0.23003 0.69009,0.57508 1.03514,0.69009c0.23003,0.11502 0.51757,0.11502 0.69009,0.17252c0.7476,0.34505 0.7476,0.34505 1.20767,2.12779c0.28754,1.15016 -0.05751,4.60063 -0.05751,4.60063z" fill="#120201"/><path d="M227.41336,173.1623c-0.86262,-0.17252 -0.51757,-0.11502 -0.69009,-0.86262c-0.17252,-0.97763 -0.86262,-0.92013 -1.03514,-1.95527c-0.17252,-0.86262 -0.97763,-2.30031 -0.51757,-3.10543c0.7476,-1.26517 1.15016,-3.04792 2.64536,-3.623c1.09265,-0.40256 2.12779,-0.28754 3.22044,-0.46006c1.32268,-0.17252 2.35782,0.57508 3.56549,0.97763c1.4377,0.46006 3.04792,1.03514 4.54312,1.09265c0.40256,0 0.92013,0 1.32268,-0.17252c0.34505,-0.17252 0.57508,-0.51757 0.92013,-0.63259c1.09265,-0.34505 2.53035,0.23003 3.50798,-0.63259c0.97763,-0.86262 0.46006,-2.35782 1.72524,-2.9329c0.46006,-0.17252 0.86262,-0.23003 1.26517,-0.51757c0.51757,-0.34505 0.92013,-0.23003 1.55271,-0.46006c1.4952,-0.51757 2.35782,-0.05751 3.56549,0.7476c0.34505,0.23003 0.69009,0.57508 1.03514,0.69009c0.23003,0.11502 0.51757,0.11502 0.69009,0.17252c0.7476,0.34505 0.7476,0.34505 1.20767,2.12779c0.28754,1.15016 -0.05751,4.60063 -0.05751,4.60063z" fill="#e85f1a"/><path d="M244.4932,162.75337c0,-0.05751 1.15016,1.26517 1.66773,2.35782c0.11502,0.17252 0.51757,1.09265 0.57508,1.26517c0.28754,0.69009 0.57508,1.38019 0.86262,2.1853l-9.89135,1.66773c-0.17252,-0.57508 -0.34505,-1.15016 -0.51757,-1.72524c-0.11502,-0.40256 -0.23003,-0.7476 -0.40256,-1.15016c0,-0.05751 -0.05751,-0.05751 -0.05751,-0.11502v-0.05751v0c-0.05751,-0.17252 -0.17252,-0.34505 -0.23003,-0.51757c-0.40256,-0.92013 -0.86262,-2.1853 -1.4377,-3.27795c1.20767,0.34505 2.47284,0.7476 3.6805,0.80511c0.40256,0 0.92013,0 1.32268,-0.17252c0.34505,-0.17252 0.57508,-0.51757 0.92013,-0.63259c1.15016,-0.34505 2.58785,0.23003 3.50798,-0.63259c0,-0.05751 0,-0.05751 0,0z" fill="#fcc3ac"/><path d="M237.70727,165.97381l0.97763,4.02555l-12.70924,2.12779c-0.05751,-0.05751 -0.11502,-0.05751 -0.17252,-0.05751c-0.05751,0 -0.05751,0 -0.05751,0c-0.11502,0 -0.17252,-0.05751 -0.23003,-0.05751v0c0,-0.05751 -0.05751,-0.05751 -0.05751,-0.05751v0c-0.05751,0 -0.05751,-0.05751 -0.05751,-0.05751v0v-0.05751v0v-0.05751c0,-0.05751 0,-0.05751 0,-0.11502v0c0.69009,-0.51757 1.38019,-0.92013 2.07028,-1.38019c-0.51757,-0.86262 -1.15016,-1.61022 -1.89776,-2.30031c-0.46006,-0.46006 -0.92013,-1.03514 -1.4377,-1.4952c0.05751,-0.23003 0.11502,-0.46006 0.17252,-0.63259c0.63259,0.51757 1.15016,1.15016 1.72524,1.66773c0.7476,0.69009 1.4377,1.4952 1.95527,2.41533c0.34505,-0.23003 0.69009,-0.46006 1.03514,-0.63259c-0.80511,-2.07028 -1.89776,-4.02555 -3.22044,-5.8083c0.11502,-0.17252 0.23003,-0.28754 0.40256,-0.40256c1.38019,1.84025 2.47284,3.79552 3.33546,5.92331c0.11502,-0.05751 0.23003,-0.11502 0.34505,-0.17252c0.34505,-0.23003 0.7476,-0.40256 1.09265,-0.57508c-0.57508,-2.12779 -1.26517,-4.25558 -2.41533,-6.09583c0.23003,-0.05751 0.40256,-0.05751 0.63259,-0.05751c1.09265,1.84025 1.72524,3.85303 2.30031,5.92331c0.80511,-0.34505 1.55271,-0.69009 2.35782,-0.97763c-0.46006,-1.78274 -1.20767,-3.45047 -2.24281,-5.00318c0.28754,0.05751 0.57508,0.11502 0.86262,0.23003c0.86262,1.4377 1.4952,2.9329 1.95527,4.54312c0.17252,-0.05751 3.22044,-0.86262 3.27795,-0.86262z" fill="#f47621"/><path d="M244.89576,168.96422l-1.95527,0.23003l-1.26517,0.23003l-2.12779,0.34505l-0.7476,0.11502l-0.97763,-4.02555c0,0 -0.51757,-1.38019 -0.80511,-2.07028c0.23003,0.05751 0.40256,0.05751 0.57508,0.11502c0.28754,0.63259 0.51757,1.20767 0.7476,1.84025c0.7476,-0.17252 1.4952,-0.28754 2.24281,-0.40256c-0.17252,-0.46006 -0.34505,-0.97763 -0.51757,-1.4377v0c0.11502,-0.05751 0.23003,-0.11502 0.34505,-0.23003c0.17252,0.57508 0.40256,1.09265 0.57508,1.66773c0.05751,0 0.05751,0 0.11502,0c0.80511,-0.11502 1.55271,-0.17252 2.30031,-0.23003c-0.17252,-0.63259 -0.40256,-1.26517 -0.63259,-1.89776c0.11502,0 0.28754,0 0.46006,0c0.23003,0.63259 0.46006,1.26517 0.63259,1.89776z" fill="#ffffff"/><path d="M255.59222,166.83643v0c0,0.05751 0,0.11502 0,0.17252v0c0,0.05751 -10.63896,1.95527 -10.63896,1.95527l-1.03514,-3.91054c0.17252,0 3.04792,0 3.22044,0c-0.40256,-1.55271 -1.03514,-2.99041 -1.72524,-4.42811c0.11502,-0.23003 0.23003,-0.40256 0.40256,-0.57508c0.86262,1.61022 1.4952,3.27795 1.95527,5.00318c0.46006,0 0.92013,0.05751 1.38019,0.11502c-0.05751,-2.12779 -0.40256,-4.19807 -1.20767,-6.15334c0.17252,-0.05751 0.40256,-0.05751 0.57508,-0.11502c0.80511,2.01278 1.15016,4.19807 1.20767,6.38337c0.51757,0.05751 1.09265,0.17252 1.61022,0.28754c0.11502,-2.35782 -0.11502,-4.77315 -0.92013,-7.01596c0.23003,0 0.40256,0.05751 0.63259,0.11502c0.7476,2.30031 0.92013,4.65814 0.86262,7.07347c0.51757,0.11502 1.03514,0.23003 1.55271,0.40256c0.11502,-2.12779 0,-4.31309 -0.51757,-6.38337c0.23003,0.17252 0.46006,0.34505 0.69009,0.46006c0.46006,1.95527 0.51757,4.02555 0.40256,6.09583c0.51757,0.17252 1.03514,0.34505 1.55271,0.51757z" fill="#f47621"/></g><g fill-rule="nonzero"><path d="M243.97563,184.31882c-0.34505,0.57508 -3.73801,2.47284 -4.83066,2.99041c-0.57508,0.23003 -1.15016,0.46006 -1.78274,0.69009c-0.40256,0.17252 -0.69009,0.34505 -0.92013,0.46006c-1.20767,0.57508 -2.64536,1.03514 -3.96804,1.38019c-0.86262,0.23003 -1.15016,-0.28754 -2.24281,-0.63259c-1.09265,-0.34505 -1.95527,0.40256 -3.10543,0.17252c-0.40256,-0.11502 -0.86262,-0.23003 -1.09265,-0.63259c-0.11502,-0.17252 -0.23003,-0.57508 -0.34505,-0.69009c-0.34505,-0.28754 -0.57508,0.05751 -0.97763,-0.11502c-0.34505,-0.11502 -0.63259,-0.51757 -0.7476,-0.86262c-0.11502,-0.57508 -0.17252,-0.86262 -0.17252,-1.32268c-0.05751,-0.63259 -0.46006,-1.15016 -0.17252,-1.84025c0.28754,-0.7476 1.32268,-1.09265 1.95527,-1.32268c0.23003,-0.11502 0.51757,-0.23003 0.80511,-0.28754c0.51757,-0.46006 1.38019,-0.7476 1.84025,-0.92013c0.92013,-0.40256 2.01278,-0.57508 2.9329,-0.97763z" fill="#000600"/><path d="M243.91812,184.20381c-0.34505,0.57508 -3.73801,2.47284 -4.83066,2.99041c-1.20767,0.57508 -2.64536,1.03514 -3.96804,1.38019c-0.86262,0.23003 -1.89776,0.40256 -2.24281,-0.63259c-1.09265,-0.05751 -2.1853,0.40256 -3.33546,0.17252c-0.40256,-0.11502 -0.86262,-0.23003 -1.09265,-0.63259c-0.11502,-0.17252 0,-0.57508 -0.11502,-0.69009c-0.28754,-0.34505 -1.03514,0.05751 -1.4377,-0.11502c-0.34505,-0.11502 -0.63259,-0.51757 -0.7476,-0.86262c-0.11502,-0.51757 0.28754,-0.86262 0.28754,-1.32268c-0.05751,-0.63259 -0.69009,-1.09265 -0.40256,-1.78274c0.28754,-0.69009 1.55271,-1.09265 2.1853,-1.32268c0.92013,-0.40256 2.01278,-0.57508 2.9329,-0.97763z" fill="#e85f1a"/><path d="M231.09387,180.58081l12.70924,3.79552c-0.17252,0.34505 -1.89776,1.38019 -3.16293,2.12779c-1.20767,-0.28754 -3.6805,-1.09265 -3.6805,-1.09265c-1.55271,1.72524 -3.33546,3.22044 -5.29072,4.48561c-0.17252,-0.05751 -0.40256,-0.17252 -0.63259,-0.28754c1.95527,-1.20767 3.6805,-2.70287 5.29072,-4.3706c-0.69009,-0.17252 -1.38019,-0.34505 -2.07028,-0.51757c-1.09265,0.92013 -2.1853,1.84025 -3.33546,2.64536c-0.92013,0.69009 -1.89776,1.38019 -2.9329,2.01278c-0.34505,0.05751 -0.63259,0.05751 -0.97763,0c-0.05751,-0.05751 -0.11502,-0.05751 -0.17252,-0.05751c1.32268,-0.7476 2.58785,-1.66773 3.73801,-2.47284c1.03514,-0.7476 2.01278,-1.55271 2.9329,-2.35782c-0.46006,-0.11502 -0.97763,-0.28754 -1.4952,-0.40256c-2.47284,1.4952 -5.1182,2.64536 -7.87858,3.45047c-0.11502,-0.11502 -0.17252,-0.28754 -0.23003,-0.46006c0,-0.05751 0,-0.05751 0,-0.05751c2.58785,-0.7476 5.06069,-1.78274 7.36101,-3.10543c-0.69009,-0.23003 -1.4377,-0.40256 -2.12779,-0.63259c-1.78274,0.63259 -3.73801,0.92013 -5.63577,1.15016c0,-0.17252 0.05751,-0.34505 0.11502,-0.51757c0,-0.05751 0.05751,-0.05751 0.05751,-0.11502c1.4952,-0.23003 2.99041,-0.46006 4.42811,-0.86262c-0.63259,-0.17252 -1.32268,-0.34505 -1.95527,-0.57508c0.05751,0 0.11502,-0.05751 0.17252,-0.05751c0.51757,-0.46006 1.84025,-0.92013 1.84025,-0.92013c0,0 2.07028,-0.63259 2.9329,-0.80511z" fill="#f47621"/></g><g><path d="M259.96282,184.83639c-0.40256,0.51757 -0.69009,1.15016 -1.09265,1.72524c-0.69009,0.92013 -1.4377,1.84025 -2.1853,2.70287c-0.63259,0.7476 -1.26517,1.4952 -1.95527,2.24281c-1.03514,1.26517 -2.12779,2.64536 -3.50798,3.623c-1.4377,1.03514 -0.63259,-0.46006 -0.86262,-0.97763c-0.63259,0.23003 -0.92013,0.80511 -1.66773,0.28754c-0.46006,-0.28754 -0.63259,-0.80511 -0.63259,-1.32268c0,-0.51757 0.17252,-0.69009 0.05751,-1.09265c-0.11502,-0.51757 -0.34505,-0.57508 0,-1.15016c0.17252,-0.28754 0.23003,-0.92013 0.17252,-1.09265c-0.17252,-0.63259 0.28754,-1.26517 0.7476,-1.72524c0.69009,-0.7476 0,-1.26517 1.09265,-1.66773c0.11502,-0.05751 0.28754,-0.05751 0.40256,-0.11502c0.28754,-0.57508 0.28754,-1.15016 0.80511,-1.55271c0.17252,-0.11502 0.28754,-0.17252 0.40256,-0.23003c0.63259,-0.23003 1.38019,-0.28754 2.01278,-0.46006z" fill="#000600" fill-rule="nonzero"/><path d="M260.25036,184.83639c-0.40256,0.51757 -0.69009,1.15016 -1.09265,1.72524c-0.69009,0.92013 -1.4377,1.84025 -2.1853,2.70287c-1.20767,1.38019 -2.35782,2.9329 -3.85303,3.96804c-1.4377,1.03514 -1.78274,-0.17252 -2.53035,-0.69009c-0.46006,-0.28754 -0.63259,-0.80511 -0.63259,-1.32268c0,-0.51757 0.17252,-0.69009 0.05751,-1.09265c-0.11502,-0.51757 -0.34505,-0.57508 0,-1.15016c0.11502,-0.28754 0.23003,-0.17252 0.28754,-0.51757c0.05751,-0.23003 -0.05751,-0.40256 -0.11502,-0.57508c-0.17252,-0.63259 -0.17252,-0.7476 0.28754,-1.20767c0.69009,-0.7476 0.46006,-1.78274 1.55271,-2.1853c0.63259,-0.23003 1.38019,-0.28754 2.01278,-0.46006z" fill="#e85f1a" fill-rule="nonzero"/><path d="M256.56986,184.72138c0,0.11502 -0.05751,0.23003 -0.05751,0.34505c0.05751,0.05751 0.05751,0.17252 -0.05751,0.28754v0c-0.86262,3.623 -2.76038,7.01596 -5.29072,9.83385c-0.69009,0.46006 -0.80511,0.34505 -0.80511,0c2.24281,-2.41533 4.02555,-5.29072 5.06069,-8.39615c-1.78274,2.87539 -4.14057,5.57826 -6.78593,7.64855c-0.17252,-0.11502 -0.28754,-0.28754 -0.40256,-0.46006c2.35782,-1.84025 4.42811,-4.14057 6.09583,-6.67091c-0.7476,0.63259 -1.55271,1.26517 -2.35782,1.89776c-1.20767,0.86262 -2.53035,1.95527 -4.02555,2.47284c-0.05751,-0.23003 -0.11502,-0.34505 0,-0.63259c1.61022,-0.63259 3.10543,-1.89776 4.3706,-2.87539c1.09265,-0.86262 2.1853,-1.78274 3.16293,-2.76038c0.17252,-0.34505 0.28754,-0.63259 0.46006,-0.92013c0.05751,-0.05751 0.05751,-0.11502 0.05751,-0.17252l0.63259,0.05751c-0.05751,0.11502 -0.11502,0.23003 -0.05751,0.34505z" fill="#f47621" fill-rule="nonzero"/><path d="M258.23758,186.73415c-0.40256,0.51757 -0.69009,1.15016 -1.09265,1.72524c-0.69009,0.92013 -1.4377,1.84025 -2.1853,2.70287c-1.20767,1.38019 -2.35782,2.9329 -3.85303,3.96804c-1.4377,1.03514 -0.63259,-0.46006 -0.86262,-0.97763c-0.63259,0.23003 -0.92013,0.80511 -1.66773,0.28754c-0.46006,-0.28754 -0.63259,-0.80511 -0.63259,-1.32268c0,-0.51757 0.17252,-0.69009 0.05751,-1.09265c-0.11502,-0.51757 -0.34505,-0.57508 0,-1.15016c0.17252,-0.28754 0.23003,-0.92013 0.17252,-1.09265c-0.17252,-0.63259 0.28754,-1.26517 0.7476,-1.72524c0.69009,-0.7476 0,-1.26517 1.09265,-1.66773c0.63259,-0.23003 1.38019,-0.28754 2.01278,-0.46006z" fill="none" fill-rule="evenodd"/></g><g fill-rule="nonzero"><path d="M223.13278,173.9099c2.01278,-1.89776 4.83066,-3.6805 7.3035,-5.06069c3.6805,-2.07028 7.07347,-2.99041 11.21404,-3.50798c7.99359,-1.03514 15.18208,0.7476 21.85299,5.40574c3.33546,2.30031 6.95845,4.08306 8.68369,7.82107c0.57508,0.69009 -2.35782,2.01278 -4.14057,2.12779c1.66773,1.66773 4.60063,-0.69009 4.19807,0.05751c-0.57508,1.26517 -2.47284,2.81789 -3.04792,3.10543c-5.00318,2.76038 -11.78911,5.46325 -17.5399,4.54312c-7.87858,-1.26517 -15.92968,-2.99041 -23.63574,-5.23322c-1.09265,-0.28754 -3.6805,-1.09265 -3.6805,-1.09265c-1.38019,-0.7476 -0.92013,-1.61022 -1.89776,-2.64536z" fill="#f47621"/><path d="M263.38829,186.56163c-0.86262,0.34505 -1.72524,0.63259 -2.58785,0.92013c-4.65814,-2.12779 -7.99359,-9.20126 -7.70606,-14.14694c0.11502,-2.41533 1.4377,-4.42811 2.87539,-6.32587c0.05751,-0.05751 0.11502,-0.11502 0.17252,-0.17252c1.72524,0.63259 3.45047,1.4952 5.1182,2.47284c-2.35782,2.99041 -4.3706,6.90094 -3.33546,10.63896c0.63259,2.24281 2.35782,4.02555 3.96804,5.57826c0.40256,0.34505 1.03514,0.7476 1.4952,1.03514z" fill="#ffffff"/><path d="M246.25094,165.11119c0.11502,0.17252 6.72842,15.46962 0.86262,21.73798c-0.28754,0.28754 -0.63259,0.51757 -0.92013,0.69009c-2.07028,-0.40256 -4.14057,-0.80511 -6.21085,-1.26517c0.28754,-3.10543 -0.34505,-6.72842 -0.57508,-9.02874c-0.34505,-3.73801 -1.38019,-7.47602 -2.87539,-10.9265c0,0 1.84025,-0.63259 4.71565,-0.97763c1.72524,-0.23003 3.39296,-0.34505 5.00318,-0.23003z" fill="#ffffff"/><g><path d="M261.318,177.18785c-0.05751,-1.26517 0.86262,-2.64536 3.10543,-2.35782c1.4377,0.17252 2.24281,0.92013 2.30031,1.78274c0.11502,1.09265 -1.09265,2.41533 -2.53035,2.53035c-1.4952,0.11502 -2.87539,-1.03514 -2.87539,-1.95527z" fill="#ffffff"/><path d="M263.33078,177.24535c0.40256,-0.23003 0.28754,-1.03514 -0.28754,-1.26517c0.11502,-0.11502 0.28754,-0.11502 0.46006,-0.17252c1.72524,-0.46006 2.24281,1.32268 1.15016,2.07028c-0.80511,0.51757 -1.66773,0.05751 -1.72524,-0.46006c0.11502,0 0.28754,-0.05751 0.40256,-0.17252z" fill="#000600"/><path d="M260.28286,173.73737c1.20767,-1.32268 3.22044,-1.4952 4.88817,-1.03514c0.46006,0.11502 0.28754,0.86262 -0.23003,0.7476c-1.38019,-0.40256 -3.04792,-0.28754 -4.08306,0.86262c-0.28754,0.40256 -0.86262,-0.17252 -0.57508,-0.57508z" fill="#e85f1a"/></g></g><g fill-rule="nonzero"><path d="M253.86699,183.57122c0,0.05751 -4.14057,1.84025 -5.1182,1.89776c-1.84025,0.11502 -2.87539,-0.46006 -4.02555,-1.72524c-0.23003,-0.23003 -0.69009,-0.34505 -0.92013,-0.63259c-0.28754,-0.40256 -0.57508,-0.80511 -0.63259,-1.26517c-0.05751,-0.7476 -0.28754,-1.32268 -0.63259,-1.95527c-0.40256,-0.7476 -0.40256,-1.61022 -0.46006,-2.47284c-0.05751,-0.86262 0.46006,-1.26517 0.97763,-1.95527c0.34505,-0.40256 0.69009,-1.03514 1.20767,-1.20767c0.28754,-0.11502 0.69009,0 1.03514,-0.05751c0.34505,-0.05751 0.63259,-0.34505 1.03514,-0.28754c0.63259,0.11502 1.20767,1.03514 1.61022,1.4377c0.92013,0.92013 1.84025,1.84025 2.70287,2.76038c0.86262,0.92013 2.07028,1.89776 3.22044,2.35782z" fill="#f47621"/><path d="M254.21203,183.85876v0v0c-0.63259,0.46006 -1.61022,0.7476 -2.35782,1.03514c-1.09265,0.40256 -2.1853,0.92013 -3.33546,0.97763c-1.72524,0.05751 -2.70287,-0.7476 -3.96804,-1.72524c-1.4377,-1.09265 -1.4952,-1.89776 -2.12779,-3.623c-0.63259,-1.66773 -1.20767,-3.22044 -0.11502,-4.77315c0.97763,-1.38019 1.72524,-1.89776 3.39296,-2.07028c1.4952,-0.11502 2.01278,0.92013 2.99041,1.95527c1.66773,1.66773 3.22044,3.56549 5.40574,4.60063c0.11502,0.05751 0.17252,0.23003 0.17252,0.34505c0,0.97763 0,1.95527 0,2.9329c0.05751,0.11502 0.05751,0.23003 -0.05751,0.34505zM247.82866,181.50094c1.66773,0.63259 3.45047,1.03514 5.29072,1.20767c0.11502,-0.05751 0.17252,-0.05751 0.28754,-0.11502c-3.96804,-0.92013 -7.82107,-3.10543 -10.52394,-6.03833c-0.28754,0.57508 -0.28754,1.20767 -0.23003,1.78274c1.4952,1.4377 3.50798,2.47284 5.17571,3.16293zM245.9309,174.48498c0.7476,1.09265 1.66773,2.12779 2.53035,2.9329c0.86262,0.80511 1.78274,1.38019 2.76038,1.78274v0c-1.32268,-1.15016 -2.64536,-2.53035 -3.79552,-3.85303c-0.46006,-0.46006 -0.97763,-0.7476 -1.4952,-0.86262zM243.34304,175.75015c0,0.05751 -0.05751,0.05751 -0.05751,0.11502c2.64536,2.87539 6.38337,5.1182 10.29391,5.98082c0,-0.23003 0,-0.46006 -0.05751,-0.63259c-1.95527,-0.57508 -3.85303,-1.55271 -5.40574,-2.99041c-1.03514,-0.97763 -2.1853,-2.30031 -3.10543,-3.623c-0.63259,0.17252 -1.20767,0.51757 -1.66773,1.15016zM244.55071,183.16867c0.11502,0.11502 0.28754,0.17252 0.40256,0.28754c0.17252,0.11502 0.28754,0.23003 0.40256,0.34505c1.4377,0.05751 2.81789,0 4.08306,-0.17252c0.63259,-0.05751 1.20767,-0.23003 1.84025,-0.40256c-1.61022,-0.28754 -3.22044,-0.7476 -4.65814,-1.4377c-1.20767,-0.51757 -2.53035,-1.26517 -3.6805,-2.1853c0.17252,0.51757 0.40256,1.09265 0.57508,1.66773c0.34505,1.03514 0.28754,1.20767 1.03514,1.89776zM253.29191,183.51371h-0.05751c-1.09265,0.40256 -2.24281,0.7476 -3.33546,0.92013c-1.15016,0.17252 -2.35782,0.17252 -3.56549,0.11502c0.40256,0.23003 0.86262,0.46006 1.4377,0.51757c1.15016,0.17252 2.1853,-0.28754 3.27795,-0.69009c0.63259,-0.23003 1.55271,-0.46006 2.24281,-0.86262z" fill="#e85f1a"/></g><g fill-rule="nonzero"><path d="M224.25043,182.07602l-2.35782,-0.23003v0.05751c-1.95527,0.80511 -3.91054,1.09265 -5.69328,1.03514c-0.80511,0 -1.20767,0.28754 -1.78274,0c-0.05751,0 -0.17252,0.05751 -0.28754,0.05751c-0.63259,0.11502 -0.86262,0 -1.4377,-0.23003c-0.63259,-0.28754 -1.72524,-0.11502 -2.1853,-0.7476c-0.63259,-0.80511 -0.51757,-0.34505 -1.26517,-1.38019c-0.46006,-0.63259 -0.86262,-2.07028 -0.80511,-2.30031c0.11502,-0.86262 0.05751,-0.80511 -0.46006,-1.66773c-0.28754,-0.46006 -0.05751,-0.7476 -0.23003,-1.32268c-0.17252,-0.57508 0.51757,-1.26517 0.51757,-2.01278c0,-0.7476 0,-1.55271 0.28754,-2.01278c0.40256,-0.57508 1.32268,-0.80511 1.66773,-1.4952c0.63259,-1.20767 1.4377,-1.4952 2.70287,-1.15016c0.51757,0.11502 1.20767,0.11502 1.66773,-0.05751c0.57508,-0.23003 1.03514,-0.05751 1.55271,0.28754c0.17252,0.11502 0.34505,0.17252 0.46006,0.28754c2.24281,0 6.67091,2.30031 7.41852,2.1853c0,0 1.55271,0.51757 2.35782,-0.11502c1.55271,9.60381 -2.12779,10.86899 -2.12779,10.81148z" fill="#e85f1a"/><path d="M227.12582,176.8428c0,4.42811 -2.76038,5.23322 -2.76038,5.23322c-0.05751,0.05751 -0.11502,0.05751 -0.11502,0.05751l-2.35782,-0.23003v0.05751c-1.03514,0.46006 -2.07028,0.69009 -3.10543,0.86262c3.27795,-3.6805 4.3706,-8.39615 0.23003,-13.1118c2.1853,0.7476 4.48561,1.78274 5.00318,1.66773c0,0 1.15016,0.34505 1.61022,0.17252c0,0 0.40256,-0.34505 0.46006,-0.34505c0,0 1.03514,1.20767 1.03514,5.63577z" fill="#120201"/><path d="M223.44532,181.961l-1.4377,-0.17252v0.05751c-1.09265,0.46006 -2.1853,0.69009 -3.22044,0.86262c0.46006,-0.57508 0.80511,-1.15016 1.15016,-1.78274c-2.24281,0.80511 -4.60063,1.4377 -6.90094,1.89776c-0.05751,-0.05751 -0.11502,-0.05751 -0.23003,-0.11502c-0.34505,-0.11502 -0.86262,-0.11502 -1.32268,-0.23003c1.4377,-0.28754 2.87539,-0.69009 4.25558,-1.03514c1.55271,-0.40256 3.10543,-0.86262 4.60063,-1.38019c0.17252,-0.46006 0.34505,-0.92013 0.46006,-1.4377c-1.72524,0.40256 -3.39296,0.69009 -5.1182,0.92013c-2.1853,0.28754 -4.3706,0.57508 -6.61341,0.57508c-0.05751,-0.17252 -0.17252,-0.40256 -0.23003,-0.57508c2.41533,0 4.88817,-0.28754 7.24599,-0.63259c1.61022,-0.23003 3.22044,-0.51757 4.83066,-0.86262c0.05751,-0.40256 0.11502,-0.80511 0.11502,-1.20767c-4.08306,0.63259 -8.28113,1.03514 -12.4217,1.03514c0,-0.23003 -0.05751,-0.34505 -0.17252,-0.57508c4.19807,0 8.45366,-0.40256 12.59422,-1.03514c0,-0.28754 -0.05751,-0.57508 -0.05751,-0.86262c-4.3706,0.40256 -8.7412,0.11502 -13.1118,-0.28754c0,-0.17252 0.11502,-0.40256 0.17252,-0.57508c4.31309,0.40256 8.62618,0.63259 12.88176,0.23003c-0.05751,-0.23003 -0.05751,-0.40256 -0.11502,-0.63259c-2.1853,0 -4.42811,-0.17252 -6.61341,-0.57508c-1.89776,-0.28754 -3.6805,-0.86262 -5.46325,-1.4377c-0.11502,0 -0.17252,-0.05751 -0.28754,-0.05751c0,-0.17252 0.05751,-0.34505 0.11502,-0.51757c0.63259,0.17252 1.26517,0.34505 1.84025,0.51757c1.4377,0.46006 2.99041,0.80511 4.54312,1.03514c1.89776,0.28754 3.79552,0.46006 5.69328,0.46006c-0.05751,-0.17252 -0.05751,-0.28754 -0.11502,-0.40256c-1.66773,-0.46006 -3.27795,-1.09265 -4.88817,-1.84025c-1.4952,-0.69009 -3.33546,-1.32268 -4.71565,-2.41533c0.17252,-0.17252 0.34505,-0.28754 0.51757,-0.34505c1.38019,0.97763 3.16293,1.61022 4.48561,2.24281c1.4377,0.63259 2.87539,1.20767 4.3706,1.66773c-0.34505,-0.92013 -0.7476,-1.84025 -1.26517,-2.81789c2.12779,0.63259 5.00318,1.66773 5.00318,1.66773c0,0 0.7476,0.23003 1.4377,0.23003c0.92013,2.9329 1.26517,6.38337 0.17252,8.56867c-0.51757,0.97763 -1.32268,1.55271 -2.1853,1.84025z" fill="#ffffff"/><path d="M214.41658,182.93863c-0.05751,0 -0.17252,0.05751 -0.28754,0.05751c-0.63259,0.11502 -0.86262,0 -1.4377,-0.23003c-0.63259,-0.28754 -1.72524,-0.11502 -2.1853,-0.7476c-0.63259,-0.80511 -0.51757,-0.34505 -1.26517,-1.38019c-0.46006,-0.63259 -0.86262,-2.07028 -0.80511,-2.30031c0.11502,-0.86262 0.05751,-0.80511 -0.46006,-1.66773c-0.28754,-0.46006 -0.05751,-0.7476 -0.23003,-1.32268c-0.17252,-0.57508 0.51757,-1.26517 0.51757,-2.01278c0,-0.7476 0,-1.55271 0.34505,-2.01278c0.40256,-0.57508 1.32268,-0.80511 1.66773,-1.4952c0.63259,-1.20767 1.4377,-1.4952 2.70287,-1.15016c0.51757,0.11502 1.20767,0.11502 1.66773,-0.05751c0.57508,-0.23003 1.03514,-0.05751 1.55271,0.28754c0.17252,0.11502 0.34505,0.17252 0.46006,0.28754v0c-0.46006,0 -0.80511,0.05751 -1.03514,0.28754c0.17252,0.92013 -2.1853,0.23003 -2.81789,0.69009c-0.23003,0.17252 0,0.51757 -0.17252,0.63259c0,0 -0.51757,0.17252 -0.7476,0.34505c-0.40256,0.28754 -0.7476,0.40256 -1.03514,0.7476c-0.28754,0.40256 -0.51757,0.92013 -0.80511,1.38019c-0.23003,0.34505 0.11502,1.89776 -0.11502,2.41533c-0.57508,1.4377 -0.05751,1.20767 0.46006,2.07028c0.51757,0.92013 0.28754,1.78274 1.32268,2.35782c0.34505,0.17252 0.63259,0.23003 0.97763,0.51757c0.40256,0.28754 0.17252,0.69009 0.34505,1.03514c0.23003,0.46006 0.57508,0.57508 0.97763,0.92013c0.17252,0.11502 0.28754,0.23003 0.40256,0.34505z" fill="#120201"/></g></g><text transform="translate(231.23032,224.78375) scale(0.38351,0.38351)" font-size="40" xml:space="preserve" fill="#000000" fill-rule="nonzero" stroke="none" stroke-width="1" stroke-linecap="butt" stroke-linejoin="miter" stroke-miterlimit="10" stroke-dasharray="" stroke-dashoffset="0" font-family="Sans Serif" font-weight="normal" text-anchor="start" style="mix-blend-mode: normal"><tspan x="0" dy="0">50</tspan></text><text transform="translate(207.78919,141.03493) scale(0.29194,0.29194)" font-size="40" xml:space="preserve" fill="#000000" fill-rule="nonzero" stroke="none" stroke-width="1" stroke-linecap="butt" stroke-linejoin="miter" stroke-miterlimit="10" stroke-dasharray="" stroke-dashoffset="0" font-family="Sans Serif" font-weight="normal" text-anchor="start" style="mix-blend-mode: normal"><tspan x="0" dy="0">Fish Pet Co,</tspan></text></g></g></svg>