<svg version="1.1" xmlns="http://www.w3.org/2000/svg" xmlns:xlink="http://www.w3.org/1999/xlink" width="703.93522" height="634.66483" viewBox="0,0,703.93522,634.66483"><g transform="translate(108.96762,135.83243)"><g data-paper-data="{&quot;isPaintingLayer&quot;:true}" fill-rule="nonzero" stroke="none" stroke-width="0" stroke-linecap="butt" stroke-linejoin="miter" stroke-miterlimit="10" stroke-dasharray="" stroke-dashoffset="0" style="mix-blend-mode: normal"><path d="M-61.98391,77.14454v-1.55062h4.65187v1.55062z" fill="#8cf7ff"/><path d="M-30.58377,378.47979v-396.95957h541.16754v396.95957z" fill="#8cf7ff"/><path d="M-42.29081,419.05508l184.99521,-469.60322l36.12332,14.2304l-184.99521,469.60322z" fill="#befbff"/><path d="M-108.96762,333.77079l184.99521,-469.60322l36.12332,14.2304l-184.99521,469.60322z" fill="#befbff"/><path d="M60.05033,439.21318l184.99521,-469.60322l36.12332,14.2304l-184.99521,469.60322z" fill="#befbff"/><path d="M169.4184,453.69078l184.99521,-469.60322l36.12332,14.2304l-184.99521,469.60322z" fill="#befbff"/><path d="M275.21665,451.6464l184.99521,-469.60322l36.12332,14.2304l-184.99521,469.60322z" fill="#befbff"/><path d="M373.84907,484.602l184.99521,-469.60322l36.12332,14.2304l-184.99521,469.60322z" fill="#befbff"/><path d="M49.66098,466.35099v-13.95561h24.80997v13.95561z" fill="#befbff"/></g></g></svg>