<svg version="1.1" xmlns="http://www.w3.org/2000/svg" xmlns:xlink="http://www.w3.org/1999/xlink" width="480" height="360" viewBox="0,0,480,360"><g data-paper-data="{&quot;isPaintingLayer&quot;:true}" fill-rule="nonzero" stroke="none" stroke-linecap="butt" stroke-linejoin="miter" stroke-miterlimit="10" stroke-dasharray="" stroke-dashoffset="0" style="mix-blend-mode: normal"><path d="M0,360v-360h480v360z" fill="#00b1f2" stroke-width="1"/><path d="M70.49999,104.21666c0,-27.06195 25.07205,-49 56,-49c30.92795,0 56,21.93805 56,49c0,27.06195 -25.07205,49 -56,49c-30.92795,0 -56,-21.93805 -56,-49z" fill="#000000" stroke-width="0"/><path d="M295.49999,104.21666c0,-27.06195 25.07205,-49 56,-49c30.92795,0 56,21.93805 56,49c0,27.06195 -25.07205,49 -56,49c-30.92795,0 -56,-21.93805 -56,-49z" fill="#000000" stroke-width="0"/><path d="M295.49999,254.21666c0,-27.06195 25.07205,-49 56,-49c30.92795,0 56,21.93805 56,49c0,27.06195 -25.07205,49 -56,49c-30.92795,0 -56,-21.93805 -56,-49z" fill="#000000" stroke-width="0"/><path d="M70.49999,254.21666c0,-27.06195 25.07205,-49 56,-49c30.92795,0 56,21.93805 56,49c0,27.06195 -25.07205,49 -56,49c-30.92795,0 -56,-21.93805 -56,-49z" fill="#000000" stroke-width="0"/></g></svg>