<svg version="1.1" xmlns="http://www.w3.org/2000/svg" xmlns:xlink="http://www.w3.org/1999/xlink" width="70.50089" height="101.31046" viewBox="0,0,70.50089,101.31046"><g transform="translate(-204.74957,-128.33553)"><g data-paper-data="{&quot;isPaintingLayer&quot;:true}" stroke="none" stroke-linecap="butt" stroke-linejoin="miter" stroke-miterlimit="10" stroke-dasharray="" stroke-dashoffset="0" style="mix-blend-mode: normal"><path d="M204.74958,229.50002v-99h70.50089v99z" fill="#986b3d" fill-rule="nonzero" stroke-width="NaN"/><path d="M207.33925,207.57223v-62.66667h65.97149v62.66667z" fill="#00ffea" fill-rule="nonzero" stroke-width="0"/><text transform="translate(226.83602,224.85212) scale(0.38351,0.38351)" font-size="40" xml:space="preserve" fill="#000000" fill-rule="nonzero" stroke="none" stroke-width="1" stroke-linecap="butt" stroke-linejoin="miter" stroke-miterlimit="10" stroke-dasharray="" stroke-dashoffset="0" font-family="Sans Serif" font-weight="normal" text-anchor="start" style="mix-blend-mode: normal"><tspan x="0" dy="0">150</tspan></text><text transform="translate(207.7892,141.03492) scale(0.29194,0.29194)" font-size="40" xml:space="preserve" fill="#000000" fill-rule="nonzero" stroke="none" stroke-width="1" stroke-linecap="butt" stroke-linejoin="miter" stroke-miterlimit="10" stroke-dasharray="" stroke-dashoffset="0" font-family="Sans Serif" font-weight="normal" text-anchor="start" style="mix-blend-mode: normal"><tspan x="0" dy="0">Fish Pet Co,</tspan></text><g stroke-width="1"><g fill-rule="nonzero"><path d="M256.06927,169.97826h-1.88721c-0.39046,-0.19523 -0.84599,-0.32538 -1.56183,-0.32538c-0.84599,0 -1.23645,0.13015 -1.69198,0.32538l-3.44904,0.06508c-0.39046,-0.19523 -0.84599,-0.32538 -1.69198,-0.32538c-0.84599,0 -1.23645,0.13015 -1.69198,0.32538l-3.44904,0.06508c-0.39046,-0.19523 -0.84599,-0.32538 -1.69198,-0.32538c-0.84599,0 -1.23645,0.13015 -1.69198,0.32538l-3.44904,0.06508c-0.39046,-0.19523 -0.84599,-0.32538 -1.69198,-0.32538c-0.84599,0 -1.23645,0.13015 -1.69198,0.32538l-3.31889,0.06508c-0.52061,-0.2603 -0.91107,-0.45553 -1.88721,-0.32538c-0.58569,0.06508 -0.97614,0.19523 -1.30152,0.32538h-2.08244c-0.06508,-0.06508 -0.06508,-0.06508 -0.13015,-0.13015c0,-0.45553 0.13015,-1.1063 0.19523,-1.62691c0.06508,-0.52061 -0.39046,-1.30152 -0.19523,-1.88721c0.19523,-0.58569 0.97614,-0.84599 1.30152,-1.43168c0.2603,-0.52061 0.06508,-1.3666 0.39046,-1.88721c0.32538,-0.45553 1.17137,-0.58569 1.56183,-1.1063c0.39046,-0.45553 0.2603,-1.3666 0.65076,-1.82213c0.39046,-0.45553 1.30152,-0.45553 1.69198,-0.91107c0.45553,-0.45553 0.45553,-1.3666 0.84599,-1.75706c0.45553,-0.45553 1.3666,-0.39046 1.75706,-0.71584c0.58569,-0.52061 0.84599,-1.43168 1.17137,-1.56183c0.52061,-0.19523 1.23645,0.19523 1.82213,0c0.52061,-0.19523 0.84599,-0.97614 1.43168,-1.1063c0.52061,-0.13015 1.23645,0.32538 1.82213,0.19523c0.58569,-0.13015 0.97614,-0.84599 1.56183,-0.97614c0.58569,-0.13015 1.23645,0.39046 1.82213,0.32538c0.58569,-0.06508 1.04122,-0.78091 1.62691,-0.84599c0.58569,-0.06508 1.17137,0.58569 1.75706,0.52061c0.58569,-0.06508 1.17137,-0.71584 1.69198,-0.71584c0.58569,0 1.17137,0.65076 1.69198,0.71584c0.58569,0.06508 1.23645,-0.52061 1.75706,-0.39046c0.65076,0.13015 1.1063,0.97614 1.82213,1.30152c0.58569,0.2603 1.49675,0.06508 2.14752,0.52061c0.58569,0.39046 0.78091,1.30152 1.30152,1.82213c0.52061,0.52061 1.49675,0.58569 1.95229,1.1063c0.45553,0.52061 0.39046,1.49675 0.78091,2.08244c0.39046,0.58569 1.30152,0.97614 1.56183,1.62691c0.2603,0.65076 -0.13015,1.49675 -0.06508,2.21259c0.06508,0.71584 0.71584,1.43168 0.58569,2.14752c-0.13015,0.71584 -0.91107,1.17137 -1.23645,1.88721c-0.19523,0.45553 -0.2603,1.1063 -0.45553,1.62691c-0.13015,0.13015 -0.2603,0.2603 -0.39046,0.52061z" fill="#cec800"/><path d="M256.00419,167.57044c0.13015,0.13015 0.32538,0.2603 0.52061,0.39046c-0.13015,0.39046 -0.19523,0.84599 -0.32538,1.30152c-0.13015,0.13015 -0.2603,0.2603 -0.39046,0.39046h-1.88721c-0.39046,-0.19523 -0.84599,-0.32538 -1.56183,-0.32538c-0.84599,0 -1.23645,0.13015 -1.69198,0.32538l-3.44904,0.06508c-0.39046,-0.19523 -0.84599,-0.32538 -1.69198,-0.32538c-0.84599,0 -1.23645,0.13015 -1.69198,0.32538l-3.44904,0.06508c-0.39046,-0.19523 -0.84599,-0.32538 -1.69198,-0.32538c-0.84599,0 -1.23645,0.13015 -1.69198,0.32538l-3.44904,0.06508c-0.39046,-0.19523 -0.84599,-0.32538 -1.69198,-0.32538c-0.84599,0 -1.23645,0.13015 -1.69198,0.32538l-3.31889,0.06508c-0.52061,-0.2603 -0.91107,-0.45553 -1.88721,-0.32538c-0.58569,0.06508 -0.97614,0.19523 -1.30152,0.32538h-1.95229c0.45553,-0.65076 0.97614,-1.3666 1.17137,-1.56183c-0.45553,-0.39046 -0.91107,-0.84599 -1.43168,-1.17137c-0.13015,-0.32538 -0.13015,-0.58569 -0.06508,-0.91107c0.71584,0.45553 1.43168,0.97614 2.01736,1.56183c0.65076,-0.58569 1.30152,-1.1063 1.95229,-1.56183c-0.58569,-1.17137 -1.3666,-2.27767 -2.40782,-2.99351c0,-0.13015 0.06508,-0.19523 0.13015,-0.32538c0.06508,-0.13015 0.19523,-0.2603 0.32538,-0.32538c1.17137,0.78091 1.95229,1.95229 2.60305,3.25381c0.71584,-0.39046 1.43168,-0.71584 2.14752,-0.97614c-0.78091,-1.56183 -1.82213,-3.25381 -3.12366,-4.42518c0,-0.19523 0.06508,-0.32538 0.19523,-0.45553c0.06508,-0.06508 0.19523,-0.13015 0.2603,-0.19523c1.23645,1.1063 2.21259,2.66813 2.99351,4.0998c0.13015,0.2603 0.2603,0.52061 0.39046,0.78091c0.58569,-0.19523 1.17137,-0.32538 1.75706,-0.45553c-0.65076,-2.40782 -1.62691,-4.68549 -3.05858,-6.5727c0.06508,-0.06508 0.13015,-0.19523 0.19523,-0.2603c0.13015,-0.13015 0.2603,-0.19523 0.39046,-0.2603c1.56183,2.01736 2.60305,4.42518 3.25381,6.96316c0.52061,-0.06508 0.97614,-0.13015 1.49675,-0.19523c-0.06508,-0.19523 -0.06508,-0.39046 -0.13015,-0.58569c-0.39046,-2.27767 -0.97614,-5.4664 -2.34274,-7.80915c0.06508,-0.19523 0.19523,-0.32538 0.32538,-0.39046c0.06508,-0.06508 0.19523,-0.06508 0.2603,-0.06508c1.04122,1.88721 1.62691,4.0998 2.08244,5.92194c0.2603,0.97614 0.45553,1.88721 0.58569,2.86335c0.39046,-0.06508 0.71584,-0.06508 1.1063,-0.13015c0.32538,0 0.65076,-0.06508 0.97614,-0.06508c-0.32538,-3.12366 -1.1063,-6.11717 -2.40782,-9.0456c0.19523,-0.2603 0.39046,-0.45553 0.65076,-0.52061c1.3666,3.05858 2.21259,6.24732 2.53797,9.50113c0.71584,-0.06508 1.3666,-0.13015 2.01736,-0.13015c0.06508,-2.21259 -0.13015,-4.42518 -0.52061,-6.5727c-0.19523,-1.17137 -0.65076,-2.21259 -1.1063,-3.31889c0.13015,-0.13015 0.32538,-0.19523 0.52061,-0.2603c0.06508,0 0.06508,0 0.13015,0c0.52061,1.49675 1.1063,2.99351 1.3666,4.62041c0.2603,1.82213 0.39046,3.70935 0.39046,5.53148c0.65076,0 1.23645,0 1.82213,0c0.06508,-0.97614 0.13015,-1.95229 0.13015,-2.92843c0.06508,-2.14752 0.13015,-5.2061 -0.91107,-7.48377c0.19523,-0.06508 0.32538,-0.19523 0.52061,-0.19523c0.06508,0 0.19523,0 0.2603,0c0.71584,1.75706 0.91107,3.90457 0.97614,5.72671c0.06508,1.62691 0,3.31889 -0.13015,4.94579c0.71584,0.06508 1.3666,0.13015 2.08244,0.19523c0.52061,-3.57919 0.2603,-7.41869 0,-10.99789c0.13015,-0.06508 0.19523,-0.06508 0.32538,-0.06508c0.19523,0 0.39046,0.06508 0.52061,0.13015c0.2603,3.57919 0.45553,7.41869 -0.06508,11.06296c0.45553,0.06508 0.84599,0.13015 1.23645,0.19523c0.13015,-0.2603 0.19523,-0.58569 0.2603,-0.84599c0.84599,-3.05858 1.88721,-6.96316 1.23645,-10.21697c0.13015,0 0.2603,0 0.39046,0c0.13015,0.06508 0.32538,0.13015 0.45553,0.2603c0.45553,3.12366 -0.39046,6.63778 -1.1063,9.50113c-0.13015,0.52061 -0.2603,1.04122 -0.39046,1.56183c0.52061,0.13015 1.04122,0.2603 1.56183,0.39046c1.43168,-3.12366 2.4729,-6.44255 3.05858,-9.95667c0.13015,0.06508 0.19523,0.13015 0.32538,0.19523c0.19523,0.13015 0.2603,0.2603 0.39046,0.39046c-0.58569,3.38396 -1.56183,6.5727 -2.99351,9.63128c0.65076,0.19523 1.23645,0.39046 1.88721,0.58569c1.62691,-2.53797 2.92843,-5.2061 3.64427,-8.00438c0.13015,0.13015 0.2603,0.19523 0.39046,0.32538c0.13015,0.06508 0.19523,0.2603 0.2603,0.39046c-0.71584,2.66813 -2.01736,5.14102 -3.51412,7.54884c0.13015,0.06508 0.2603,0.06508 0.39046,0.13015c0.45553,0.19523 0.84599,0.32538 1.23645,0.52061c1.43168,-1.62691 2.60305,-3.44904 3.57919,-5.40133c0.19523,0.13015 0.32538,0.32538 0.39046,0.52061c0.06508,0.06508 0.06508,0.19523 0.06508,0.32538c-0.84599,1.69198 -1.95229,3.38396 -3.25381,4.81564c0.39046,0.19523 0.78091,0.39046 1.17137,0.58569c0.84599,-0.78091 1.62691,-1.62691 2.27767,-2.53797c0.13015,0.32538 0.2603,0.65076 0.2603,0.97614c-0.58569,0.71584 -1.17137,1.3666 -2.08244,1.82213z" fill="#fbdf00"/></g><g fill-rule="nonzero"><path d="M220.27733,181.88721c-1.95229,0.13015 -4.29503,1.95229 -5.98701,2.86335c-1.88721,1.04122 -3.51412,1.62691 -5.53148,2.14752c-0.65076,-2.60305 3.90457,-8.00438 3.90457,-8.00438c0,0 -4.03473,-8.26468 -0.91107,-10.21697c1.56183,0.97614 2.86335,2.60305 4.42518,3.64427c1.49675,0.97614 3.38396,1.56183 4.68549,2.53797z" fill="#cec800"/><path d="M221.64393,175.57482l-0.32538,3.12366l-0.19523,1.95229l-0.84599,0.39046c-1.43168,0.71584 -2.92843,1.30152 -4.42518,1.82213c-2.34274,0.84599 -4.62041,1.88721 -7.02823,2.53797c0.13015,-0.2603 0.19523,-0.58569 0.32538,-0.91107c2.01736,-0.58569 3.90457,-1.43168 5.85686,-2.08244c1.82213,-0.65076 3.70935,-1.62691 5.4664,-2.7332l-0.06508,-0.52061c-3.05858,1.62691 -6.44255,2.40782 -9.89159,2.60305c0.19523,-0.32538 0.39046,-0.58569 0.58569,-0.84599c3.25381,-0.32538 6.50762,-1.04122 9.37098,-2.7332c0.06508,0 0.06508,0 0.06508,0v-0.13015c-2.4729,0.32538 -4.94579,0.78091 -7.54884,0.71584c-0.13015,0 -0.32538,0 -0.45553,0c-0.06508,-0.13015 -0.19523,-0.39046 -0.32538,-0.71584c0.84599,0 1.56183,-0.06508 2.14752,-0.06508c2.14752,0 4.22996,-0.45553 6.3124,-0.71584l0.06508,-0.45553c-3.12366,0.52061 -6.44255,-0.19523 -9.43606,-1.30152c-0.06508,-0.32538 -0.19523,-0.65076 -0.2603,-0.97614c3.05858,1.17137 6.5727,2.01736 9.76144,1.43168v-0.06508c-2.79828,-0.52061 -7.48377,-2.21259 -10.21697,-4.75057c0,-0.32538 0.06508,-0.65076 0.13015,-0.97614c2.4729,2.4729 7.15839,3.8395 10.15189,5.14102z" fill="#fbdf00"/></g><g fill-rule="nonzero"><path d="M222.2947,187.09331c0.78091,0.58569 0.39046,1.1063 1.17137,1.75706c0.78091,0.65076 1.17137,0.13015 1.95229,0.78091c0.78091,0.65076 0.39046,1.1063 1.17137,1.75706c0.78091,0.58569 1.1063,0.13015 1.95229,0.71584c0.84599,0.39046 1.69198,1.30152 2.92843,1.69198c1.04122,0.2603 2.34274,0 3.44904,0.32538c1.1063,0.32538 2.01736,1.23645 3.05858,1.62691c1.1063,0.39046 2.40782,0.19523 3.38396,0.65076c1.23645,0.58569 1.62691,0.91107 2.27767,1.62691c0,0.65076 0.52061,1.95229 0.19523,2.53797c-0.2603,0.52061 -1.17137,0.65076 -1.62691,1.17137c-0.39046,0.45553 -0.45553,1.3666 -0.97614,1.75706c-0.52061,0.45553 -1.43168,0.19523 -1.95229,0.45553c-0.65076,0.2603 -1.17137,1.04122 -1.69198,1.04122c-0.65076,-0.06508 -1.3666,-0.71584 -2.21259,-0.84599c-0.71584,-0.06508 -1.56183,0.45553 -2.34274,0.2603c-0.71584,-0.13015 -1.30152,-0.97614 -2.01736,-1.17137c-0.71584,-0.19523 -1.62691,0.13015 -2.34274,-0.13015c-0.71584,-0.32538 -1.1063,-1.17137 -1.75706,-1.56183c-0.65076,-0.39046 -1.62691,-0.32538 -2.21259,-0.78091c-0.58569,-0.52061 -0.65076,-1.49675 -1.17137,-2.08244c-0.52061,-0.58569 -1.49675,-0.78091 -1.88721,-1.43168c-0.39046,-0.58569 -0.2603,-1.62691 -0.58569,-2.27767c-0.32538,-0.71584 -1.23645,-1.1063 -1.49675,-1.82213c-0.19523,-0.58569 0.19523,-1.3666 0,-1.88721c-0.19523,-0.58569 -0.97614,-0.97614 -1.1063,-1.49675c-0.13015,-0.65076 0.39046,-1.30152 0.39046,-1.82213c0,-0.71584 -0.39046,-1.49675 0.06508,-1.82213c0.32538,-0.2603 0.91107,0.13015 1.69198,0.19523c0.91107,0.52061 1.1063,0.13015 1.69198,0.78091z" fill="#cec800"/><path d="M220.40748,186.76793c0.06508,0.06508 0.19523,0.06508 0.2603,0.06508c0.06508,0.06508 0.19523,0.06508 0.2603,0.13015h0.06508c0.06508,0 0.13015,0.06508 0.19523,0.06508c0.06508,0 0.06508,0 0.06508,0c0.39046,0.13015 0.65076,0.06508 0.97614,0.2603c0.13015,0 0.2603,0.06508 0.39046,0.19523c0.19523,0.13015 0.32538,0.2603 0.39046,0.39046c0,0.06508 0.06508,0.06508 0.06508,0.13015c0.19523,0.2603 0.19523,0.52061 0.39046,0.84599v0c0,0.06508 0.06508,0.06508 0.06508,0.13015v0l0.06508,0.06508v0c0,0.06508 0.06508,0.06508 0.13015,0.13015c0.45553,0.32538 0.78091,0.32538 1.1063,0.39046c0.06508,0 0.13015,0 0.19523,0v0c0.06508,0 0.13015,0.06508 0.19523,0.06508c0.06508,0 0.06508,0 0.06508,0c0.06508,0 0.13015,0 0.19523,0.06508v0c0.13015,0 0.19523,0.06508 0.2603,0.13015c0.78091,0.65076 0.39046,1.1063 1.17137,1.75706c0.06508,0.06508 0.06508,0.06508 0.06508,0.06508c0.2603,0.19523 0.52061,0.2603 0.71584,0.32538v0c0.13015,0 0.32538,0.06508 0.45553,0.06508h0.06508h0.06508h0.06508h0.06508c0,0.06508 0.06508,0.06508 0.06508,0.06508h0.06508c0.06508,0 0.06508,0.06508 0.13015,0.06508h0.06508c0.06508,0.06508 0.13015,0.06508 0.19523,0.13015c0.13015,0.06508 0.2603,0.13015 0.39046,0.19523l0.06508,0.06508c0.06508,0.13015 0.19523,0.19523 0.32538,0.2603c0.32538,0.19523 0.65076,0.45553 0.97614,0.65076c0.06508,0 0.06508,0.06508 0.13015,0.06508c0.13015,0.06508 0.19523,0.06508 0.2603,0.13015c0.06508,0.06508 0.13015,0.06508 0.19523,0.13015c0.06508,0 0.13015,0.06508 0.19523,0.06508c0.19523,0.06508 0.32538,0.06508 0.45553,0.13015c0.13015,0 0.2603,0.06508 0.39046,0.06508c0.06508,0 0.13015,0 0.19523,0c0.06508,0 0.19523,0 0.2603,0c0.13015,0 0.19523,0 0.2603,0c0.06508,0 0.13015,0 0.19523,0c0.45553,0.06508 0.84599,0.06508 1.30152,0.06508c0.13015,0 0.2603,0.06508 0.39046,0.06508h0.06508c0.13015,0.06508 0.32538,0.06508 0.45553,0.13015c1.1063,0.32538 2.01736,1.23645 3.05858,1.62691c0.13015,0.06508 0.2603,0.13015 0.39046,0.13015c0.06508,0 0.06508,0 0.13015,0c0.13015,0 0.19523,0.06508 0.32538,0.06508h0.06508c0.65076,0.06508 1.23645,0.06508 1.82213,0.19523c0.19523,0 0.45553,0.06508 0.65076,0.19523c0.2603,0.06508 0.39046,0.19523 0.58569,0.2603c0.39046,0.19523 0.65076,0.39046 0.91107,0.58569v0c0,0.06508 0.06508,0.06508 0.13015,0.13015l0.06508,0.06508c0.06508,0.06508 0.06508,0.06508 0.13015,0.13015c0.06508,0.06508 0.06508,0.06508 0.13015,0.13015c0,0 0.06508,0 0.06508,0.06508c0.06508,0.06508 0.13015,0.13015 0.19523,0.19523c0,0.06508 0,0.19523 0,0.2603v0.06508c0.06508,0.39046 0.19523,0.97614 0.2603,1.49675c-0.13015,0 -0.32538,0 -0.45553,0c0.06508,0.2603 0.19523,0.58569 0.2603,0.84599c-0.19523,0.19523 -0.45553,0.32538 -0.71584,0.45553c-0.13015,-0.45553 -0.32538,-0.91107 -0.45553,-1.3666c-0.45553,0 -0.91107,-0.06508 -1.3666,-0.06508c0.06508,1.1063 0.19523,2.27767 0.2603,3.38396c-0.13015,0.13015 -0.19523,0.2603 -0.32538,0.32538c-0.13015,0.06508 -0.2603,0.13015 -0.45553,0.19523c-0.06508,-1.30152 -0.19523,-2.66813 -0.32538,-3.96965c-0.65076,-0.06508 -1.23645,-0.13015 -1.88721,-0.19523c-0.13015,1.75706 -0.2603,3.57919 -0.71584,5.33625c-0.13015,0 -0.19523,0.06508 -0.32538,0.06508c-0.13015,0 -0.32538,-0.06508 -0.45553,-0.13015c0.06508,-0.45553 0.19523,-0.91107 0.2603,-1.30152c0.32538,-1.3666 0.39046,-2.79828 0.45553,-4.16488c-0.58569,-0.13015 -1.17137,-0.19523 -1.75706,-0.32538c-0.58569,1.82213 -1.3666,3.64427 -2.34274,5.27118c-0.19523,0.06508 -0.45553,0.06508 -0.71584,0c-0.06508,0 -0.13015,-0.06508 -0.19523,-0.06508c1.04122,-1.69198 1.88721,-3.51412 2.40782,-5.40133c-1.04122,-0.19523 -2.08244,-0.45553 -3.05858,-0.78091c-0.91107,1.75706 -1.88721,3.38396 -3.05858,5.01087c-0.19523,0 -0.39046,-0.06508 -0.58569,-0.13015c-0.13015,-0.06508 -0.19523,-0.06508 -0.2603,-0.13015c1.17137,-1.56183 2.21259,-3.25381 3.12366,-5.01087c-0.84599,-0.32538 -1.69198,-0.65076 -2.4729,-0.97614c-0.2603,-0.13015 -0.45553,-0.19523 -0.65076,-0.32538c-0.32538,0.52061 -0.65076,1.04122 -1.04122,1.49675c-0.78091,0.97614 -1.62691,1.82213 -2.60305,2.66813c-0.06508,0 -0.06508,0 -0.13015,-0.06508c-0.19523,-0.13015 -0.2603,-0.32538 -0.39046,-0.52061c1.17137,-1.04122 2.27767,-2.14752 3.12366,-3.38396c0.13015,-0.13015 0.19523,-0.32538 0.32538,-0.52061c-0.91107,-0.52061 -1.75706,-1.04122 -2.4729,-1.62691c-0.97614,1.1063 -2.14752,2.14752 -3.38396,2.92843c-0.13015,-0.06508 -0.2603,-0.19523 -0.32538,-0.32538c-0.06508,-0.06508 -0.06508,-0.19523 -0.13015,-0.32538c1.17137,-0.78091 2.27767,-1.75706 3.25381,-2.79828c-0.91107,-0.71584 -1.62691,-1.56183 -2.27767,-2.40782c-0.13015,0.13015 -0.32538,0.2603 -0.45553,0.39046c-0.71584,0.58569 -1.43168,1.04122 -2.21259,1.43168c-0.13015,-0.13015 -0.19523,-0.2603 -0.2603,-0.39046c-0.06508,-0.13015 -0.06508,-0.19523 -0.06508,-0.32538c0.65076,-0.39046 1.30152,-0.78091 1.95229,-1.30152c0.19523,-0.13015 0.39046,-0.2603 0.58569,-0.45553c-0.39046,-0.52061 -0.71584,-1.1063 -1.04122,-1.62691c-0.78091,0.32538 -1.56183,0.58569 -2.40782,0.78091c-0.06508,-0.13015 -0.13015,-0.2603 -0.19523,-0.39046c0,-0.13015 0,-0.2603 0,-0.39046c0.78091,-0.19523 1.56183,-0.45553 2.27767,-0.71584c-0.19523,-0.39046 -0.39046,-0.71584 -0.52061,-1.1063c-0.45553,-0.06508 -0.97614,-0.19523 -1.43168,-0.39046c0,-0.32538 -0.06508,-0.65076 0.06508,-0.84599c0.32538,0.19523 0.71584,0.32538 1.1063,0.39046c-0.06508,-0.13015 -0.13015,-0.32538 -0.19523,-0.52061v0c0.06508,0 0.19523,0.06508 0.32538,0.06508c0.06508,0 0.06508,0 0.06508,0c0.06508,0.06508 0.13015,0.06508 0.19523,0.06508c0.06508,0 0.06508,0 0.13015,0.52061z" fill="#fbdf00"/></g><g><path d="M250.66794,197.57059c-0.06508,3.31889 -0.58569,6.89808 -3.44904,9.76144c-1.30152,-2.08244 -0.52061,-2.66813 -0.52061,-4.36011c-0.06508,-1.17137 -0.2603,-2.66813 0.58569,-3.64427c0.39046,-0.45553 0.91107,-0.45553 1.1063,-1.17137z" fill="#d8d213" fill-rule="nonzero"/><path d="M250.66794,197.57059c-0.06508,3.31889 -0.58569,6.89808 -3.44904,9.76144c-1.30152,-2.08244 -0.52061,-2.66813 -0.52061,-4.36011c-0.06508,-1.17137 -0.2603,-2.66813 0.58569,-3.64427c0.39046,-0.45553 2.7332,-1.49675 2.7332,-1.49675z" fill="none" fill-rule="evenodd"/><path d="M250.60286,197.50551c0,0.19523 0,0.32538 0,0.52061c-0.71584,2.14752 -1.30152,4.29503 -2.66813,6.18224c-0.45553,0.58569 -0.84599,1.23645 -1.3666,1.82213c-0.13015,-0.39046 -0.13015,-0.71584 -0.13015,-1.04122c0.52061,-0.65076 0.91107,-1.30152 1.30152,-1.88721c0.65076,-1.04122 1.1063,-2.21259 1.49675,-3.38396c-0.71584,0.84599 -1.62691,1.62691 -2.60305,2.27767c0,-0.32538 0,-0.65076 0,-0.97614c1.1063,-0.84599 2.14752,-1.82213 2.86335,-2.92843c0.32538,-0.19523 0.52061,-0.2603 0.52061,-0.2603z" fill="#fbdf00" fill-rule="nonzero"/></g></g><g fill-rule="nonzero" stroke-width="1"><g fill="#fbdf00"><path d="M271.16696,186.70285c-1.1063,1.69198 -2.92843,2.4729 -6.44255,1.56183c0,2.01736 3.90457,1.82213 4.68549,1.49675c-0.13015,3.05858 -5.59656,3.77442 -7.28854,4.16488c-6.18224,1.43168 -8.39484,4.81564 -13.86124,5.59656c-6.11717,0.84599 -13.47078,-0.06508 -19.06734,-2.53797c-5.92194,-2.66813 -8.65514,-7.74407 -9.56621,-11.06296c-1.23645,-3.44904 -2.79828,-2.60305 -4.29503,-1.62691c-0.84599,-1.17137 1.69198,-3.70935 1.75706,-6.37747c0.06508,-2.7332 -0.52061,-5.27118 -0.52061,-5.27118c2.08244,1.04122 3.31889,0.58569 3.8395,-0.19523c0.52061,-0.71584 0.71584,-1.43168 1.23645,-2.08244c3.8395,-5.14102 8.26468,-5.85686 13.27555,-6.37747c6.11717,-0.65076 11.58357,-0.2603 17.37536,2.01736c2.79828,1.1063 4.81564,1.95229 6.63778,4.55534c1.82213,2.53797 2.66813,4.0998 4.29503,6.70285c1.49675,2.40782 4.03473,4.68549 5.98701,6.63778c0.78091,0.71584 2.60305,1.69198 1.95229,2.79828z"/></g><g><path d="M254.89789,182.27767c-1.95229,-0.13015 -3.8395,-0.71584 -5.33625,-2.01736c-0.45553,-0.39046 -1.82213,-1.56183 -1.82213,-2.27767c0,-0.58569 0.84599,-1.17137 1.23645,-1.49675c1.62691,-1.30152 3.8395,-1.82213 5.92194,-1.75706c1.95229,0 5.98701,1.56183 6.18224,4.03473c0.2603,2.86335 -4.36011,3.38396 -6.18224,3.51412zM260.3643,178.82863c0,-0.2603 -0.91107,-1.30152 -1.23645,-1.62691c-1.3666,-1.30152 -3.12366,-1.75706 -4.94579,-1.69198c-1.69198,0.06508 -3.44904,0.52061 -4.81564,1.56183c-0.32538,0.19523 -0.58569,0.45553 -0.84599,0.78091c-0.06508,0.06508 -0.06508,0.06508 -0.06508,0.06508c0.71584,2.34274 4.49026,3.51412 6.44255,3.57919c1.49675,-0.06508 5.72671,-0.58569 5.4664,-2.66813z" fill="#cec800"/><path d="M257.6311,173.62253c-2.40782,-1.3666 -5.53148,-1.04122 -7.87423,0.2603c-0.45553,0.19523 -0.78091,-0.45553 -0.39046,-0.65076c2.60305,-1.43168 5.98701,-1.69198 8.65514,-0.2603c0.39046,0.2603 0.06508,0.84599 -0.39046,0.65076z" fill="#cec800"/><path d="M250.47271,178.04771c0,0 1.04122,-1.69198 4.22996,-1.69198c2.53797,0 3.57919,2.21259 3.57919,2.21259c0,0 0,1.95229 -3.57919,1.95229c-2.99351,0 -4.22996,-2.4729 -4.22996,-2.4729z" fill="#ffffff"/><path d="M258.34694,178.6334c0,0 -0.06508,1.88721 -3.44904,1.95229c-0.45553,-0.39046 -0.71584,-0.78091 -0.91107,-1.30152c0.45553,-0.13015 0.78091,-0.52061 0.78091,-0.97614c0,-0.52061 -0.32538,-0.91107 -0.78091,-0.97614c0.13015,-0.39046 0.32538,-0.71584 0.58569,-0.97614c0.06508,0 0.06508,0 0.13015,0c2.60305,0 3.64427,2.27767 3.64427,2.27767z" fill="#748706"/><path d="M258.34694,178.6334c0,0 0,1.23645 -1.82213,1.75706c-0.78091,-0.39046 -1.30152,-1.1063 -1.30152,-2.01736c0,-0.71584 0.32538,-1.3666 0.84599,-1.75706c1.56183,0.58569 2.27767,2.01736 2.27767,2.01736z" fill="#302f38"/></g><path d="M238.56376,186.96316c-4.0998,3.64427 -13.27555,-0.97614 -15.09769,-5.33625c-1.30152,-3.18874 1.56183,-4.88072 4.16488,-5.79179c1.75706,-0.58569 3.38396,-0.84599 5.14102,-0.13015c2.21259,0.84599 4.03473,2.60305 6.24732,3.57919c0.19523,0.06508 0.19523,0.19523 0.19523,0.32538c0,1.49675 0,2.92843 0,4.42518c0,1.17137 0.2603,2.08244 -0.65076,2.92843zM229.06262,176.09543c2.86335,1.30152 5.79179,2.4729 8.85037,3.38396c-1.95229,-1.04122 -3.70935,-2.66813 -5.85686,-3.31889c-0.97614,-0.32538 -1.95229,-0.2603 -2.99351,-0.06508zM238.49868,180.45553v-0.06508c-3.64427,-1.04122 -7.15839,-2.40782 -10.54235,-4.03473c-0.91107,0.32538 -1.75706,0.71584 -2.53797,1.23645c4.22996,1.75706 8.59006,2.66813 13.08033,2.86335zM223.9216,180.39046c2.79828,0.78091 5.79179,1.04122 8.52499,1.3666c1.49675,0.19523 3.18874,0.13015 4.81564,0.06508c-4.36011,-0.45553 -8.52499,-1.82213 -12.55972,-3.70935c-0.78091,0.78091 -0.97614,1.56183 -0.78091,2.27767zM226.52465,184.0998c2.14752,0.06508 4.36011,-0.06508 6.37747,-0.19523c1.88721,-0.19523 3.77442,-0.45553 5.59656,-0.91107v-0.06508c-2.27767,0 -4.62041,-0.13015 -6.89808,-0.45553c-2.40782,-0.32538 -5.01087,-0.58569 -7.48377,-1.17137c0.45553,0.97614 1.3666,1.95229 2.40782,2.79828zM228.73724,185.53148c0.65076,0.39046 1.43168,0.71584 2.14752,0.97614c2.66813,-0.65076 5.2061,-1.56183 7.679,-2.7332c0,0 0,-0.06508 0,-0.13015c-1.62691,0.39046 -3.25381,0.65076 -4.94579,0.84599c-1.95229,0.19523 -4.03473,0.32538 -6.11717,0.32538c0.45553,0.32538 0.84599,0.58569 1.23645,0.71584zM238.56376,184.62041c-2.08244,0.97614 -4.16488,1.75706 -6.37747,2.34274c0.71584,0.13015 1.3666,0.2603 2.01736,0.32538c1.17137,0.13015 3.57919,0 4.22996,-1.23645c0.19523,-0.32538 0.19523,-0.84599 0.13015,-1.43168z" fill="#cec800"/></g></g></g></svg>